<svg width="24.000000" height="24.000000" viewBox="0 0 24 24" fill="none" xmlns="http://www.w3.org/2000/svg" xmlns:xlink="http://www.w3.org/1999/xlink">
	<desc>
			Created with Pixso.
	</desc>
	<defs>
		<clipPath id="clip201_5111">
			<rect id="system-uicons:calendar-month" width="24.000000" height="24.000000" fill="white" fill-opacity="0"/>
		</clipPath>
	</defs>
	<rect id="system-uicons:calendar-month" width="24.000000" height="24.000000" fill="#FFFFFF" fill-opacity="0"/>
	<g clip-path="url(#clip201_5111)">
		<path id="Vector" d="M18.8574 2.85718C19.4639 2.85718 20.0449 3.09802 20.4736 3.52667C20.9023 3.95532 21.1436 4.53668 21.1436 5.14288L21.1436 18.8572C21.1436 19.4634 20.9023 20.0447 20.4736 20.4734C20.0449 20.9021 19.4639 21.1429 18.8574 21.1429L5.14355 21.1429C4.53711 21.1429 3.95508 20.9021 3.52734 20.4734C3.09863 20.0447 2.85742 19.4634 2.85742 18.8572L2.85742 5.14288C2.85742 4.53668 3.09863 3.95532 3.52734 3.52667C3.95508 3.09802 4.53711 2.85718 5.14355 2.85718L18.8574 2.85718ZM2.85742 7.42859L21.1436 7.42859" stroke="#FA8B02" stroke-opacity="1.000000" stroke-width="1.500000" stroke-linejoin="round" stroke-linecap="round"/>
		<path id="Vector" d="M13.1436 12.0001C13.1436 12.6312 12.6318 13.1429 12 13.1429C11.3691 13.1429 10.8574 12.6312 10.8574 12.0001C10.8574 11.3688 11.3691 10.8572 12 10.8572C12.6318 10.8572 13.1436 11.3688 13.1436 12.0001Z" fill="#FA8B02" fill-opacity="1.000000" fill-rule="evenodd"/>
		<path id="Vector" d="M8.57227 12.0001C8.57227 12.6312 8.06055 13.1429 7.42871 13.1429C6.79785 13.1429 6.28613 12.6312 6.28613 12.0001C6.28613 11.3688 6.79785 10.8572 7.42871 10.8572C8.06055 10.8572 8.57227 11.3688 8.57227 12.0001Z" fill="#FA8B02" fill-opacity="1.000000" fill-rule="evenodd"/>
		<path id="Vector" d="M17.7148 12.0001C17.7148 12.6312 17.2031 13.1429 16.5713 13.1429C15.9404 13.1429 15.4287 12.6312 15.4287 12.0001C15.4287 11.3688 15.9404 10.8572 16.5713 10.8572C17.2031 10.8572 17.7148 11.3688 17.7148 12.0001Z" fill="#FA8B02" fill-opacity="1.000000" fill-rule="evenodd"/>
		<path id="Vector" d="M13.1436 16.5715C13.1436 17.2026 12.6318 17.7143 12 17.7143C11.3691 17.7143 10.8574 17.2026 10.8574 16.5715C10.8574 15.9402 11.3691 15.4286 12 15.4286C12.6318 15.4286 13.1436 15.9402 13.1436 16.5715Z" fill="#FA8B02" fill-opacity="1.000000" fill-rule="evenodd"/>
		<path id="Vector" d="M8.57227 16.5715C8.57227 17.2026 8.06055 17.7143 7.42871 17.7143C6.79785 17.7143 6.28613 17.2026 6.28613 16.5715C6.28613 15.9402 6.79785 15.4286 7.42871 15.4286C8.06055 15.4286 8.57227 15.9402 8.57227 16.5715Z" fill="#FA8B02" fill-opacity="1.000000" fill-rule="evenodd"/>
		<path id="Vector" d="M17.7148 16.5715C17.7148 17.2026 17.2031 17.7143 16.5713 17.7143C15.9404 17.7143 15.4287 17.2026 15.4287 16.5715C15.4287 15.9402 15.9404 15.4286 16.5713 15.4286C17.2031 15.4286 17.7148 15.9402 17.7148 16.5715Z" fill="#FA8B02" fill-opacity="1.000000" fill-rule="evenodd"/>
	</g>
</svg>
