<svg width="24.000000" height="24.000000" viewBox="0 0 24 24" fill="none" xmlns="http://www.w3.org/2000/svg" xmlns:xlink="http://www.w3.org/1999/xlink">
	<desc>
			Created with Pixso.
	</desc>
	<defs>
		<clipPath id="clip201_5141">
			<rect id="icon_duration" width="24.000000" height="24.000000" fill="white" fill-opacity="0"/>
		</clipPath>
	</defs>
	<rect id="icon_duration" width="24.000000" height="24.000000" fill="#FFFFFF" fill-opacity="0"/>
	<g clip-path="url(#clip201_5141)">
		<path id="Vector" d="M11.9785 23.9971L2.93262 23.9971C2.79004 24.0026 2.64648 24.0003 2.50391 23.9905C2.28906 23.9734 2.08789 23.8757 1.94141 23.7167C1.79492 23.5579 1.71387 23.3495 1.71484 23.1335C1.71582 22.9167 1.80078 22.7087 1.9502 22.5523C2.10059 22.3959 2.30469 22.303 2.52148 22.2927C2.98047 22.267 3.44141 22.267 3.90137 22.2927C4.22656 22.3118 4.29785 22.187 4.28906 21.8881C4.24316 20.4083 4.32715 18.9448 4.83105 17.5309C5.53223 15.5627 6.73535 14.0411 8.6748 13.1737C9.19043 12.9442 9.48633 12.55 9.48145 11.993C9.47656 11.436 9.1709 11.056 8.6582 10.8218C6.21582 9.69916 5.00195 7.66437 4.48047 5.12872C4.2832 4.17651 4.26172 3.20721 4.2998 2.24072C4.31543 1.84369 4.24023 1.64661 3.79395 1.71326C3.5293 1.75226 3.25586 1.71991 2.98535 1.71991C2.13574 1.71606 1.70996 1.43042 1.71875 0.849609C1.72754 0.268799 2.13965 0.00213623 2.95605 0.00213623L21.041 0.00213623C21.1846 0.00213623 21.3271 -0.00543213 21.4688 0.00787354C21.6855 0.0197754 21.8896 0.112732 22.041 0.268311C22.1924 0.423889 22.2803 0.630737 22.2861 0.847717C22.2881 0.959534 22.2686 1.07074 22.2275 1.17493C22.1875 1.27911 22.126 1.37433 22.0488 1.45496C21.9717 1.53564 21.8789 1.60022 21.7764 1.64502C21.6738 1.68982 21.5635 1.71399 21.4512 1.71606C21.0078 1.74231 20.5625 1.74231 20.1182 1.71606C19.7715 1.69226 19.6973 1.82367 19.707 2.14648C19.7529 3.60901 19.665 5.05634 19.1709 6.45703C18.4697 8.44421 17.2598 9.98004 15.2988 10.8475C14.8008 11.0684 14.5186 11.4588 14.5137 11.9901C14.5137 12.5462 14.8047 12.9366 15.3184 13.1727C17.7939 14.3154 19.0234 16.3673 19.5332 18.9487C19.7236 19.8894 19.7373 20.8387 19.7041 21.79C19.6914 22.1708 19.7734 22.3461 20.1885 22.2917C20.457 22.2724 20.7275 22.2701 20.9961 22.2851C21.8604 22.2851 22.2734 22.5574 22.2812 23.1316C22.2891 23.7057 21.8682 23.9971 21.0205 23.9971L11.9785 23.9971ZM12.0068 1.71606C10.1504 1.71606 8.29395 1.72656 6.4375 1.70752C6.07715 1.70752 5.98047 1.80273 5.99512 2.15698C6.02246 2.88538 5.97852 3.61664 6.08984 4.34125C6.43066 6.55981 7.35645 8.36041 9.52734 9.34119C10.6406 9.84393 11.2041 10.799 11.2002 12.0073C11.2002 13.2556 10.584 14.1973 9.43359 14.7105C8.14648 15.2818 7.27148 16.234 6.69336 17.4861C6.02734 18.9382 5.96777 20.4855 6 22.0471C6 22.287 6.13672 22.2851 6.30664 22.2851C10.0986 22.2851 13.8916 22.2851 17.6826 22.2851C17.9365 22.2851 18.0078 22.2061 18.0029 21.9595C17.9893 21.1825 18.0293 20.4036 17.9072 19.6323C17.5625 17.4337 16.6455 15.6389 14.4951 14.6658C13.3789 14.1602 12.8057 13.2213 12.7998 12.0158C12.7939 10.7913 13.3711 9.83917 14.5068 9.3269C15.8008 8.74414 16.708 7.80341 17.2959 6.5351C17.9463 5.13062 18.0244 3.63477 18.0078 2.11981C18.0029 1.77319 17.8955 1.70563 17.5742 1.7085C15.7158 1.72754 13.8623 1.71606 12.0068 1.71606Z" fill="#FA8B02" fill-opacity="1.000000" fill-rule="nonzero"/>
		<path id="Vector" d="M11.9941 21.4261C10.6309 21.4261 9.26758 21.4261 7.9043 21.4261C7.15137 21.4261 6.83789 21.0939 6.85742 20.3407C6.93457 17.7774 9.05957 15.6007 11.6455 15.436C14.3057 15.2665 16.6787 17.1499 17.0645 19.7399C17.0791 19.8351 17.0996 19.9303 17.1123 20.0255C17.2471 21.0643 16.9287 21.4319 15.8906 21.4319L11.9941 21.4261Z" fill="#FA8B02" fill-opacity="1.000000" fill-rule="nonzero"/>
		<path id="Vector" d="M12.0537 5.14392C12.8623 5.14392 13.6729 5.14392 14.4785 5.14392C15.1748 5.14868 15.4912 5.50861 15.418 6.198C15.3535 6.8349 15.0605 7.42682 14.5928 7.86346C14.124 8.30017 13.5137 8.55188 12.874 8.57178C12.2891 8.59082 11.7021 8.5918 11.1162 8.57178C10.4854 8.55011 9.88281 8.30273 9.41895 7.87463C8.95508 7.44653 8.66016 6.86609 8.58789 6.23895C8.49902 5.52478 8.81445 5.15155 9.53516 5.14392C10.375 5.14392 11.2148 5.14392 12.0537 5.14392Z" fill="#FA8B02" fill-opacity="1.000000" fill-rule="nonzero"/>
	</g>
</svg>
