<svg width="24.499023" height="16.314270" viewBox="0 0 24.499 16.3143" fill="none" xmlns="http://www.w3.org/2000/svg" xmlns:xlink="http://www.w3.org/1999/xlink">
	<desc>
			Created with Pixso.
	</desc>
	<defs/>
	<path id="Vector" d="M8.17773 3.8913C8.87402 1.45056 10.2803 0.230225 12.3096 0.250244C14.2744 0.270264 15.6777 1.5213 16.3203 3.89661C16.4062 3.65253 16.4619 3.48315 16.5234 3.31512C17.002 2.02411 17.9287 1.25452 19.292 1.14252C20.5459 1.04114 21.5596 1.59198 22.1914 2.6803C22.876 3.85126 22.7988 5.03296 21.9902 6.11859C21.71 6.49335 21.7324 6.59473 22.1484 6.80548C23.5469 7.50964 24.2324 8.68463 24.2471 10.2465C24.2656 12.1617 24.2637 12.163 22.416 12.7712C21.9326 12.9423 21.4316 13.0582 20.9229 13.1166C20.6182 13.1446 20.375 13.0446 20.3271 12.7258C20.2793 12.407 20.4814 12.2256 20.7803 12.1763C21.5059 12.0677 22.2129 11.8613 22.8828 11.5628C23.0596 11.4814 23.2822 11.4294 23.2822 11.1694C23.2822 10.4385 23.376 9.69427 23.042 9.00476C22.6299 8.15253 21.9824 7.56567 21.0205 7.45099C20.0254 7.34625 19.0225 7.34363 18.0264 7.44299C17.7617 7.47473 17.5039 7.55042 17.2646 7.66705C16.4844 8.02045 16.4756 8.13916 17.0635 8.758C17.8672 9.57477 18.3398 10.6606 18.3887 11.8055C18.4131 12.3391 18.333 12.8806 18.4102 13.406C18.5439 14.2769 18.1299 14.6597 17.375 14.9771C13.7637 16.4949 10.208 16.4296 6.66797 14.7544C6.24609 14.5543 6.06445 14.3022 6.09766 13.8315C6.13477 13.298 6.1123 12.7645 6.09766 12.231C6.07324 10.7639 6.57617 9.52625 7.66602 8.55664C8.02832 8.23389 7.91113 8.08984 7.60449 7.87378C6.59473 7.16156 3.33691 7.17755 2.33887 7.90979C1.43848 8.57532 0.916992 10.1411 1.22168 11.2134C1.29102 11.4534 1.48828 11.5015 1.65723 11.5788C2.28613 11.8611 2.95117 12.0559 3.63281 12.1577C3.94727 12.2043 4.2168 12.3404 4.17285 12.7031C4.12402 13.1033 3.81055 13.1539 3.46777 13.1033C2.44629 12.9526 1.49512 12.5884 0.572266 12.1403C0.487305 12.1089 0.414062 12.0536 0.360352 11.9812C0.306641 11.9088 0.274414 11.8223 0.269531 11.7322C0.28125 10.6946 0.117188 9.64362 0.572266 8.64465C0.941406 7.80103 1.61035 7.12433 2.4502 6.74542C2.7168 6.6214 2.84961 6.55469 2.60742 6.24127C1.71387 5.11298 1.59668 3.88196 2.34082 2.64026C2.98633 1.56396 4.00391 1.02112 5.25781 1.14917C6.73926 1.29987 7.66895 2.17877 8.06836 3.61255C8.08594 3.67523 8.11914 3.73389 8.17773 3.8913ZM12.2539 8.28589C11.7207 8.28589 11.1875 8.26721 10.6533 8.28589C9.71191 8.33105 8.82227 8.72797 8.16016 9.39807C7.49707 10.0682 7.11133 10.9626 7.07617 11.9042C7.06152 12.3484 7.10547 12.7965 7.05762 13.238C7.00195 13.7515 7.23145 13.9861 7.68066 14.1716C10.5654 15.3479 13.4648 15.4119 16.3887 14.3396C17.4434 13.9515 17.4395 13.9395 17.4385 12.8445C17.4385 12.5338 17.4385 12.223 17.4297 11.9109C17.3965 10.9689 17.0107 10.0739 16.3486 9.40302C15.6855 8.73212 14.7959 8.33441 13.8545 8.28857C13.3213 8.26587 12.7871 8.28589 12.2539 8.28589ZM15.3047 4.23804C15.2998 3.42871 14.9736 2.65448 14.3975 2.08557C13.8223 1.51666 13.0439 1.19977 12.2344 1.20453C11.4258 1.20929 10.6514 1.5354 10.082 2.11102C9.51367 2.68665 9.19629 3.46472 9.20117 4.27405C9.21191 5.91852 10.6357 7.33228 12.2715 7.31891C13.9062 7.3056 15.3213 5.88251 15.3047 4.23804ZM5.02637 6.40936C5.59961 6.40161 6.14551 6.16699 6.5459 5.7569C6.94629 5.34686 7.16699 4.79486 7.16016 4.22205C7.14062 3.05103 6.12695 2.05609 4.9668 2.07745C3.80664 2.09875 2.79883 3.13239 2.81934 4.28204C2.83691 4.85461 3.07715 5.39764 3.49023 5.79517C3.90234 6.19269 4.4541 6.41309 5.02637 6.40936ZM19.5039 6.40936C20.0762 6.40564 20.625 6.17859 21.0322 5.77649C21.4404 5.37439 21.6748 4.8291 21.6865 4.25671C21.6719 3.68439 21.4385 3.13934 21.0352 2.73352C20.6309 2.3277 20.0869 2.09198 19.5146 2.07477C18.9414 2.08539 18.3945 2.3183 17.9893 2.72437C17.584 3.13043 17.3525 3.67792 17.3438 4.2514C17.3447 4.82385 17.5732 5.3725 17.9775 5.77716C18.3828 6.18182 18.9316 6.40961 19.5039 6.41064L19.5039 6.40936ZM9.71973 7.36163C8.875 6.62567 8.33496 5.60071 8.20605 4.48743C8.05957 4.92627 8.00391 5.19165 7.88574 5.42108C7.69238 5.80652 7.21875 6.24799 7.30762 6.52802C7.4043 6.84546 8.0498 6.95349 8.35059 7.25757C8.76855 7.68573 9.15332 7.74707 9.71973 7.36163ZM14.7236 7.43494C15.2031 7.495 15.4922 7.86975 15.8506 7.50964C16.1924 7.16028 16.6006 6.88318 17.0518 6.69476C17.25 6.6134 17.3701 6.51868 17.1729 6.31732C16.7178 5.85449 16.5352 5.25037 16.2842 4.48877C16.1377 5.74115 15.5977 6.6134 14.7227 7.43494L14.7236 7.43494Z" fill="#FA8B02" fill-opacity="1.000000" fill-rule="nonzero"/>
	<path id="Vector" d="M12.3096 0.250244C14.2744 0.270264 15.6777 1.5213 16.3203 3.89661C16.4062 3.65253 16.4619 3.48315 16.5234 3.31512C17.002 2.02411 17.9287 1.25452 19.292 1.14252C20.5459 1.04114 21.5596 1.59198 22.1914 2.6803C22.876 3.85126 22.7988 5.03296 21.9902 6.11859C21.71 6.49335 21.7324 6.59473 22.1484 6.80548C23.5469 7.50964 24.2324 8.68463 24.2471 10.2465C24.2656 12.1617 24.2637 12.163 22.416 12.7712C21.9326 12.9423 21.4316 13.0582 20.9229 13.1166C20.6182 13.1446 20.375 13.0446 20.3271 12.7258C20.2793 12.407 20.4814 12.2256 20.7803 12.1763C21.5059 12.0677 22.2129 11.8613 22.8828 11.5628C23.0596 11.4814 23.2822 11.4294 23.2822 11.1694C23.2822 10.4385 23.376 9.69427 23.042 9.00476C22.6299 8.15253 21.9824 7.56567 21.0205 7.45099C20.0254 7.34625 19.0225 7.34363 18.0264 7.44299C17.7617 7.47473 17.5039 7.55042 17.2646 7.66705C16.4844 8.02045 16.4756 8.13916 17.0635 8.758C17.8672 9.57477 18.3398 10.6606 18.3887 11.8055C18.4131 12.3391 18.333 12.8806 18.4102 13.406C18.5439 14.2769 18.1299 14.6597 17.375 14.9771C13.7637 16.4949 10.208 16.4296 6.66797 14.7544C6.24609 14.5543 6.06445 14.3022 6.09766 13.8315C6.13477 13.298 6.1123 12.7645 6.09766 12.231C6.07324 10.7639 6.57617 9.52625 7.66602 8.55664C8.02832 8.23389 7.91113 8.08984 7.60449 7.87378C6.59473 7.16156 3.33691 7.17755 2.33887 7.90979C1.43848 8.57532 0.916992 10.1411 1.22168 11.2134C1.29102 11.4534 1.48828 11.5015 1.65723 11.5788C2.28613 11.8611 2.95117 12.0559 3.63281 12.1577C3.94727 12.2043 4.2168 12.3404 4.17285 12.7031C4.12402 13.1033 3.81055 13.1539 3.46777 13.1033C2.44629 12.9526 1.49512 12.5884 0.572266 12.1403C0.487305 12.1089 0.414062 12.0536 0.360352 11.9812C0.306641 11.9088 0.274414 11.8223 0.269531 11.7322C0.28125 10.6946 0.117188 9.64362 0.572266 8.64465C0.941406 7.80103 1.61035 7.12433 2.4502 6.74542C2.7168 6.6214 2.84961 6.55469 2.60742 6.24127C1.71387 5.11298 1.59668 3.88196 2.34082 2.64026C2.98633 1.56396 4.00391 1.02112 5.25781 1.14917C6.73926 1.29987 7.66895 2.17877 8.06836 3.61255C8.08594 3.67523 8.11914 3.73389 8.17773 3.8913C8.87402 1.45056 10.2803 0.230225 12.3096 0.250244ZM10.6533 8.28589C9.71191 8.33105 8.82227 8.72797 8.16016 9.39807C7.49707 10.0682 7.11133 10.9626 7.07617 11.9042C7.06152 12.3484 7.10547 12.7965 7.05762 13.238C7.00195 13.7515 7.23145 13.9862 7.68066 14.1716C10.5654 15.3479 13.4648 15.4119 16.3887 14.3396C17.4434 13.9515 17.4395 13.9395 17.4385 12.8445C17.4385 12.5338 17.4385 12.223 17.4297 11.9109C17.3965 10.9689 17.0107 10.0739 16.3486 9.40302C15.6855 8.73212 14.7959 8.33441 13.8545 8.28857C13.3213 8.26587 12.7871 8.28589 12.2539 8.28589C11.7207 8.28589 11.1875 8.26721 10.6533 8.28589ZM14.3975 2.08557C13.8223 1.51666 13.0439 1.19977 12.2344 1.20453C11.4258 1.20929 10.6514 1.5354 10.082 2.11102C9.51367 2.68665 9.19629 3.46472 9.20117 4.27405C9.21191 5.91852 10.6357 7.33228 12.2715 7.31891C13.9062 7.3056 15.3213 5.88251 15.3047 4.23804C15.2998 3.42871 14.9736 2.65448 14.3975 2.08557ZM6.5459 5.7569C6.94629 5.34686 7.16699 4.79486 7.16016 4.22205C7.14062 3.05103 6.12695 2.05609 4.9668 2.07745C3.80664 2.09875 2.79883 3.13239 2.81934 4.28204C2.83691 4.85461 3.07715 5.39764 3.49023 5.79517C3.90234 6.19269 4.4541 6.41309 5.02637 6.40936C5.59961 6.40161 6.14551 6.16699 6.5459 5.7569ZM21.0322 5.77649C21.4404 5.37439 21.6748 4.8291 21.6865 4.25671C21.6719 3.68439 21.4385 3.13934 21.0352 2.73352C20.6309 2.3277 20.0869 2.09198 19.5146 2.07477C18.9414 2.08539 18.3945 2.3183 17.9893 2.72437C17.584 3.13043 17.3525 3.67792 17.3438 4.2514C17.3447 4.82385 17.5732 5.3725 17.9775 5.77716C18.3828 6.18182 18.9316 6.40961 19.5039 6.41064L19.5039 6.40936C20.0762 6.40564 20.625 6.17859 21.0322 5.77649ZM8.20605 4.48743C8.05957 4.92627 8.00391 5.19165 7.88574 5.42108C7.69238 5.80652 7.21875 6.24799 7.30762 6.52802C7.4043 6.84546 8.0498 6.95349 8.35059 7.25757C8.76855 7.68573 9.15332 7.74707 9.71973 7.36163C8.875 6.62567 8.33496 5.60071 8.20605 4.48743ZM15.8506 7.50964C16.1924 7.16028 16.6006 6.88318 17.0518 6.69476C17.25 6.6134 17.3701 6.51868 17.1729 6.31732C16.7178 5.85449 16.5352 5.25037 16.2842 4.48877C16.1377 5.74115 15.5977 6.6134 14.7227 7.43494L14.7236 7.43494C15.2031 7.495 15.4922 7.86975 15.8506 7.50964Z" stroke="#FA8B02" stroke-opacity="1.000000" stroke-width="0.500000"/>
</svg>
