<svg width="24.000000" height="24.000000" viewBox="0 0 24 24" fill="none" xmlns="http://www.w3.org/2000/svg" xmlns:xlink="http://www.w3.org/1999/xlink">
	<desc>
			Created with Pixso.
	</desc>
	<defs>
		<clipPath id="clip201_5149">
			<rect id="icon_guide" width="24.000000" height="24.000000" fill="white" fill-opacity="0"/>
		</clipPath>
	</defs>
	<rect id="icon_guide" width="24.000000" height="24.000000" fill="#FFFFFF" fill-opacity="0"/>
	<g clip-path="url(#clip201_5149)">
		<path id="Vector" d="M7.18359 12.8599C7.4668 12.2086 7.40723 11.9091 6.91113 11.4541C6.29492 10.9075 5.85156 10.1924 5.63672 9.39709C5.57324 9.09625 5.39648 8.83112 5.14355 8.65613C4.2207 7.99866 4.01562 6.86005 4.6084 5.88428C4.70312 5.72668 4.76465 5.59625 4.71289 5.40527C4.22754 3.677 5.2041 1.66699 7.29297 0.842529C8.49902 0.375122 9.79785 0.196411 11.0859 0.32074C11.8555 0.387512 12.4922 0.691223 12.7939 1.48438C12.9346 1.82312 13.1816 2.10693 13.498 2.29315C14.7441 3.10822 14.9746 3.79077 14.5244 5.21533C14.4727 5.37708 14.4141 5.50543 14.5479 5.69122C15.2793 6.69934 15.0654 8.01324 14.043 8.74695C13.873 8.86407 13.752 9.03864 13.7002 9.23846C13.4434 10.1671 12.9131 10.9969 12.1777 11.62C11.8643 11.8903 11.8418 12.8233 12.1201 13.1155C12.2607 13.2627 12.3564 13.1332 12.415 13.0529C12.9961 12.2587 13.8027 12.3652 14.5938 12.5311C16.7861 13.0049 18.3418 14.2447 19.0107 16.429C19.6855 18.6321 19.7412 20.9166 19.7598 23.1959C19.7598 23.6655 19.4746 23.7177 19.1016 23.7177C15.6055 23.7121 12.1084 23.7121 8.61133 23.7177C5.98535 23.7177 3.3584 23.7177 0.731445 23.7177C0.0439453 23.7177 -0.00683594 23.6676 0.000976562 22.9662C0.0185547 21.0137 0.123047 19.0704 0.541016 17.1575C1.14746 14.3814 3.25586 12.5656 5.96973 12.4361C6.5 12.4111 6.5 12.4111 7.18359 12.8599ZM10.0479 22.9517C11.7363 22.9517 13.4229 22.9381 15.1104 22.9611C15.5273 22.9611 15.6436 22.8452 15.6318 22.4392C15.6045 21.3267 15.6221 20.2132 15.623 19.0997C15.623 18.8909 15.6074 18.6749 15.832 18.5507C16.127 18.3889 16.3828 18.6019 16.3857 19.0454C16.3945 20.2101 16.3984 21.3758 16.3857 22.5405C16.3857 22.8536 16.4707 22.9725 16.7979 22.9579C17.4053 22.9349 18.0146 22.9454 18.624 22.9579C18.8525 22.9579 18.9863 22.9068 18.9775 22.6448C18.9082 20.5419 18.8779 18.4317 18.1787 16.4123C17.6445 14.8667 16.5088 13.939 14.9893 13.4276C14.6895 13.3232 14.5225 13.3837 14.3623 13.6686C13.7275 14.7676 13.0703 15.854 12.4092 16.9373C12.2637 17.1697 12.1885 17.4394 12.1924 17.7137C12.2031 19.0182 12.1992 20.3228 12.1924 21.6263C12.1924 22.241 12.1064 22.3265 11.5039 22.3286C10.374 22.3286 9.24316 22.3286 8.11133 22.3286C7.44629 22.3286 7.38574 22.2712 7.38086 21.6231C7.38086 20.3708 7.37109 19.1184 7.38086 17.8661C7.39355 17.5198 7.30176 17.1779 7.11816 16.884C6.47754 15.8488 5.84082 14.8104 5.24512 13.7532C5.03613 13.3848 4.82715 13.3743 4.49023 13.5069C2.84863 14.1654 1.77441 15.3239 1.3623 17.0677C0.931641 18.8721 0.834961 20.71 0.764648 22.554C0.751953 22.8911 0.888672 22.9642 1.19141 22.9558C1.86914 22.9391 2.54883 22.9349 3.22656 22.9558C3.5625 22.9673 3.67676 22.8682 3.6709 22.5196C3.65137 21.3893 3.66504 20.2591 3.66211 19.1278C3.66211 18.8346 3.68164 18.5173 4.0498 18.5069C4.41797 18.4965 4.44629 18.8199 4.44727 19.1122C4.44727 20.2079 4.4668 21.3038 4.43945 22.3986C4.42871 22.8223 4.54395 22.9662 4.98633 22.96C6.67285 22.9318 8.36133 22.9517 10.0479 22.9517ZM9.74121 11.7651C9.79395 11.7651 9.91699 11.7578 10.0361 11.7379C11.7373 11.4645 12.5801 10.3134 13.0303 8.78033C13.1191 8.47662 13.2393 8.27936 13.54 8.1239C14.3564 7.7002 14.4297 6.55847 13.6953 6.05438C13.5254 5.9375 13.4512 5.76636 13.3662 5.59729C13.0605 4.99164 12.6699 4.43286 12.2061 3.93793C12.0908 3.8158 11.9609 3.59247 11.7383 3.8064C11.2578 4.27185 10.6602 4.30737 10.0391 4.29901C9.01367 4.28754 7.98535 4.27606 6.97266 4.45972C6.31836 4.5766 5.79492 4.8855 5.70215 5.6369C5.66797 5.8075 5.58008 5.96295 5.45312 6.08148C4.80176 6.79535 4.95898 7.71582 5.82227 8.15625C6.12988 8.31274 6.22754 8.5257 6.29102 8.83667C6.63965 10.5482 8.05566 11.7651 9.74121 11.7651ZM5.3916 4.43048C6.22656 3.66968 7.13379 3.59558 8.04004 3.56219C8.78516 3.53088 9.53223 3.53717 10.2783 3.53296C10.6553 3.53296 10.999 3.45886 11.2754 3.17291C11.7393 2.69391 11.877 2.68555 12.4014 3.07904C12.8809 3.44012 13.2227 3.9212 13.5654 4.40338C13.6465 4.51715 13.6689 4.70184 13.8594 4.71643C14.0938 3.96399 14.0088 3.59558 13.3457 3.14374C12.7549 2.74194 12.2588 2.29108 11.9883 1.61584C11.874 1.32782 11.6074 1.19843 11.332 1.15875C9.59473 0.931213 7.93359 1.12012 6.49609 2.22742C5.8457 2.72937 5.45605 3.41608 5.3916 4.43048ZM13.6748 13.2919C13.3535 13.1604 13.2324 13.3764 13.0879 13.5006C12.2402 14.2479 11.3975 14.9999 10.5586 15.757C9.78516 16.4614 9.79102 16.4614 9.01562 15.7308C8.22168 14.9774 7.4209 14.2301 6.62598 13.4777C6.42773 13.2898 6.2334 13.127 5.9248 13.293C5.94141 13.3586 5.96387 13.4225 5.99219 13.4839C6.60645 14.5129 7.22949 15.5378 7.83496 16.572C7.96582 16.7943 8.13867 16.8193 8.35742 16.8173C9.05176 16.8173 9.75684 16.7452 10.4443 16.8329C11.3184 16.9456 11.8018 16.6022 12.1846 15.8446C12.6201 14.9669 13.168 14.1476 13.6748 13.2919ZM8.1416 19.5818C8.1416 20.1203 8.15332 20.6578 8.1416 21.1953C8.13477 21.4634 8.22656 21.5668 8.49805 21.5637C9.33301 21.5522 10.168 21.549 10.9971 21.5637C11.3223 21.5699 11.4141 21.4395 11.4141 21.1326C11.4014 20.089 11.4014 19.0478 11.4141 18.009C11.4141 17.6897 11.3105 17.5853 10.9971 17.5916C10.1816 17.6073 9.36523 17.6104 8.5498 17.5916C8.21777 17.5843 8.1377 17.7179 8.14941 18.0216C8.16309 18.5403 8.14844 19.0621 8.14844 19.5818L8.1416 19.5818ZM11.4922 13.6624C11.3271 13.3354 11.2217 12.9822 11.1787 12.6188C11.1533 12.2994 11.0322 12.3057 10.7822 12.3808C10.1641 12.5701 9.50879 12.5988 8.87695 12.4643C8.17676 12.3276 8.17578 12.3255 7.99902 13.0258C7.93555 13.2794 7.75879 13.5204 8.05859 13.7772C8.57129 14.2166 9.05566 14.6924 9.54102 15.1631C9.70703 15.3239 9.83398 15.3624 10.0205 15.1882C10.4531 14.7874 10.9023 14.4044 11.3418 14.0109C11.4395 13.9337 11.5547 13.8627 11.498 13.6624L11.4922 13.6624Z" fill="#FA8B02" fill-opacity="1.000000" fill-rule="nonzero"/>
		<path id="Vector" d="M6.91113 11.4541C6.29492 10.9075 5.85156 10.1924 5.63672 9.39709C5.57324 9.09625 5.39648 8.83112 5.14355 8.65613C4.2207 7.99866 4.01562 6.86005 4.6084 5.88428C4.70312 5.72668 4.76465 5.59625 4.71289 5.40527C4.22754 3.677 5.2041 1.66699 7.29297 0.842529C8.49902 0.375122 9.79785 0.196411 11.0859 0.32074C11.8555 0.387512 12.4922 0.691223 12.7939 1.48438C12.9346 1.82312 13.1816 2.10693 13.498 2.29315C14.7441 3.10822 14.9746 3.79077 14.5244 5.21533C14.4727 5.37708 14.4141 5.50543 14.5479 5.69122C15.2793 6.69934 15.0654 8.01324 14.043 8.74695C13.873 8.86407 13.752 9.03864 13.7002 9.23846C13.4434 10.1671 12.9131 10.9969 12.1777 11.62C11.8643 11.8903 11.8418 12.8233 12.1201 13.1155C12.2607 13.2627 12.3564 13.1332 12.415 13.0529C12.9961 12.2587 13.8027 12.3652 14.5938 12.5311C16.7861 13.0049 18.3418 14.2447 19.0107 16.429C19.6855 18.6321 19.7412 20.9166 19.7598 23.1959C19.7598 23.6655 19.4746 23.7177 19.1016 23.7177C15.6055 23.7121 12.1084 23.7121 8.61133 23.7177C5.98535 23.7177 3.3584 23.7177 0.731445 23.7177C0.0439453 23.7177 -0.00683594 23.6676 0.000976562 22.9662C0.0185547 21.0137 0.123047 19.0704 0.541016 17.1575C1.14746 14.3814 3.25586 12.5656 5.96973 12.4361C6.5 12.4111 6.5 12.4111 7.18359 12.8599C7.4668 12.2086 7.40723 11.9091 6.91113 11.4541ZM15.1104 22.9611C15.5273 22.9611 15.6436 22.8452 15.6318 22.4392C15.6045 21.3267 15.6221 20.2132 15.623 19.0997C15.623 18.8909 15.6074 18.6749 15.832 18.5507C16.127 18.3889 16.3828 18.6019 16.3857 19.0454C16.3945 20.2101 16.3984 21.3758 16.3857 22.5405C16.3857 22.8536 16.4707 22.9725 16.7979 22.9579C17.4053 22.9349 18.0146 22.9454 18.624 22.9579C18.8525 22.9579 18.9863 22.9068 18.9775 22.6448C18.9082 20.5419 18.8779 18.4317 18.1787 16.4123C17.6445 14.8667 16.5088 13.939 14.9893 13.4276C14.6895 13.3232 14.5225 13.3837 14.3623 13.6686C13.7275 14.7676 13.0703 15.854 12.4092 16.9373C12.2637 17.1697 12.1885 17.4394 12.1924 17.7137C12.2031 19.0182 12.1992 20.3228 12.1924 21.6263C12.1924 22.241 12.1064 22.3265 11.5039 22.3286C10.374 22.3286 9.24316 22.3286 8.11133 22.3286C7.44629 22.3286 7.38574 22.2712 7.38086 21.6231C7.38086 20.3708 7.37109 19.1184 7.38086 17.8661C7.39355 17.5198 7.30176 17.1779 7.11816 16.884C6.47754 15.8488 5.84082 14.8104 5.24512 13.7532C5.03613 13.3848 4.82715 13.3743 4.49023 13.5069C2.84863 14.1654 1.77441 15.3239 1.3623 17.0677C0.931641 18.8721 0.834961 20.71 0.764648 22.554C0.751953 22.8911 0.888672 22.9642 1.19141 22.9558C1.86914 22.9391 2.54883 22.9349 3.22656 22.9558C3.5625 22.9673 3.67676 22.8682 3.6709 22.5196C3.65137 21.3893 3.66504 20.2591 3.66211 19.1278C3.66211 18.8346 3.68164 18.5173 4.0498 18.5069C4.41797 18.4965 4.44629 18.8199 4.44727 19.1122C4.44727 20.2079 4.4668 21.3038 4.43945 22.3986C4.42871 22.8223 4.54395 22.9662 4.98633 22.96C6.67285 22.9318 8.36133 22.9517 10.0479 22.9517C11.7363 22.9517 13.4229 22.9381 15.1104 22.9611ZM10.0361 11.7379C11.7373 11.4645 12.5801 10.3134 13.0303 8.78033C13.1191 8.47662 13.2393 8.27936 13.54 8.1239C14.3564 7.7002 14.4297 6.55847 13.6953 6.05438C13.5254 5.9375 13.4512 5.76636 13.3662 5.59729C13.0605 4.99164 12.6699 4.43286 12.2061 3.93793C12.0908 3.8158 11.9609 3.59247 11.7383 3.8064C11.2578 4.27185 10.6602 4.30737 10.0391 4.29901C9.01367 4.28754 7.98535 4.27606 6.97266 4.45972C6.31836 4.5766 5.79492 4.8855 5.70215 5.6369C5.66797 5.8075 5.58008 5.96295 5.45312 6.08148C4.80176 6.79535 4.95898 7.71582 5.82227 8.15625C6.12988 8.31274 6.22754 8.5257 6.29102 8.83667C6.63965 10.5482 8.05566 11.7651 9.74121 11.7651C9.79395 11.7651 9.91699 11.7578 10.0361 11.7379ZM8.04004 3.56219C8.78516 3.53088 9.53223 3.53717 10.2783 3.53296C10.6553 3.53296 10.999 3.45886 11.2754 3.17291C11.7393 2.69391 11.877 2.68555 12.4014 3.07904C12.8809 3.44012 13.2227 3.9212 13.5654 4.40338C13.6465 4.51715 13.6689 4.70184 13.8594 4.71643C14.0938 3.96399 14.0088 3.59558 13.3457 3.14374C12.7549 2.74194 12.2588 2.29108 11.9883 1.61584C11.874 1.32782 11.6074 1.19843 11.332 1.15875C9.59473 0.931213 7.93359 1.12012 6.49609 2.22742C5.8457 2.72937 5.45605 3.41608 5.3916 4.43048C6.22656 3.66968 7.13379 3.59558 8.04004 3.56219ZM13.0879 13.5006C12.2402 14.2479 11.3975 14.9999 10.5586 15.757C9.78516 16.4614 9.79102 16.4614 9.01562 15.7308C8.22168 14.9774 7.4209 14.2301 6.62598 13.4777C6.42773 13.2898 6.2334 13.127 5.9248 13.293C5.94141 13.3586 5.96387 13.4225 5.99219 13.4839C6.60645 14.5129 7.22949 15.5378 7.83496 16.572C7.96582 16.7943 8.13867 16.8193 8.35742 16.8173C9.05176 16.8173 9.75684 16.7452 10.4443 16.8329C11.3184 16.9456 11.8018 16.6022 12.1846 15.8446C12.6201 14.9669 13.168 14.1476 13.6748 13.2919C13.3535 13.1604 13.2324 13.3764 13.0879 13.5006ZM8.1416 21.1953C8.13477 21.4634 8.22656 21.5668 8.49805 21.5637C9.33301 21.5522 10.168 21.549 10.9971 21.5637C11.3223 21.5699 11.4141 21.4395 11.4141 21.1326C11.4014 20.089 11.4014 19.0478 11.4141 18.009C11.4141 17.6897 11.3105 17.5853 10.9971 17.5916C10.1816 17.6073 9.36523 17.6104 8.5498 17.5916C8.21777 17.5843 8.1377 17.7179 8.14941 18.0216C8.16309 18.5403 8.14844 19.0621 8.14844 19.5818L8.1416 19.5818C8.1416 20.1203 8.15332 20.6578 8.1416 21.1953ZM11.1787 12.6188C11.1533 12.2994 11.0322 12.3057 10.7822 12.3808C10.1641 12.5701 9.50879 12.5988 8.87695 12.4643C8.17676 12.3276 8.17578 12.3255 7.99902 13.0258C7.93555 13.2794 7.75879 13.5204 8.05859 13.7772C8.57129 14.2166 9.05566 14.6924 9.54102 15.1631C9.70703 15.3239 9.83398 15.3624 10.0205 15.1882C10.4531 14.7874 10.9023 14.4044 11.3418 14.0109C11.4395 13.9337 11.5547 13.8627 11.498 13.6624L11.4922 13.6624C11.3271 13.3354 11.2217 12.9822 11.1787 12.6188Z" stroke="#FA8B02" stroke-opacity="1.000000" stroke-width="0.500000"/>
		<path id="Vector" d="M17.1748 6.67737L17.1748 1.46552C17.1748 1.41333 17.1748 1.36115 17.1748 1.30896C17.1855 1.03967 17.2627 0.81012 17.585 0.821594C17.8721 0.832031 17.9883 1.05011 17.9453 1.29327C17.8496 1.85162 18.165 2.12817 18.5635 2.42981C20.2568 3.70508 21.9277 5.00964 23.6045 6.30792C23.8047 6.46234 24.0869 6.60114 23.9746 6.92365C23.8633 7.24609 23.5703 7.19708 23.3086 7.19708L19.1914 7.19708C17.958 7.19708 17.958 7.19708 17.958 8.45776C17.958 9.60437 17.958 10.7523 17.958 11.9017C17.958 12.1845 17.9766 12.5175 17.5908 12.5279C17.1621 12.5435 17.1729 12.1908 17.1729 11.8903C17.1729 10.153 17.1738 8.41534 17.1748 6.67737ZM22.3154 6.29327C20.9512 5.24341 19.6006 4.19769 18.2373 3.15619C17.9717 2.94745 17.9619 3.15619 17.9619 3.34821C17.9619 4.21753 17.9775 5.08789 17.9541 5.95721C17.9443 6.33502 18.0918 6.42792 18.4414 6.42267C19.5898 6.40704 20.7373 6.42267 21.8857 6.41437C22.0146 6.41333 22.1621 6.46234 22.3154 6.29327Z" fill="#FA8B02" fill-opacity="1.000000" fill-rule="nonzero"/>
		<path id="Vector" d="M17.1748 1.46552C17.1748 1.41333 17.1748 1.36115 17.1748 1.30896C17.1855 1.03967 17.2627 0.81012 17.585 0.821594C17.8721 0.832031 17.9883 1.05011 17.9453 1.29327C17.8496 1.85162 18.165 2.12817 18.5635 2.42981C20.2568 3.70508 21.9277 5.00964 23.6045 6.30792C23.8047 6.46234 24.0869 6.60114 23.9746 6.92365C23.8633 7.24609 23.5703 7.19708 23.3086 7.19708L19.1914 7.19708C17.958 7.19708 17.958 7.19708 17.958 8.45776C17.958 9.60437 17.958 10.7523 17.958 11.9017C17.958 12.1845 17.9766 12.5175 17.5908 12.5279C17.1621 12.5435 17.1729 12.1908 17.1729 11.8903C17.1729 10.153 17.1738 8.41534 17.1748 6.67737L17.1748 1.46552ZM18.2373 3.15619C17.9717 2.94745 17.9619 3.15619 17.9619 3.34821C17.9619 4.21753 17.9775 5.08789 17.9541 5.95721C17.9443 6.33502 18.0918 6.42792 18.4414 6.42267C19.5898 6.40704 20.7373 6.42267 21.8857 6.41437C22.0146 6.41333 22.1621 6.46234 22.3154 6.29327C20.9512 5.24341 19.6006 4.19769 18.2373 3.15619Z" stroke="#FA8B02" stroke-opacity="1.000000" stroke-width="0.500000"/>
		<path id="Vector" d="M9.80078 18.0476C10.0273 18.0476 10.2539 18.0372 10.4795 18.0476C10.5283 18.0457 10.5762 18.0535 10.6221 18.0707C10.667 18.088 10.709 18.1141 10.7432 18.1478C10.7783 18.1815 10.8057 18.2218 10.8252 18.2665C10.8438 18.3112 10.8535 18.3592 10.8535 18.4077C10.8604 18.4559 10.8564 18.505 10.8428 18.5518C10.8291 18.5984 10.8057 18.6417 10.7734 18.6784C10.7412 18.7151 10.7021 18.7445 10.6572 18.7646C10.6133 18.7847 10.5645 18.795 10.5166 18.7949C10.0312 18.8126 9.54297 18.8105 9.05469 18.7949C9.00586 18.796 8.95801 18.7867 8.91309 18.7677C8.86816 18.7487 8.82715 18.7203 8.79492 18.6844C8.76172 18.6486 8.73633 18.606 8.72168 18.5598C8.70605 18.5135 8.70117 18.4645 8.70605 18.416C8.7041 18.3675 8.71191 18.319 8.72949 18.2737C8.74707 18.2284 8.77344 18.1871 8.80762 18.1525C8.8418 18.118 8.88184 18.0908 8.92773 18.0728C8.97266 18.0547 9.02051 18.0461 9.06934 18.0476C9.31445 18.0382 9.55762 18.0486 9.80078 18.0476Z" fill="#FA8B02" fill-opacity="1.000000" fill-rule="nonzero"/>
		<path id="Vector" d="M10.4795 18.0476C10.5283 18.0457 10.5762 18.0535 10.6221 18.0707C10.667 18.088 10.709 18.1141 10.7432 18.1478C10.7783 18.1815 10.8057 18.2218 10.8252 18.2665C10.8438 18.3112 10.8535 18.3592 10.8535 18.4077C10.8604 18.4559 10.8564 18.505 10.8428 18.5518C10.8291 18.5984 10.8057 18.6417 10.7734 18.6784C10.7412 18.7151 10.7021 18.7445 10.6572 18.7646C10.6133 18.7847 10.5645 18.795 10.5166 18.7949C10.0312 18.8126 9.54297 18.8105 9.05469 18.7949C9.00586 18.796 8.95801 18.7867 8.91309 18.7677C8.86816 18.7487 8.82715 18.7203 8.79492 18.6844C8.76172 18.6486 8.73633 18.606 8.72168 18.5598C8.70605 18.5135 8.70117 18.4645 8.70605 18.416C8.7041 18.3675 8.71191 18.319 8.72949 18.2737C8.74707 18.2284 8.77344 18.1871 8.80762 18.1525C8.8418 18.118 8.88184 18.0908 8.92773 18.0728C8.97266 18.0547 9.02051 18.0461 9.06934 18.0476C9.31445 18.0382 9.55762 18.0486 9.80078 18.0476C10.0273 18.0476 10.2539 18.0372 10.4795 18.0476Z" stroke="#FA8B02" stroke-opacity="1.000000" stroke-width="0.200000"/>
		<path id="Vector" d="M9.7998 19.946C9.55664 19.946 9.31348 19.9554 9.06934 19.946C9.02051 19.9475 8.97266 19.939 8.92773 19.9209C8.88281 19.9028 8.8418 19.8756 8.80762 19.841C8.77344 19.8063 8.74707 19.7651 8.73047 19.7197C8.71289 19.6744 8.70508 19.626 8.70801 19.5776C8.70312 19.5292 8.70801 19.4802 8.72363 19.434C8.73828 19.3878 8.76367 19.3453 8.79688 19.3096C8.8291 19.2737 8.87012 19.2455 8.91504 19.2265C8.95996 19.2076 9.00781 19.1985 9.05664 19.1998C9.52539 19.1873 9.99512 19.1873 10.4639 19.1998C10.707 19.205 10.8594 19.3438 10.8516 19.5953C10.8428 19.8198 10.6943 19.9398 10.4766 19.9512C10.2578 19.9627 10.0264 19.9471 9.7998 19.946Z" fill="#FA8B02" fill-opacity="1.000000" fill-rule="nonzero"/>
		<path id="Vector" d="M9.06934 19.946C9.02051 19.9475 8.97266 19.939 8.92773 19.9209C8.88281 19.9028 8.8418 19.8756 8.80762 19.841C8.77344 19.8063 8.74707 19.7651 8.73047 19.7197C8.71289 19.6744 8.70508 19.626 8.70801 19.5776C8.70312 19.5292 8.70801 19.4802 8.72363 19.434C8.73828 19.3878 8.76367 19.3453 8.79688 19.3096C8.8291 19.2737 8.87012 19.2455 8.91504 19.2265C8.95996 19.2076 9.00781 19.1985 9.05664 19.1998C9.52539 19.1873 9.99512 19.1873 10.4639 19.1998C10.707 19.205 10.8594 19.3438 10.8516 19.5953C10.8428 19.8198 10.6943 19.9398 10.4766 19.9512C10.2578 19.9627 10.0264 19.9471 9.7998 19.946C9.55664 19.946 9.31348 19.9554 9.06934 19.946Z" stroke="#FA8B02" stroke-opacity="1.000000" stroke-width="0.200000"/>
		<path id="Vector" d="M9.76172 21.0887C9.53711 21.0887 9.31152 21.0887 9.08594 21.0887C9.03809 21.092 8.98926 21.0854 8.94434 21.0691C8.89844 21.0528 8.85645 21.0273 8.82129 20.9942C8.78711 20.9611 8.75879 20.921 8.74023 20.8766C8.7207 20.8322 8.71191 20.7842 8.71191 20.736C8.7041 20.6881 8.70703 20.6391 8.7207 20.5924C8.73438 20.5458 8.75781 20.5026 8.78906 20.466C8.82129 20.4294 8.86035 20.4002 8.90527 20.3805C8.94922 20.3608 8.99805 20.351 9.0459 20.3519C9.53027 20.3384 10.0166 20.3394 10.501 20.3519C10.5498 20.3497 10.5986 20.358 10.6436 20.3762C10.6885 20.3943 10.7285 20.4221 10.7617 20.4573C10.7949 20.4926 10.8203 20.5346 10.8359 20.5806C10.8516 20.6265 10.8574 20.6752 10.8525 20.7234C10.8545 20.7717 10.8467 20.8198 10.8291 20.8648C10.8115 20.9098 10.7852 20.9507 10.751 20.9849C10.7168 21.019 10.6758 21.0457 10.6309 21.0632C10.5859 21.0807 10.5381 21.0887 10.4902 21.0867C10.248 21.0992 10.0049 21.0867 9.75879 21.0867L9.76172 21.0887Z" fill="#FA8B02" fill-opacity="1.000000" fill-rule="nonzero"/>
		<path id="Vector" d="M9.08594 21.0887C9.03809 21.092 8.98926 21.0854 8.94434 21.0691C8.89844 21.0528 8.85645 21.0273 8.82129 20.9942C8.78711 20.9611 8.75879 20.921 8.74023 20.8766C8.7207 20.8322 8.71191 20.7842 8.71191 20.736C8.7041 20.6881 8.70703 20.6391 8.7207 20.5924C8.73438 20.5458 8.75781 20.5026 8.78906 20.466C8.82129 20.4294 8.86035 20.4002 8.90527 20.3805C8.94922 20.3608 8.99805 20.351 9.0459 20.3519C9.53027 20.3384 10.0166 20.3394 10.501 20.3519C10.5498 20.3497 10.5986 20.358 10.6436 20.3762C10.6885 20.3943 10.7285 20.4221 10.7617 20.4573C10.7949 20.4926 10.8203 20.5346 10.8359 20.5806C10.8516 20.6265 10.8574 20.6752 10.8525 20.7234C10.8545 20.7717 10.8467 20.8198 10.8291 20.8648C10.8115 20.9098 10.7852 20.9507 10.751 20.9849C10.7168 21.019 10.6758 21.0457 10.6309 21.0632C10.5859 21.0807 10.5381 21.0887 10.4902 21.0867C10.248 21.0992 10.0049 21.0867 9.75879 21.0867L9.76172 21.0887C9.53711 21.0887 9.31152 21.0887 9.08594 21.0887Z" stroke="#FA8B02" stroke-opacity="1.000000" stroke-width="0.200000"/>
	</g>
</svg>
