<svg width="24.000000" height="24.000000" viewBox="0 0 24 24" fill="none" xmlns="http://www.w3.org/2000/svg" xmlns:xlink="http://www.w3.org/1999/xlink">
	<desc>
			Created with Pixso.
	</desc>
	<defs>
		<clipPath id="clip201_5158">
			<rect id="icon_language" width="24.000000" height="24.000000" fill="white" fill-opacity="0"/>
		</clipPath>
	</defs>
	<rect id="icon_language" width="24.000000" height="24.000000" fill="#FFFFFF" fill-opacity="0"/>
	<g clip-path="url(#clip201_5158)">
		<path id="Vector" d="M23.9971 14.1652C23.9971 16.6505 23.9971 19.136 23.9971 21.6219C23.9971 23.1459 23.1494 23.9966 21.6299 23.9975C17.9785 23.9975 14.3262 23.9975 10.6738 23.9975C9.27441 23.9975 8.47949 23.2917 8.31055 21.9052C8.2334 21.2728 8.14453 20.6412 8.08594 20.0062C8.05957 19.6938 7.86035 19.7496 7.67383 19.7496C5.93848 19.7496 4.20312 19.7496 2.4668 19.7496C0.842773 19.7479 0 18.9147 0 17.294L0 2.42224C0 0.838257 0.833008 0 2.40527 0L9.07129 0C10.5518 0 11.3818 0.779114 11.5078 2.26062C11.5547 2.81305 11.6523 3.36047 11.7012 3.9129C11.7275 4.19708 11.8477 4.25708 12.1182 4.25623C15.2559 4.24536 18.3936 4.24872 21.5332 4.24957C23.1572 4.24957 23.9971 5.09033 23.9971 6.71014C23.9971 9.19598 23.9971 11.681 23.9971 14.1652ZM10.7588 22.5593C10.8975 22.5718 10.9502 22.581 11.0039 22.581C14.5996 22.581 18.1953 22.581 21.79 22.581C22.3604 22.581 22.5801 22.331 22.5811 21.7094C22.5811 16.6544 22.5811 11.6016 22.5811 6.55096C22.5811 5.91608 22.3369 5.66608 21.7021 5.66608C18.5635 5.66608 15.4268 5.66608 12.2861 5.66022C12.002 5.66022 11.9121 5.70355 11.9531 6.02606C12.2031 7.87836 12.4307 9.7348 12.6611 11.5896C12.9502 13.9136 13.2217 16.2391 13.5322 18.5598C13.5967 19.0447 13.501 19.4072 13.1758 19.7688C12.374 20.6645 11.5977 21.5894 10.7588 22.5593ZM1.41699 9.87311C1.41699 12.414 1.41699 14.9551 1.41699 17.4965C1.41699 18.0406 1.66602 18.3298 2.17578 18.3298C5.38379 18.3364 8.5918 18.3298 11.7998 18.3373C12.0225 18.3373 12.085 18.2731 12.0537 18.0498C11.9639 17.404 11.8975 16.7557 11.8154 16.11C11.5449 13.9935 11.2646 11.8779 11 9.76147C10.6855 7.24426 10.3838 4.7262 10.0752 2.20892C10.0029 1.62567 9.76367 1.42151 9.16602 1.42072C6.8877 1.42072 4.61035 1.42072 2.33301 1.42072C1.62109 1.42072 1.41699 1.62567 1.41699 2.33728C1.41699 4.84698 1.41699 7.35895 1.41699 9.87311ZM11.3242 19.7479C10.71 19.7479 10.2031 19.7479 9.69727 19.7479C9.53027 19.7479 9.47168 19.8071 9.49121 19.9679C9.55762 20.4912 9.62012 21.0145 9.69434 21.6344L11.3242 19.7479Z" fill="#FA8B02" fill-opacity="1.000000" fill-rule="nonzero"/>
		<path id="Vector" d="M15.7598 10.5823C15.8564 10.5823 15.9541 10.5823 16.0518 10.5823C16.3145 10.5823 16.6279 10.6656 16.8281 10.5473C17.0283 10.429 16.8828 10.089 16.918 9.84906C16.9746 9.46655 17.2998 9.16162 17.6445 9.17578C17.9893 9.18994 18.2793 9.48242 18.3281 9.84906C18.3584 10.0798 18.2236 10.3931 18.3906 10.5248C18.5977 10.6915 18.9229 10.5723 19.1973 10.5798C19.5723 10.5906 19.9463 10.5798 20.3213 10.5848C20.7891 10.5939 21.1055 10.8531 21.1465 11.2447C21.1836 11.6005 20.9111 11.923 20.4648 11.9896C20.3975 11.9927 20.334 12.0183 20.2822 12.0623C20.2314 12.1063 20.1973 12.1661 20.1846 12.2321C19.877 13.1843 19.3965 14.0718 18.7676 14.8502C18.6123 15.0443 18.6602 15.1526 18.832 15.2868C19.2373 15.6026 19.6318 15.9309 20.0312 16.2534C20.4551 16.5958 20.5488 17.0316 20.2695 17.3666C19.9902 17.7015 19.5752 17.6999 19.1631 17.3666C18.708 17.0024 18.2559 16.6342 17.8135 16.255C17.6689 16.1301 17.5752 16.1301 17.4307 16.255C16.9883 16.635 16.5361 17.0049 16.0811 17.3666C15.665 17.6999 15.248 17.6899 14.9746 17.3624C14.7012 17.035 14.79 16.5925 15.2139 16.25C15.6133 15.9276 16.0078 15.5992 16.4131 15.2834C16.585 15.1493 16.6318 15.0402 16.4766 14.8469C15.8467 14.0693 15.3682 13.1812 15.0635 12.228C15.0088 12.0546 14.916 12.008 14.7393 11.9838C14.5645 11.9655 14.4033 11.8841 14.2842 11.7549C14.166 11.6256 14.0986 11.4575 14.0957 11.2822C14.1045 10.9122 14.4189 10.6064 14.8418 10.5839C15.1465 10.5681 15.4521 10.5839 15.7578 10.5839L15.7598 10.5823ZM16.4814 11.9988C16.7217 12.6524 17.0508 13.2693 17.4609 13.832C17.5879 14.0103 17.668 13.9986 17.7891 13.832C18.1416 13.3378 18.4404 12.8069 18.6797 12.2488C18.7744 12.0238 18.6943 11.9988 18.4941 11.9988C17.8447 12.0038 17.1934 11.9988 16.4814 11.9988Z" fill="#FA8B02" fill-opacity="1.000000" fill-rule="nonzero"/>
		<path id="Vector" d="M6.40723 4.98364C7.65723 4.98364 7.66699 5.00031 7.90723 6.22601C8.31445 8.27496 8.73438 10.3214 9.13965 12.3696C9.20312 12.687 9.22266 13.0137 8.9209 13.2444C8.69531 13.4169 8.45117 13.4653 8.18164 13.3345C7.91211 13.2036 7.81152 12.9736 7.75879 12.7053C7.64258 12.1079 7.52051 11.5113 7.41406 10.9122C7.37207 10.6697 7.27441 10.5623 7.00586 10.5789C6.57617 10.6043 6.14551 10.6043 5.71582 10.5789C5.45898 10.5639 5.37598 10.6805 5.33496 10.8964C5.22461 11.4796 5.10352 12.0629 4.99316 12.6462C4.89551 13.1695 4.57715 13.4678 4.17871 13.4053C3.72559 13.3361 3.48926 12.9345 3.5957 12.387C3.93652 10.6914 4.2832 8.99738 4.62695 7.30426C4.7334 6.77515 4.8252 6.24353 4.93945 5.71606C5.06641 5.13281 5.25879 4.9895 5.85645 4.98529C6.04688 4.98285 6.22754 4.98364 6.40723 4.98364ZM6.35254 9.16571C6.42188 9.16571 6.49121 9.16571 6.56055 9.16571C7.07324 9.16571 7.05957 9.16571 6.95215 8.64246C6.81543 7.995 6.70215 7.34174 6.57129 6.69348C6.5459 6.57349 6.55469 6.38098 6.35742 6.39764C6.20215 6.41016 6.20215 6.57684 6.17969 6.69012C6.05762 7.2984 5.94531 7.90833 5.83203 8.52332C5.71191 9.16571 5.71387 9.16571 6.35254 9.16571Z" fill="#FA8B02" fill-opacity="1.000000" fill-rule="nonzero"/>
	</g>
</svg>
