<svg width="24.000000" height="24.000000" viewBox="0 0 24 24" fill="none" xmlns="http://www.w3.org/2000/svg" xmlns:xlink="http://www.w3.org/1999/xlink">
	<desc>
			Created with Pixso.
	</desc>
	<defs>
		<clipPath id="clip201_5166">
			<rect id="icon_ticket" width="24.000000" height="24.000000" fill="white" fill-opacity="0"/>
		</clipPath>
	</defs>
	<g opacity="0.800000">
		<rect id="icon_ticket" width="24.000000" height="24.000000" fill="#FFFFFF" fill-opacity="0"/>
		<g clip-path="url(#clip201_5166)">
			<path id="Vector" d="M11.9551 20.2864L0.831055 20.2864C0.0625 20.2864 0.0078125 20.2291 0.0078125 19.4516C0.0078125 18.2538 0.0195312 17.055 0.000976562 15.8561C-0.00585938 15.4202 0.146484 15.2202 0.595703 15.1539C0.981445 15.1115 1.33789 14.9255 1.59375 14.6329C1.84863 14.3403 1.98535 13.9625 1.97559 13.5741C1.97949 13.1942 1.84277 12.8262 1.5918 12.5407C1.3418 12.2552 0.994141 12.0723 0.617188 12.0269C0.150391 11.9617 0.0234375 11.7516 0.0283203 11.328C0.0400391 10.0741 0.046875 8.81903 0.0244141 7.56512C0.015625 7.08533 0.226562 6.90668 0.676758 6.84039C6.80469 5.94153 12.9316 5.03363 19.0576 4.11676C19.8662 3.99542 20.6816 3.88306 21.4912 3.73138C21.9766 3.64148 22.2324 3.75275 22.2852 4.28644C22.3535 4.97522 22.5 5.65613 22.5664 6.34491C22.6045 6.7359 22.7256 6.89655 23.1475 6.88867C23.9707 6.87299 23.998 6.92468 23.999 7.74261C23.999 8.92242 23.9912 10.1022 23.999 11.282C23.999 11.7112 23.916 11.9662 23.4004 12.0269C23.0225 12.0682 22.6729 12.2479 22.4199 12.5313C22.167 12.8147 22.0283 13.1818 22.0293 13.5617C22.0176 13.95 22.1514 14.3285 22.4043 14.6229C22.6582 14.9174 23.0127 15.1063 23.3975 15.1528C23.8633 15.2235 23.9707 15.4516 23.9648 15.8718C23.9482 17.1078 23.9414 18.3438 23.9648 19.5797C23.9756 20.119 23.7744 20.2988 23.2393 20.2966C19.4824 20.2797 15.7178 20.2864 11.9551 20.2864ZM9.03906 19.5764C11.624 19.5764 14.208 19.5764 16.792 19.5764C17.1436 19.5764 17.3535 19.5303 17.3379 19.0977C17.3262 18.7954 17.1807 18.3022 17.6758 18.2955C18.2158 18.2864 18.0586 18.7966 18.0576 19.1179C18.0566 19.4393 18.1367 19.582 18.4941 19.5775C19.9355 19.5606 21.3779 19.564 22.8193 19.5775C23.1436 19.5775 23.292 19.4932 23.2852 19.137C23.2676 18.1831 23.2705 17.2269 23.2852 16.2729C23.2852 15.9831 23.1904 15.8618 22.9092 15.7617C21.8975 15.3988 21.3672 14.6381 21.3574 13.592C21.3486 12.6078 21.9189 11.7831 22.915 11.4191C23.2178 11.3067 23.3174 11.1595 23.3125 10.8572C23.2979 9.93927 23.292 9.0224 23.3125 8.10553C23.3223 7.71454 23.1885 7.58533 22.7969 7.59094C21.4863 7.61005 20.1768 7.59772 18.8643 7.59772C18.1113 7.59772 18.1055 7.59772 18.0771 8.36511C18.0684 8.62805 18.04 8.88422 17.7227 8.89996C17.4043 8.91565 17.3457 8.65839 17.3447 8.39545C17.3447 8.28308 17.334 8.17072 17.3447 8.05835C17.3809 7.71002 17.2168 7.60895 16.8857 7.60895C11.6621 7.61566 6.43945 7.61566 1.2168 7.60895C0.879883 7.60895 0.751953 7.70892 0.758789 8.05835C0.776367 9.01227 0.774414 9.96851 0.758789 10.9224C0.758789 11.2191 0.871094 11.3348 1.14258 11.4325C2.13672 11.7831 2.7041 12.6011 2.70703 13.6055C2.70898 14.61 2.15137 15.3965 1.13379 15.764C0.850586 15.8662 0.758789 15.9887 0.763672 16.2797C0.77832 17.1786 0.800781 18.0775 0.755859 18.9763C0.730469 19.4988 0.929688 19.592 1.39941 19.5887C3.94727 19.5662 6.49316 19.5764 9.03906 19.5764ZM5.89355 6.79993L5.90332 6.91229L16.9004 6.91229C18.415 6.91229 19.9336 6.8988 21.4443 6.92126C21.8662 6.92688 21.957 6.78198 21.8809 6.39771C21.7822 5.90332 21.71 5.40216 21.6562 4.90106C21.6172 4.56396 21.4795 4.47522 21.1406 4.53137C20.0342 4.71564 18.9238 4.86847 17.8125 5.02917C16.9004 5.15839 16.8965 5.15277 16.9395 6.04041C16.9502 6.27185 16.8994 6.46509 16.6445 6.5033C16.3906 6.5415 16.2803 6.36847 16.2383 6.14148C16.207 6.03162 16.1895 5.91852 16.1846 5.80444C16.2002 5.36621 16 5.28418 15.5918 5.34827C13.4502 5.6853 11.3047 5.99768 9.16113 6.31793C8.06934 6.4812 6.97949 6.64191 5.89062 6.79993L5.89355 6.79993Z" fill="#FA8B02" fill-opacity="1.000000" fill-rule="nonzero"/>
			<path id="Vector" d="M0.301758 20.7595Q0.476562 20.7864 0.831055 20.7864L11.9551 20.7864L13.5713 20.7861L23.2373 20.7966Q23.5088 20.7977 23.708 20.7446Q23.9492 20.6806 24.1182 20.5339Q24.1367 20.5178 24.1543 20.5006Q24.1729 20.4823 24.1914 20.463Q24.4756 20.1524 24.4648 19.5702Q24.4355 18.0336 24.4648 15.8785Q24.4727 15.316 24.1963 15.0075Q23.9492 14.7308 23.4727 14.6584L23.4648 14.6573L23.458 14.6563Q23.3594 14.6445 23.2666 14.6154Q23.1738 14.5862 23.0869 14.5397Q23 14.4932 22.9238 14.4325Q22.8486 14.3718 22.7842 14.2968Q22.7197 14.222 22.6709 14.138Q22.6221 14.054 22.5889 13.9607Q22.5557 13.8676 22.541 13.7716Q22.5264 13.6757 22.5293 13.5768L22.5293 13.5684L22.5293 13.5599Q22.5283 13.3607 22.5947 13.1868Q22.6602 13.0129 22.793 12.8644Q22.9209 12.7217 23.0791 12.6374Q23.251 12.5463 23.458 12.5235Q23.9531 12.4653 24.2148 12.1877Q24.2646 12.1349 24.3057 12.0743Q24.4258 11.8993 24.4697 11.6624Q24.499 11.5038 24.499 11.2805L24.4951 10.0976L24.4971 8.91223L24.499 7.75891L24.499 7.74194Q24.498 7.36188 24.4766 7.19745Q24.4326 6.85254 24.2402 6.65485Q24.2295 6.64386 24.2188 6.6333Q24.0234 6.44775 23.6924 6.40466Q23.5146 6.38159 23.1377 6.38879Q23.1025 6.38947 23.0762 6.38812Q23.0693 6.35059 23.0645 6.297Q23.0293 5.93311 22.9189 5.22418Q22.8154 4.56274 22.7832 4.23724Q22.7305 3.71033 22.4404 3.44568Q22.3838 3.39435 22.3184 3.35284Q21.9727 3.13367 21.3994 3.23999Q20.7598 3.35974 19.4668 3.5506Q19.1445 3.59814 18.9844 3.62219L0.603516 6.34576Q0.0849609 6.42224 -0.182617 6.70233Q-0.220703 6.742 -0.253906 6.7854Q-0.484375 7.08868 -0.475586 7.57404Q-0.449219 9.02368 -0.47168 11.3227Q-0.477539 11.8533 -0.217773 12.1538Q0.0400391 12.451 0.557617 12.5233Q0.754883 12.5471 0.919922 12.634Q1.08496 12.7208 1.21582 12.8706Q1.34766 13.0204 1.41309 13.1951Q1.47754 13.3697 1.47559 13.569L1.47559 13.5779L1.47559 13.5869Q1.47852 13.6855 1.46289 13.7812Q1.44727 13.877 1.41406 13.9698Q1.37988 14.0626 1.33105 14.1462Q1.28125 14.2297 1.2168 14.304Q1.15234 14.3784 1.07617 14.4384Q1 14.4984 0.912109 14.544Q0.824219 14.5897 0.731445 14.6179Q0.638672 14.6461 0.541016 14.6569L0.532227 14.6579L0.522461 14.6592Q0.00488281 14.7355 -0.25 15.0351Q-0.506836 15.3364 -0.499023 15.8636Q-0.485352 16.7252 -0.490234 18.4521Q-0.492188 19.1183 -0.492188 19.4516Q-0.492188 19.8096 -0.46582 19.9841Q-0.416016 20.316 -0.225586 20.5101L-0.224609 20.5115Q-0.217773 20.5181 -0.211914 20.5246Q-0.0195312 20.7097 0.301758 20.7595ZM11.9551 20.2864L0.831055 20.2864C0.0625 20.2864 0.0078125 20.2291 0.0078125 19.4516C0.0078125 19.119 0.00878906 18.7863 0.00976562 18.4534C0.0117188 17.588 0.0146484 16.722 0.000976562 15.8561C-0.00585938 15.4202 0.146484 15.2202 0.595703 15.1539C0.981445 15.1115 1.33789 14.9255 1.59375 14.6329C1.84863 14.3403 1.98535 13.9625 1.97559 13.5741C1.97949 13.1942 1.84277 12.8262 1.5918 12.5407C1.3418 12.2552 0.994141 12.0723 0.617188 12.0269C0.150391 11.9617 0.0234375 11.7516 0.0283203 11.328C0.0400391 10.0741 0.046875 8.81903 0.0244141 7.56512C0.015625 7.08533 0.226562 6.90668 0.676758 6.84039Q9.86816 5.49207 19.0576 4.11676C19.8662 3.99542 20.6816 3.88306 21.4912 3.73138C21.9766 3.64148 22.2324 3.75275 22.2852 4.28644C22.3535 4.97522 22.5 5.65613 22.5664 6.34491C22.6045 6.7359 22.7256 6.89655 23.1475 6.88867C23.9707 6.87299 23.998 6.92468 23.999 7.74261C23.999 8.13586 23.998 8.52917 23.9971 8.92242C23.9951 9.70892 23.9941 10.4954 23.999 11.282C23.999 11.7112 23.916 11.9662 23.4004 12.0269C23.0225 12.0682 22.6729 12.2479 22.4199 12.5313C22.167 12.8147 22.0283 13.1818 22.0293 13.5617C22.0176 13.95 22.1514 14.3285 22.4043 14.6229C22.6582 14.9174 23.0127 15.1063 23.3975 15.1528C23.8633 15.2235 23.9707 15.4516 23.9648 15.8718C23.9482 17.1078 23.9414 18.3438 23.9648 19.5797C23.9756 20.119 23.7744 20.2988 23.2393 20.2966C20.3174 20.2834 17.3906 20.2846 14.4639 20.2858L14.4639 20.2858C13.6279 20.2861 12.791 20.2864 11.9551 20.2864ZM8.55762 6.91229L16.9004 6.91229L16.9932 6.91229C17.375 6.91217 17.7578 6.91119 18.1396 6.91028C19.2422 6.90759 20.3457 6.90497 21.4443 6.92126C21.8662 6.92688 21.957 6.78198 21.8809 6.39771C21.7822 5.90332 21.71 5.40216 21.6562 4.90106C21.6172 4.56396 21.4795 4.47522 21.1406 4.53137C20.0342 4.71564 18.9238 4.86847 17.8125 5.02917L17.7939 5.03174C16.9004 5.15833 16.8975 5.15875 16.9395 6.04041C16.9463 6.19147 16.9277 6.32629 16.8418 6.41229C16.7969 6.45807 16.7334 6.49005 16.6445 6.5033C16.5117 6.52332 16.418 6.48547 16.3535 6.41229C16.2939 6.34564 16.2578 6.24969 16.2383 6.14148C16.207 6.03162 16.1895 5.91852 16.1846 5.80444C16.2002 5.36621 16 5.28418 15.5918 5.34827C13.4502 5.6853 11.3047 5.99768 9.16113 6.31793Q8.84473 6.36523 8.52832 6.41229Q7.45801 6.57159 6.38867 6.72748Q6.14551 6.76294 5.90332 6.79816Q5.89746 6.79901 5.89062 6.79993L5.89355 6.79993L5.89648 6.83905L5.90332 6.91229L8.55762 6.91229ZM11.9219 6.41229L15.792 6.41229Q15.7676 6.33795 15.751 6.25519Q15.7236 6.15546 15.708 6.05408Q15.6904 5.94788 15.6855 5.83978Q15.6777 5.84094 15.6699 5.84222L12.9414 6.26044L11.9219 6.41229ZM17.3994 6.4118Q17.7148 6.41132 18.1387 6.41028Q20.2744 6.40509 21.376 6.42029Q21.25 5.77533 21.168 5.03369Q20.2715 5.1817 18.5312 5.43103Q18.0996 5.49286 17.8838 5.52399L17.8643 5.52679Q17.542 5.57239 17.4268 5.59729Q17.4238 5.71442 17.4385 6.01636Q17.4492 6.23663 17.3994 6.4118ZM9.03906 19.5764L16.792 19.5764C17.1436 19.5764 17.3535 19.5303 17.3379 19.0977C17.3359 19.049 17.3311 18.9954 17.3252 18.9396C17.2959 18.6492 17.2607 18.3011 17.6758 18.2955C18.1201 18.288 18.0928 18.6324 18.0684 18.9336C18.0625 18.9984 18.0576 19.0611 18.0576 19.1179C18.0566 19.4393 18.1367 19.582 18.4941 19.5775C19.9355 19.5606 21.3779 19.564 22.8193 19.5775C23.1436 19.5775 23.292 19.4932 23.2852 19.137C23.2676 18.1831 23.2705 17.2269 23.2852 16.2729C23.2852 15.9831 23.1904 15.8618 22.9092 15.7617C21.8975 15.3988 21.3672 14.6381 21.3574 13.592C21.3486 12.6078 21.9189 11.7831 22.915 11.4191C23.2178 11.3067 23.3174 11.1595 23.3125 10.8572C23.2979 9.93927 23.292 9.0224 23.3125 8.10553C23.3223 7.71454 23.1885 7.58533 22.7969 7.59094C21.8564 7.60468 20.916 7.60217 19.9746 7.59967C19.6045 7.59869 19.2344 7.59772 18.8643 7.59772C18.1113 7.59772 18.1055 7.59772 18.0771 8.36511C18.0684 8.62805 18.04 8.88422 17.7227 8.89996C17.4043 8.91565 17.3457 8.65839 17.3447 8.39545C17.3447 8.35797 17.3438 8.32056 17.3428 8.28308C17.3398 8.20819 17.3379 8.13324 17.3447 8.05835C17.3809 7.71002 17.2168 7.60895 16.8857 7.60895Q9.05078 7.61902 1.2168 7.60895C0.879883 7.60895 0.751953 7.70892 0.758789 8.05835C0.776367 9.01227 0.774414 9.96851 0.758789 10.9224C0.758789 11.2191 0.871094 11.3348 1.14258 11.4325C2.13672 11.7831 2.7041 12.6011 2.70703 13.6055C2.70898 14.61 2.15137 15.3965 1.13379 15.764C0.850586 15.8662 0.758789 15.9887 0.763672 16.2797C0.765625 16.3736 0.767578 16.4675 0.768555 16.5615C0.782227 17.3664 0.796875 18.1714 0.755859 18.9763C0.730469 19.4988 0.929688 19.592 1.39941 19.5887C3.34375 19.5715 5.28711 19.5734 7.23047 19.5752C7.83301 19.5757 8.43652 19.5764 9.03906 19.5764ZM16.8359 19.076Q16.8154 19.0764 16.792 19.0764L9.03906 19.0764L9.03516 19.0764L1.39551 19.0887Q1.31055 19.0893 1.25391 19.0849Q1.25293 19.0491 1.25586 19.0013Q1.2832 18.4521 1.2832 17.7687Q1.28223 17.3621 1.26855 16.5529Q1.26562 16.3653 1.26367 16.2701Q1.26367 16.259 1.26367 16.2496Q1.28125 16.2424 1.30371 16.2343Q2.05664 15.9625 2.5293 15.438Q2.62402 15.3325 2.70801 15.2167Q2.86328 15.0023 2.96973 14.7659Q3.20801 14.2394 3.20703 13.6044Q3.20508 12.9921 2.98242 12.4756Q2.87109 12.2177 2.7041 11.9836Q2.55664 11.7771 2.37695 11.6041Q1.94043 11.1835 1.31152 10.962Q1.28027 10.9508 1.25879 10.9411Q1.25879 10.9361 1.25879 10.9307Q1.2832 9.42865 1.25977 8.10895L16.8418 8.10895Q16.8389 8.19116 16.8428 8.29974Q16.8447 8.36627 16.8447 8.39758Q16.8467 8.76569 16.9814 9.00055Q17.0498 9.12054 17.1484 9.20624Q17.2168 9.26575 17.2998 9.30865Q17.3232 9.32098 17.3477 9.3316Q17.5283 9.41016 17.7471 9.39935Q18.0586 9.38391 18.2539 9.22528Q18.5566 8.97815 18.5771 8.38342Q18.584 8.20325 18.5908 8.10065Q18.6904 8.09772 18.8643 8.09772Q19.2344 8.09772 19.9727 8.09967Q21.8594 8.10468 22.8037 8.09088L22.8125 8.09082L22.8125 8.09454Q22.7871 9.25732 22.8125 10.8647Q22.8125 10.8979 22.8115 10.9202Q22.7852 10.9338 22.7432 10.9495Q22.0947 11.1866 21.6514 11.6292Q21.4873 11.7924 21.3516 11.9835Q21.1562 12.259 21.0381 12.5645Q20.8525 13.0438 20.8574 13.5969Q20.8652 14.3831 21.2012 14.9863Q21.2686 15.1083 21.3506 15.2227Q21.4219 15.3232 21.502 15.416Q21.9697 15.9559 22.7412 16.2328Q22.7666 16.2418 22.7852 16.2496Q22.7852 16.257 22.7852 16.2653Q22.7617 17.8115 22.7842 19.0771Q20.4443 19.0555 18.5586 19.0767Q18.5615 19.0375 18.5664 18.974Q18.5801 18.7975 18.5791 18.6997Q18.5771 18.4877 18.5166 18.3248Q18.4609 18.1747 18.3613 18.0646Q18.2861 17.9818 18.1865 17.9216Q17.9688 17.7905 17.6689 17.7955Q17.3945 17.7993 17.1934 17.9226Q17.1748 17.9344 17.1562 17.9472Q17.0723 18.0054 17.0088 18.0805Q16.9082 18.199 16.8574 18.3595Q16.8066 18.5189 16.8096 18.7238Q16.8105 18.8193 16.8281 18.99Q16.833 19.0428 16.8359 19.076Z" fill="#FA8B02" fill-opacity="1.000000" fill-rule="evenodd"/>
			<path id="Vector" d="M8.92578 15.0944C7.57715 15.0944 6.22949 15.0944 4.88086 15.0944C4.60156 15.0944 4.25977 15.1157 4.26953 14.7078C4.27832 14.3416 4.59668 14.3595 4.86035 14.3595C7.61035 14.3595 10.3604 14.3595 13.1104 14.3595C13.375 14.3595 13.6904 14.3472 13.6934 14.7146C13.6934 15.1235 13.3564 15.0932 13.0742 15.0944C11.6943 15.0966 10.3105 15.0944 8.92578 15.0944Z" fill="#FA8B02" fill-opacity="1.000000" fill-rule="nonzero"/>
			<path id="Vector" d="M4.84277 15.5944Q4.86914 15.5944 4.88086 15.5944L8.92578 15.5944L8.96777 15.5944L13.0762 15.5944Q13.0928 15.5943 13.1299 15.5944Q13.2881 15.595 13.376 15.5872Q13.5684 15.5703 13.7158 15.5052Q13.8496 15.4459 13.9473 15.3503Q14.0205 15.2799 14.0732 15.1899Q14.1934 14.9875 14.1934 14.71Q14.1914 14.4674 14.0879 14.2813Q14.0752 14.2593 14.0615 14.2382Q14.0117 14.1611 13.9473 14.0995Q13.8438 14.0006 13.7021 13.9417Q13.5596 13.8824 13.374 13.8666Q13.2881 13.8593 13.1348 13.8595L13.1104 13.8595L7.83008 13.8595L4.86035 13.8595L4.82715 13.8594Q4.6748 13.859 4.58984 13.8661Q4.40625 13.8813 4.26465 13.9396Q4.12402 13.9974 4.02051 14.0949Q3.95703 14.1549 3.90723 14.2299Q3.89258 14.2519 3.87988 14.2748Q3.77539 14.4573 3.76953 14.6954Q3.76367 14.9645 3.87598 15.1677Q3.87988 15.1764 3.88574 15.1849Q3.9375 15.2738 4.00781 15.3437Q4.10938 15.444 4.25 15.5053Q4.39844 15.5703 4.59277 15.5872Q4.68262 15.595 4.84277 15.5944ZM8.92578 15.0944L4.88086 15.0944C4.86816 15.0944 4.85449 15.0944 4.84082 15.0944C4.57031 15.0954 4.25977 15.0965 4.26953 14.7078C4.27832 14.3578 4.56934 14.3587 4.8252 14.3594L4.86035 14.3595L13.1104 14.3595L13.1357 14.3595C13.3945 14.3591 13.6904 14.3587 13.6934 14.7146C13.6934 15.0963 13.3994 15.0953 13.1309 15.0944C13.1123 15.0944 13.0928 15.0943 13.0742 15.0944C12.1543 15.0958 11.2334 15.0953 10.3105 15.0948L10.3105 15.0948C9.84863 15.0946 9.3877 15.0944 8.92578 15.0944Z" fill="#FA8B02" fill-opacity="1.000000" fill-rule="evenodd"/>
			<path id="Vector" d="M9.03809 16.5966C10.3867 16.5966 11.7354 16.5966 13.083 16.5966C13.3633 16.5966 13.7109 16.5617 13.7012 16.9707C13.6914 17.3797 13.3408 17.3325 13.0635 17.3325C10.3496 17.3325 7.63574 17.3325 4.92188 17.3325C4.86523 17.3325 4.80957 17.3325 4.75293 17.3325C4.51074 17.3246 4.2793 17.2673 4.26953 16.9786C4.25977 16.6505 4.50684 16.5966 4.77344 16.5966L9.03809 16.5966Z" fill="#FA8B02" fill-opacity="1.000000" fill-rule="nonzero"/>
			<path id="Vector" d="M13.1406 16.0962Q13.1016 16.0966 13.083 16.0966L4.77344 16.0966Q4.40039 16.0966 4.16699 16.2322Q4.05371 16.2975 3.97168 16.3901Q3.90625 16.4637 3.86035 16.5547Q3.8584 16.5598 3.85547 16.565Q3.7627 16.7551 3.77051 16.9941Q3.77637 17.1948 3.85742 17.3585Q3.86914 17.3824 3.88281 17.4056Q3.9248 17.4779 3.97949 17.5385Q4.0625 17.6297 4.1748 17.6943Q4.39453 17.8212 4.73633 17.8323L4.74512 17.8325L13.0635 17.8325Q13.085 17.8325 13.1338 17.8333Q13.2891 17.8356 13.376 17.8292Q13.5645 17.8149 13.71 17.7534Q13.8447 17.6967 13.9443 17.6031Q14.0166 17.5363 14.0703 17.4506Q14.0732 17.4453 14.0762 17.4398Q14.1943 17.2453 14.2012 16.9831Q14.208 16.7161 14.0957 16.5146Q14.0918 16.5074 14.0879 16.5002Q14.0352 16.4102 13.9639 16.3399Q13.8633 16.2416 13.7256 16.1817Q13.5791 16.1177 13.3867 16.1021Q13.2979 16.0948 13.1406 16.0962ZM4.77344 16.5966L13.083 16.5966C13.1035 16.5966 13.124 16.5964 13.1445 16.5962C13.4111 16.5939 13.7109 16.5912 13.7012 16.9707C13.6924 17.3418 13.4023 17.3373 13.1416 17.3333C13.1152 17.3329 13.0889 17.3325 13.0635 17.3325L4.75293 17.3325C4.51074 17.3246 4.2793 17.2673 4.26953 16.9786C4.25977 16.6505 4.50684 16.5966 4.77344 16.5966Z" fill="#FA8B02" fill-opacity="1.000000" fill-rule="evenodd"/>
			<path id="Vector" d="M8.92188 12.8381C7.57422 12.8381 6.22559 12.8381 4.88477 12.8381C4.61133 12.8381 4.25781 12.8763 4.27539 12.4595C4.29004 12.0988 4.6123 12.1224 4.87207 12.1224L13.1143 12.1224C13.3809 12.1224 13.6885 12.1134 13.6973 12.4786C13.7061 12.8438 13.3906 12.8426 13.1279 12.8438C11.7256 12.8404 10.3242 12.8381 8.92188 12.8381Z" fill="#FA8B02" fill-opacity="1.000000" fill-rule="nonzero"/>
			<path id="Vector" d="M4.82617 13.3386Q4.86719 13.3381 4.88477 13.3381L8.92188 13.3381L11.0186 13.3397L13.1299 13.3438L13.1328 13.3437L13.1338 13.3437L13.1348 13.3437Q13.291 13.3431 13.3779 13.3352Q13.5654 13.3182 13.71 13.258Q13.8574 13.1962 13.9629 13.092Q14.0254 13.0304 14.0732 12.9539Q14.0908 12.9259 14.1064 12.8966Q14.2031 12.7079 14.1973 12.4662Q14.1914 12.2231 14.085 12.0378Q14.0732 12.0176 14.0605 11.9982Q14.0107 11.9222 13.9463 11.8613Q13.8428 11.7633 13.7021 11.7048Q13.5586 11.6455 13.373 11.6296Q13.2871 11.6223 13.1328 11.6224L13.1143 11.6224L4.87207 11.6224Q4.8584 11.6224 4.8291 11.6223Q4.68066 11.6215 4.59668 11.6282Q4.41602 11.6426 4.27637 11.6987Q4.13477 11.7554 4.03027 11.8522Q3.96875 11.9091 3.91992 11.9797Q3.90234 12.0055 3.88672 12.0325Q3.78516 12.2092 3.77539 12.4393Q3.76465 12.713 3.87695 12.9191Q3.87891 12.9221 3.87988 12.925Q3.93262 13.0196 4.00684 13.093Q4.10547 13.1909 4.24121 13.2513Q4.38867 13.317 4.58203 13.3329Q4.66992 13.3401 4.82617 13.3386ZM8.92188 12.8381L4.88477 12.8381C4.86426 12.8381 4.84277 12.8383 4.82129 12.8386C4.55957 12.8413 4.25977 12.8444 4.27539 12.4595C4.28906 12.1194 4.57617 12.121 4.82617 12.1223C4.8418 12.1223 4.85645 12.1224 4.87207 12.1224L13.1143 12.1224L13.1328 12.1224C13.3945 12.1222 13.6885 12.1219 13.6973 12.4786C13.7061 12.8413 13.3945 12.8426 13.1328 12.8437L13.1279 12.8438C11.7256 12.8404 10.3242 12.8381 8.92188 12.8381Z" fill="#FA8B02" fill-opacity="1.000000" fill-rule="evenodd"/>
			<path id="Vector" d="M6.83203 9.86511L8.79297 9.86511C9.04688 9.86511 9.31641 9.87744 9.32324 10.2123C9.33008 10.5471 9.06543 10.5752 8.80859 10.5752C7.46484 10.5752 6.12109 10.5752 4.77734 10.5752C4.52344 10.5752 4.24902 10.5527 4.27441 10.2078C4.29492 9.88873 4.55957 9.86511 4.81641 9.87073L6.83203 9.86511Z" fill="#FA8B02" fill-opacity="1.000000" fill-rule="nonzero"/>
			<path id="Vector" d="M9.64746 9.66266Q9.39746 9.36511 8.79297 9.36511L6.83105 9.36511L4.82129 9.37073Q4.46973 9.36395 4.25293 9.46106Q4.12207 9.51929 4.02539 9.61206Q3.96484 9.66931 3.91699 9.73969Q3.89746 9.76855 3.88086 9.79895Q3.78906 9.96381 3.77539 10.1721Q3.75781 10.4184 3.84961 10.6135Q3.85547 10.6271 3.8623 10.6406Q3.91016 10.7319 3.97754 10.8047Q4.06836 10.9034 4.19727 10.9678Q4.33984 11.0396 4.52734 11.0626Q4.62988 11.0752 4.77734 11.0752L8.80859 11.0752Q9.17188 11.0752 9.38867 10.9663Q9.51465 10.9034 9.60547 10.808Q9.66992 10.7398 9.71777 10.655Q9.72559 10.6408 9.7334 10.6263Q9.82812 10.4396 9.82324 10.2022Q9.81641 9.8642 9.64746 9.66266ZM4.81641 9.87073C4.55957 9.86511 4.29492 9.88873 4.27441 10.2078C4.24902 10.5527 4.52344 10.5752 4.77734 10.5752L8.80859 10.5752C9.06543 10.5752 9.33008 10.5471 9.32324 10.2123C9.31641 9.87744 9.04688 9.86511 8.79297 9.86511L6.83203 9.86511L4.81641 9.87073Z" fill="#FA8B02" fill-opacity="1.000000" fill-rule="evenodd"/>
			<path id="Vector" d="M18.0645 11.5393C18.0645 11.8943 18.0703 12.2505 18.0645 12.6045C18.0586 12.8561 17.9521 13.0539 17.6709 13.0438C17.4131 13.0325 17.333 12.8359 17.333 12.6112C17.3291 11.9011 17.3291 11.1895 17.333 10.4764C17.333 10.2258 17.4355 10.0269 17.7246 10.0381C17.9727 10.0528 18.0615 10.2393 18.0684 10.4696C18.0674 10.8292 18.0645 11.1843 18.0645 11.5393Z" fill="#FA8B02" fill-opacity="1.000000" fill-rule="nonzero"/>
			<path id="Vector" d="M18.3906 13.1963Q18.5557 12.9622 18.5645 12.6179L18.5645 12.6124Q18.5684 12.3712 18.5664 11.892Q18.5645 11.6563 18.5645 11.5409L18.5684 10.4631L18.5684 10.455Q18.5586 10.1171 18.3965 9.88629Q18.3359 9.7998 18.2578 9.7337Q18.1934 9.67902 18.1172 9.63824Q17.9531 9.55078 17.7441 9.53857Q17.5283 9.53015 17.3486 9.60535Q17.249 9.64697 17.167 9.71088Q17.0879 9.77179 17.0254 9.85303Q17.0068 9.87701 16.9902 9.90228Q16.833 10.1373 16.833 10.4764L16.833 12.6112Q16.833 12.9494 16.9883 13.1837Q17.0488 13.2746 17.1279 13.3437Q17.1934 13.4009 17.2725 13.4432Q17.2773 13.4458 17.2822 13.4484Q17.4473 13.5345 17.6523 13.5435Q17.8604 13.5509 18.0361 13.4791Q18.041 13.4772 18.0449 13.4752Q18.1396 13.4352 18.2188 13.3752Q18.2998 13.3136 18.3643 13.231Q18.3779 13.2139 18.3906 13.1963ZM18.0645 11.5393C18.0645 11.6577 18.0654 11.7761 18.0664 11.8946C18.0674 12.1315 18.0684 12.3685 18.0645 12.6045C18.0586 12.8561 17.9521 13.0539 17.6709 13.0438C17.4131 13.0325 17.333 12.8359 17.333 12.6112Q17.3271 11.546 17.333 10.4764C17.333 10.2258 17.4355 10.0269 17.7246 10.0381C17.9727 10.0528 18.0615 10.2393 18.0684 10.4696C18.0674 10.8292 18.0645 11.1843 18.0645 11.5393Z" fill="#FA8B02" fill-opacity="1.000000" fill-rule="evenodd"/>
			<path id="Vector" d="M18.0654 15.6562C18.0654 16.0101 18.0713 16.3652 18.0654 16.7202C18.0654 16.9685 17.9648 17.1697 17.6768 17.1697C17.416 17.1629 17.3398 16.9651 17.334 16.7416C17.3271 16.0314 17.3271 15.3217 17.334 14.6124C17.334 14.3652 17.4326 14.1472 17.7188 14.1629C18.0039 14.1786 18.0703 14.4011 18.0703 14.6494L18.0654 15.6562Z" fill="#FA8B02" fill-opacity="1.000000" fill-rule="nonzero"/>
			<path id="Vector" d="M18.5654 16.7245Q18.5645 17.0565 18.4131 17.2901Q18.3965 17.315 18.3789 17.3388Q18.3174 17.4198 18.2412 17.4817Q18.1621 17.5458 18.0664 17.5894Q17.8896 17.6697 17.6768 17.6697L17.6699 17.6697L17.6641 17.6695Q17.4756 17.6646 17.3184 17.5919Q17.2998 17.5836 17.2822 17.5743Q17.2031 17.5331 17.1377 17.477Q17.0566 17.4075 16.9941 17.3151Q16.8428 17.0886 16.834 16.7542Q16.8242 15.6764 16.834 14.6076Q16.834 14.2768 16.9834 14.0408Q16.998 14.0179 17.0146 13.9958Q17.083 13.9012 17.1709 13.8324Q17.2451 13.7748 17.334 13.7353Q17.3564 13.7253 17.3789 13.7168Q17.5479 13.6528 17.7461 13.6637Q17.9473 13.6748 18.1104 13.7595Q18.1279 13.7686 18.1455 13.7784Q18.2217 13.8228 18.2842 13.8812Q18.3701 13.9602 18.4316 14.065Q18.5703 14.2993 18.5703 14.6494L18.5654 15.6584Q18.5654 15.7728 18.5664 16.0076Q18.5693 16.4825 18.5654 16.7245ZM18.0654 15.6562C18.0654 15.774 18.0664 15.8921 18.0664 16.0102C18.0684 16.2466 18.0693 16.4834 18.0654 16.7202C18.0654 16.9685 17.9648 17.1697 17.6768 17.1697C17.416 17.1629 17.3398 16.9651 17.334 16.7416Q17.3242 15.6764 17.334 14.6124C17.334 14.3652 17.4326 14.1472 17.7188 14.1629C18.0039 14.1786 18.0703 14.4011 18.0703 14.6494L18.0654 15.6562Z" fill="#FA8B02" fill-opacity="1.000000" fill-rule="evenodd"/>
		</g>
	</g>
</svg>
