<svg width="21.286133" height="21.285706" viewBox="0 0 21.2861 21.2857" fill="none" xmlns="http://www.w3.org/2000/svg" xmlns:xlink="http://www.w3.org/1999/xlink">
	<desc>
			Created with Pixso.
	</desc>
	<defs/>
	<path id="Vector" d="M12.9521 21.0361Q11.8252 21.2857 10.6436 21.2857Q9.46191 21.2857 8.33496 21.0361Q7.39844 20.8287 6.5 20.4487Q5.5957 20.0662 4.78906 19.5347Q3.89258 18.9437 3.11719 18.1685Q2.34277 17.3933 1.75098 16.4968Q1.21973 15.6905 0.836914 14.786Q0.457031 13.8877 0.25 12.9512Q0 11.8247 0 10.6429Q0 9.46106 0.25 8.33453Q0.457031 7.39801 0.837891 6.49969Q1.21973 5.59528 1.75098 4.78894Q2.34277 3.8924 3.11719 3.11725Q3.89258 2.3421 4.78906 1.7511Q5.5957 1.21954 6.5 0.836975Q7.39844 0.457092 8.33496 0.249573Q9.46094 0 10.6436 0Q11.8252 0 12.9521 0.249573Q13.8877 0.457031 14.7861 0.836975Q15.6904 1.21954 16.4971 1.75104Q17.3936 2.34204 18.1689 3.11725Q18.9443 3.8924 19.5352 4.78894Q20.0664 5.59521 20.4492 6.49969Q20.8291 7.39795 21.0361 8.33441Q21.2861 9.461 21.2861 10.6429Q21.2861 11.8247 21.0361 12.9513Q20.8291 13.8878 20.4492 14.786Q20.0664 15.6904 19.5352 16.4968Q18.9443 17.3933 18.1689 18.1685Q17.3936 18.9437 16.4971 19.5347Q15.6904 20.0662 14.7861 20.4487Q13.8877 20.8287 12.9521 21.0361ZM1.5 10.6429C1.5 15.6923 5.59375 19.7857 10.6436 19.7857C15.6924 19.7857 19.7861 15.6923 19.7861 10.6429C19.7861 5.59338 15.6924 1.5 10.6436 1.5C5.59375 1.5 1.5 5.59338 1.5 10.6429Z" fill="#FA8B02" fill-opacity="1.000000" fill-rule="evenodd"/>
	<path id="Vector" d="M10.6436 7.21423L10.6436 11.7856L14.6436 11.7856" stroke="#FA8B02" stroke-opacity="1.000000" stroke-width="1.500000" stroke-linejoin="round" stroke-linecap="round"/>
</svg>
