<svg width="24.000000" height="24.000000" viewBox="0 0 24 24" fill="none" xmlns="http://www.w3.org/2000/svg" xmlns:xlink="http://www.w3.org/1999/xlink">
	<desc>
			Created with Pixso.
	</desc>
	<defs>
		<clipPath id="clip201_5134">
			<rect id="icon_bus" width="24.000000" height="24.000000" fill="white" fill-opacity="0"/>
		</clipPath>
	</defs>
	<g opacity="0.800000">
		<rect id="icon_bus" width="24.000000" height="24.000000" fill="#FFFFFF" fill-opacity="0"/>
		<g clip-path="url(#clip201_5134)">
			<path id="Vector" d="M11.9707 0.570251C14.3271 0.570251 16.6846 0.570251 19.042 0.570251C19.9844 0.570251 20.8477 0.74585 21.3496 1.6781C21.5371 2.00067 21.6406 2.36554 21.6494 2.73877C21.6494 3.17133 21.6494 3.60266 21.6494 4.03522C21.6494 4.85077 21.6494 4.85077 22.457 4.92499C23.6201 5.03107 24.377 6.45709 23.8047 7.47772C23.7607 7.56604 23.6904 7.63849 23.6035 7.68481C23.5166 7.73114 23.417 7.74902 23.3193 7.73602C23.2217 7.72302 23.1309 7.67975 23.0586 7.6123C22.9873 7.5448 22.9385 7.45654 22.9189 7.35986C22.8848 7.14685 22.8721 6.93073 22.8838 6.71521C22.9102 6.17664 22.6484 5.97864 22.1318 5.99396C21.7783 6.00336 21.626 6.14246 21.6494 6.49127C21.6602 6.64801 21.6494 6.80597 21.6494 6.96271C21.6494 10.9093 21.6494 14.8558 21.6494 18.8024C21.6494 19.869 21.4238 20.1825 20.3789 20.4653C20.0635 20.5502 19.9688 20.7117 19.9756 21.0028C19.9756 21.3563 19.9873 21.7099 19.9668 22.0635C19.959 22.3807 19.8379 22.6847 19.627 22.9211C19.415 23.1575 19.126 23.311 18.8115 23.354C18.2881 23.4398 17.7539 23.4497 17.2266 23.3834C16.3643 23.2762 15.9541 22.8142 15.9307 21.9279C15.9209 21.5944 15.9209 21.2597 15.9307 20.9261C15.9307 20.6304 15.7949 20.496 15.5029 20.496C13.1455 20.496 10.7881 20.496 8.43164 20.496C8.10547 20.496 7.96875 20.6433 7.97754 20.9674C7.98535 21.2915 7.98535 21.6357 7.97754 21.9692C7.94434 22.8189 7.53516 23.2786 6.70215 23.3834C6.17578 23.4522 5.6416 23.4443 5.11719 23.3599C4.80273 23.3213 4.51172 23.1728 4.2959 22.9405C4.08008 22.7083 3.9541 22.4072 3.93848 22.0906C3.92871 21.9729 3.92871 21.8547 3.93848 21.737C3.99414 21.0428 4.00684 20.4653 3.05078 20.3015C2.40039 20.1837 2.25488 19.5331 2.25684 18.8873C2.26758 14.9403 2.25684 10.991 2.25684 7.04755C2.25684 6.89081 2.24609 6.73291 2.25684 6.57617C2.28613 6.19904 2.17676 5.97864 1.73926 5.99512C1.33594 6.00928 1.03809 6.09766 1.03223 6.57379C1.03418 6.82849 1.02148 7.08307 0.994141 7.3363C0.983398 7.44788 0.930664 7.55115 0.84668 7.62561C0.762695 7.70001 0.654297 7.74023 0.541992 7.73822C0.482422 7.74518 0.421875 7.74011 0.364258 7.72321C0.306641 7.70636 0.253906 7.67798 0.207031 7.63995C0.161133 7.60187 0.123047 7.55481 0.0947266 7.50165C0.0673828 7.44843 0.0507812 7.3902 0.0458984 7.33044C-0.0996094 6.19073 0.0107422 4.94147 1.7207 4.93091C2.13965 4.93091 2.2666 4.74231 2.25195 4.35339C2.23438 3.82306 2.23828 3.29272 2.25195 2.76355C2.28418 1.58496 3.03027 0.772949 4.19824 0.631531C4.51074 0.594666 4.8252 0.576172 5.14062 0.576172C7.41602 0.572205 9.69238 0.570251 11.9707 0.570251ZM11.9541 4.84485C9.26367 4.84485 6.57129 4.84485 3.88086 4.84485C3.50391 4.84485 3.23828 4.87665 3.24414 5.36694C3.26367 7.05701 3.25586 8.74585 3.24414 10.4347C3.24414 10.7659 3.37988 10.938 3.69922 11.011C6.13672 11.5673 8.58594 12.0022 11.0908 12.0753C14.1367 12.1625 17.1182 11.7299 20.0732 11.0393C20.4971 10.9403 20.6621 10.7589 20.6553 10.3239C20.6377 8.73291 20.624 7.14185 20.6611 5.55078C20.6738 4.96155 20.4531 4.83069 19.9082 4.83545C17.2578 4.85901 14.6055 4.84601 11.9541 4.84601L11.9541 4.84485ZM11.9541 19.42C14.6436 19.42 17.334 19.42 20.0234 19.42C20.5244 19.42 20.6543 19.1843 20.6611 18.7281C20.668 18.2721 20.4912 18.0941 20.0371 18.1118C19.4873 18.1379 18.9365 18.134 18.3877 18.1C17.917 18.0672 17.4785 17.8542 17.1611 17.5053C16.8438 17.1564 16.6738 16.6987 16.6865 16.2275C16.6992 15.7564 16.8926 15.3082 17.2275 14.9763C17.5615 14.6445 18.0117 14.4547 18.4834 14.4465C19.0527 14.43 19.6211 14.4347 20.1904 14.4465C20.5137 14.4465 20.6553 14.3063 20.6504 13.9845C20.6436 13.5131 20.626 13.0417 20.6572 12.5703C20.6914 12.0659 20.5576 11.9126 20.0293 12.0659C17.543 12.7906 14.9814 13.0346 12.4062 13.0664C9.49219 13.103 6.60254 12.8484 3.78418 12.0458C3.41504 11.9409 3.22656 11.9857 3.24805 12.4265C3.27148 12.9368 3.26367 13.4482 3.24805 13.9586C3.23926 14.3121 3.39453 14.4548 3.74219 14.4477C4.27246 14.4359 4.80273 14.4382 5.33301 14.4477C6.3584 14.4689 7.19727 15.2726 7.21875 16.2485C7.24316 17.2008 6.40137 18.0694 5.38965 18.113C4.86035 18.1365 4.3291 18.133 3.7998 18.113C3.39844 18.1024 3.23633 18.2626 3.23926 18.6693C3.23926 19.2998 3.33008 19.4129 3.99414 19.4141C6.64746 19.4227 9.2998 19.4271 11.9502 19.4271L11.9541 19.42ZM11.9619 3.85016L14.2607 3.85016C16.1826 3.85016 18.1055 3.85016 20.0283 3.85016C20.2695 3.85016 20.5469 3.91498 20.6426 3.55432C20.9258 2.45593 20.3154 1.62036 19.1807 1.61914C14.3535 1.61444 9.52637 1.61444 4.7002 1.61914C3.6748 1.61914 3.27637 2.02222 3.25195 3.03345C3.23145 3.81836 3.25195 3.84424 4.07617 3.84424L11.9619 3.85016ZM4.51172 17.0699C4.78613 17.0699 5.05957 17.0699 5.33594 17.0699C5.82617 17.0699 6.10742 16.826 6.14844 16.3334C6.18652 15.8679 5.8916 15.5084 5.38672 15.4706C4.95898 15.4353 4.52637 15.4542 4.09082 15.4542C3.24414 15.4542 3.24414 15.4542 3.24805 16.2874C3.24805 17.0546 3.26562 17.0699 4.04004 17.0746L4.51172 17.0699ZM19.2988 17.0641C20.7471 17.0712 20.7471 17.0711 20.6455 15.902C20.6455 15.8631 20.6455 15.8242 20.6396 15.7842C20.6436 15.7398 20.6367 15.6953 20.6211 15.6536C20.6055 15.6119 20.5811 15.5743 20.5488 15.5431C20.5176 15.5119 20.4795 15.488 20.4375 15.4731C20.3955 15.4581 20.3506 15.4525 20.3066 15.4565C19.6807 15.4565 19.0498 15.4247 18.4297 15.4836C17.9961 15.5237 17.7314 15.8301 17.752 16.2968C17.7764 16.7836 18.0361 17.0523 18.5352 17.0617C18.7891 17.0699 19.0439 17.0629 19.2988 17.0629L19.2988 17.0641ZM6.96777 21.3976C6.96777 20.4948 6.96777 20.4948 6.125 20.4925C4.99902 20.4925 4.99902 20.4925 4.99609 21.2998C4.99609 22.351 5.00879 22.3699 5.95898 22.3711C6.93457 22.3734 6.96484 22.3428 6.96777 21.3976ZM17.9023 20.4877C16.9307 20.4877 16.9307 20.4877 16.9307 21.3234C16.9307 22.344 16.9521 22.3676 17.9277 22.3663C18.8818 22.3663 18.9043 22.3428 18.9023 21.3646C18.9023 20.4877 18.9023 20.4877 17.9023 20.4877Z" fill="#FA8B02" fill-opacity="1.000000" fill-rule="nonzero"/>
			<path id="Vector" d="M19.042 0.570251C19.9844 0.570251 20.8477 0.74585 21.3496 1.6781C21.5371 2.00067 21.6406 2.36554 21.6494 2.73877C21.6494 3.17133 21.6494 3.60266 21.6494 4.03522C21.6494 4.85077 21.6494 4.85077 22.457 4.92499C23.6201 5.03107 24.377 6.45709 23.8047 7.47772C23.7607 7.56604 23.6904 7.63849 23.6035 7.68481C23.5166 7.73114 23.417 7.74902 23.3193 7.73602C23.2217 7.72302 23.1309 7.67975 23.0586 7.6123C22.9873 7.5448 22.9385 7.45654 22.9189 7.35986C22.8848 7.14685 22.8721 6.93073 22.8838 6.71521C22.9102 6.17664 22.6484 5.97864 22.1318 5.99396C21.7783 6.00336 21.626 6.14246 21.6494 6.49127C21.6602 6.64801 21.6494 6.80597 21.6494 6.96271C21.6494 10.9093 21.6494 14.8558 21.6494 18.8024C21.6494 19.869 21.4238 20.1825 20.3789 20.4653C20.0635 20.5502 19.9688 20.7117 19.9756 21.0028C19.9756 21.3563 19.9873 21.7099 19.9668 22.0635C19.959 22.3807 19.8379 22.6847 19.627 22.9211C19.415 23.1575 19.126 23.311 18.8115 23.354C18.2881 23.4398 17.7539 23.4497 17.2266 23.3834C16.3643 23.2762 15.9541 22.8142 15.9307 21.9279C15.9209 21.5944 15.9209 21.2597 15.9307 20.9261C15.9307 20.6304 15.7949 20.496 15.5029 20.496C13.1455 20.496 10.7881 20.496 8.43164 20.496C8.10547 20.496 7.96875 20.6433 7.97754 20.9674C7.98535 21.2915 7.98535 21.6357 7.97754 21.9692C7.94434 22.8189 7.53516 23.2786 6.70215 23.3834C6.17578 23.4522 5.6416 23.4443 5.11719 23.3599C4.80273 23.3213 4.51172 23.1728 4.2959 22.9405C4.08008 22.7083 3.9541 22.4072 3.93848 22.0906C3.92871 21.9729 3.92871 21.8547 3.93848 21.737C3.99414 21.0428 4.00684 20.4653 3.05078 20.3015C2.40039 20.1837 2.25488 19.5331 2.25684 18.8873C2.26758 14.9403 2.25684 10.991 2.25684 7.04755C2.25684 6.89081 2.24609 6.73291 2.25684 6.57617C2.28613 6.19904 2.17676 5.97864 1.73926 5.99512C1.33594 6.00928 1.03809 6.09766 1.03223 6.57379C1.03418 6.82849 1.02148 7.08307 0.994141 7.3363C0.983398 7.44788 0.930664 7.55115 0.84668 7.62561C0.762695 7.70001 0.654297 7.74023 0.541992 7.73822C0.482422 7.74518 0.421875 7.74011 0.364258 7.72321C0.306641 7.70636 0.253906 7.67798 0.207031 7.63995C0.161133 7.60187 0.123047 7.55481 0.0947266 7.50165C0.0673828 7.44843 0.0507812 7.3902 0.0458984 7.33044C-0.0996094 6.19073 0.0107422 4.94147 1.7207 4.93091C2.13965 4.93091 2.2666 4.74231 2.25195 4.35339C2.23438 3.82306 2.23828 3.29272 2.25195 2.76355C2.28418 1.58496 3.03027 0.772949 4.19824 0.631531C4.51074 0.594666 4.8252 0.576172 5.14062 0.576172C7.41602 0.572205 9.69238 0.570251 11.9707 0.570251C14.3271 0.570251 16.6846 0.570251 19.042 0.570251ZM3.88086 4.84485C3.50391 4.84485 3.23828 4.87665 3.24414 5.36694C3.26367 7.05701 3.25586 8.74585 3.24414 10.4347C3.24414 10.7659 3.37988 10.938 3.69922 11.011C6.13672 11.5673 8.58594 12.0022 11.0908 12.0753C14.1367 12.1625 17.1182 11.7299 20.0732 11.0393C20.4971 10.9403 20.6621 10.7588 20.6553 10.3239C20.6377 8.73291 20.624 7.14185 20.6611 5.55078C20.6738 4.96155 20.4531 4.83069 19.9082 4.83545C17.2578 4.85901 14.6055 4.84601 11.9541 4.84601L11.9541 4.84485C9.26367 4.84485 6.57129 4.84485 3.88086 4.84485ZM20.0234 19.42C20.5244 19.42 20.6543 19.1843 20.6611 18.7281C20.668 18.2721 20.4912 18.0941 20.0371 18.1118C19.4873 18.1379 18.9365 18.134 18.3877 18.1C17.917 18.0672 17.4785 17.8542 17.1611 17.5053C16.8438 17.1564 16.6738 16.6987 16.6865 16.2275C16.6992 15.7564 16.8926 15.3082 17.2275 14.9763C17.5615 14.6445 18.0117 14.4547 18.4834 14.4465C19.0527 14.43 19.6211 14.4347 20.1904 14.4465C20.5137 14.4465 20.6553 14.3063 20.6504 13.9845C20.6436 13.5131 20.626 13.0417 20.6572 12.5703C20.6914 12.0659 20.5576 11.9126 20.0293 12.0659C17.543 12.7906 14.9814 13.0346 12.4062 13.0664C9.49219 13.103 6.60254 12.8484 3.78418 12.0458C3.41504 11.9409 3.22656 11.9857 3.24805 12.4265C3.27148 12.9368 3.26367 13.4482 3.24805 13.9586C3.23926 14.3121 3.39453 14.4548 3.74219 14.4477C4.27246 14.4359 4.80273 14.4382 5.33301 14.4477C6.3584 14.4689 7.19727 15.2726 7.21875 16.2485C7.24316 17.2008 6.40137 18.0694 5.38965 18.113C4.86035 18.1365 4.3291 18.133 3.7998 18.113C3.39844 18.1024 3.23633 18.2626 3.23926 18.6693C3.23926 19.2998 3.33008 19.4129 3.99414 19.4141C6.64746 19.4227 9.2998 19.4271 11.9502 19.4271L11.9541 19.42C14.6436 19.42 17.334 19.42 20.0234 19.42ZM14.2607 3.85016C16.1826 3.85016 18.1055 3.85016 20.0283 3.85016C20.2695 3.85016 20.5469 3.91498 20.6426 3.55432C20.9258 2.45593 20.3154 1.62036 19.1807 1.61914C14.3535 1.61444 9.52637 1.61444 4.7002 1.61914C3.6748 1.61914 3.27637 2.02222 3.25195 3.03345C3.23145 3.81836 3.25195 3.84424 4.07617 3.84424L11.9619 3.85016L14.2607 3.85016ZM5.33594 17.0699C5.82617 17.0699 6.10742 16.826 6.14844 16.3334C6.18652 15.8679 5.8916 15.5084 5.38672 15.4706C4.95898 15.4353 4.52637 15.4542 4.09082 15.4542C3.24414 15.4542 3.24414 15.4542 3.24805 16.2874C3.24805 17.0546 3.26562 17.0699 4.04004 17.0746L4.51172 17.0699C4.78613 17.0699 5.05957 17.0699 5.33594 17.0699ZM20.6455 15.902C20.6455 15.8631 20.6455 15.8242 20.6396 15.7842C20.6436 15.7398 20.6367 15.6953 20.6211 15.6536C20.6055 15.6119 20.5811 15.5743 20.5488 15.5431C20.5176 15.5119 20.4795 15.488 20.4375 15.4731C20.3955 15.4581 20.3506 15.4525 20.3066 15.4565C19.6807 15.4565 19.0498 15.4247 18.4297 15.4836C17.9961 15.5237 17.7314 15.8301 17.752 16.2968C17.7764 16.7836 18.0361 17.0522 18.5352 17.0617C18.7891 17.0699 19.0439 17.0629 19.2988 17.0629L19.2988 17.0641C20.7471 17.0711 20.7471 17.0711 20.6455 15.902ZM6.125 20.4925C4.99902 20.4925 4.99902 20.4925 4.99609 21.2998C4.99609 22.351 5.00879 22.3699 5.95898 22.3711C6.93457 22.3734 6.96484 22.3428 6.96777 21.3976C6.96777 20.4948 6.96777 20.4948 6.125 20.4925ZM16.9307 21.3234C16.9307 22.344 16.9521 22.3676 17.9277 22.3663C18.8818 22.3663 18.9043 22.3428 18.9023 21.3646C18.9023 20.4877 18.9023 20.4877 17.9023 20.4877C16.9307 20.4877 16.9307 20.4877 16.9307 21.3234Z" stroke="#FA8B02" stroke-opacity="1.000000" stroke-width="0.500000"/>
			<path id="Vector" d="M11.9189 18.0388C11.1328 18.0388 10.3486 18.0529 9.5625 18.0388C8.6875 18.0187 8.18066 17.506 8.14746 16.641C8.13965 16.4253 8.1416 16.2084 8.14746 15.9927C8.16699 15.097 8.6543 14.5114 9.53711 14.489C11.1455 14.4473 12.7568 14.4473 14.3691 14.489C15.252 14.5114 15.7412 15.0959 15.7588 15.9927C15.7588 16.2285 15.7686 16.4642 15.7588 16.6999C15.7158 17.4966 15.21 17.9963 14.4033 18.0411C14.3652 18.0411 14.3242 18.0411 14.2861 18.0411L11.9189 18.0388ZM12.0088 15.5449C11.2656 15.5449 10.5215 15.5579 9.77832 15.5449C9.27344 15.5331 9.13867 15.7936 9.14648 16.2415C9.15332 16.6669 9.17285 17.0393 9.74512 17.037C11.2129 17.0307 12.6816 17.0307 14.1494 17.037C14.7188 17.037 14.7451 16.6728 14.751 16.245C14.751 15.7995 14.6338 15.5319 14.123 15.5449C13.4199 15.5579 12.7139 15.5449 12.0088 15.5449Z" fill="#FA8B02" fill-opacity="1.000000" fill-rule="nonzero"/>
			<path id="Vector" d="M9.5625 18.0388C8.6875 18.0187 8.18066 17.506 8.14746 16.641C8.13965 16.4253 8.1416 16.2084 8.14746 15.9927C8.16699 15.097 8.6543 14.5114 9.53711 14.489C11.1455 14.4473 12.7568 14.4473 14.3691 14.489C15.252 14.5114 15.7412 15.0959 15.7588 15.9927C15.7588 16.2285 15.7686 16.4642 15.7588 16.6999C15.7158 17.4966 15.21 17.9963 14.4033 18.0411C14.3652 18.0411 14.3242 18.0411 14.2861 18.0411L11.9189 18.0388C11.1328 18.0388 10.3486 18.0529 9.5625 18.0388ZM9.77832 15.5449C9.27344 15.5331 9.13867 15.7936 9.14648 16.2415C9.15332 16.6669 9.17285 17.0393 9.74512 17.037C11.2129 17.0307 12.6816 17.0307 14.1494 17.037C14.7188 17.037 14.7451 16.6728 14.751 16.245C14.751 15.7995 14.6338 15.5319 14.123 15.5449C13.4199 15.5579 12.7139 15.5449 12.0088 15.5449C11.2656 15.5449 10.5215 15.5579 9.77832 15.5449Z" stroke="#FA8B02" stroke-opacity="1.000000" stroke-width="0.500000"/>
		</g>
	</g>
</svg>
