<svg width="24.000000" height="24.000000" viewBox="0 0 24 24" fill="none" xmlns="http://www.w3.org/2000/svg" xmlns:xlink="http://www.w3.org/1999/xlink">
	<desc>
			Created with Pixso.
	</desc>
	<defs>
		<clipPath id="clip201_1928">
			<rect id="icon_support" width="24.000000" height="24.000000" fill="white" fill-opacity="0"/>
		</clipPath>
	</defs>
	<g opacity="0.800000">
		<rect id="icon_support" width="24.000000" height="24.000000" fill="#FFFFFF" fill-opacity="0"/>
		<g clip-path="url(#clip201_1928)">
			<path id="Vector" d="M1.48145 13.0078C1.48145 12.3296 1.47461 11.6514 1.48145 10.9731C1.50195 9.46094 2.05273 8.68994 3.49023 8.25977C3.84473 8.15576 3.79004 7.92285 3.80371 7.70264C3.91797 5.73047 4.6748 4.04004 5.99512 2.58936C8.13379 0.239746 11.6289 -0.616211 14.7188 0.458496C17.7363 1.5083 19.9453 4.3457 20.1348 7.48047C20.166 7.99072 20.3125 8.21094 20.8164 8.36426C21.7695 8.646 22.3525 9.34912 22.4248 10.3408C22.5547 12.127 22.5547 13.9199 22.4248 15.7061C22.3438 16.8145 21.6484 17.5063 20.5879 17.7861C20.2695 17.8696 20.1533 18.0063 20.1484 18.3076C20.1455 18.499 20.127 18.6899 20.0957 18.8784C19.6943 21.3413 18.3535 22.5059 15.6621 22.7393C15.4883 22.7588 15.3145 22.7681 15.1396 22.7666C14.8086 22.7539 14.6494 22.8711 14.6113 23.2319C14.5576 23.7109 14.2188 23.9717 13.75 23.9834C12.7939 24.0054 11.8379 24.0054 10.8818 23.9834C10.3291 23.9727 9.97852 23.6211 9.94727 23.061C9.91992 22.5742 9.91992 22.0864 9.94727 21.6001C9.98242 21.0322 10.3154 20.7046 10.8867 20.6919C11.8262 20.6704 12.7646 20.6733 13.7041 20.6919C14.2256 20.7026 14.5703 20.979 14.6084 21.5132C14.6318 21.8579 14.7793 21.8975 15.0742 21.8672C15.8047 21.793 16.5303 21.7368 17.2217 21.4717C18.4863 20.9873 19.4297 19.4282 19.2627 18.1323C19.2266 17.8477 19.0342 17.9238 18.8799 17.9155C17.9766 17.8706 17.9512 17.8486 17.9502 16.9482C17.9502 14.3218 17.9502 11.6963 17.9502 9.0708C17.9502 8.25049 18.0156 8.16699 18.8359 8.16895C19.1787 8.16895 19.2783 8.07617 19.2607 7.72559C19.0742 4.00049 16.0264 1.06689 12.1328 0.889648C8.57715 0.719727 5.25391 3.52344 4.78223 7.09521C4.77148 7.18066 4.76074 7.26758 4.74902 7.35303C4.64941 8.10352 4.64941 8.11377 5.39062 8.14697C5.8252 8.16602 6.0166 8.36963 6.0166 8.79932C6.0166 11.6167 6.0166 14.4341 6.0166 17.2515C6.0166 17.709 5.82227 17.9312 5.3584 17.9155C4.78516 17.8945 4.21094 17.958 3.64062 17.854C2.41113 17.6348 1.63574 16.854 1.53516 15.6133C1.46387 14.7505 1.52148 13.877 1.52148 13.0049L1.48145 13.0078ZM5.0918 13.0298L5.0918 10.0034C5.0918 9.0083 5.0918 9.0083 4.07129 9.05615C3.09961 9.10205 2.43359 9.65625 2.41016 10.5776C2.36914 12.2104 2.37305 13.8457 2.41016 15.4819C2.42969 16.2759 2.9502 16.7979 3.7334 16.9429C4.00488 16.9907 4.28906 16.9639 4.56836 16.9961C4.97168 17.043 5.11621 16.9033 5.10547 16.4795C5.07812 15.3252 5.0957 14.1777 5.0957 13.0298L5.0918 13.0298ZM18.874 13.0298C18.874 14.1943 18.8838 15.3599 18.8662 16.5244C18.8662 16.8813 18.9648 17.0459 19.3369 17.0024C19.5459 16.9795 19.7549 17.0024 19.9629 16.9844C20.9023 16.9097 21.5146 16.3584 21.543 15.4307C21.5908 13.832 21.5898 12.2305 21.5596 10.6309C21.5469 9.80859 21.0469 9.28662 20.2246 9.13135C19.9375 9.07715 19.6357 9.10303 19.3438 9.06982C18.9805 9.02686 18.8623 9.16357 18.8682 9.53174C18.8896 10.6963 18.877 11.8618 18.877 13.0278L18.874 13.0298ZM12.2734 23.0703L12.6914 23.0703C13.8125 23.0703 13.8037 23.0703 13.748 21.957C13.7354 21.6865 13.6436 21.5928 13.3818 21.5967C12.6514 21.6074 11.9297 21.5967 11.2031 21.5967C11.0498 21.5967 10.8594 21.5771 10.8604 21.8057C10.8604 22.2002 10.7197 22.6499 10.9258 22.9712C11.0811 23.2134 11.5059 23.0356 11.8086 23.062C11.9639 23.0786 12.125 23.0684 12.2764 23.0684L12.2734 23.0703Z" fill="#FA8B02" fill-opacity="1.000000" fill-rule="nonzero"/>
			<path id="Vector" d="M1.48145 10.9731C1.50195 9.46094 2.05273 8.68994 3.49023 8.25977C3.84473 8.15576 3.79004 7.92285 3.80371 7.70264C3.91797 5.73047 4.6748 4.04004 5.99512 2.58936C8.13379 0.239746 11.6289 -0.616211 14.7188 0.458496C17.7363 1.5083 19.9453 4.3457 20.1348 7.48047C20.166 7.99072 20.3125 8.21094 20.8164 8.36426C21.7695 8.646 22.3525 9.34912 22.4248 10.3408C22.5547 12.127 22.5547 13.9199 22.4248 15.7061C22.3438 16.8145 21.6484 17.5063 20.5879 17.7861C20.2695 17.8696 20.1533 18.0063 20.1484 18.3076C20.1455 18.499 20.127 18.6899 20.0957 18.8784C19.6943 21.3413 18.3535 22.5059 15.6621 22.7393C15.4883 22.7588 15.3145 22.7681 15.1396 22.7666C14.8086 22.7539 14.6494 22.8711 14.6113 23.2319C14.5576 23.7109 14.2188 23.9717 13.75 23.9834C12.7939 24.0054 11.8379 24.0054 10.8818 23.9834C10.3291 23.9727 9.97852 23.6211 9.94727 23.061C9.91992 22.5742 9.91992 22.0864 9.94727 21.6001C9.98242 21.0322 10.3154 20.7046 10.8867 20.6919C11.8262 20.6704 12.7646 20.6733 13.7041 20.6919C14.2256 20.7026 14.5703 20.979 14.6084 21.5132C14.6318 21.8579 14.7793 21.8975 15.0742 21.8672C15.8047 21.793 16.5303 21.7368 17.2217 21.4717C18.4863 20.9873 19.4297 19.4282 19.2627 18.1323C19.2266 17.8477 19.0342 17.9238 18.8799 17.9155C17.9766 17.8706 17.9512 17.8486 17.9502 16.9482C17.9502 14.3218 17.9502 11.6963 17.9502 9.0708C17.9502 8.25049 18.0156 8.16699 18.8359 8.16895C19.1787 8.16895 19.2783 8.07617 19.2607 7.72559C19.0742 4.00049 16.0264 1.06689 12.1328 0.889648C8.57715 0.719727 5.25391 3.52344 4.78223 7.09521C4.77148 7.18066 4.76074 7.26758 4.74902 7.35303C4.64941 8.10352 4.64941 8.11377 5.39062 8.14697C5.8252 8.16602 6.0166 8.36963 6.0166 8.79932C6.0166 11.6167 6.0166 14.4341 6.0166 17.2515C6.0166 17.709 5.82227 17.9312 5.3584 17.9155C4.78516 17.8945 4.21094 17.958 3.64062 17.854C2.41113 17.6348 1.63574 16.854 1.53516 15.6133C1.46387 14.7505 1.52148 13.877 1.52148 13.0049L1.48145 13.0078C1.48145 12.3296 1.47461 11.6514 1.48145 10.9731ZM5.0918 10.0034C5.0918 9.0083 5.0918 9.0083 4.07129 9.05615C3.09961 9.10205 2.43359 9.65625 2.41016 10.5776C2.36914 12.2104 2.37305 13.8457 2.41016 15.4819C2.42969 16.2759 2.9502 16.7979 3.7334 16.9429C4.00488 16.9907 4.28906 16.9639 4.56836 16.9961C4.97168 17.043 5.11621 16.9033 5.10547 16.4795C5.07812 15.3252 5.0957 14.1777 5.0957 13.0298L5.0918 13.0298L5.0918 10.0034ZM18.8662 16.5244C18.8662 16.8813 18.9648 17.0459 19.3369 17.0024C19.5459 16.9795 19.7549 17.0024 19.9629 16.9844C20.9023 16.9097 21.5146 16.3584 21.543 15.4307C21.5908 13.832 21.5898 12.2305 21.5596 10.6309C21.5469 9.80859 21.0469 9.28662 20.2246 9.13135C19.9375 9.07715 19.6357 9.10303 19.3438 9.06982C18.9805 9.02686 18.8623 9.16357 18.8682 9.53174C18.8896 10.6963 18.877 11.8618 18.877 13.0278L18.874 13.0298C18.874 14.1943 18.8838 15.3599 18.8662 16.5244ZM12.6914 23.0703C13.8125 23.0703 13.8037 23.0703 13.748 21.957C13.7354 21.6865 13.6436 21.5928 13.3818 21.5967C12.6514 21.6074 11.9297 21.5967 11.2031 21.5967C11.0498 21.5967 10.8594 21.5771 10.8604 21.8057C10.8604 22.2002 10.7197 22.6499 10.9258 22.9712C11.0811 23.2134 11.5059 23.0356 11.8086 23.062C11.9639 23.0786 12.125 23.0684 12.2764 23.0684L12.2734 23.0703L12.6914 23.0703Z" stroke="#FA8B02" stroke-opacity="1.000000" stroke-width="0.200000"/>
		</g>
	</g>
</svg>
