<svg width="24.000000" height="24.000000" viewBox="0 0 24 24" fill="none" xmlns="http://www.w3.org/2000/svg" xmlns:xlink="http://www.w3.org/1999/xlink">
	<desc>
			Created with Pixso.
	</desc>
	<defs>
		<clipPath id="clip201_1900">
			<rect id="icon_one day" width="24.000000" height="24.000000" fill="white" fill-opacity="0"/>
		</clipPath>
	</defs>
	<g opacity="0.800000">
		<rect id="icon_one day" width="24.000000" height="24.000000" fill="#FFFFFF" fill-opacity="0"/>
		<g clip-path="url(#clip201_1900)">
			<path id="Vector" d="M11.9453 23.999L2.19141 23.999C0.759766 23.999 0 23.2412 0 21.8174C0 15.8362 0 9.85425 0 3.87158C0 2.4834 0.772461 1.70679 2.15723 1.69727C3.04492 1.69214 3.93164 1.67432 4.81641 1.70557C5.24414 1.72119 5.37305 1.56885 5.32617 1.17017C5.30664 0.961914 5.30664 0.752197 5.32617 0.543945C5.35059 0.222412 5.53516 0.0219727 5.85449 0.000976562C6.17383 -0.0197754 6.36426 0.182617 6.44141 0.485352C6.45605 0.570801 6.46191 0.657715 6.45898 0.744385C6.49023 1.69629 6.48926 1.69629 7.46973 1.69629C8.61719 1.69629 9.76465 1.67651 10.9121 1.70679C11.3613 1.71826 11.5 1.5647 11.4502 1.14087C11.4277 0.916016 11.4326 0.689209 11.4668 0.465576C11.4756 0.333496 11.5371 0.210449 11.6367 0.123047C11.7363 0.0358887 11.8662 -0.00830078 11.998 0C12.2969 0 12.4805 0.175293 12.5332 0.469727C12.5479 0.573486 12.5537 0.678223 12.5508 0.782959C12.5674 1.69727 12.5674 1.69727 13.5068 1.69727C14.7061 1.69727 15.9072 1.68579 17.1045 1.70459C17.4463 1.70972 17.5732 1.60034 17.541 1.26196C17.5156 1.01904 17.5186 0.773682 17.5488 0.53125C17.5928 0.200439 17.79 -0.0219727 18.1436 0.00219727C18.457 0.0239258 18.6387 0.227539 18.665 0.548096C18.665 0.58252 18.665 0.61792 18.665 0.652344C18.7246 1.69629 18.7246 1.69629 19.8018 1.69629C20.5146 1.69629 21.2266 1.68579 21.9395 1.69629C23.208 1.72241 23.9971 2.5188 23.9971 3.77246C23.9971 9.82666 23.9971 15.8779 23.9971 21.9258C23.9971 23.2097 23.1982 23.9968 21.9043 23.998C18.585 24.0015 15.2656 24.0017 11.9453 23.999ZM11.998 8.55957C8.55566 8.55957 5.1123 8.56787 1.66895 8.54907C1.22949 8.54907 1.12305 8.67529 1.12402 9.10327C1.13965 13.3467 1.13184 17.5898 1.13379 21.8381C1.13379 22.6179 1.37891 22.8611 2.16602 22.8611L21.8301 22.8611C22.6143 22.8611 22.8604 22.6169 22.8604 21.8372C22.8604 17.594 22.8555 13.3508 22.8711 9.10742C22.8711 8.67651 22.7617 8.55225 22.3232 8.5542C18.8848 8.57104 15.4414 8.55957 11.998 8.55957ZM11.998 7.4248C15.4561 7.4248 18.9141 7.4248 22.3711 7.43433C22.7598 7.43433 22.876 7.32983 22.8672 6.94165C22.8389 5.88208 22.8672 4.82056 22.8555 3.76001C22.8555 3.12012 22.5742 2.84033 21.9297 2.83081C21.1992 2.81934 20.4697 2.83081 19.7393 2.83081C18.707 2.83081 18.707 2.83081 18.6709 3.83618C18.6709 3.88721 18.6709 3.94043 18.6709 3.9917C18.6455 4.31934 18.4551 4.51367 18.1426 4.53442C17.7959 4.55542 17.5928 4.34131 17.5498 4.00415C17.5205 3.79663 17.5186 3.58618 17.543 3.37793C17.5957 2.96045 17.4609 2.80371 17.0098 2.81738C15.8809 2.85083 14.751 2.82886 13.6221 2.82886C12.5898 2.82886 12.5898 2.82886 12.5527 3.83716C12.5527 3.90723 12.5527 3.97705 12.542 4.0459C12.499 4.34766 12.3105 4.52612 12.0205 4.53662C11.9502 4.54419 11.8789 4.53687 11.8125 4.51562C11.7451 4.49438 11.6826 4.45947 11.6299 4.41284C11.5771 4.36646 11.5342 4.30957 11.5039 4.24561C11.4736 4.18164 11.458 4.1123 11.4561 4.04175C11.4268 3.79932 11.4238 3.5542 11.4463 3.31104C11.4912 2.9082 11.3223 2.81323 10.9414 2.81934C9.67383 2.84131 8.40527 2.82788 7.13672 2.82788C6.45703 2.82788 6.45801 2.82788 6.45605 3.48535C6.46387 3.65942 6.45996 3.83374 6.44531 4.00732C6.40527 4.32056 6.21484 4.5293 5.89844 4.5354C5.56348 4.5354 5.3457 4.33936 5.32617 3.98535C5.31055 3.74219 5.31055 3.49805 5.32617 3.25464C5.34863 2.95508 5.2666 2.81519 4.92871 2.82251C3.97266 2.84131 3.01758 2.82251 2.06152 2.83203C1.4209 2.83936 1.14551 3.12427 1.1416 3.77148C1.13379 4.81519 1.16211 5.85913 1.12891 6.90283C1.11426 7.34766 1.25586 7.44678 1.68164 7.44458C5.12109 7.42163 8.56152 7.42896 11.998 7.42896L11.998 7.4248Z" fill="#FA8B02" fill-opacity="1.000000" fill-rule="nonzero"/>
			<path id="Vector" d="M12.0635 13.4124C11.9131 13.5781 11.7734 13.7566 11.6084 13.907C11.5625 13.9551 11.5088 13.9937 11.4482 14.0203C11.3877 14.0471 11.3223 14.0618 11.2568 14.0632C11.1904 14.0647 11.125 14.053 11.0635 14.0288C11.002 14.0046 10.9463 13.9688 10.8984 13.9226C10.6523 13.7139 10.5859 13.4248 10.7939 13.1816C11.3164 12.573 11.8379 11.9707 12.4121 11.4133C12.7256 11.1084 13.1953 11.3088 13.2969 11.7368C13.3193 11.8567 13.3271 11.9785 13.3203 12.1001C13.3203 14.5176 13.3203 16.9348 13.3203 19.3518C13.3252 19.4563 13.3193 19.5613 13.3037 19.6648C13.2383 19.978 13.0479 20.1587 12.7197 20.1409C12.416 20.124 12.2451 19.9426 12.207 19.6472C12.1953 19.5083 12.1914 19.3689 12.1973 19.2295C12.1973 17.4739 12.1973 15.7173 12.1973 13.9602L12.1973 13.4592L12.0635 13.4124Z" fill="#FA8B02" fill-opacity="1.000000" fill-rule="nonzero"/>
		</g>
	</g>
</svg>
