<svg width="24.000000" height="24.000000" viewBox="0 0 24 24" fill="none" xmlns="http://www.w3.org/2000/svg" xmlns:xlink="http://www.w3.org/1999/xlink">
	<desc>
			Created with Pixso.
	</desc>
	<defs>
		<clipPath id="clip201_1908">
			<rect id="icon_map" width="24.000000" height="24.000000" fill="white" fill-opacity="0"/>
		</clipPath>
	</defs>
	<g opacity="0.800000">
		<rect id="icon_map" width="24.000000" height="24.000000" fill="#FFFFFF" fill-opacity="0"/>
		<g clip-path="url(#clip201_1908)">
			<path id="Vector" d="M12.0059 20.762C8.25781 20.762 4.50977 20.762 0.760742 20.762C0.0126953 20.762 0 20.7483 0 19.9966L0 5.7041C0 4.98804 0.0175781 4.96802 0.736328 4.96802C5.20215 4.96802 9.66895 4.97021 14.1357 4.97437C14.4951 4.97437 14.7393 4.89038 14.9766 4.59692C15.3301 4.1709 15.7725 3.82812 16.2734 3.59277C16.7744 3.35742 17.3203 3.23535 17.874 3.23535C18.4277 3.23535 18.9736 3.35742 19.4746 3.59277C19.9756 3.82812 20.418 4.1709 20.7715 4.59692C20.9961 4.86914 21.2148 4.99023 21.5635 4.97656C22.1943 4.95337 22.8252 4.97656 23.4561 4.96802C23.8223 4.96167 24 5.08911 24 5.48535C23.9932 10.408 23.9932 15.3298 24 20.251C24 20.7495 23.7109 20.7661 23.3477 20.7651C20.79 20.761 18.2314 20.761 15.6729 20.7651L12.0059 20.762ZM14.8965 10.0232C14.9131 9.92432 14.9248 9.90332 14.918 9.89062C14.8486 9.74976 14.7764 9.61108 14.708 9.47021C14.1826 8.40601 13.9014 7.2959 14.21 6.11841C14.3252 5.67676 14.1826 5.62842 13.7998 5.63037C11.3838 5.64307 8.96875 5.64307 6.55176 5.63037C6.14355 5.63037 6.01465 5.7356 6.01855 6.15625C6.03711 8.79932 6.02637 11.4436 6.03027 14.0867C6.03027 14.2161 5.97168 14.3684 6.11719 14.4768C6.34082 14.4001 6.48633 14.2183 6.65332 14.0698C8.05469 12.8271 9.46289 11.5867 10.8486 10.3313C10.96 10.2241 11.0918 10.1409 11.2363 10.0864C11.3809 10.0322 11.5352 10.0083 11.6895 10.0159C12.7588 10.0356 13.8262 10.0232 14.8965 10.0232ZM0.647461 10.3386C0.647461 11.7559 0.65625 13.1772 0.640625 14.5903C0.640625 14.9248 0.72168 15.0508 1.07617 15.0457C2.37109 15.0266 3.66602 15.0288 4.96191 15.0457C5.28906 15.0457 5.375 14.9404 5.37402 14.625C5.36426 11.7729 5.36426 8.92065 5.37402 6.06787C5.37402 5.75244 5.29492 5.63477 4.96582 5.63892C3.66992 5.65356 2.375 5.65356 1.08105 5.63892C0.736328 5.63892 0.635742 5.74927 0.640625 6.09106C0.657227 7.49878 0.647461 8.91284 0.647461 10.3345L0.647461 10.3386ZM10.9678 11.1208L6.15625 15.3904C6.02148 15.5103 6.02637 15.668 6.02637 15.8257C6.02637 17.1042 6.03613 18.3816 6.02051 19.6592C6.02051 20.0071 6.13379 20.1069 6.47559 20.1028C7.82324 20.0859 9.1709 20.0828 10.5195 20.1028C10.9072 20.1091 10.9814 19.9609 10.9756 19.6138C10.9551 18.6865 10.9678 17.7593 10.9678 16.8308L10.9678 11.1208ZM23.3555 13.7229C23.3555 12.8481 23.3467 11.9734 23.3604 11.0945C23.3604 10.8064 23.2764 10.6855 22.9746 10.6907C22.1875 10.7043 21.3975 10.7024 20.6133 10.6907C20.5098 10.6875 20.4072 10.7119 20.3154 10.7615C20.2246 10.8108 20.1475 10.8838 20.0938 10.9727C19.6133 11.6189 19.0684 12.2141 18.4668 12.7495C18.3213 12.8799 18.2051 13.0071 18.207 13.2319C18.2178 14.2834 18.2178 15.333 18.207 16.3809C18.207 16.6584 18.3115 16.7405 18.5742 16.7395C20.0459 16.7295 21.5156 16.7295 22.9824 16.7395C23.29 16.7395 23.3662 16.627 23.3604 16.3408C23.3467 15.4714 23.3555 14.5967 23.3555 13.7229ZM17.9014 3.90625C17.4355 3.90332 16.9746 4.00415 16.5527 4.20117C16.1299 4.39819 15.7568 4.68652 15.46 5.04541C15.1631 5.40454 14.9502 5.82495 14.835 6.27637C14.7207 6.72803 14.708 7.19946 14.7979 7.65649C15.1689 9.5437 16.3486 10.9104 17.6631 12.2048C17.8916 12.4287 18.0264 12.2732 18.1836 12.1218C19.0186 11.3442 19.7334 10.4478 20.3066 9.46167C20.6787 8.82422 20.9141 8.11694 21 7.38428C21.0488 6.94751 21.0059 6.50537 20.8721 6.08643C20.7393 5.66772 20.5186 5.28174 20.2266 4.95361C19.9346 4.62573 19.5762 4.36279 19.1748 4.18237C18.7744 4.00171 18.3408 3.90771 17.9014 3.90625ZM13.8311 10.7002C13.0732 10.7002 12.5693 10.7087 12.0586 10.7002C11.7861 10.7002 11.6377 10.7634 11.6377 11.0776C11.6494 12.0566 11.6445 13.0354 11.6377 14.0154C11.6377 14.2319 11.7031 14.3674 11.9229 14.4504C13.6895 15.1143 15.4531 15.7854 17.2139 16.4639C17.541 16.5901 17.5625 16.4387 17.5586 16.1843C17.5498 15.6775 17.5068 15.1643 17.5654 14.6641C17.6934 13.5715 17.3262 12.7903 16.5547 11.9536C15.6895 11.0051 14.8916 10.3691 13.8311 10.7002ZM14.5762 20.0974C15.4346 20.0974 16.291 20.085 17.1484 20.0974C17.4727 20.105 17.5684 19.9924 17.5684 19.677C17.5488 18.9946 17.5566 18.3101 17.5684 17.6299C17.5684 17.4111 17.5146 17.2734 17.2939 17.1904C15.542 16.5308 13.793 15.865 12.0479 15.1929C11.748 15.0771 11.6416 15.1372 11.6445 15.4692C11.6543 16.8687 11.6592 18.2681 11.6445 19.6675C11.6445 20.0354 11.8018 20.1006 12.1191 20.0955C12.9316 20.0859 13.7539 20.0964 14.5762 20.0964L14.5762 20.0974ZM3.01855 15.6816C2.35547 15.6816 1.69043 15.6953 1.02734 15.6753C0.726562 15.667 0.638672 15.769 0.641602 16.0645C0.655273 17.2871 0.65332 18.511 0.641602 19.7336C0.641602 20.0029 0.726562 20.1028 1.00195 20.1006C2.33008 20.0908 3.6582 20.0908 4.98633 20.1006C5.28906 20.1006 5.37402 19.9956 5.37012 19.7021C5.35938 18.4797 5.35938 17.2566 5.37012 16.033C5.37012 15.7554 5.28027 15.6702 5.00879 15.6753C4.34766 15.6912 3.67969 15.6807 3.01855 15.6807L3.01855 15.6816ZM20.7266 20.0974C21.4795 20.0974 22.2324 20.0913 22.9844 20.0974C23.2432 20.0974 23.3672 20.0303 23.3604 19.7444C23.3447 19.0798 23.3467 18.4143 23.3604 17.7466C23.3604 17.4744 23.2695 17.3809 22.9971 17.3818C21.5254 17.3916 20.0557 17.3916 18.5879 17.3818C18.3301 17.3818 18.2012 17.449 18.208 17.7351C18.2217 18.3997 18.2217 19.0654 18.208 19.7327C18.208 20.0071 18.3135 20.1006 18.5771 20.0964C19.293 20.0881 20.0098 20.0955 20.7266 20.0955L20.7266 20.0974ZM23.3555 7.83521L23.3555 7.09912C23.3555 5.52222 23.3555 5.52222 21.7783 5.63672C21.7422 5.63672 21.708 5.63672 21.6729 5.63672C21.5186 5.63672 21.4463 5.69678 21.499 5.86597C21.9189 7.23267 21.5674 8.49438 20.9199 9.70142C20.7646 9.99048 20.9014 10.0232 21.1445 10.0168C21.7578 10.0168 22.3701 10.001 22.9834 10.0168C23.2988 10.0273 23.3604 9.88428 23.3545 9.60791C23.3457 9.02441 23.3564 8.4292 23.3564 7.83301L23.3555 7.83521Z" fill="#FA8B02" fill-opacity="1.000000" fill-rule="nonzero"/>
			<path id="Vector" d="M0.301758 20.9465Q0.427734 20.9619 0.760742 20.9619L12.0059 20.9619L15.6729 20.9651L19.5107 20.9619L23.3477 20.9651Q23.5273 20.9656 23.626 20.9539Q23.7939 20.9343 23.9082 20.8696Q23.9727 20.833 24.0234 20.7825Q24.2002 20.6045 24.2002 20.251L24.2002 5.48535Q24.2002 5.12891 24.0215 4.94849Q24.0107 4.93726 23.999 4.92651Q23.8145 4.76196 23.4541 4.76807Q23.2002 4.77148 22.6904 4.76807Q21.9365 4.7627 21.5557 4.77661Q21.3516 4.78467 21.21 4.7146Q21.0713 4.64624 20.9248 4.46924Q20.6426 4.12866 20.3018 3.86426Q19.96 3.59985 19.5596 3.41162Q19.1592 3.22363 18.7383 3.12939Q18.3164 3.0354 17.874 3.0354Q17.4316 3.0354 17.0107 3.12939Q16.5889 3.22363 16.1885 3.41162Q15.7988 3.59497 15.4648 3.85059Q15.1123 4.12036 14.8213 4.47095Q14.6807 4.64478 14.5234 4.71167Q14.376 4.77441 14.1357 4.77441L0.736328 4.76807Q0.417969 4.76807 0.292969 4.78394Q0.0712891 4.81226 -0.0429688 4.92627Q-0.15625 5.04028 -0.18457 5.26196Q-0.200195 5.38599 -0.200195 5.7041L-0.200195 19.9966Q-0.200195 20.3318 -0.18457 20.4573Q-0.157227 20.686 -0.0419922 20.8022Q0.0742188 20.9187 0.301758 20.9465ZM12.0059 20.762L0.760742 20.762C0.0126953 20.762 0 20.7483 0 19.9966L0 5.7041C0 4.98804 0.0175781 4.96802 0.736328 4.96802Q7.43555 4.96802 14.1357 4.97437C14.4951 4.97437 14.7393 4.89038 14.9766 4.59692C15.3301 4.1709 15.7725 3.82812 16.2734 3.59277C16.7744 3.35742 17.3203 3.23535 17.874 3.23535C18.4277 3.23535 18.9736 3.35742 19.4746 3.59277C19.9756 3.82812 20.418 4.1709 20.7715 4.59692C20.9961 4.86914 21.2148 4.99023 21.5635 4.97656C21.9395 4.96265 22.3145 4.96533 22.6895 4.96802C22.9453 4.96973 23.2012 4.97144 23.4561 4.96802C23.8223 4.96167 24 5.08911 24 5.48535Q23.9893 12.8691 24 20.251C24 20.7495 23.7109 20.7661 23.3477 20.7651C20.79 20.761 18.2314 20.761 15.6729 20.7651L12.0059 20.762ZM17.9014 3.90625C17.4355 3.90332 16.9746 4.00415 16.5527 4.20117C16.1299 4.39819 15.7568 4.68652 15.46 5.04541C15.1631 5.40454 14.9502 5.82495 14.835 6.27637C14.7207 6.72803 14.708 7.19946 14.7979 7.65649C15.1689 9.5437 16.3486 10.9104 17.6631 12.2048C17.8789 12.4167 18.0117 12.2888 18.1582 12.146C18.167 12.1379 18.1748 12.1299 18.1836 12.1218C19.0186 11.3442 19.7334 10.4478 20.3066 9.46167C20.6787 8.82422 20.9141 8.11694 21 7.38428C21.0488 6.94751 21.0059 6.50537 20.8721 6.08643C20.7393 5.66772 20.5186 5.28174 20.2266 4.95361C19.9346 4.62573 19.5762 4.36279 19.1748 4.18237C18.7744 4.00171 18.3408 3.90771 17.9014 3.90625ZM16.0811 4.71997Q16.3369 4.52246 16.6367 4.38232Q16.9346 4.24341 17.248 4.17432Q17.5664 4.104 17.9004 4.1062Q18.2119 4.10718 18.5107 4.17188Q18.8086 4.23657 19.0928 4.36475Q19.3779 4.49268 19.624 4.67334Q19.8701 4.85376 20.0771 5.08667Q20.2852 5.31982 20.4355 5.58496Q20.5869 5.84985 20.6816 6.14722Q20.7783 6.4502 20.8076 6.75977Q20.8359 7.05737 20.8018 7.36084Q20.7393 7.8938 20.5732 8.39233Q20.4062 8.89429 20.1338 9.36133Q19.7266 10.062 19.2295 10.6924Q18.6904 11.3765 18.0449 11.9775Q18.0361 11.9858 18.0195 12.0024Q17.9111 12.1074 17.8799 12.1167L17.876 12.116Q17.8486 12.1064 17.8037 12.0623Q17.249 11.5166 16.8633 11.0808Q16.3857 10.543 16.042 10.04Q15.2402 8.86719 14.9941 7.61768Q14.9307 7.29272 14.9395 6.96973Q14.9482 6.64673 15.0293 6.32568Q15.1104 6.00439 15.2568 5.71631Q15.4033 5.42822 15.6143 5.1731Q15.8252 4.91772 16.0811 4.71997ZM23.3555 7.78564L23.3555 7.09912C23.3555 5.52222 23.3555 5.52222 21.7783 5.63672L21.6729 5.63672C21.5186 5.63672 21.4463 5.69678 21.499 5.86597C21.9189 7.23267 21.5674 8.49438 20.9199 9.70142C20.7646 9.99048 20.9014 10.0232 21.1445 10.0168C21.3486 10.0168 21.5527 10.0151 21.7578 10.0134C22.166 10.0098 22.5742 10.0063 22.9834 10.0168C23.2988 10.0273 23.3604 9.88428 23.3545 9.60791C23.3486 9.2334 23.3516 8.854 23.3535 8.4729L23.3535 8.47266C23.3555 8.27637 23.3564 8.07959 23.3564 7.88257L23.3564 7.83521L23.3564 7.83301L23.3555 7.83521L23.3555 7.78564ZM23.1562 7.83545L23.1553 7.83521L23.1553 7.09912Q23.1553 6.42041 23.1318 6.21143Q23.1035 5.95532 23.0225 5.88037Q22.9414 5.80493 22.6826 5.79492Q22.4717 5.78687 21.793 5.83618L21.7861 5.83667L21.6992 5.83667Q21.8164 6.22998 21.8584 6.63135Q21.9219 7.24609 21.8066 7.87964Q21.6426 8.7771 21.0957 9.7959Q21.0898 9.80713 21.085 9.81738Q21.1094 9.81763 21.1396 9.81689L21.1416 9.81689L21.1445 9.81689Q21.3477 9.81689 21.7559 9.81323Q22.5762 9.8064 22.9883 9.81689Q23.0713 9.81958 23.1133 9.80591Q23.1289 9.80103 23.1318 9.79639Q23.1582 9.76367 23.1543 9.6123Q23.1494 9.23413 23.1543 8.47144Q23.1562 8.04834 23.1562 7.83545ZM14.8965 10.0232C14.9033 9.98071 14.9092 9.95264 14.9141 9.93335C14.9199 9.90771 14.9219 9.89795 14.918 9.89062C14.9111 9.87573 14.9033 9.86084 14.8965 9.84619C14.8926 9.83838 14.8887 9.83081 14.8848 9.82324C14.8252 9.70532 14.7656 9.58838 14.708 9.47021C14.1826 8.40601 13.9014 7.2959 14.21 6.11841C14.3252 5.67676 14.1826 5.62842 13.7998 5.63037Q10.1768 5.64941 6.55176 5.63037C6.14355 5.63037 6.01465 5.7356 6.01855 6.15625C6.03027 7.91821 6.03027 9.68091 6.03027 11.4434L6.03027 11.4434C6.0293 12.3245 6.0293 13.2058 6.03027 14.0867C6.03027 14.1152 6.02832 14.145 6.02539 14.175C6.01465 14.2812 6.00391 14.3923 6.11719 14.4768C6.34082 14.4001 6.48633 14.2183 6.65332 14.0698C8.05469 12.8271 9.46289 11.5867 10.8486 10.3313C10.96 10.2241 11.0918 10.1409 11.2363 10.0864C11.3809 10.0322 11.5352 10.0083 11.6895 10.0159C12.46 10.0303 13.2295 10.0276 14 10.0251L14 10.0251C14.2988 10.0242 14.5977 10.0232 14.8965 10.0232ZM10.7119 10.1851Q10.8096 10.0908 10.9229 10.0198Q11.0371 9.94775 11.166 9.89917Q11.2949 9.85083 11.4287 9.83008Q11.5596 9.80957 11.6963 9.81592Q12.4648 9.83008 14 9.8252Q14.3955 9.82373 14.6611 9.82349Q14.6533 9.80884 14.6455 9.79395Q14.5664 9.63721 14.5283 9.55737Q14.0879 8.66699 13.9492 7.87109Q13.832 7.20312 13.918 6.56201Q13.9521 6.31274 14.0156 6.06763Q14.0518 5.93237 14.0479 5.86475Q14.0479 5.85645 14.0469 5.85059Q14.0322 5.84497 14.0078 5.84082Q13.9424 5.82959 13.8008 5.83057L6.55176 5.83057Q6.32129 5.83057 6.26855 5.88037Q6.2168 5.93018 6.21777 6.15454L6.22949 10.1128L6.23047 14.0867Q6.23047 14.124 6.22461 14.1909Q6.28418 14.145 6.40039 14.0332Q6.47852 13.9575 6.52051 13.9204Q6.77539 13.6938 7.29199 13.2371Q9.58105 11.2092 10.7119 10.1851ZM0.647461 10.3386C0.647461 10.7043 0.648438 11.0703 0.648438 11.4363C0.650391 12.4888 0.652344 13.542 0.640625 14.5903C0.640625 14.9248 0.72168 15.0508 1.07617 15.0457C2.37109 15.0266 3.66602 15.0288 4.96191 15.0457C5.28906 15.0457 5.375 14.9404 5.37402 14.625Q5.36035 10.3469 5.37402 6.06787C5.37402 5.75244 5.29492 5.63477 4.96582 5.63892Q3.02246 5.66089 1.08105 5.63892C0.736328 5.63892 0.635742 5.74927 0.640625 6.09106C0.652344 7.12573 0.650391 8.16357 0.649414 9.20557C0.648438 9.5813 0.647461 9.95752 0.647461 10.3345L0.647461 10.3386ZM0.875 14.8125Q0.839844 14.7739 0.839844 14.5906L0.839844 14.5903L0.849609 11.7554L0.847656 10.3386L0.847656 10.3345Q0.847656 9.95776 0.848633 9.20581Q0.852539 7.12451 0.839844 6.08838Q0.837891 5.9126 0.874023 5.87524Q0.90918 5.83887 1.07812 5.83887Q3.02246 5.86084 4.96777 5.83887Q5.11719 5.83691 5.14355 5.86646Q5.17383 5.90015 5.17383 6.06787L5.17383 14.6257Q5.17383 14.7861 5.14551 14.8162Q5.11816 14.8457 4.96387 14.8457Q2.90332 14.8188 1.07324 14.8457Q0.90625 14.8481 0.875 14.8125ZM13.8311 10.7002C13.5566 10.7002 13.3154 10.7014 13.0947 10.7024C12.707 10.7041 12.3838 10.7056 12.0586 10.7002C11.7861 10.7002 11.6377 10.7634 11.6377 11.0776C11.6494 12.0566 11.6445 13.0354 11.6377 14.0154C11.6377 14.2319 11.7031 14.3674 11.9229 14.4504Q14.5723 15.4463 17.2139 16.4639C17.541 16.5901 17.5625 16.4387 17.5586 16.1843C17.5557 16.0559 17.5518 15.927 17.5469 15.7981C17.5342 15.4182 17.5215 15.0376 17.5654 14.6641C17.6934 13.5715 17.3262 12.7903 16.5547 11.9536C15.6895 11.0051 14.8916 10.3691 13.8311 10.7002ZM20.0938 10.9727C19.6133 11.6189 19.0684 12.2141 18.4668 12.7495C18.3213 12.8799 18.2051 13.0071 18.207 13.2319Q18.2227 14.8091 18.207 16.3809C18.207 16.6584 18.3115 16.7405 18.5742 16.7395Q20.7812 16.7246 22.9824 16.7395C23.29 16.7395 23.3662 16.627 23.3604 16.3408C23.3506 15.7114 23.3525 15.0791 23.3545 14.4465L23.3545 14.4463C23.3545 14.2053 23.3555 13.9641 23.3555 13.7229C23.3555 13.4817 23.3545 13.2405 23.3545 12.9993L23.3545 12.9993C23.3525 12.3655 23.3506 11.731 23.3604 11.0945C23.3604 10.8064 23.2764 10.6855 22.9746 10.6907C22.1875 10.7043 21.3975 10.7024 20.6133 10.6907C20.5098 10.6875 20.4072 10.7119 20.3154 10.7615C20.2246 10.8108 20.1475 10.8838 20.0938 10.9727ZM11.8682 10.9292Q11.9053 10.9004 12.0566 10.9001Q12.3848 10.9055 13.0957 10.9023Q13.5566 10.9001 13.8311 10.9001L13.8613 10.9001L13.8906 10.8911Q14.2354 10.7837 14.5596 10.8215Q14.8623 10.8572 15.1719 11.0232Q15.46 11.178 15.7812 11.4609Q16.0557 11.7029 16.4082 12.0889Q16.9873 12.7175 17.2109 13.2864Q17.2158 13.2981 17.2207 13.3098Q17.4521 13.9146 17.3672 14.6406Q17.3359 14.9009 17.335 15.228Q17.334 15.4211 17.3477 15.8047Q17.3564 16.0608 17.3584 16.1875Q17.3594 16.259 17.3564 16.301Q17.3271 16.293 17.2852 16.2771L11.9932 14.2634Q11.8984 14.2275 11.8682 14.1785Q11.8379 14.1287 11.8379 14.0166Q11.8496 12.113 11.8379 11.0776Q11.8379 10.9529 11.8682 10.9292ZM23.1318 10.916Q23.1602 10.948 23.1611 11.093L23.1611 11.0945Q23.1504 11.7329 23.1543 12.9998Q23.1553 13.4817 23.1553 13.7229Q23.1553 13.9639 23.1543 14.4458Q23.1504 15.7131 23.1611 16.3445Q23.1631 16.4875 23.1396 16.5146Q23.1348 16.5198 23.1152 16.5256Q23.0693 16.5393 22.9824 16.5393L18.5732 16.5393Q18.4512 16.5398 18.4287 16.5183Q18.4238 16.5144 18.4189 16.4968Q18.4072 16.4563 18.4072 16.3828Q18.4229 14.8093 18.4072 13.2302Q18.4062 13.1536 18.4355 13.0908Q18.4424 13.0752 18.4521 13.0603Q18.4912 12.9958 18.5996 12.8989Q19.0596 12.49 19.4727 12.0388Q19.8867 11.5867 20.2549 11.0918L20.2598 11.0842L20.2646 11.0762Q20.292 11.0315 20.3291 10.9968Q20.3652 10.9619 20.4111 10.9373Q20.4463 10.918 20.4834 10.9067Q20.5439 10.8887 20.6104 10.8909Q21.8906 10.9097 22.9785 10.8909Q23.1074 10.8884 23.1318 10.916ZM10.7676 11.2983L6.15625 15.3904C6.02637 15.5061 6.02637 15.6567 6.02637 15.8086L6.02637 15.8257C6.02637 16.1746 6.02734 16.5232 6.02832 16.8718L6.02832 16.8718C6.03027 17.8013 6.03125 18.7302 6.02051 19.6592C6.02051 20.0071 6.13379 20.1069 6.47559 20.1028C7.82324 20.0859 9.1709 20.0828 10.5195 20.1028C10.9072 20.1091 10.9814 19.9609 10.9756 19.6138C10.9609 18.9453 10.9639 18.2769 10.9658 17.6082C10.9668 17.3491 10.9678 17.0901 10.9678 16.8308L10.9678 11.1208L10.7676 11.2983ZM10.7676 11.5657L6.28906 15.5398L6.28906 15.54Q6.2793 15.5481 6.27246 15.5571Q6.24707 15.5874 6.2373 15.6301Q6.22656 15.6792 6.22656 15.8083L6.22656 15.8257Q6.22656 16.1741 6.22754 16.8713Q6.23145 18.7312 6.2207 19.6616Q6.2207 19.8325 6.25781 19.8684Q6.2959 19.905 6.47266 19.9028Q8.6709 19.8755 10.5225 19.9028Q10.7061 19.9058 10.7412 19.8628Q10.7793 19.8176 10.7754 19.6174Q10.7607 18.9473 10.7656 17.6074Q10.7676 17.0898 10.7676 16.8308L10.7676 11.5657ZM14.7764 20.0974C14.71 20.0974 14.6436 20.0974 14.5762 20.0974L14.5762 20.0964C14.293 20.0964 14.0088 20.0952 13.7246 20.094L13.7246 20.094C13.1875 20.0916 12.6514 20.0894 12.1191 20.0955C11.8018 20.1006 11.6445 20.0354 11.6445 19.6675C11.6592 18.2681 11.6543 16.8687 11.6445 15.4692C11.6416 15.1372 11.748 15.0771 12.0479 15.1929Q14.666 16.2012 17.2939 17.1904C17.5146 17.2734 17.5684 17.4111 17.5684 17.6299C17.5566 18.3101 17.5488 18.9946 17.5684 19.677C17.5684 19.9924 17.4727 20.105 17.1484 20.0974C16.5771 20.0891 16.0059 20.092 15.4346 20.0947L15.4346 20.0947C15.2148 20.0957 14.9961 20.0969 14.7764 20.0974ZM14.7764 19.8972Q15.0352 19.8967 15.4336 19.8948Q16.5781 19.8892 17.1514 19.8975L17.1523 19.8975Q17.3057 19.9011 17.3369 19.8691Q17.3682 19.8362 17.3691 19.6797Q17.3467 18.9236 17.3691 17.6265Q17.3691 17.5078 17.3408 17.4583Q17.3135 17.4116 17.2236 17.3777L11.9766 15.3796Q11.8984 15.3496 11.8525 15.3416Q11.8438 15.3872 11.8438 15.468Q11.8623 17.9185 11.8438 19.6697Q11.8438 19.8313 11.8857 19.8638Q11.9307 19.8984 12.1162 19.8955Q12.6504 19.8892 13.7256 19.894Q14.293 19.8965 14.5762 19.8965L14.7764 19.8965L14.7764 19.8972ZM3.01855 15.6816C2.82715 15.6816 2.63477 15.6829 2.44336 15.6841C1.97168 15.6868 1.49902 15.6897 1.02734 15.6753C0.726562 15.667 0.638672 15.769 0.641602 16.0645C0.655273 17.2871 0.65332 18.511 0.641602 19.7336C0.641602 20.0029 0.726562 20.1028 1.00195 20.1006Q1.99609 20.0933 2.98926 20.0933L2.99414 20.0933Q3.99023 20.0933 4.98633 20.1006C5.28906 20.1006 5.37402 19.9956 5.37012 19.7021C5.35938 18.4797 5.35938 17.2566 5.37012 16.033C5.37012 15.7554 5.28027 15.6702 5.00879 15.6753C4.53613 15.6868 4.06055 15.6846 3.58594 15.6824L3.58594 15.6824C3.46289 15.6819 3.34082 15.6812 3.21875 15.6809C3.15137 15.6807 3.08496 15.6807 3.01855 15.6807L3.01855 15.6816ZM3.21875 15.8809L3.21875 15.8816L3.01855 15.8816Q2.82812 15.8816 2.44434 15.884Q1.49707 15.8896 1.02148 15.8752L1.02148 15.8752Q0.935547 15.873 0.889648 15.8848Q0.869141 15.8901 0.864258 15.895Q0.839844 15.9202 0.841797 16.0623Q0.860352 17.7461 0.841797 19.7356Q0.841797 19.8582 0.863281 19.8809Q0.867188 19.8848 0.883789 19.8896Q0.924805 19.9014 1 19.9006L2.98828 19.8933L4.9873 19.9006Q5.12305 19.9006 5.14648 19.8752Q5.17188 19.8481 5.1709 19.7043L5.1709 16.033Q5.1709 15.9536 5.15918 15.9114Q5.1543 15.8938 5.15137 15.8909Q5.14844 15.8884 5.13184 15.884Q5.08984 15.8738 5.0127 15.8752Q4.53809 15.8867 3.58496 15.8823Q3.37109 15.8813 3.21875 15.8809ZM20.9268 20.0974C20.8604 20.0974 20.7939 20.0974 20.7266 20.0974L20.7266 20.0955C20.499 20.0955 20.2705 20.0947 20.043 20.094L20.042 20.094C19.5537 20.0923 19.0654 20.0908 18.5771 20.0964C18.3135 20.1006 18.208 20.0071 18.208 19.7327Q18.2285 18.7317 18.208 17.7351C18.2012 17.449 18.3301 17.3818 18.5879 17.3818Q20.7891 17.3965 22.9971 17.3818C23.2695 17.3809 23.3604 17.4744 23.3604 17.7466C23.3467 18.4143 23.3447 19.0798 23.3604 19.7444C23.3672 20.0303 23.2432 20.0974 22.9844 20.0974C22.4834 20.0933 21.9814 20.0947 21.4795 20.0962C21.2959 20.0967 21.1113 20.0972 20.9268 20.0974ZM20.9268 19.8975L22.9844 19.8975Q23.1162 19.8975 23.1436 19.875Q23.1465 19.8726 23.1504 19.8596Q23.1621 19.8215 23.1611 19.7488Q23.1387 18.8196 23.1611 17.7424Q23.1611 17.6245 23.1387 17.6025Q23.1182 17.5813 22.998 17.5818L18.5879 17.5818Q18.4541 17.5818 18.4268 17.6052Q18.4229 17.6082 18.4189 17.6211Q18.4062 17.6587 18.4082 17.7307Q18.4287 18.7319 18.4082 19.7368Q18.4082 19.8516 18.4326 19.875Q18.4561 19.8984 18.5742 19.8965Q19.0635 19.8906 20.043 19.894Q20.499 19.8955 20.7266 19.8955L20.9268 19.8955L20.9268 19.8975Z" fill="#FA8B02" fill-opacity="1.000000" fill-rule="evenodd"/>
			<path id="Vector" d="M15.9814 7.03369C15.9814 6.78418 16.0303 6.53735 16.127 6.30713C16.2227 6.07666 16.3623 5.86768 16.5391 5.69189C16.7168 5.51587 16.9258 5.37671 17.1572 5.28223C17.3877 5.18774 17.6348 5.13989 17.8848 5.14111C18.1396 5.13867 18.3916 5.18701 18.6279 5.2832C18.8633 5.37964 19.0781 5.52197 19.2578 5.70239C19.4385 5.88257 19.5801 6.09692 19.6768 6.33276C19.7725 6.5686 19.8213 6.82153 19.8184 7.07617C19.8154 7.33105 19.7617 7.58252 19.6611 7.81641C19.5596 8.05029 19.4131 8.26147 19.2285 8.43774C19.0449 8.61401 18.8271 8.75195 18.5898 8.84326C18.3516 8.93457 18.0977 8.97729 17.8438 8.96924C17.5928 8.96777 17.3457 8.91602 17.1152 8.81738C16.8857 8.71851 16.6777 8.57471 16.5039 8.39429C16.3301 8.21387 16.1953 8.00049 16.1055 7.76685C16.0156 7.5332 15.9736 7.28394 15.9814 7.03369ZM16.6309 7.06836C16.6309 7.40137 16.7637 7.7207 16.999 7.95605C17.2344 8.19141 17.5537 8.32373 17.8867 8.32373C18.2197 8.32373 18.5391 8.19141 18.7744 7.95605C19.0098 7.7207 19.1416 7.40137 19.1416 7.06836C19.1416 6.73535 19.0098 6.41626 18.7744 6.18066C18.5391 5.94531 18.2197 5.81299 17.8867 5.81299C17.5537 5.81299 17.2344 5.94531 16.999 6.18066C16.7637 6.41626 16.6309 6.73535 16.6309 7.06836Z" fill="#FA8B02" fill-opacity="1.000000" fill-rule="nonzero"/>
			<path id="Vector" d="M16.1357 5.86743Q16.0225 6.03735 15.9414 6.23022Q15.8613 6.4231 15.8213 6.62402Q15.7822 6.82324 15.7812 7.03052Q15.7754 7.23853 15.8086 7.43994Q15.8428 7.64258 15.918 7.83862Q15.9941 8.03442 16.1045 8.20801Q16.2148 8.38184 16.3604 8.53296Q16.5059 8.68433 16.6748 8.80127Q16.8438 8.91821 17.0371 9.00122Q17.2295 9.08398 17.4307 9.12598Q17.6309 9.16772 17.8398 9.16919Q18.0518 9.17578 18.2559 9.14111Q18.4619 9.1062 18.6611 9.03003Q18.8604 8.95361 19.0371 8.84155Q19.2129 8.72974 19.3672 8.58228Q19.5215 8.43457 19.6406 8.26318Q19.7598 8.09155 19.8447 7.896Q19.9287 7.7002 19.9727 7.49585Q20.0156 7.2915 20.0186 7.07837Q20.0205 6.86523 19.9814 6.65991Q19.9424 6.45459 19.8623 6.25732Q19.7812 6.05981 19.666 5.88574Q19.5498 5.71167 19.3994 5.56079Q19.249 5.41016 19.0752 5.29443Q18.9004 5.17871 18.7031 5.09814Q18.4873 5.01001 18.2627 4.97119Q18.0771 4.93921 17.8857 4.94116Q17.6768 4.93994 17.4756 4.979Q17.2744 5.01807 17.0811 5.09717Q16.8877 5.17627 16.7168 5.28955Q16.5469 5.40259 16.3984 5.55005Q16.25 5.69727 16.1357 5.86743ZM17.8438 8.96924C18.0977 8.97729 18.3516 8.93457 18.5898 8.84326C18.8271 8.75195 19.0449 8.61401 19.2285 8.43774C19.4131 8.26147 19.5596 8.05029 19.6611 7.81641C19.7617 7.58252 19.8154 7.33105 19.8184 7.07617C19.8213 6.82153 19.7725 6.5686 19.6768 6.33276C19.5801 6.09692 19.4385 5.88257 19.2578 5.70239C19.0781 5.52197 18.8633 5.37964 18.6279 5.2832C18.3916 5.18701 18.1396 5.13867 17.8848 5.14111C17.6348 5.13989 17.3877 5.18774 17.1572 5.28223C16.9258 5.37671 16.7168 5.51587 16.5391 5.69189C16.3623 5.86768 16.2227 6.07666 16.127 6.30713C16.0303 6.53735 15.9814 6.78418 15.9814 7.03369C15.9736 7.28394 16.0156 7.5332 16.1055 7.76685C16.1953 8.00049 16.3301 8.21387 16.5039 8.39429C16.6777 8.57471 16.8857 8.71851 17.1152 8.81738C17.3457 8.91602 17.5928 8.96777 17.8438 8.96924ZM16.6309 7.06836C16.6309 7.40137 16.7637 7.7207 16.999 7.95605C17.2344 8.19141 17.5537 8.32373 17.8867 8.32373C18.2197 8.32373 18.5391 8.19141 18.7744 7.95605C19.0098 7.7207 19.1416 7.40137 19.1416 7.06836C19.1416 6.73535 19.0098 6.41626 18.7744 6.18066C18.5391 5.94531 18.2197 5.81299 17.8867 5.81299C17.5537 5.81299 17.2344 5.94531 16.999 6.18066C16.7637 6.41626 16.6309 6.73535 16.6309 7.06836ZM17.2998 7.94604Q17.2148 7.88892 17.1406 7.8147Q17.0664 7.74048 17.0088 7.65479Q16.9521 7.56934 16.9111 7.47217Q16.8711 7.37524 16.8516 7.27441Q16.8311 7.17334 16.8311 7.06836Q16.8311 6.96338 16.8516 6.86255Q16.8711 6.76147 16.9111 6.66455Q16.9521 6.56763 17.0088 6.48193Q17.0664 6.39648 17.1406 6.32227Q17.2148 6.24805 17.2998 6.19067Q17.3857 6.13354 17.4824 6.09326Q17.5801 6.05322 17.6807 6.0332Q17.7812 6.01294 17.8867 6.01294Q17.9912 6.01294 18.0928 6.0332Q18.1934 6.05322 18.29 6.09326Q18.3877 6.13354 18.4727 6.19067Q18.5586 6.24805 18.6328 6.32227Q18.707 6.39648 18.7646 6.48193Q18.8213 6.56763 18.8613 6.66455Q18.9014 6.76147 18.9219 6.86255Q18.9424 6.96338 18.9424 7.06836Q18.9424 7.17334 18.9219 7.27441Q18.9014 7.37524 18.8613 7.47217Q18.8213 7.56934 18.7646 7.65479Q18.707 7.74048 18.6328 7.8147Q18.5586 7.88892 18.4727 7.94604Q18.3877 8.00317 18.29 8.04346Q18.1934 8.0835 18.0928 8.10376Q17.9912 8.12378 17.8867 8.12378Q17.7812 8.12378 17.6807 8.10376Q17.5801 8.0835 17.4824 8.04346Q17.3857 8.00317 17.2998 7.94604Z" fill="#FA8B02" fill-opacity="1.000000" fill-rule="evenodd"/>
		</g>
	</g>
</svg>
