<svg width="24.000000" height="24.000000" viewBox="0 0 24 24" fill="none" xmlns="http://www.w3.org/2000/svg" xmlns:xlink="http://www.w3.org/1999/xlink">
	<desc>
			Created with Pixso.
	</desc>
	<defs>
		<clipPath id="clip201_1915">
			<rect id="icon_city map" width="24.000000" height="24.000000" fill="white" fill-opacity="0"/>
		</clipPath>
	</defs>
	<g opacity="0.800000">
		<rect id="icon_city map" width="24.000000" height="24.000000" fill="#FFFFFF" fill-opacity="0"/>
		<g clip-path="url(#clip201_1915)">
			<path id="Vector" d="M12.0479 4.8125L23.2227 4.8125C23.9688 4.8125 23.9941 4.84326 23.9941 5.5835C23.9941 6.50122 23.9805 7.4187 24 8.3374C24.0078 8.7229 23.8896 8.92236 23.4922 9.04443C22.0801 9.48511 21.2383 10.6306 21.249 12.0273C21.2598 13.3979 22.1016 14.5215 23.4932 14.9551C23.8516 15.0654 24.0059 15.2275 24 15.6074C23.9824 16.5986 23.9795 17.5903 24 18.5815C24.0098 19.0352 23.8291 19.1963 23.3818 19.1963C15.8037 19.189 8.22461 19.189 0.646484 19.1963C0.172852 19.1963 -0.0146484 19.0308 0.000976562 18.5518C0.0253906 17.5801 0.0185547 16.6064 0.000976562 15.6338C0.000976562 15.269 0.111328 15.083 0.482422 14.9629C1.91504 14.5181 2.75684 13.3955 2.75684 12.002C2.75684 10.6086 1.91602 9.48853 0.487305 9.03906C0.113281 8.92236 0.00292969 8.73071 0.00292969 8.36719C0.0244141 7.41211 0.0361328 6.45605 0.00292969 5.50439C-0.0136719 4.97119 0.181641 4.80371 0.708008 4.80371C4.4873 4.82031 8.26465 4.8125 12.0479 4.8125ZM8.77637 5.50195C6.2627 5.50195 3.74805 5.51196 1.23438 5.49316C0.817383 5.48999 0.689453 5.6189 0.708008 6.02637C0.737305 6.64868 0.732422 7.27441 0.708008 7.89893C0.696289 8.24268 0.818359 8.40894 1.13965 8.54785C2.46191 9.11182 3.23926 10.1362 3.41113 11.5562C3.58984 13.0288 3.10645 14.3813 1.80859 15.04C0.708984 15.5986 0.631836 16.3301 0.713867 17.2993C0.735352 17.5005 0.735352 17.7031 0.713867 17.9038C0.644531 18.3975 0.848633 18.5156 1.32715 18.5132C6.11621 18.4956 10.9102 18.5034 15.6953 18.501C16.0254 18.501 16.3984 18.5737 16.668 18.4429C16.9375 18.3115 16.7441 17.9062 16.8037 17.6289C16.8457 17.4272 16.9326 17.2764 17.1582 17.2871C17.3838 17.2983 17.4658 17.4624 17.4795 17.6641C17.4912 17.8105 17.4932 17.9575 17.4863 18.1045C17.4697 18.3721 17.5537 18.5088 17.8545 18.5078C19.543 18.499 21.2324 18.499 22.9209 18.5078C23.2109 18.5078 23.3066 18.3975 23.3037 18.1167C23.2939 17.4019 23.292 16.6846 23.3037 15.9707C23.3037 15.7031 23.1836 15.5952 22.9512 15.4951C21.4092 14.834 20.5781 13.6523 20.584 11.9868C20.584 10.3442 21.418 9.17114 22.9326 8.52246C23.2256 8.39697 23.3105 8.23926 23.3047 7.94849C23.29 7.2876 23.2822 6.62671 23.3047 5.96582C23.3174 5.6001 23.1846 5.49219 22.8291 5.49658C21.415 5.51196 20.002 5.49658 18.5898 5.50659C18.2471 5.50659 17.8516 5.37329 17.5732 5.58789C17.3584 5.75317 17.5225 6.10889 17.4775 6.37549C17.4434 6.58057 17.3477 6.72583 17.123 6.71826C16.9268 6.71143 16.833 6.57837 16.8086 6.39551C16.7891 6.28638 16.7842 6.17529 16.7959 6.06494C16.8662 5.59448 16.6572 5.48657 16.209 5.48999C13.7314 5.51318 11.2539 5.50195 8.77637 5.50195Z" fill="#FA8B02" fill-opacity="1.000000" fill-rule="nonzero"/>
			<path id="Vector" d="M23.6846 4.63062Q23.5498 4.61255 23.2227 4.61255L12.0479 4.61255L3.57812 4.61206L0.708008 4.60376Q0.479492 4.60376 0.323242 4.64478Q0.132812 4.69409 0.0126953 4.81006Q-0.211914 5.0271 -0.197266 5.51123Q-0.158203 6.61328 -0.197266 8.36719Q-0.197266 8.70996 -0.0595703 8.90894Q0.0878906 9.12402 0.427734 9.22974Q1.25977 9.4917 1.79004 10.0439Q1.90137 10.1594 1.99902 10.2878Q2.19141 10.5405 2.31738 10.8228Q2.55664 11.3591 2.55664 12.002Q2.55664 12.646 2.31738 13.1821Q2.19043 13.4644 1.99805 13.7168Q1.90039 13.8442 1.79004 13.959Q1.25781 14.5127 0.420898 14.7725Q0.0839844 14.8818 -0.0625 15.0933Q-0.199219 15.2915 -0.199219 15.6372Q-0.168945 17.3232 -0.199219 18.5454Q-0.212891 18.9888 0.000976562 19.1968Q0.206055 19.396 0.646484 19.396L12.0137 19.3906L23.3818 19.396Q23.8018 19.396 24.001 19.2026L24.002 19.2017Q24.209 19 24.1992 18.5776Q24.1719 17.1816 24.1992 15.6108Q24.2061 15.2598 24.0391 15.0542Q23.8867 14.8667 23.5527 14.7642Q22.8076 14.5317 22.3037 14.0479Q22.1465 13.897 22.0127 13.7212Q21.8066 13.4502 21.6758 13.147Q21.4541 12.6328 21.4492 12.0259Q21.4453 11.541 21.585 11.1016Q21.5859 11.0984 21.5869 11.095Q21.668 10.8408 21.7939 10.6116Q21.8848 10.448 21.9971 10.2971Q22.1318 10.1169 22.291 9.9624Q22.7959 9.47095 23.5508 9.2356Q23.9092 9.12549 24.0625 8.90332Q24.207 8.69409 24.1992 8.33325Q24.1865 7.68604 24.1914 6.39014Q24.1943 5.85254 24.1943 5.5835Q24.1943 5.25684 24.1768 5.12476Q24.1465 4.89722 24.0303 4.77954Q23.9131 4.66138 23.6846 4.63062ZM12.0479 4.8125L23.2227 4.8125C23.9688 4.8125 23.9941 4.84326 23.9941 5.5835C23.9941 5.85205 23.9932 6.12061 23.9922 6.38916C23.9893 7.03833 23.9863 7.6875 24 8.3374C24.0078 8.7229 23.8896 8.92236 23.4922 9.04443C22.0801 9.48511 21.2383 10.6306 21.249 12.0273C21.2598 13.3979 22.1016 14.5215 23.4932 14.9551C23.8516 15.0654 24.0059 15.2275 24 15.6074C23.9824 16.5986 23.9795 17.5903 24 18.5815C24.0098 19.0352 23.8291 19.1963 23.3818 19.1963Q18.2373 19.1909 13.0928 19.1904Q6.87012 19.1899 0.646484 19.1963C0.172852 19.1963 -0.0146484 19.0308 0.000976562 18.5518C0.0253906 17.5801 0.0185547 16.6064 0.000976562 15.6338C0.000976562 15.269 0.111328 15.083 0.482422 14.9629C1.91504 14.5181 2.75684 13.3955 2.75684 12.002C2.75684 10.6086 1.91602 9.48853 0.487305 9.03906C0.113281 8.92236 0.00292969 8.73071 0.00292969 8.36719C0.0244141 7.41211 0.0361328 6.45605 0.00292969 5.50439C-0.0136719 4.97119 0.181641 4.80371 0.708008 4.80371C3.5752 4.81616 6.44043 4.81494 9.30859 4.81348C10.2217 4.81299 11.1348 4.8125 12.0479 4.8125ZM16.7959 6.06494C16.8662 5.59448 16.6572 5.48657 16.209 5.48999C14.3359 5.50732 12.4629 5.50537 10.5889 5.50342C9.98535 5.50269 9.38086 5.50195 8.77637 5.50195C8.12988 5.50195 7.48438 5.50269 6.83789 5.50342C4.96973 5.50537 3.10156 5.50708 1.23438 5.49316C0.817383 5.48999 0.689453 5.6189 0.708008 6.02637C0.737305 6.64868 0.732422 7.27441 0.708008 7.89893C0.696289 8.24268 0.818359 8.40894 1.13965 8.54785C2.46191 9.11182 3.23926 10.1362 3.41113 11.5562C3.58984 13.0288 3.10645 14.3813 1.80859 15.04C0.708984 15.5986 0.631836 16.3301 0.713867 17.2993C0.735352 17.5005 0.735352 17.7031 0.713867 17.9038C0.644531 18.3975 0.848633 18.5156 1.32715 18.5132C4.76953 18.5005 8.21387 18.501 11.6562 18.5015L11.6562 18.5015L11.6611 18.5015C13.0068 18.5015 14.3516 18.5015 15.6953 18.501C15.7822 18.501 15.8711 18.5059 15.9609 18.5112C16.2139 18.5254 16.4688 18.5396 16.668 18.4429C16.8418 18.3584 16.8232 18.1597 16.8037 17.9551C16.793 17.8418 16.7822 17.7271 16.8037 17.6289C16.8457 17.4272 16.9326 17.2764 17.1582 17.2871C17.3838 17.2983 17.4658 17.4624 17.4795 17.6641C17.4912 17.8105 17.4932 17.9575 17.4863 18.1045C17.4697 18.3721 17.5537 18.5088 17.8545 18.5078Q19.1211 18.501 20.3877 18.501Q21.6543 18.501 22.9209 18.5078C23.2109 18.5078 23.3066 18.3975 23.3037 18.1167C23.2939 17.4019 23.292 16.6846 23.3037 15.9707C23.3037 15.7031 23.1836 15.5952 22.9512 15.4951C21.4092 14.834 20.5781 13.6523 20.584 11.9868C20.584 10.3442 21.418 9.17114 22.9326 8.52246C23.2256 8.39697 23.3105 8.23926 23.3047 7.94849C23.29 7.2876 23.2822 6.62671 23.3047 5.96582C23.3174 5.6001 23.1846 5.49219 22.8291 5.49658C22.0527 5.50513 21.2773 5.50415 20.501 5.50342C19.8643 5.50269 19.2266 5.50195 18.5898 5.50659C18.4961 5.50659 18.3975 5.49634 18.2988 5.48608C18.0381 5.45947 17.7754 5.43237 17.5732 5.58789C17.4355 5.69409 17.4541 5.87891 17.4727 6.06812C17.4834 6.17358 17.4941 6.28027 17.4775 6.37549C17.4434 6.58057 17.3477 6.72583 17.123 6.71826C16.9268 6.71143 16.833 6.57837 16.8086 6.39551C16.7891 6.28638 16.7842 6.17529 16.7959 6.06494ZM16.6113 6.42676Q16.5947 6.33301 16.5908 6.23901Q16.5869 6.14209 16.5967 6.04468L16.5977 6.04004L16.5977 6.0354Q16.6318 5.80786 16.5664 5.75171Q16.4922 5.68799 16.21 5.68994L12.4023 5.70459L10.5889 5.70337L8.77637 5.70215L8.77637 5.70215L5.00977 5.70459L1.23438 5.69336L1.2334 5.69336Q1.00391 5.69141 0.950195 5.74634Q0.897461 5.79907 0.908203 6.01733Q0.948242 6.8645 0.908203 7.90674Q0.901367 8.09521 0.963867 8.18774Q1.02832 8.28174 1.21875 8.36401Q2.18164 8.77466 2.77246 9.49146Q2.82031 9.5498 2.86621 9.61035Q2.93457 9.70068 2.99707 9.79492Q3.48926 10.5403 3.60938 11.5317Q3.75586 12.7354 3.34668 13.6826Q3.13574 14.1733 2.79492 14.5459Q2.42383 14.9521 1.89941 15.2183Q1.52832 15.4067 1.30469 15.6333Q1.14062 15.7988 1.04395 15.9976Q1.02246 16.0425 1.00488 16.0884Q0.914062 16.3193 0.895508 16.6279Q0.879883 16.8862 0.913086 17.2803Q0.929688 17.4409 0.929688 17.6016Q0.929688 17.7637 0.912109 17.9258L0.912109 17.9287L0.911133 17.9321Q0.876953 18.1816 0.948242 18.2451Q1.02637 18.3145 1.32617 18.313L6.10352 18.3027L15.6953 18.3013Q15.7871 18.3013 15.9727 18.3115Q16.2148 18.3247 16.3232 18.3188Q16.4844 18.3096 16.5801 18.2627Q16.582 18.2622 16.583 18.2617Q16.6045 18.2495 16.6113 18.2104Q16.6211 18.1504 16.6045 17.9736Q16.5801 17.7153 16.6074 17.5869Q16.6533 17.3667 16.7627 17.2446Q16.8174 17.1836 16.8848 17.1465Q17.0059 17.0796 17.168 17.0874Q17.3271 17.0952 17.4404 17.1709Q17.5078 17.2158 17.5586 17.2847Q17.6631 17.4248 17.6797 17.6499Q17.6807 17.665 17.6816 17.6807Q17.6973 17.8965 17.6865 18.1143Q17.6777 18.2466 17.7051 18.2783Q17.7295 18.3081 17.8535 18.3076L20.3877 18.3013L22.9219 18.3076Q23.0508 18.3076 23.0771 18.2793Q23.1055 18.2505 23.1035 18.1191Q23.0879 16.9863 23.1035 15.9678Q23.1035 15.8511 23.0586 15.7959Q23.0137 15.7397 22.8721 15.6787Q21.6611 15.1602 21.0303 14.2427Q21.0264 14.2368 21.0215 14.2305Q20.9326 14.0996 20.8555 13.9614Q20.3799 13.1074 20.3838 11.9858Q20.3838 10.9106 20.835 10.0801Q20.9219 9.91992 21.0254 9.7688Q21.0381 9.74976 21.0518 9.73096Q21.6787 8.8418 22.8535 8.33862Q23.0107 8.271 23.0605 8.19141Q23.1074 8.11621 23.1045 7.95239Q23.0781 6.74585 23.1045 5.95923Q23.1113 5.77905 23.0674 5.73755Q23.0215 5.69409 22.8311 5.69653L18.5908 5.70654Q18.4854 5.70654 18.2783 5.68506Q18.0352 5.66016 17.9287 5.66821Q17.7822 5.6792 17.6953 5.74634Q17.6699 5.76636 17.6631 5.82153Q17.6553 5.88232 17.6719 6.04834Q17.6953 6.28711 17.6748 6.40894Q17.6377 6.63379 17.5186 6.76221Q17.4678 6.81763 17.4053 6.85352Q17.2822 6.92383 17.1162 6.91797Q16.9717 6.91309 16.8623 6.84814Q16.8018 6.81152 16.752 6.7561Q16.6396 6.62988 16.6113 6.42676Z" fill="#FA8B02" fill-opacity="1.000000" fill-rule="evenodd"/>
			<path id="Vector" d="M6.49219 15.5923C6.23047 15.5371 6.0791 15.3862 6.23242 15.0952C6.32324 14.957 6.43457 14.833 6.5625 14.7275C8.50781 12.7798 10.4541 10.834 12.4004 8.8894L12.5186 8.7793C12.6904 8.60962 12.8818 8.49731 13.0898 8.70215C13.2988 8.90698 13.1709 9.10205 13.0039 9.26733C12.1338 10.1323 11.2627 10.9988 10.3926 11.8667C9.25098 13.0088 8.10938 14.1509 6.96777 15.2925C6.83887 15.4204 6.72266 15.5723 6.49219 15.5923Z" fill="#FA8B02" fill-opacity="1.000000" fill-rule="nonzero"/>
			<path id="Vector" d="M6.23535 14.7651Q6.14258 14.8682 6.06543 14.9854L6.05957 14.9937L6.05566 15.0024Q5.93457 15.231 5.9834 15.4155Q6 15.48 6.03809 15.5396Q6.04395 15.5488 6.0498 15.5576Q6.1709 15.729 6.45117 15.7881L6.47949 15.7939L6.50977 15.7915Q6.5918 15.7842 6.66895 15.7593Q6.76465 15.728 6.85156 15.6694Q6.93555 15.6123 7.0625 15.4819Q7.09375 15.4497 7.10938 15.4341L10.5342 12.0088L13.1455 9.40918Q13.333 9.2229 13.3799 9.05371Q13.4102 8.94849 13.3936 8.85034Q13.3691 8.6958 13.2305 8.55957Q13.0879 8.41968 12.9287 8.39575Q12.8379 8.38232 12.7422 8.40625Q12.5693 8.44922 12.3799 8.63501L12.2617 8.74561L6.42773 14.5796Q6.32422 14.666 6.23535 14.7651ZM6.5625 14.7275C6.43457 14.833 6.32324 14.957 6.23242 15.0952C6.0791 15.3862 6.23047 15.5371 6.49219 15.5923C6.72266 15.5723 6.83887 15.4204 6.96777 15.2925Q8.67969 13.5796 10.3926 11.8667Q11.6982 10.5649 13.0039 9.26733C13.1709 9.10205 13.2988 8.90698 13.0898 8.70215C12.8818 8.49731 12.6904 8.60962 12.5186 8.7793L12.4004 8.8894Q9.48047 11.8062 6.5625 14.7275Z" fill="#FA8B02" fill-opacity="1.000000" fill-rule="evenodd"/>
			<path id="Vector" d="M7.44043 8.22412C7.64648 8.22388 7.85059 8.2644 8.04102 8.34351C8.23242 8.42261 8.40527 8.53857 8.55078 8.68481C8.69629 8.83105 8.81152 9.00439 8.88965 9.19531C8.96777 9.38623 9.00781 9.59082 9.00684 9.79712C9.00391 10.0049 8.96094 10.2102 8.87891 10.4014C8.79785 10.5925 8.67871 10.7656 8.53027 10.9109C8.38184 11.0562 8.20605 11.1709 8.0127 11.2483C7.81934 11.3254 7.61328 11.364 7.40527 11.3618C7.19824 11.3594 6.99219 11.3159 6.80176 11.2344C6.61035 11.1526 6.43652 11.0339 6.29199 10.8853C6.14648 10.7366 6.03223 10.5608 5.9541 10.3677C5.87695 10.1748 5.83887 9.96851 5.84082 9.76074C5.84473 9.55469 5.88867 9.35132 5.9707 9.16235C6.05371 8.97339 6.17285 8.80273 6.32129 8.65991C6.46973 8.51709 6.64551 8.40503 6.83691 8.33032C7.0293 8.25537 7.23438 8.21924 7.44043 8.22412ZM7.4082 10.6748C7.52441 10.6772 7.64062 10.6567 7.74902 10.6145C7.85742 10.5723 7.95605 10.509 8.04004 10.4285C8.12402 10.3479 8.19141 10.2515 8.23828 10.145C8.28418 10.0386 8.30957 9.92383 8.3125 9.80737C8.31445 9.69116 8.29395 9.57544 8.25195 9.46729C8.20898 9.35889 8.14648 9.25977 8.06543 9.17603C7.98535 9.09204 7.88867 9.02466 7.78223 8.97803C7.67578 8.9314 7.56055 8.90601 7.44434 8.90356C7.20996 8.89893 6.98242 8.98755 6.81348 9.15015C6.64355 9.31299 6.5459 9.53613 6.54102 9.771C6.53613 10.0061 6.625 10.2332 6.78711 10.4026C6.9502 10.5723 7.17383 10.6702 7.4082 10.6748Z" fill="#FA8B02" fill-opacity="1.000000" fill-rule="nonzero"/>
			<path id="Vector" d="M8.4248 8.32251Q8.28125 8.22632 8.11816 8.15894Q7.95508 8.09131 7.78613 8.05762Q7.61719 8.02417 7.44238 8.02393Q7.26758 8.02026 7.09863 8.05005Q6.92871 8.08008 6.76465 8.1438Q6.60059 8.20776 6.45508 8.30078Q6.30957 8.39355 6.18262 8.51562Q6.05566 8.6377 5.95703 8.7793Q5.8584 8.9209 5.78809 9.08228Q5.7207 9.23682 5.68359 9.39795Q5.64453 9.57397 5.64062 9.7583Q5.63867 9.93579 5.6709 10.1067Q5.70312 10.2776 5.76855 10.4421Q5.83496 10.6067 5.92969 10.7524Q6.02441 10.8982 6.14844 11.0251Q6.27246 11.1519 6.41602 11.25Q6.55957 11.3484 6.72266 11.4182Q6.88574 11.4878 7.05566 11.5239Q7.22559 11.5596 7.40332 11.5615Q7.58105 11.564 7.75195 11.5317Q7.92285 11.4998 8.08691 11.4338Q8.25195 11.3679 8.39746 11.2729Q8.54297 11.178 8.66992 11.054Q8.79688 10.9299 8.89551 10.7866Q8.99316 10.6431 9.06348 10.48Q9.12988 10.325 9.16504 10.1631Q9.2041 9.98462 9.20703 9.7981Q9.20801 9.62183 9.1748 9.45215Q9.1416 9.28247 9.07422 9.11938Q9.00781 8.95654 8.91211 8.8125Q8.81641 8.66846 8.69238 8.5437Q8.56836 8.41895 8.4248 8.32251ZM7.44043 8.22412C7.23438 8.21924 7.0293 8.25537 6.83691 8.33032C6.64551 8.40503 6.46973 8.51709 6.32129 8.65991C6.17285 8.80273 6.05371 8.97339 5.9707 9.16235C5.88867 9.35132 5.84473 9.55469 5.84082 9.76074C5.83887 9.96851 5.87695 10.1748 5.9541 10.3677C6.03223 10.5608 6.14648 10.7366 6.29199 10.8853C6.43652 11.0339 6.61035 11.1526 6.80176 11.2344C6.99219 11.3159 7.19824 11.3594 7.40527 11.3618C7.61328 11.364 7.81934 11.3254 8.0127 11.2483C8.20605 11.1709 8.38184 11.0562 8.53027 10.9109C8.67871 10.7656 8.79785 10.5925 8.87891 10.4014C8.96094 10.2102 9.00391 10.0049 9.00684 9.79712C9.00781 9.59082 8.96777 9.38623 8.88965 9.19531C8.81152 9.00439 8.69629 8.83105 8.55078 8.68481C8.40527 8.53857 8.23242 8.42261 8.04102 8.34351C7.85059 8.2644 7.64648 8.22388 7.44043 8.22412ZM7.4082 10.6748C7.52441 10.6772 7.64062 10.6567 7.74902 10.6145C7.85742 10.5723 7.95605 10.509 8.04004 10.4285C8.12402 10.3479 8.19141 10.2515 8.23828 10.145C8.28418 10.0386 8.30957 9.92383 8.3125 9.80737C8.31445 9.69116 8.29395 9.57544 8.25195 9.46729C8.20898 9.35889 8.14648 9.25977 8.06543 9.17603C7.98535 9.09204 7.88867 9.02466 7.78223 8.97803C7.67578 8.9314 7.56055 8.90601 7.44434 8.90356C7.20996 8.89893 6.98242 8.98755 6.81348 9.15015C6.64355 9.31299 6.5459 9.53613 6.54102 9.771C6.53613 10.0061 6.625 10.2332 6.78711 10.4026C6.9502 10.5723 7.17383 10.6702 7.4082 10.6748ZM7.7959 10.3674Q7.73926 10.4033 7.67578 10.4282Q7.6123 10.4529 7.54688 10.4646Q7.48047 10.4763 7.41211 10.4749Q7.27051 10.4719 7.15039 10.4194Q7.03027 10.3667 6.93164 10.2642Q6.83301 10.1616 6.78613 10.0396Q6.73828 9.91724 6.74121 9.77515Q6.74414 9.6333 6.79688 9.51294Q6.84961 9.39282 6.95215 9.29443Q7.05371 9.19604 7.17676 9.14844Q7.29883 9.10083 7.44043 9.10352Q7.50879 9.10498 7.57422 9.11938Q7.63965 9.13379 7.70215 9.16113Q7.76465 9.18848 7.81934 9.22681Q7.87402 9.26514 7.9209 9.31445Q7.96875 9.36353 8.00488 9.41992Q8.04102 9.47632 8.06543 9.53979Q8.08984 9.60352 8.10156 9.66919Q8.11328 9.73511 8.1123 9.80347Q8.11035 9.87158 8.09668 9.93701Q8.08203 10.0022 8.05469 10.0647Q8.02734 10.1272 7.98926 10.1819Q7.9502 10.2368 7.90137 10.2842Q7.85254 10.3313 7.7959 10.3674Z" fill="#FA8B02" fill-opacity="1.000000" fill-rule="evenodd"/>
			<path id="Vector" d="M13.375 14.1821C13.377 14.3882 13.3389 14.5923 13.2607 14.7832C13.1836 14.9746 13.0693 15.1484 12.9248 15.2949C12.7803 15.4414 12.6074 15.5581 12.418 15.6382C12.2275 15.7183 12.0244 15.7598 11.8184 15.7603C11.6123 15.7666 11.4072 15.7319 11.2148 15.6577C11.0225 15.5835 10.8477 15.4717 10.6992 15.3286C10.5518 15.1855 10.4336 15.0142 10.3525 14.8252C10.2715 14.6357 10.2295 14.4321 10.2285 14.2261C10.2217 14.0156 10.2568 13.8057 10.333 13.6094C10.4092 13.4126 10.5234 13.2334 10.6709 13.0825C10.8174 12.9316 10.9932 12.8115 11.1875 12.73C11.3818 12.6484 11.5908 12.6069 11.8018 12.6079C12.2168 12.6133 12.6143 12.7808 12.9082 13.0752C13.2021 13.3691 13.3701 13.7661 13.375 14.1821ZM12.6709 14.1665C12.6689 14.0527 12.6445 13.9399 12.5996 13.8354C12.5547 13.731 12.4893 13.6362 12.4072 13.5566C12.3252 13.4775 12.2285 13.415 12.1221 13.373C12.0166 13.3315 11.9033 13.311 11.7891 13.313C11.6709 13.313 11.5537 13.3364 11.4443 13.3828C11.335 13.4292 11.2363 13.4971 11.1543 13.5825C11.0723 13.668 11.0078 13.769 10.9658 13.8799C10.9229 13.9907 10.9033 14.1089 10.9082 14.2271C10.9199 14.457 11.0195 14.6733 11.1855 14.8325C11.3516 14.9917 11.5713 15.082 11.8018 15.0854C11.9189 15.0835 12.0361 15.0586 12.1436 15.0112C12.252 14.9639 12.3496 14.8955 12.4307 14.8096C12.5117 14.7241 12.5742 14.623 12.6152 14.5127C12.6572 14.4019 12.6758 14.2842 12.6709 14.1665Z" fill="#FA8B02" fill-opacity="1.000000" fill-rule="nonzero"/>
			<path id="Vector" d="M13.2852 15.166Q13.3809 15.0215 13.4463 14.8584Q13.5107 14.7002 13.543 14.5352Q13.5771 14.3608 13.5752 14.1792Q13.5732 14.0039 13.5381 13.8354Q13.5029 13.667 13.4346 13.5049Q13.3662 13.3433 13.2705 13.2007Q13.1738 13.0576 13.0498 12.9336Q12.9258 12.8096 12.7832 12.7134Q12.6396 12.6172 12.4785 12.5488Q12.3271 12.4849 12.1689 12.4502Q11.9902 12.4102 11.8027 12.4077Q11.6221 12.4072 11.4492 12.4414Q11.2764 12.4761 11.1104 12.5454Q10.9443 12.6152 10.7988 12.7148Q10.6523 12.814 10.5273 12.9429Q10.4014 13.0723 10.3066 13.2207Q10.2119 13.3691 10.1465 13.5371Q10.082 13.7051 10.0518 13.8789Q10.0225 14.0513 10.0283 14.23Q10.0293 14.4048 10.0645 14.5723Q10.0996 14.7417 10.1689 14.9033Q10.2373 15.0654 10.3359 15.208Q10.4336 15.3501 10.5605 15.4727Q10.6875 15.5947 10.833 15.688Q10.9785 15.7808 11.1426 15.8442Q11.3076 15.9077 11.4775 15.9365Q11.6465 15.9653 11.8213 15.9604Q11.9961 15.9595 12.1641 15.9253Q12.333 15.8906 12.4951 15.8223Q12.6572 15.7544 12.8008 15.6577Q12.9434 15.5605 13.0674 15.4355Q13.1904 15.3101 13.2852 15.166ZM11.8184 15.7603C11.6123 15.7666 11.4072 15.7319 11.2148 15.6577C11.0225 15.5835 10.8477 15.4717 10.6992 15.3286C10.5518 15.1855 10.4336 15.0142 10.3525 14.8252C10.2715 14.6357 10.2295 14.4321 10.2285 14.2261C10.2217 14.0156 10.2568 13.8057 10.333 13.6094C10.4092 13.4126 10.5234 13.2334 10.6709 13.0825C10.8174 12.9316 10.9932 12.8115 11.1875 12.73C11.3818 12.6484 11.5908 12.6069 11.8018 12.6079C12.2168 12.6133 12.6143 12.7808 12.9082 13.0752C13.2021 13.3691 13.3701 13.7661 13.375 14.1821C13.377 14.3882 13.3389 14.5923 13.2607 14.7832C13.1836 14.9746 13.0693 15.1484 12.9248 15.2949C12.7803 15.4414 12.6074 15.5581 12.418 15.6382C12.2275 15.7183 12.0244 15.7598 11.8184 15.7603ZM12.6709 14.1665C12.6689 14.0527 12.6445 13.9399 12.5996 13.8354C12.5547 13.731 12.4893 13.6362 12.4072 13.5566C12.3252 13.4775 12.2285 13.415 12.1221 13.373C12.0166 13.3315 11.9033 13.311 11.7891 13.313C11.6709 13.313 11.5537 13.3364 11.4443 13.3828C11.335 13.4292 11.2363 13.4971 11.1543 13.5825C11.0723 13.668 11.0078 13.769 10.9658 13.8799C10.9229 13.9907 10.9033 14.1089 10.9082 14.2271C10.9199 14.457 11.0195 14.6733 11.1855 14.8325C11.3516 14.9917 11.5713 15.082 11.8018 15.0854C11.9189 15.0835 12.0361 15.0586 12.1436 15.0112C12.252 14.9639 12.3496 14.8955 12.4307 14.8096C12.5117 14.7241 12.5742 14.623 12.6152 14.5127C12.6572 14.4019 12.6758 14.2842 12.6709 14.1665ZM12.3525 13.8003Q12.3896 13.8535 12.416 13.9146Q12.4424 13.9756 12.4561 14.0391Q12.4697 14.103 12.4707 14.1694L12.4707 14.1724L12.4707 14.1753Q12.4736 14.2441 12.4629 14.311Q12.4521 14.3779 12.4277 14.4424Q12.4043 14.5073 12.3682 14.5645Q12.332 14.6221 12.2852 14.6724Q12.2373 14.7227 12.1816 14.7612Q12.127 14.8003 12.0635 14.8281Q12 14.856 11.9336 14.8701Q11.8691 14.8843 11.8018 14.8853Q11.6631 14.8828 11.5449 14.834Q11.4248 14.7852 11.3242 14.6885Q11.2188 14.5874 11.165 14.4644Q11.1152 14.3516 11.1074 14.2197Q11.1055 14.1504 11.1162 14.083Q11.1279 14.0161 11.1523 13.9512Q11.1768 13.8862 11.2139 13.8286Q11.25 13.7715 11.2979 13.7212Q11.3467 13.6714 11.4023 13.6328Q11.458 13.5942 11.5225 13.5669Q11.5654 13.5488 11.6094 13.5366Q11.6982 13.5127 11.793 13.5127Q11.8594 13.5117 11.9229 13.5234Q11.9873 13.5347 12.0488 13.5591Q12.1113 13.5835 12.166 13.6187Q12.2207 13.6543 12.2676 13.7002Q12.3154 13.7466 12.3525 13.8003Z" fill="#FA8B02" fill-opacity="1.000000" fill-rule="evenodd"/>
			<path id="Vector" d="M17.4746 12.0122C17.4746 12.2139 17.4883 12.4155 17.4746 12.6147C17.4619 12.814 17.335 12.9673 17.1182 12.9453C16.9014 12.9233 16.8076 12.7656 16.8027 12.563C16.7939 12.1973 16.7949 11.8315 16.8027 11.467C16.8027 11.2466 16.8965 11.0505 17.1406 11.0483C17.3838 11.0461 17.4805 11.2312 17.4873 11.458C17.4873 11.6411 17.4873 11.8237 17.4873 12.0088L17.4746 12.0122Z" fill="#FA8B02" fill-opacity="1.000000" fill-rule="nonzero"/>
			<path id="Vector" d="M17.5801 12.9253Q17.6631 12.8008 17.6748 12.6279Q17.6836 12.4863 17.6777 12.2095Q17.6777 12.186 17.6768 12.1646L17.6875 12.1616L17.6875 11.4553L17.6875 11.4524Q17.6797 11.2046 17.5625 11.0476Q17.5029 10.9673 17.4229 10.9192Q17.3027 10.8469 17.1387 10.8484Q16.9795 10.8499 16.8633 10.9211Q16.7783 10.9727 16.7168 11.061Q16.7148 11.0635 16.7129 11.0659Q16.6035 11.2266 16.6035 11.4626Q16.5908 12.0508 16.6035 12.5674Q16.6074 12.7803 16.709 12.9258Q16.7148 12.9341 16.7217 12.9424Q16.7695 13.0054 16.8301 13.0493Q16.9414 13.1284 17.0977 13.144Q17.25 13.1597 17.3701 13.1055Q17.4492 13.0698 17.5146 13.0044Q17.5508 12.9678 17.5801 12.9253ZM17.4746 12.0122C17.4746 12.0796 17.4766 12.147 17.4775 12.2139C17.4805 12.3481 17.4834 12.4819 17.4746 12.6147C17.4619 12.814 17.335 12.9673 17.1182 12.9453C16.9014 12.9233 16.8076 12.7656 16.8027 12.563C16.7939 12.1973 16.7949 11.8315 16.8027 11.467C16.8027 11.2466 16.8965 11.0505 17.1406 11.0483C17.3838 11.0461 17.4805 11.2312 17.4873 11.458L17.4873 12.0088L17.4746 12.0122Z" fill="#FA8B02" fill-opacity="1.000000" fill-rule="evenodd"/>
			<path id="Vector" d="M16.7998 8.89795C16.7998 8.69751 16.7891 8.49707 16.7998 8.29761C16.8096 8.09839 16.9092 7.93872 17.1299 7.9375C17.3506 7.93652 17.46 8.09058 17.4668 8.29224C17.4814 8.67432 17.4805 9.05786 17.4668 9.43994C17.4668 9.66016 17.3564 9.83423 17.1045 9.82227C16.875 9.81006 16.8008 9.64258 16.7891 9.44556C16.7783 9.24829 16.7979 9.08081 16.7998 8.89795Z" fill="#FA8B02" fill-opacity="1.000000" fill-rule="nonzero"/>
			<path id="Vector" d="M16.7129 7.93994Q16.6104 8.08008 16.5996 8.28784Q16.5928 8.42725 16.5977 8.70068Q16.5996 8.83276 16.5996 8.89673Q16.5986 8.96167 16.5928 9.09106Q16.582 9.32349 16.5898 9.45654Q16.6025 9.67969 16.7021 9.81982Q16.752 9.88818 16.8174 9.93384Q16.9316 10.0134 17.0947 10.022Q17.2773 10.0308 17.4092 9.95288Q17.4775 9.91211 17.5322 9.84766Q17.5508 9.8269 17.5654 9.80444Q17.666 9.65796 17.667 9.4436Q17.6875 8.84131 17.667 8.28564Q17.6602 8.09644 17.5713 7.9624Q17.5518 7.93335 17.5283 7.90674Q17.4746 7.84521 17.4072 7.80591Q17.2881 7.73682 17.1289 7.73755Q16.9736 7.73828 16.8584 7.80664Q16.7871 7.84839 16.7314 7.91577Q16.7217 7.92749 16.7129 7.93994ZM17.4668 9.43994C17.4805 9.05786 17.4814 8.67432 17.4668 8.29224C17.46 8.09058 17.3506 7.93652 17.1299 7.9375C16.9092 7.93872 16.8096 8.09839 16.7998 8.29761C16.793 8.43066 16.7949 8.56396 16.7969 8.69751C16.7979 8.7644 16.7998 8.83105 16.7998 8.89795C16.7988 8.9668 16.7959 9.03345 16.793 9.10034C16.7881 9.21118 16.7822 9.32251 16.7891 9.44556C16.8008 9.64258 16.875 9.81006 17.1045 9.82227C17.3564 9.83423 17.4668 9.66016 17.4668 9.43994Z" fill="#FA8B02" fill-opacity="1.000000" fill-rule="evenodd"/>
			<path id="Vector" d="M17.4785 15.1582C17.4785 15.3398 17.4873 15.5225 17.4785 15.709C17.4658 15.9092 17.3682 16.0688 17.1484 16.0732C16.9277 16.0776 16.8174 15.9258 16.8066 15.7251C16.7939 15.3242 16.7939 14.9238 16.8066 14.5234C16.8037 14.4775 16.8105 14.4312 16.8271 14.3882C16.8438 14.3452 16.8701 14.3066 16.9033 14.2749C16.9365 14.2437 16.9775 14.2197 17.0215 14.2056C17.0645 14.1914 17.1113 14.187 17.1572 14.1929C17.3857 14.2041 17.4658 14.3662 17.4766 14.5645C17.4873 14.7627 17.4795 14.9556 17.4785 15.1582Z" fill="#FA8B02" fill-opacity="1.000000" fill-rule="nonzero"/>
			<path id="Vector" d="M17.5508 16.0854Q17.6641 15.9429 17.6787 15.7217L17.6787 15.7183Q17.6846 15.5874 17.6807 15.3364Q17.6787 15.2168 17.6787 15.1592Q17.6787 15.1064 17.6807 15.002Q17.6846 14.7061 17.6758 14.5532Q17.6641 14.3291 17.5586 14.1885Q17.5107 14.1245 17.4482 14.0815Q17.335 14.0034 17.1748 13.9937Q17.1221 13.9878 17.0703 13.9922Q17.0146 13.9976 16.959 14.0151Q16.9043 14.0327 16.8564 14.0615Q16.8076 14.0903 16.7666 14.1294Q16.7246 14.1689 16.6934 14.2158Q16.6611 14.2622 16.6406 14.3159Q16.6201 14.3696 16.6113 14.4248Q16.6035 14.4751 16.6064 14.5264Q16.5869 15.1284 16.6074 15.7363Q16.6182 15.9292 16.7119 16.0625Q16.7295 16.0874 16.751 16.1104Q16.8057 16.1704 16.8721 16.2085Q16.9922 16.2764 17.1523 16.2734Q17.3066 16.27 17.4209 16.2007Q17.4912 16.1582 17.5459 16.0908Q17.5479 16.0884 17.5508 16.0854ZM16.8066 14.5234Q16.8057 14.5713 16.8037 14.6191Q16.7881 15.1719 16.8066 15.7251C16.8174 15.9258 16.9277 16.0776 17.1484 16.0732C17.3682 16.0688 17.4658 15.9092 17.4785 15.709C17.4844 15.5845 17.4824 15.4614 17.4805 15.3394C17.4795 15.2788 17.4785 15.2183 17.4785 15.1582C17.4785 15.1045 17.4795 15.0518 17.4805 14.999C17.4824 14.853 17.4844 14.71 17.4766 14.5645C17.4658 14.3662 17.3857 14.2041 17.1572 14.1929C17.1113 14.187 17.0645 14.1914 17.0215 14.2056C16.9775 14.2197 16.9365 14.2437 16.9033 14.2749C16.8701 14.3066 16.8438 14.3452 16.8271 14.3882C16.8105 14.4312 16.8037 14.4775 16.8066 14.5234Z" fill="#FA8B02" fill-opacity="1.000000" fill-rule="evenodd"/>
		</g>
	</g>
</svg>
