<svg width="24.000000" height="24.000000" viewBox="0 0 24 24" fill="none" xmlns="http://www.w3.org/2000/svg" xmlns:xlink="http://www.w3.org/1999/xlink">
	<desc>
			Created with Pixso.
	</desc>
	<defs>
		<clipPath id="clip201_1944">
			<rect id="icon_mountain bike" width="24.000000" height="24.000000" fill="white" fill-opacity="0"/>
		</clipPath>
	</defs>
	<g opacity="0.800000">
		<rect id="icon_mountain bike" width="24.000000" height="24.000000" fill="#FFFFFF" fill-opacity="0"/>
		<g clip-path="url(#clip201_1944)">
			<path id="Vector" d="M11.9805 12.6128C11.8291 13.627 11.7031 14.4846 11.5713 15.3401C11.542 15.5293 11.6367 15.5752 11.7988 15.6045C12.082 15.6545 12.1924 15.8499 12.0713 16.1006C11.9824 16.2825 12.0244 16.4246 12.0615 16.5969C12.1816 17.1516 11.8779 17.7522 11.3301 17.8618C10.8984 17.9485 10.8613 18.1606 10.8193 18.5232C10.6152 20.2842 8.99902 21.4751 7.32227 21.1345C5.5459 20.7722 4.50098 19.0662 5.00586 17.3416C5.12988 16.9038 5.36035 16.5037 5.67676 16.177C5.85645 15.991 6.05859 15.8154 6.29785 16.0483C6.50684 16.2573 6.36914 16.4568 6.20605 16.6377C5.9668 16.8928 5.79004 17.2 5.68945 17.5352C5.58789 17.8701 5.56641 18.2241 5.625 18.5691C5.80371 19.7871 6.94922 20.6216 8.20898 20.4546C9.37402 20.2979 10.248 19.1604 10.1328 17.9841C10.1006 17.656 9.97559 17.6602 9.7334 17.77C9.22656 18.0007 8.71387 18.2202 8.20215 18.4385C7.73047 18.6411 7.56055 18.543 7.50781 18.0479C7.37207 16.7505 7.20898 15.4541 7.125 14.1523C7.08984 13.5989 6.70801 13.3867 6.38086 13.0942C6.22461 12.9534 6.09473 13.136 5.96289 13.1987C5.73145 13.3032 5.5166 13.3376 5.38477 13.0723C5.25391 12.8071 5.4248 12.665 5.625 12.5762C6.0293 12.3975 6.14746 12.2439 5.83398 11.8042C5.29297 11.0459 5.56836 10.0366 6.37793 9.54272C7.12012 9.09033 7.87793 8.65894 8.63477 8.23071C8.74316 8.18237 8.83594 8.10522 8.90332 8.00757C8.9707 7.90991 9.00879 7.79541 9.01465 7.677C9.03906 7.39624 9.17188 7.13574 9.38477 6.95093C9.59668 6.76611 9.87305 6.67139 10.1543 6.68677C10.4189 6.69873 10.6689 6.80493 10.8613 6.98657C11.0527 7.16797 11.1729 7.41211 11.1992 7.6748C11.2188 7.81372 11.209 7.95508 11.1729 8.09033C11.1357 8.22559 11.0723 8.35205 10.9863 8.4624C10.8994 8.57251 10.792 8.66431 10.6689 8.73193C10.5459 8.79956 10.4111 8.84204 10.2715 8.85645C9.97266 8.90015 9.88086 8.99829 9.93066 9.28247C9.9834 9.58765 10.0156 9.89673 10.0635 10.251C10.5156 10.0251 10.8252 9.67114 11.1943 9.39844C11.4033 9.24487 11.6123 9.08521 11.8213 9.35449C12.0098 9.59497 11.8311 9.76514 11.6562 9.92798C10.9248 10.605 10.9248 10.6072 11.6445 11.3237L11.6807 11.3613C11.9551 11.6287 12.1855 12.0164 12.5166 12.1333C12.9072 12.2732 13.085 11.7427 13.3955 11.5535C14.4961 10.8828 15.9277 10.9392 16.916 11.7427C17.4004 12.135 17.75 12.6692 17.915 13.27C18.0801 13.8711 18.0527 14.5085 17.8379 15.0933C17.6221 15.678 17.2295 16.1809 16.7139 16.531C16.1982 16.8811 15.5859 17.0613 14.9629 17.0459C14.3398 17.0349 13.7363 16.8269 13.2393 16.4517C12.7422 16.0762 12.376 15.553 12.1953 14.9568C12.1328 14.7551 12.0264 14.5232 12.2432 14.3813C12.6328 14.1265 12.7402 14.4177 12.8525 14.728C13.2812 15.9084 14.2959 16.5039 15.4727 16.2876C16.4463 16.1079 17.1543 15.3413 17.292 14.3206C17.3457 13.8501 17.252 13.3745 17.0225 12.9597C16.7939 12.5452 16.4414 12.2122 16.0146 12.0071C15.5879 11.8022 15.1074 11.7356 14.6406 11.8164C14.1738 11.8972 13.7441 12.1216 13.4111 12.458C13.1279 12.7371 13.1924 12.8999 13.4805 13.1038C13.9062 13.4036 14.3955 13.5215 14.8818 13.6511C15.1426 13.7222 15.4395 13.792 15.3438 14.1462C15.2471 14.5002 14.9502 14.3813 14.6924 14.3384C13.6064 14.1555 12.7754 13.553 11.9805 12.6128ZM6.4043 10.3428C7.35254 10.6646 7.44922 10.6562 8.10742 10.2717C8.30176 10.1589 8.4834 10.0117 8.69043 9.9353C9.27734 9.72021 9.3584 9.33789 9.0957 8.7749L6.4043 10.3428ZM10.8262 14.749L10.9424 14.7207C11.0703 13.9143 11.1973 13.1079 11.3262 12.3015C11.3438 12.1843 11.3975 12.0518 11.2676 11.9683C11.1367 11.8845 11.043 12.0046 10.9434 12.0591C10.6992 12.1929 10.4629 12.3401 10.2119 12.4768C10.0566 12.5605 9.95703 12.6587 10.0361 12.8489L10.8262 14.749ZM10.3604 15.7747C10.3828 15.6702 10.4053 15.6357 10.3955 15.6108C10.1709 15.0444 9.94238 14.4814 9.71582 13.9165C9.46191 13.2896 8.81836 13.134 8.29395 13.5737C8.16602 13.6782 8.15918 13.7502 8.27539 13.8569C8.96289 14.4868 9.64844 15.1187 10.3604 15.7747ZM8.0293 16.2971C8.04883 16.5205 8.06055 16.6753 8.07812 16.8298C8.17676 17.6738 8.18262 17.6821 8.94922 17.3259C9.20508 17.2068 9.66406 17.1819 9.66211 16.9185C9.66211 16.5549 9.24414 16.3638 8.93066 16.1873C8.79199 16.1187 8.64746 16.0618 8.49902 16.0171C8.16992 15.9043 7.93945 15.9158 8.0293 16.2991L8.0293 16.2971ZM9.11523 12.4717C8.41992 11.5818 7.45312 11.2412 6.34473 11.145C6.50879 11.7634 7.50391 12.2576 9.11523 12.4739L9.11523 12.4717ZM8.37207 10.9434C8.75195 11.1785 9.12109 11.3132 9.35059 11.5703C9.65137 11.9087 9.89648 11.9192 10.208 11.6548C10.3408 11.542 10.6426 11.5503 10.5781 11.2996C10.5225 11.0845 10.3105 11.0259 10.0684 11.0657C9.80664 11.1084 9.5459 10.9978 9.47754 10.7449C9.36426 10.2915 9.15625 10.4724 8.92969 10.6082L8.37207 10.9434ZM10.0879 7.39185C9.85156 7.43457 9.71191 7.56934 9.72461 7.80957C9.72363 7.85791 9.7334 7.90552 9.75293 7.94971C9.77246 7.99414 9.80078 8.03369 9.83594 8.06641C9.87109 8.09912 9.91309 8.12427 9.95898 8.13989C10.0039 8.15552 10.0527 8.16162 10.1006 8.15747C10.3418 8.15747 10.501 8.01538 10.4941 7.771C10.4883 7.52661 10.3301 7.40967 10.0879 7.39282L10.0879 7.39185ZM11.3721 16.8569C11.3721 16.6042 11.2393 16.4609 10.998 16.4517C10.9502 16.4458 10.9023 16.45 10.8564 16.4639C10.8105 16.4775 10.7686 16.501 10.7324 16.532C10.6963 16.5632 10.667 16.6018 10.6465 16.6448C10.626 16.688 10.6143 16.7351 10.6133 16.7827C10.5889 17.0229 10.709 17.1851 10.9541 17.2058C11.1982 17.2268 11.333 17.0908 11.3721 16.8579L11.3721 16.8569ZM7.92969 14.5066C7.8877 15.2378 7.8877 15.2441 8.74707 15.2515L7.92969 14.5066Z" fill="#FA8B02" fill-opacity="1.000000" fill-rule="nonzero"/>
			<path id="Vector" d="M11.5713 15.3401C11.542 15.5293 11.6367 15.5752 11.7988 15.6045C12.082 15.6545 12.1924 15.8499 12.0713 16.1006C11.9824 16.2825 12.0244 16.4246 12.0615 16.5969C12.1816 17.1516 11.8779 17.7522 11.3301 17.8618C10.8984 17.9485 10.8613 18.1606 10.8193 18.5232C10.6152 20.2842 8.99902 21.4751 7.32227 21.1345C5.5459 20.7722 4.50098 19.0662 5.00586 17.3416C5.12988 16.9038 5.36035 16.5037 5.67676 16.177C5.85645 15.991 6.05859 15.8154 6.29785 16.0483C6.50684 16.2573 6.36914 16.4568 6.20605 16.6377C5.9668 16.8928 5.79004 17.2 5.68945 17.5352C5.58789 17.8701 5.56641 18.2241 5.625 18.5691C5.80371 19.7871 6.94922 20.6216 8.20898 20.4546C9.37402 20.2979 10.248 19.1604 10.1328 17.9841C10.1006 17.656 9.97559 17.6602 9.7334 17.77C9.22656 18.0007 8.71387 18.2202 8.20215 18.4385C7.73047 18.6411 7.56055 18.543 7.50781 18.0479C7.37207 16.7505 7.20898 15.4541 7.125 14.1523C7.08984 13.5989 6.70801 13.3867 6.38086 13.0942C6.22461 12.9534 6.09473 13.136 5.96289 13.1987C5.73145 13.3032 5.5166 13.3376 5.38477 13.0723C5.25391 12.8071 5.4248 12.665 5.625 12.5762C6.0293 12.3975 6.14746 12.2439 5.83398 11.8042C5.29297 11.0459 5.56836 10.0366 6.37793 9.54272C7.12012 9.09033 7.87793 8.65894 8.63477 8.23071C8.74316 8.18237 8.83594 8.10522 8.90332 8.00757C8.9707 7.90991 9.00879 7.79541 9.01465 7.677C9.03906 7.39624 9.17188 7.13574 9.38477 6.95093C9.59668 6.76611 9.87305 6.67139 10.1543 6.68677C10.4189 6.69873 10.6689 6.80493 10.8613 6.98657C11.0527 7.16797 11.1729 7.41211 11.1992 7.6748C11.2188 7.81372 11.209 7.95508 11.1729 8.09033C11.1357 8.22559 11.0723 8.35205 10.9863 8.4624C10.8994 8.57251 10.792 8.66431 10.6689 8.73193C10.5459 8.79956 10.4111 8.84204 10.2715 8.85645C9.97266 8.90015 9.88086 8.99829 9.93066 9.28247C9.9834 9.58765 10.0156 9.89673 10.0635 10.251C10.5156 10.0251 10.8252 9.67114 11.1943 9.39844C11.4033 9.24487 11.6123 9.08521 11.8213 9.35449C12.0098 9.59497 11.8311 9.76514 11.6562 9.92798C10.9248 10.605 10.9248 10.6072 11.6445 11.3237L11.6807 11.3613C11.9551 11.6287 12.1855 12.0164 12.5166 12.1333C12.9072 12.2732 13.085 11.7427 13.3955 11.5535C14.4961 10.8828 15.9277 10.9392 16.916 11.7427C17.4004 12.135 17.75 12.6692 17.915 13.27C18.0801 13.8711 18.0527 14.5085 17.8379 15.0933C17.6221 15.678 17.2295 16.1809 16.7139 16.531C16.1982 16.8811 15.5859 17.0613 14.9629 17.0459C14.3398 17.0349 13.7363 16.8269 13.2393 16.4517C12.7422 16.0762 12.376 15.553 12.1953 14.9568C12.1328 14.7551 12.0264 14.5232 12.2432 14.3813C12.6328 14.1265 12.7402 14.4177 12.8525 14.728C13.2812 15.9084 14.2959 16.5039 15.4727 16.2876C16.4463 16.1079 17.1543 15.3413 17.292 14.3206C17.3457 13.8501 17.252 13.3745 17.0225 12.9597C16.7939 12.5452 16.4414 12.2122 16.0146 12.0071C15.5879 11.8022 15.1074 11.7356 14.6406 11.8164C14.1738 11.8972 13.7441 12.1216 13.4111 12.458C13.1279 12.7371 13.1924 12.8999 13.4805 13.1038C13.9062 13.4036 14.3955 13.5215 14.8818 13.6511C15.1426 13.7222 15.4395 13.792 15.3438 14.1462C15.2471 14.5002 14.9502 14.3813 14.6924 14.3384C13.6064 14.1555 12.7754 13.553 11.9805 12.6128C11.8291 13.627 11.7031 14.4846 11.5713 15.3401ZM8.10742 10.2717C8.30176 10.1589 8.4834 10.0117 8.69043 9.9353C9.27734 9.72021 9.3584 9.33789 9.0957 8.7749L6.4043 10.3428C7.35254 10.6646 7.44922 10.6562 8.10742 10.2717ZM10.9424 14.7207C11.0703 13.9143 11.1973 13.1079 11.3262 12.3015C11.3438 12.1843 11.3975 12.0518 11.2676 11.9683C11.1367 11.8845 11.043 12.0046 10.9434 12.0591C10.6992 12.1929 10.4629 12.3401 10.2119 12.4768C10.0566 12.5605 9.95703 12.6587 10.0361 12.8489L10.8262 14.749L10.9424 14.7207ZM10.3955 15.6108C10.1709 15.0444 9.94238 14.4814 9.71582 13.9165C9.46191 13.2896 8.81836 13.134 8.29395 13.5737C8.16602 13.6782 8.15918 13.7502 8.27539 13.8569C8.96289 14.4868 9.64844 15.1187 10.3604 15.7747C10.3828 15.6702 10.4053 15.6357 10.3955 15.6108ZM8.07812 16.8298C8.17676 17.6738 8.18262 17.6821 8.94922 17.3259C9.20508 17.2068 9.66406 17.1819 9.66211 16.9185C9.66211 16.5549 9.24414 16.3638 8.93066 16.1873C8.79199 16.1187 8.64746 16.0618 8.49902 16.0171C8.16992 15.9043 7.93945 15.9158 8.0293 16.2991L8.0293 16.2971C8.04883 16.5205 8.06055 16.6753 8.07812 16.8298ZM6.34473 11.145C6.50879 11.7634 7.50391 12.2576 9.11523 12.4739L9.11523 12.4717C8.41992 11.5818 7.45312 11.2412 6.34473 11.145ZM9.35059 11.5703C9.65137 11.9087 9.89648 11.9192 10.208 11.6548C10.3408 11.542 10.6426 11.5503 10.5781 11.2996C10.5225 11.0845 10.3105 11.0259 10.0684 11.0657C9.80664 11.1084 9.5459 10.9978 9.47754 10.7449C9.36426 10.2915 9.15625 10.4724 8.92969 10.6082L8.37207 10.9434C8.75195 11.1785 9.12109 11.3132 9.35059 11.5703ZM9.72461 7.80957C9.72363 7.85791 9.7334 7.90552 9.75293 7.94971C9.77246 7.99414 9.80078 8.03369 9.83594 8.06641C9.87109 8.09912 9.91309 8.12427 9.95898 8.13989C10.0039 8.15552 10.0527 8.16162 10.1006 8.15747C10.3418 8.15747 10.501 8.01538 10.4941 7.771C10.4883 7.52661 10.3301 7.40967 10.0879 7.39282L10.0879 7.39185C9.85156 7.43457 9.71191 7.56934 9.72461 7.80957ZM10.998 16.4517C10.9502 16.4458 10.9023 16.45 10.8564 16.4639C10.8105 16.4775 10.7686 16.501 10.7324 16.532C10.6963 16.5632 10.667 16.6018 10.6465 16.6448C10.626 16.688 10.6143 16.7351 10.6133 16.7827C10.5889 17.0229 10.709 17.1851 10.9541 17.2058C11.1982 17.2268 11.333 17.0908 11.3721 16.8579L11.3721 16.8569C11.3721 16.6042 11.2393 16.4609 10.998 16.4517ZM8.74707 15.2515L7.92969 14.5066C7.8877 15.2378 7.8877 15.2441 8.74707 15.2515Z" stroke="#FA8B02" stroke-opacity="1.000000" stroke-width="0.200000"/>
			<path id="Vector" d="M23.5293 19.293C22.4297 18.967 21.3301 18.6401 20.2246 18.3298C19.9961 18.2651 19.8701 18.196 19.8711 17.9224C19.8809 15.2239 19.8809 12.5256 19.8711 9.82788C19.8711 9.44653 20.0088 9.47266 20.2666 9.625C20.7607 9.9187 21.2607 10.1997 21.7598 10.4827C21.9561 10.5945 22.1582 10.7388 22.3867 10.5518C22.5898 10.3813 22.4971 10.1694 22.4375 9.97192C21.5996 7.22607 20.7607 4.48047 19.9209 1.73511C19.8584 1.53247 19.7949 1.31738 19.5273 1.31738C19.2598 1.31738 19.1885 1.52637 19.127 1.72681C18.6543 3.28345 17.6777 6.552 17.1602 8.26709C17.1299 8.32593 17.1055 8.38745 17.0869 8.45093C16.9297 8.96704 16.7734 9.48096 16.6133 9.99805C16.5537 10.1975 16.4756 10.4158 16.6914 10.5693C16.9082 10.7229 17.0898 10.5967 17.2715 10.4941C17.7559 10.2195 18.248 9.9563 18.7188 9.65845C19.0732 9.43701 19.1777 9.49341 19.1758 9.91968C19.1631 12.5298 19.1631 15.1414 19.1758 17.7542C19.1758 18.125 19.0469 18.2358 18.6973 18.2368C17.9746 18.2368 17.2891 18.4395 16.625 18.7131C14.6465 19.5269 12.6348 20.2737 10.7002 21.1816C8.76465 22.0894 6.86328 22.1738 4.90527 21.3142C4.60547 21.1836 4.43945 21.0437 4.36328 20.7104C3.92871 18.8113 3.46777 16.9175 3.01465 15.0225C2.95898 14.7896 2.94629 14.5002 2.625 14.4824C2.25684 14.4626 2.24609 14.7803 2.1875 15.0269C1.82812 16.5164 1.47266 18.0054 1.12109 19.4934C1.06348 19.7336 1.03906 19.9939 0.666992 19.8257C0.417969 19.7139 0.118164 19.6482 0.0185547 19.999C-0.0810547 20.3501 0.237305 20.4231 0.480469 20.5088C2.25586 21.1355 4.02148 21.7625 5.80273 22.364C7.16895 22.834 8.66016 22.782 9.99023 22.2178C12.2607 21.2861 14.5273 20.3459 16.79 19.3975C18.0645 18.8455 19.4961 18.7712 20.8213 19.1885C21.6562 19.4402 22.4844 19.6982 23.3154 19.9551C23.5713 20.0347 23.8662 20.1392 23.9766 19.7954C24.0869 19.4517 23.7822 19.3682 23.5293 19.293ZM1.90625 20.2498C1.74805 20.1965 1.67969 20.1274 1.72363 19.948C1.99902 18.8291 2.2666 17.7073 2.65625 16.5823C2.9873 17.9705 3.31934 19.3599 3.68164 20.8777C3.01953 20.6426 2.46582 20.4399 1.90918 20.2498L1.90625 20.2498ZM19.0527 8.65479C18.5762 8.93677 18.0898 9.20215 17.5156 9.52588C17.5918 9.25854 17.6484 9.04321 17.7061 8.84155C17.7236 8.79565 17.7383 8.74756 17.7529 8.69971C18.0664 7.68433 18.9238 4.7854 19.2402 3.77319C19.3145 3.53394 19.3447 3.27173 19.5654 3.00439C20.2275 5.1792 20.8701 7.29248 21.5498 9.5332C20.9453 9.1936 20.4619 8.92847 19.9834 8.65039C19.8447 8.56226 19.6826 8.51587 19.5186 8.51709C19.3535 8.51831 19.1934 8.56738 19.0557 8.65771L19.0527 8.65479Z" fill="#FA8B02" fill-opacity="1.000000" fill-rule="nonzero"/>
			<path id="Vector" d="M20.2246 18.3298C19.9961 18.2651 19.8701 18.196 19.8711 17.9224C19.8809 15.2239 19.8809 12.5256 19.8711 9.82788C19.8711 9.44653 20.0088 9.47266 20.2666 9.625C20.7607 9.9187 21.2607 10.1997 21.7598 10.4827C21.9561 10.5945 22.1582 10.7388 22.3867 10.5518C22.5898 10.3813 22.4971 10.1694 22.4375 9.97192C21.5996 7.22607 20.7607 4.48047 19.9209 1.73511C19.8584 1.53247 19.7949 1.31738 19.5273 1.31738C19.2598 1.31738 19.1885 1.52637 19.127 1.72681C18.6543 3.28345 17.6777 6.552 17.1602 8.26709C17.1299 8.32593 17.1055 8.38745 17.0869 8.45093C16.9297 8.96704 16.7734 9.48096 16.6133 9.99805C16.5537 10.1975 16.4756 10.4158 16.6914 10.5693C16.9082 10.7229 17.0898 10.5967 17.2715 10.4941C17.7559 10.2195 18.248 9.9563 18.7188 9.65845C19.0732 9.43701 19.1777 9.49341 19.1758 9.91968C19.1631 12.5298 19.1631 15.1414 19.1758 17.7542C19.1758 18.125 19.0469 18.2358 18.6973 18.2368C17.9746 18.2368 17.2891 18.4395 16.625 18.7131C14.6465 19.5269 12.6348 20.2737 10.7002 21.1816C8.76465 22.0894 6.86328 22.1738 4.90527 21.3142C4.60547 21.1836 4.43945 21.0437 4.36328 20.7104C3.92871 18.8113 3.46777 16.9175 3.01465 15.0225C2.95898 14.7896 2.94629 14.5002 2.625 14.4824C2.25684 14.4626 2.24609 14.7803 2.1875 15.0269C1.82812 16.5164 1.47266 18.0054 1.12109 19.4934C1.06348 19.7336 1.03906 19.9939 0.666992 19.8257C0.417969 19.7139 0.118164 19.6482 0.0185547 19.999C-0.0810547 20.3501 0.237305 20.4231 0.480469 20.5088C2.25586 21.1355 4.02148 21.7625 5.80273 22.364C7.16895 22.834 8.66016 22.782 9.99023 22.2178C12.2607 21.2861 14.5273 20.3459 16.79 19.3975C18.0645 18.8455 19.4961 18.7712 20.8213 19.1885C21.6562 19.4402 22.4844 19.6982 23.3154 19.9551C23.5713 20.0347 23.8662 20.1392 23.9766 19.7954C24.0869 19.4517 23.7822 19.3682 23.5293 19.293C22.4297 18.967 21.3301 18.6401 20.2246 18.3298ZM1.72363 19.948C1.99902 18.8291 2.2666 17.7073 2.65625 16.5823C2.9873 17.9705 3.31934 19.3599 3.68164 20.8777C3.01953 20.6426 2.46582 20.4399 1.90918 20.2498L1.90625 20.2498C1.74805 20.1965 1.67969 20.1274 1.72363 19.948ZM17.5156 9.52588C17.5918 9.25854 17.6484 9.04321 17.7061 8.84155C17.7236 8.79565 17.7383 8.74756 17.7529 8.69971C18.0664 7.68433 18.9238 4.7854 19.2402 3.77319C19.3145 3.53394 19.3447 3.27173 19.5654 3.00439C20.2275 5.1792 20.8701 7.29248 21.5498 9.5332C20.9453 9.1936 20.4619 8.92847 19.9834 8.65039C19.8447 8.56226 19.6826 8.51587 19.5186 8.51709C19.3535 8.51831 19.1934 8.56738 19.0557 8.65771L19.0527 8.65479C18.5762 8.93677 18.0898 9.20215 17.5156 9.52588Z" stroke="#FA8B02" stroke-opacity="1.000000" stroke-width="0.200000"/>
		</g>
	</g>
</svg>
