<svg width="24.200195" height="23.635742" viewBox="0 0 24.2002 23.6357" fill="none" xmlns="http://www.w3.org/2000/svg" xmlns:xlink="http://www.w3.org/1999/xlink">
	<desc>
			Created with Pixso.
	</desc>
	<defs/>
	<path id="Vector" d="M7.2832 12.6777C7.56641 12.0266 7.50684 11.7271 7.01074 11.272C6.39453 10.7253 5.95117 10.0105 5.73633 9.21509C5.67285 8.91431 5.49609 8.64917 5.24316 8.47412C4.32031 7.81665 4.11523 6.67798 4.70801 5.70215C4.80273 5.54468 4.86426 5.41431 4.8125 5.22314C4.32715 3.49512 5.30371 1.48486 7.39258 0.660645C8.59863 0.193115 9.89746 0.0144043 11.1855 0.138672C11.9551 0.205566 12.5918 0.509277 12.8936 1.30225C13.0342 1.64111 13.2812 1.9248 13.5977 2.11108C14.8438 2.92627 15.0742 3.60864 14.624 5.0332C14.5723 5.19507 14.5137 5.32349 14.6475 5.50928C15.3789 6.51733 15.165 7.8313 14.1426 8.56494C13.9727 8.68213 13.8516 8.85669 13.7998 9.0564C13.543 9.98511 13.0127 10.8149 12.2773 11.438C11.9639 11.7083 11.9414 12.6414 12.2197 12.9336C12.3604 13.0806 12.4561 12.9512 12.5146 12.8708C13.0957 12.0767 13.9023 12.1831 14.6934 12.3491C16.8857 12.823 18.4414 14.0627 19.1104 16.2471C19.7852 18.4502 19.8408 20.7346 19.8594 23.0139C19.8594 23.4834 19.5742 23.5356 19.2012 23.5356C15.7051 23.53 12.208 23.53 8.71094 23.5356C6.08496 23.5356 3.45801 23.5356 0.831055 23.5356C0.143555 23.5356 0.0927734 23.4856 0.100586 22.7842C0.118164 20.8315 0.222656 18.8884 0.640625 16.9753C1.24707 14.1995 3.35547 12.3835 6.06934 12.2542C6.59961 12.229 6.59961 12.229 7.2832 12.6777ZM10.1475 22.7695C11.8359 22.7695 13.5225 22.7561 15.21 22.7791C15.627 22.7791 15.7432 22.6631 15.7314 22.2573C15.7041 21.1448 15.7217 20.0312 15.7227 18.9177C15.7227 18.709 15.707 18.4929 15.9316 18.3687C16.2266 18.207 16.4824 18.4199 16.4854 18.8633C16.4941 20.0281 16.498 21.1938 16.4854 22.3584C16.4854 22.6716 16.5703 22.7905 16.8975 22.7759C17.5049 22.7529 18.1143 22.7634 18.7236 22.7759C18.9521 22.7759 19.0859 22.7249 19.0771 22.4629C19.0078 20.3599 18.9775 18.2498 18.2783 16.2302C17.7441 14.6848 16.6084 13.7568 15.0889 13.2456C14.7891 13.1411 14.6221 13.2017 14.4619 13.4866C13.8271 14.5854 13.1699 15.6719 12.5088 16.7554C12.3633 16.9878 12.2881 17.2573 12.292 17.5317C12.3027 18.8362 12.2988 20.1409 12.292 21.4443C12.292 22.0588 12.2061 22.1445 11.6035 22.1467C10.4736 22.1467 9.34277 22.1467 8.21094 22.1467C7.5459 22.1467 7.48535 22.0891 7.48047 21.4412C7.48047 20.1887 7.4707 18.9365 7.48047 17.6841C7.49316 17.3379 7.40137 16.9958 7.21777 16.7021C6.57715 15.6667 5.94043 14.6284 5.34473 13.571C5.13574 13.2029 4.92676 13.1924 4.58984 13.325C2.94824 13.9834 1.87402 15.1418 1.46191 16.8857C1.03125 18.6902 0.93457 20.5278 0.864258 22.3721C0.851562 22.7092 0.988281 22.7822 1.29102 22.7739C1.96875 22.7571 2.64844 22.7529 3.32617 22.7739C3.66211 22.7854 3.77637 22.6863 3.77051 22.3376C3.75098 21.2073 3.76465 20.0771 3.76172 18.9458C3.76172 18.6526 3.78125 18.3352 4.14941 18.325C4.51758 18.3145 4.5459 18.6379 4.54688 18.9302C4.54688 20.0259 4.56641 21.1218 4.53906 22.2166C4.52832 22.6401 4.64355 22.7842 5.08594 22.7781C6.77246 22.7498 8.46094 22.7695 10.1475 22.7695ZM9.84082 11.583C9.89355 11.583 10.0166 11.5757 10.1357 11.5559C11.8369 11.2825 12.6797 10.1313 13.1299 8.59839C13.2188 8.29468 13.3389 8.09741 13.6396 7.94189C14.4561 7.51807 14.5293 6.37646 13.7949 5.87231C13.625 5.75537 13.5508 5.58423 13.4658 5.41528C13.1602 4.80957 12.7695 4.25073 12.3057 3.75586C12.1904 3.63379 12.0605 3.4104 11.8379 3.62451C11.3574 4.08984 10.7598 4.12524 10.1387 4.11694C9.11328 4.10547 8.08496 4.09399 7.07227 4.27783C6.41797 4.39453 5.89453 4.70361 5.80176 5.45483C5.76758 5.62549 5.67969 5.78101 5.55273 5.89941C4.90137 6.61328 5.05859 7.53394 5.92188 7.97412C6.22949 8.13086 6.32715 8.34375 6.39062 8.65479C6.73926 10.3662 8.15527 11.583 9.84082 11.583ZM5.49121 4.24854C6.32617 3.48779 7.2334 3.41357 8.13965 3.38013C8.88477 3.34888 9.63184 3.35522 10.3779 3.35107C10.7549 3.35107 11.0986 3.27686 11.375 2.99097C11.8389 2.51196 11.9766 2.50366 12.501 2.89697C12.9805 3.25806 13.3223 3.73926 13.665 4.22144C13.7461 4.33521 13.7686 4.51978 13.959 4.53442C14.1934 3.78198 14.1084 3.41357 13.4453 2.96167C12.8545 2.55981 12.3584 2.10913 12.0879 1.43384C11.9736 1.14575 11.707 1.01636 11.4316 0.976807C9.69434 0.749268 8.0332 0.938232 6.5957 2.04541C5.94531 2.54736 5.55566 3.23413 5.49121 4.24854ZM13.7744 13.1099C13.4531 12.9783 13.332 13.1943 13.1875 13.3186C12.3398 14.0659 11.4971 14.8179 10.6582 15.575C9.88477 16.2793 9.89062 16.2793 9.11523 15.5488C8.32129 14.7954 7.52051 14.0481 6.72559 13.2957C6.52734 13.1079 6.33301 12.9451 6.02441 13.1108C6.04102 13.1765 6.06348 13.2405 6.0918 13.302C6.70605 14.3308 7.3291 15.3557 7.93457 16.3899C8.06543 16.6123 8.23828 16.6375 8.45703 16.6353C9.15137 16.6353 9.85645 16.5632 10.5439 16.6509C11.418 16.7637 11.9014 16.4202 12.2842 15.6626C12.7197 14.7849 13.2676 13.9656 13.7744 13.1099ZM8.24121 19.3999C8.24121 19.9382 8.25293 20.4758 8.24121 21.0132C8.23438 21.2815 8.32617 21.3848 8.59766 21.3816C9.43262 21.3701 10.2676 21.3669 11.0967 21.3816C11.4219 21.3879 11.5137 21.2573 11.5137 20.9507C11.501 19.907 11.501 18.8657 11.5137 17.8271C11.5137 17.5078 11.4102 17.4033 11.0967 17.4097C10.2812 17.4253 9.46484 17.4285 8.64941 17.4097C8.31738 17.4023 8.2373 17.5359 8.24902 17.8396C8.2627 18.3582 8.24805 18.8801 8.24805 19.3999L8.24121 19.3999ZM11.5918 13.4805C11.4268 13.1533 11.3213 12.8003 11.2783 12.4368C11.2529 12.1174 11.1318 12.1238 10.8818 12.1987C10.2637 12.3879 9.6084 12.4167 8.97656 12.2822C8.27637 12.1455 8.27539 12.1436 8.09863 12.8438C8.03516 13.0974 7.8584 13.3384 8.1582 13.5952C8.6709 14.0344 9.15527 14.5105 9.64062 14.9812C9.80664 15.1418 9.93359 15.1804 10.1201 15.0061C10.5527 14.6055 11.002 14.2224 11.4414 13.8289C11.5391 13.7517 11.6543 13.6807 11.5977 13.4805L11.5918 13.4805Z" fill="#FA8B02" fill-opacity="1.000000" fill-rule="nonzero"/>
	<path id="Vector" d="M7.01074 11.272C6.39453 10.7253 5.95117 10.0105 5.73633 9.21509C5.67285 8.91431 5.49609 8.64917 5.24316 8.47412C4.32031 7.81665 4.11523 6.67798 4.70801 5.70215C4.80273 5.54468 4.86426 5.41431 4.8125 5.22314C4.32715 3.49512 5.30371 1.48486 7.39258 0.660645C8.59863 0.193115 9.89746 0.0144043 11.1855 0.138672C11.9551 0.205566 12.5918 0.509277 12.8936 1.30225C13.0342 1.64111 13.2812 1.9248 13.5977 2.11108C14.8438 2.92627 15.0742 3.60864 14.624 5.0332C14.5723 5.19507 14.5137 5.32349 14.6475 5.50928C15.3789 6.51733 15.165 7.8313 14.1426 8.56494C13.9727 8.68213 13.8516 8.85669 13.7998 9.0564C13.543 9.98511 13.0127 10.8149 12.2773 11.438C11.9639 11.7083 11.9414 12.6414 12.2197 12.9336C12.3604 13.0806 12.4561 12.9512 12.5146 12.8708C13.0957 12.0767 13.9023 12.1831 14.6934 12.3491C16.8857 12.823 18.4414 14.0627 19.1104 16.2471C19.7852 18.4502 19.8408 20.7346 19.8594 23.0139C19.8594 23.4834 19.5742 23.5356 19.2012 23.5356C15.7051 23.53 12.208 23.53 8.71094 23.5356C6.08496 23.5356 3.45801 23.5356 0.831055 23.5356C0.143555 23.5356 0.0927734 23.4856 0.100586 22.7842C0.118164 20.8315 0.222656 18.8884 0.640625 16.9753C1.24707 14.1995 3.35547 12.3835 6.06934 12.2542C6.59961 12.229 6.59961 12.229 7.2832 12.6777C7.56641 12.0266 7.50684 11.7271 7.01074 11.272ZM15.21 22.7791C15.627 22.7791 15.7432 22.6631 15.7314 22.2573C15.7041 21.1448 15.7217 20.0312 15.7227 18.9177C15.7227 18.709 15.707 18.4929 15.9316 18.3687C16.2266 18.207 16.4824 18.4199 16.4854 18.8633C16.4941 20.0281 16.498 21.1938 16.4854 22.3584C16.4854 22.6716 16.5703 22.7905 16.8975 22.7759C17.5049 22.7529 18.1143 22.7634 18.7236 22.7759C18.9521 22.7759 19.0859 22.7249 19.0771 22.4629C19.0078 20.3599 18.9775 18.2498 18.2783 16.2302C17.7441 14.6848 16.6084 13.7568 15.0889 13.2456C14.7891 13.1411 14.6221 13.2017 14.4619 13.4866C13.8271 14.5854 13.1699 15.6719 12.5088 16.7554C12.3633 16.9878 12.2881 17.2573 12.292 17.5317C12.3027 18.8362 12.2988 20.1409 12.292 21.4443C12.292 22.0588 12.2061 22.1445 11.6035 22.1467C10.4736 22.1467 9.34277 22.1467 8.21094 22.1467C7.5459 22.1467 7.48535 22.0891 7.48047 21.4412C7.48047 20.1887 7.4707 18.9365 7.48047 17.6841C7.49316 17.3379 7.40137 16.9958 7.21777 16.7021C6.57715 15.6667 5.94043 14.6284 5.34473 13.571C5.13574 13.2029 4.92676 13.1924 4.58984 13.325C2.94824 13.9834 1.87402 15.1418 1.46191 16.8857C1.03125 18.6902 0.93457 20.5278 0.864258 22.3721C0.851562 22.7092 0.988281 22.7822 1.29102 22.7739C1.96875 22.7571 2.64844 22.7529 3.32617 22.7739C3.66211 22.7854 3.77637 22.6863 3.77051 22.3376C3.75098 21.2073 3.76465 20.0771 3.76172 18.9458C3.76172 18.6526 3.78125 18.3352 4.14941 18.325C4.51758 18.3145 4.5459 18.6379 4.54688 18.9302C4.54688 20.0259 4.56641 21.1218 4.53906 22.2166C4.52832 22.6401 4.64355 22.7842 5.08594 22.7781C6.77246 22.7498 8.46094 22.7695 10.1475 22.7695C11.8359 22.7695 13.5225 22.7561 15.21 22.7791ZM10.1357 11.5559C11.8369 11.2825 12.6797 10.1313 13.1299 8.59839C13.2188 8.29468 13.3389 8.09741 13.6396 7.94189C14.4561 7.51807 14.5293 6.37646 13.7949 5.87231C13.625 5.75537 13.5508 5.58423 13.4658 5.41528C13.1602 4.80957 12.7695 4.25073 12.3057 3.75586C12.1904 3.63379 12.0605 3.4104 11.8379 3.62451C11.3574 4.08984 10.7598 4.12524 10.1387 4.11694C9.11328 4.10547 8.08496 4.09399 7.07227 4.27783C6.41797 4.39453 5.89453 4.70361 5.80176 5.45483C5.76758 5.62549 5.67969 5.78101 5.55273 5.89941C4.90137 6.61328 5.05859 7.53394 5.92188 7.97412C6.22949 8.13086 6.32715 8.34375 6.39062 8.65479C6.73926 10.3662 8.15527 11.583 9.84082 11.583C9.89355 11.583 10.0166 11.5757 10.1357 11.5559ZM8.13965 3.38013C8.88477 3.34888 9.63184 3.35522 10.3779 3.35107C10.7549 3.35107 11.0986 3.27686 11.375 2.99097C11.8389 2.51196 11.9766 2.50366 12.501 2.89697C12.9805 3.25806 13.3223 3.73926 13.665 4.22144C13.7461 4.33521 13.7686 4.51978 13.959 4.53442C14.1934 3.78198 14.1084 3.41357 13.4453 2.96167C12.8545 2.55981 12.3584 2.10913 12.0879 1.43384C11.9736 1.14575 11.707 1.01636 11.4316 0.976807C9.69434 0.749268 8.0332 0.938232 6.5957 2.04541C5.94531 2.54736 5.55566 3.23413 5.49121 4.24854C6.32617 3.48779 7.2334 3.41357 8.13965 3.38013ZM13.1875 13.3186C12.3398 14.0659 11.4971 14.8179 10.6582 15.575C9.88477 16.2793 9.89062 16.2793 9.11523 15.5488C8.32129 14.7954 7.52051 14.0481 6.72559 13.2957C6.52734 13.1079 6.33301 12.9451 6.02441 13.1108C6.04102 13.1765 6.06348 13.2405 6.0918 13.302C6.70605 14.3308 7.3291 15.3557 7.93457 16.3899C8.06543 16.6123 8.23828 16.6375 8.45703 16.6353C9.15137 16.6353 9.85645 16.5632 10.5439 16.6509C11.418 16.7637 11.9014 16.4202 12.2842 15.6626C12.7197 14.7849 13.2676 13.9656 13.7744 13.1099C13.4531 12.9783 13.332 13.1943 13.1875 13.3186ZM8.24121 21.0132C8.23438 21.2815 8.32617 21.3848 8.59766 21.3816C9.43262 21.3701 10.2676 21.3669 11.0967 21.3816C11.4219 21.3879 11.5137 21.2573 11.5137 20.9507C11.501 19.907 11.501 18.8657 11.5137 17.8271C11.5137 17.5078 11.4102 17.4033 11.0967 17.4097C10.2812 17.4253 9.46484 17.4285 8.64941 17.4097C8.31738 17.4023 8.2373 17.5359 8.24902 17.8396C8.2627 18.3582 8.24805 18.8801 8.24805 19.3999L8.24121 19.3999C8.24121 19.9382 8.25293 20.4758 8.24121 21.0132ZM11.2783 12.4368C11.2529 12.1174 11.1318 12.1238 10.8818 12.1987C10.2637 12.3879 9.6084 12.4167 8.97656 12.2822C8.27637 12.1455 8.27539 12.1436 8.09863 12.8438C8.03516 13.0974 7.8584 13.3384 8.1582 13.5952C8.6709 14.0344 9.15527 14.5105 9.64062 14.9812C9.80664 15.1418 9.93359 15.1804 10.1201 15.0061C10.5527 14.6055 11.002 14.2224 11.4414 13.8289C11.5391 13.7517 11.6543 13.6807 11.5977 13.4805L11.5918 13.4805C11.4268 13.1533 11.3213 12.8003 11.2783 12.4368Z" stroke="#FA8B02" stroke-opacity="1.000000" stroke-width="0.200000"/>
	<path id="Vector" d="M17.2744 6.49561L17.2744 1.28369C17.2744 1.23145 17.2744 1.17944 17.2744 1.1272C17.2852 0.85791 17.3623 0.628418 17.6846 0.639893C17.9717 0.650146 18.0879 0.868408 18.0449 1.11157C17.9492 1.66992 18.2646 1.94653 18.6631 2.24805C20.3564 3.52344 22.0273 4.82788 23.7041 6.12622C23.9043 6.28052 24.1865 6.41943 24.0742 6.74194C23.9629 7.06445 23.6699 7.01538 23.4082 7.01538L19.291 7.01538C18.0576 7.01538 18.0576 7.01538 18.0576 8.27588C18.0576 9.42261 18.0576 10.5706 18.0576 11.72C18.0576 12.0027 18.0762 12.3357 17.6904 12.3462C17.2617 12.3618 17.2725 12.009 17.2725 11.7085C17.2725 9.97119 17.2734 8.23364 17.2744 6.49561ZM22.415 6.11157C21.0508 5.06152 19.7002 4.01587 18.3369 2.97437C18.0713 2.76562 18.0615 2.97437 18.0615 3.1665C18.0615 4.03564 18.0771 4.90625 18.0537 5.77539C18.0439 6.15332 18.1914 6.24609 18.541 6.24097C19.6895 6.22534 20.8369 6.24097 21.9854 6.23267C22.1143 6.23145 22.2617 6.28052 22.415 6.11157Z" fill="#FA8B02" fill-opacity="1.000000" fill-rule="nonzero"/>
	<path id="Vector" d="M17.2744 1.28369C17.2744 1.23145 17.2744 1.17944 17.2744 1.1272C17.2852 0.85791 17.3623 0.628418 17.6846 0.639893C17.9717 0.650146 18.0879 0.868408 18.0449 1.11157C17.9492 1.66992 18.2646 1.94653 18.6631 2.24805C20.3564 3.52344 22.0273 4.82788 23.7041 6.12622C23.9043 6.28052 24.1865 6.41943 24.0742 6.74194C23.9629 7.06445 23.6699 7.01538 23.4082 7.01538L19.291 7.01538C18.0576 7.01538 18.0576 7.01538 18.0576 8.27588C18.0576 9.42261 18.0576 10.5706 18.0576 11.72C18.0576 12.0027 18.0762 12.3357 17.6904 12.3462C17.2617 12.3618 17.2725 12.009 17.2725 11.7085C17.2725 9.97119 17.2734 8.23364 17.2744 6.49561L17.2744 1.28369ZM18.3369 2.97437C18.0713 2.76562 18.0615 2.97437 18.0615 3.1665C18.0615 4.03564 18.0771 4.90625 18.0537 5.77539C18.0439 6.15332 18.1914 6.24609 18.541 6.24097C19.6895 6.22534 20.8369 6.24097 21.9854 6.23267C22.1143 6.23145 22.2617 6.28052 22.415 6.11157C21.0508 5.06152 19.7002 4.01587 18.3369 2.97437Z" stroke="#FA8B02" stroke-opacity="1.000000" stroke-width="0.200000"/>
	<path id="Vector" d="M9.89941 17.8657C10.126 17.8657 10.3525 17.8552 10.5781 17.8657C10.627 17.8638 10.6748 17.8716 10.7207 17.8889C10.7656 17.906 10.8076 17.9324 10.8418 17.9658C10.877 17.9995 10.9043 18.04 10.9238 18.0847C10.9424 18.1292 10.9521 18.1772 10.9521 18.2258C10.959 18.2739 10.9551 18.3232 10.9414 18.3699C10.9277 18.4165 10.9043 18.4597 10.8721 18.4966C10.8398 18.5332 10.8008 18.5627 10.7559 18.5828C10.7119 18.6028 10.6631 18.613 10.6152 18.613C10.1299 18.6306 9.6416 18.6287 9.15332 18.613C9.10449 18.614 9.05664 18.605 9.01172 18.5859C8.9668 18.5669 8.92578 18.5383 8.89355 18.5024C8.86035 18.4666 8.83496 18.4241 8.82031 18.3779C8.80469 18.3315 8.7998 18.2825 8.80469 18.2341C8.80273 18.1855 8.81055 18.1372 8.82812 18.0918C8.8457 18.0464 8.87207 18.0051 8.90625 17.9707C8.94043 17.936 8.98047 17.9089 9.02637 17.8909C9.07129 17.8728 9.11914 17.8643 9.16797 17.8657C9.41309 17.8564 9.65625 17.8667 9.89941 17.8657Z" fill="#FA8B02" fill-opacity="1.000000" fill-rule="nonzero"/>
	<path id="Vector" d="M10.5781 17.8657C10.627 17.8638 10.6748 17.8716 10.7207 17.8889C10.7656 17.906 10.8076 17.9324 10.8418 17.9658C10.877 17.9995 10.9043 18.04 10.9238 18.0847C10.9424 18.1292 10.9521 18.1772 10.9521 18.2258C10.959 18.2739 10.9551 18.3232 10.9414 18.3699C10.9277 18.4165 10.9043 18.4597 10.8721 18.4966C10.8398 18.5332 10.8008 18.5627 10.7559 18.5828C10.7119 18.6028 10.6631 18.613 10.6152 18.613C10.1299 18.6306 9.6416 18.6287 9.15332 18.613C9.10449 18.614 9.05664 18.605 9.01172 18.5859C8.9668 18.5669 8.92578 18.5383 8.89355 18.5024C8.86035 18.4666 8.83496 18.4241 8.82031 18.3779C8.80469 18.3315 8.7998 18.2825 8.80469 18.2341C8.80273 18.1855 8.81055 18.1372 8.82812 18.0918C8.8457 18.0464 8.87207 18.0051 8.90625 17.9707C8.94043 17.936 8.98047 17.9089 9.02637 17.8909C9.07129 17.8728 9.11914 17.8643 9.16797 17.8657C9.41309 17.8564 9.65625 17.8667 9.89941 17.8657C10.126 17.8657 10.3525 17.8552 10.5781 17.8657Z" stroke="#FA8B02" stroke-opacity="1.000000" stroke-width="0.200000"/>
	<path id="Vector" d="M9.89941 19.7642C9.65625 19.7642 9.41309 19.7734 9.16895 19.7642C9.12012 19.7656 9.07227 19.7571 9.02734 19.739C8.98242 19.7209 8.94141 19.6936 8.90723 19.6592C8.87305 19.6245 8.84668 19.5833 8.83008 19.5378C8.8125 19.4924 8.80469 19.4441 8.80762 19.3958C8.80273 19.3474 8.80762 19.2983 8.82324 19.2522C8.83789 19.2058 8.86328 19.1633 8.89648 19.1277C8.92871 19.0918 8.96973 19.0635 9.01465 19.0447C9.05957 19.0256 9.10742 19.0166 9.15625 19.0178C9.625 19.0054 10.0947 19.0054 10.5635 19.0178C10.8066 19.0232 10.959 19.1619 10.9512 19.4136C10.9424 19.6379 10.7939 19.7578 10.5762 19.7693C10.3574 19.7808 10.126 19.7651 9.89941 19.7642Z" fill="#FA8B02" fill-opacity="1.000000" fill-rule="nonzero"/>
	<path id="Vector" d="M9.16895 19.7642C9.12012 19.7656 9.07227 19.7571 9.02734 19.739C8.98242 19.7209 8.94141 19.6936 8.90723 19.6592C8.87305 19.6245 8.84668 19.5833 8.83008 19.5378C8.8125 19.4924 8.80469 19.4441 8.80762 19.3958C8.80273 19.3474 8.80762 19.2983 8.82324 19.2522C8.83789 19.2058 8.86328 19.1633 8.89648 19.1277C8.92871 19.0918 8.96973 19.0635 9.01465 19.0447C9.05957 19.0256 9.10742 19.0166 9.15625 19.0178C9.625 19.0054 10.0947 19.0054 10.5635 19.0178C10.8066 19.0232 10.959 19.1619 10.9512 19.4136C10.9424 19.6379 10.7939 19.7578 10.5762 19.7693C10.3574 19.7808 10.126 19.7651 9.89941 19.7642C9.65625 19.7642 9.41309 19.7734 9.16895 19.7642Z" stroke="#FA8B02" stroke-opacity="1.000000" stroke-width="0.200000"/>
	<path id="Vector" d="M9.86133 20.907C9.63672 20.907 9.41113 20.907 9.18555 20.907C9.1377 20.9104 9.08887 20.9036 9.04395 20.8875C8.99805 20.8711 8.95605 20.8455 8.9209 20.8125C8.88672 20.7793 8.8584 20.7393 8.83984 20.6948C8.82031 20.6504 8.81152 20.6025 8.81152 20.5542C8.80371 20.5063 8.80664 20.4573 8.82031 20.4106C8.83398 20.364 8.85742 20.3208 8.88867 20.2842C8.9209 20.2476 8.95996 20.2185 9.00488 20.1987C9.04883 20.179 9.09766 20.1692 9.14551 20.1702C9.62988 20.1567 10.1162 20.1577 10.6006 20.1702C10.6494 20.168 10.6982 20.1763 10.7432 20.1943C10.7881 20.2126 10.8281 20.2402 10.8613 20.2756C10.8945 20.3108 10.9199 20.3528 10.9355 20.3987C10.9512 20.4448 10.957 20.4934 10.9521 20.5417C10.9541 20.5898 10.9463 20.6379 10.9287 20.6831C10.9111 20.728 10.8848 20.7688 10.8506 20.803C10.8164 20.8372 10.7754 20.864 10.7305 20.8813C10.6855 20.8989 10.6377 20.907 10.5898 20.9048C10.3477 20.9175 10.1045 20.9048 9.8584 20.9048L9.86133 20.907Z" fill="#FA8B02" fill-opacity="1.000000" fill-rule="nonzero"/>
	<path id="Vector" d="M9.18555 20.907C9.1377 20.9104 9.08887 20.9036 9.04395 20.8875C8.99805 20.8711 8.95605 20.8455 8.9209 20.8125C8.88672 20.7793 8.8584 20.7393 8.83984 20.6948C8.82031 20.6504 8.81152 20.6025 8.81152 20.5542C8.80371 20.5063 8.80664 20.4573 8.82031 20.4106C8.83398 20.364 8.85742 20.3208 8.88867 20.2842C8.9209 20.2476 8.95996 20.2185 9.00488 20.1987C9.04883 20.179 9.09766 20.1692 9.14551 20.1702C9.62988 20.1567 10.1162 20.1577 10.6006 20.1702C10.6494 20.168 10.6982 20.1763 10.7432 20.1943C10.7881 20.2126 10.8281 20.2402 10.8613 20.2756C10.8945 20.3108 10.9199 20.3528 10.9355 20.3987C10.9512 20.4448 10.957 20.4934 10.9521 20.5417C10.9541 20.5898 10.9463 20.6379 10.9287 20.6831C10.9111 20.728 10.8848 20.7688 10.8506 20.803C10.8164 20.8372 10.7754 20.864 10.7305 20.8813C10.6855 20.8989 10.6377 20.907 10.5898 20.9048C10.3477 20.9175 10.1045 20.9048 9.8584 20.9048L9.86133 20.907C9.63672 20.907 9.41113 20.907 9.18555 20.907Z" stroke="#FA8B02" stroke-opacity="1.000000" stroke-width="0.200000"/>
</svg>
