<svg width="9.195312" height="24.199707" viewBox="0 0 9.19531 24.1997" fill="none" xmlns="http://www.w3.org/2000/svg" xmlns:xlink="http://www.w3.org/1999/xlink">
	<desc>
			Created with Pixso.
	</desc>
	<defs/>
	<path id="Vector" d="M4.6084 0.100098C4.95508 0.100098 5.30273 0.100098 5.65137 0.100098C6.12793 0.109375 6.40918 0.369873 6.43848 0.829346C6.46777 1.28882 6.5 1.7356 6.17676 2.16602C5.89746 2.53589 6.07227 2.95239 6.37793 3.29224C7.01855 3.99951 7.63867 4.72778 8.29102 5.42358C8.55176 5.69287 8.75488 6.01123 8.88965 6.36011C9.02441 6.70898 9.08789 7.0813 9.07617 7.45508C9.06348 9.58984 9.07031 11.7266 9.07617 13.8579C9.07715 14.3447 8.98047 14.8267 8.79004 15.2749C8.1123 16.8916 8.10059 18.5166 8.79004 20.1304C9.16699 21.0161 9.12891 21.9326 9.02637 22.8394C8.99023 23.1738 8.83105 23.4829 8.5791 23.7061C8.32715 23.9292 8 24.0498 7.66309 24.0444C6.75391 24.0571 5.82227 24.2124 4.96973 23.6851C4.67578 23.5039 4.32715 23.5942 4.02148 23.7603C3.12207 24.2485 2.1543 24.1021 1.21875 23.9819C0.554688 23.9028 0.144531 23.332 0.119141 22.6475C0.0820312 21.6768 0.119141 20.7339 0.504883 19.792C1.06738 18.4116 1.0332 16.9658 0.493164 15.5728C0.226562 14.8955 0.09375 14.1729 0.102539 13.4453C0.124023 11.4507 0.124023 9.45532 0.102539 7.45923C0.0898438 7.08643 0.152344 6.71509 0.286133 6.36694C0.419922 6.0188 0.623047 5.70117 0.882812 5.43311C1.53418 4.73389 2.16016 4.01294 2.79297 3.29834C3.19824 2.84009 3.19922 2.52222 2.89746 2.00342C2.61719 1.52515 2.65723 0.999268 2.83887 0.500244C2.94336 0.21875 3.21289 0.104248 3.5166 0.103271L4.6084 0.100098ZM0.936523 20.7017C1.13184 20.7148 1.2666 20.7295 1.40137 20.7339C1.66016 20.7422 1.92285 20.771 1.91016 21.1079C1.90137 21.4038 1.65527 21.4839 1.4209 21.4409C0.817383 21.3306 0.763672 21.668 0.80957 22.1235C0.828125 22.312 0.80957 22.5059 0.833984 22.6943C0.869141 22.9976 1.04883 23.2705 1.33008 23.2964C2.11719 23.3672 2.92773 23.5342 3.68066 23.1436C4.19043 22.8789 4.7373 22.7466 5.22559 23.0327C5.99805 23.4849 6.80957 23.3457 7.61426 23.3457C8.08203 23.3457 8.33398 23.0425 8.36621 22.5776C8.38086 22.3535 8.34863 22.1245 8.37598 21.9014C8.42285 21.5288 8.27148 21.438 7.91113 21.4419C6.45117 21.4619 4.99023 21.4507 3.5293 21.4507C3.38965 21.4546 3.25 21.4517 3.11133 21.4409C2.89648 21.418 2.74414 21.2993 2.74902 21.0752C2.74902 20.8774 2.89941 20.769 3.09277 20.7471C3.23145 20.7363 3.37109 20.7324 3.50977 20.7358C4.93555 20.7358 6.36133 20.7275 7.78809 20.7358C8.13379 20.7358 8.25293 20.6919 8.10156 20.3096C7.38477 18.4971 7.41797 16.6865 8.18164 14.8926C8.24316 14.749 8.2959 14.6021 8.33691 14.4517C8.43164 14.0996 8.36133 13.9307 7.91992 13.9307C5.79883 13.9536 3.67773 13.9414 1.55469 13.9414C0.719727 13.9414 0.65625 14.0371 0.960938 14.8184C0.979492 14.8662 1.00391 14.9131 1.02539 14.96C1.46289 15.9292 1.61133 16.9497 1.58008 18.0054C1.54395 18.9375 1.3252 19.8535 0.936523 20.7017ZM8.24121 10.7764L8.36035 10.7139C8.36035 10.1157 8.36035 9.51685 8.36035 8.9187C8.36035 8.68237 8.19336 8.698 8.03809 8.68433C7.80469 8.66455 7.62012 8.5708 7.63672 8.30737C7.65039 8.07495 7.8291 7.99487 8.03906 7.9812C8.19434 7.96973 8.36328 7.9812 8.36035 7.7478C8.35449 7.31665 8.40625 6.88208 8.1875 6.47583C8.06348 6.24658 7.94727 6.14258 7.66504 6.25903C7.33691 6.40405 6.97656 6.46167 6.61914 6.427C6.26172 6.39209 5.91992 6.26562 5.625 6.06006C4.91895 5.58716 4.24805 5.58521 3.5459 6.06006C2.98242 6.44238 2.35059 6.51025 1.69727 6.33716C1.11816 6.18506 0.948242 6.27905 0.84668 6.87183C0.810547 7.08008 0.833008 7.28833 0.804688 7.49683C0.749023 7.89795 0.928711 7.99365 1.30762 7.9895C2.87305 7.97192 4.4375 7.9812 6.00293 7.98218C6.15918 7.97852 6.31543 7.98389 6.4707 7.9978C6.66406 8.01978 6.79785 8.1228 6.80176 8.3313C6.80371 8.375 6.79785 8.41895 6.7832 8.46045C6.76855 8.50171 6.74512 8.53955 6.71484 8.57178C6.68457 8.604 6.64844 8.62964 6.6084 8.64746C6.56836 8.66504 6.52539 8.67456 6.48145 8.67505C6.3252 8.68994 6.16992 8.69556 6.01367 8.69165C4.4668 8.69165 2.9209 8.71143 1.375 8.6814C0.898438 8.66772 0.782227 8.81885 0.796875 9.26782C0.829102 10.2554 0.804688 11.2473 0.810547 12.2339C0.810547 12.3774 0.750977 12.5464 0.922852 12.6992C1.48438 12.2119 2.04492 11.7275 2.60156 11.241C2.9043 10.9744 3.29688 10.7305 3.63867 10.9346C4.26465 11.3066 4.53613 10.9045 4.87793 10.5513C5.11914 10.3022 5.35938 10.0513 5.61523 9.81592C6.17871 9.29492 6.7627 9.29492 7.32227 9.81592C7.64453 10.1221 7.93848 10.4556 8.24121 10.7764ZM7.45996 5.57471C6.89648 4.93921 6.37988 4.35889 5.86523 3.77563C5.66992 3.55469 5.4209 3.32349 5.43066 3.02759C5.45312 2.25342 4.97461 2.25342 4.42969 2.30566C4.34277 2.31396 4.25586 2.31396 4.16895 2.30566C3.93555 2.28564 3.80859 2.37012 3.8125 2.61816C3.82129 3.12134 3.56055 3.50146 3.23926 3.85669C2.7334 4.41626 2.23828 4.98389 1.7168 5.57251C2.2666 5.81958 2.73047 5.75586 3.1582 5.46851C4.11523 4.81836 5.05859 4.82031 6.01562 5.46851C6.44434 5.76318 6.9082 5.82373 7.45996 5.57471ZM7.10938 13.2266C7.49902 13.2266 7.77734 13.2266 8.05469 13.2266C8.15918 13.2266 8.26367 13.2422 8.33789 13.1421C8.44238 12.9951 8.34766 11.835 8.20703 11.6929C7.74512 11.2244 7.27637 10.7617 6.80957 10.2981C6.63086 10.1201 6.42188 10.0293 6.21484 10.2241C5.76172 10.6533 5.32715 11.1003 4.88477 11.5388C4.78027 11.6431 4.75195 11.7544 4.87109 11.8516C5.58594 12.4297 5.98047 13.5537 7.10938 13.2266ZM1.44727 13.1797L5.13379 13.1797C4.61719 12.6504 4.14844 12.1548 3.65918 11.6807C3.50586 11.5317 3.2959 11.5764 3.1377 11.7139C2.60059 12.1763 2.06934 12.6431 1.44727 13.1841L1.44727 13.1797ZM4.59961 1.58984C4.87598 1.58984 5.15234 1.57739 5.42871 1.58984C5.74219 1.60645 5.74219 1.41992 5.74707 1.19189C5.75293 0.963623 5.71484 0.792969 5.41797 0.80127C4.90234 0.817871 4.38086 0.818848 3.8584 0.802246C3.55762 0.792969 3.42871 0.878418 3.42578 1.20752C3.42578 1.55444 3.58594 1.60962 3.87012 1.59399C4.11426 1.57935 4.35742 1.59082 4.59961 1.58984Z" fill="#FA8B02" fill-opacity="1.000000" fill-rule="nonzero"/>
	<path id="Vector" d="M5.65137 0.100098C6.12793 0.109375 6.40918 0.369873 6.43848 0.829346C6.46777 1.28882 6.5 1.7356 6.17676 2.16602C5.89746 2.53589 6.07227 2.95239 6.37793 3.29224C7.01855 3.99951 7.63867 4.72778 8.29102 5.42358C8.55176 5.69287 8.75488 6.01123 8.88965 6.36011C9.02441 6.70898 9.08789 7.0813 9.07617 7.45508C9.06348 9.58984 9.07031 11.7266 9.07617 13.8579C9.07715 14.3447 8.98047 14.8267 8.79004 15.2749C8.1123 16.8916 8.10059 18.5166 8.79004 20.1304C9.16699 21.0161 9.12891 21.9326 9.02637 22.8394C8.99023 23.1738 8.83105 23.4829 8.5791 23.7061C8.32715 23.9292 8 24.0498 7.66309 24.0444C6.75391 24.0571 5.82227 24.2124 4.96973 23.6851C4.67578 23.5039 4.32715 23.5942 4.02148 23.7603C3.12207 24.2485 2.1543 24.1021 1.21875 23.9819C0.554688 23.9028 0.144531 23.332 0.119141 22.6475C0.0820312 21.6768 0.119141 20.7339 0.504883 19.792C1.06738 18.4116 1.0332 16.9658 0.493164 15.5728C0.226562 14.8955 0.09375 14.1729 0.102539 13.4453C0.124023 11.4507 0.124023 9.45532 0.102539 7.45923C0.0898438 7.08643 0.152344 6.71509 0.286133 6.36694C0.419922 6.0188 0.623047 5.70117 0.882812 5.43311C1.53418 4.73389 2.16016 4.01294 2.79297 3.29834C3.19824 2.84009 3.19922 2.52222 2.89746 2.00342C2.61719 1.52515 2.65723 0.999268 2.83887 0.500244C2.94336 0.21875 3.21289 0.104248 3.5166 0.103271L4.6084 0.100098C4.95508 0.100098 5.30273 0.100098 5.65137 0.100098ZM1.40137 20.7339C1.66016 20.7422 1.92285 20.771 1.91016 21.1079C1.90137 21.4038 1.65527 21.4839 1.4209 21.4409C0.817383 21.3306 0.763672 21.668 0.80957 22.1235C0.828125 22.312 0.80957 22.5059 0.833984 22.6943C0.869141 22.9976 1.04883 23.2705 1.33008 23.2964C2.11719 23.3672 2.92773 23.5342 3.68066 23.1436C4.19043 22.8789 4.7373 22.7466 5.22559 23.0327C5.99805 23.4849 6.80957 23.3457 7.61426 23.3457C8.08203 23.3457 8.33398 23.0425 8.36621 22.5776C8.38086 22.3535 8.34863 22.1245 8.37598 21.9014C8.42285 21.5288 8.27148 21.438 7.91113 21.4419C6.45117 21.4619 4.99023 21.4507 3.5293 21.4507C3.38965 21.4546 3.25 21.4517 3.11133 21.4409C2.89648 21.418 2.74414 21.2993 2.74902 21.0752C2.74902 20.8774 2.89941 20.769 3.09277 20.7471C3.23145 20.7363 3.37109 20.7324 3.50977 20.7358C4.93555 20.7358 6.36133 20.7275 7.78809 20.7358C8.13379 20.7358 8.25293 20.6919 8.10156 20.3096C7.38477 18.4971 7.41797 16.6865 8.18164 14.8926C8.24316 14.749 8.2959 14.6021 8.33691 14.4517C8.43164 14.0996 8.36133 13.9307 7.91992 13.9307C5.79883 13.9536 3.67773 13.9414 1.55469 13.9414C0.719727 13.9414 0.65625 14.0371 0.960938 14.8184C0.979492 14.8662 1.00391 14.9131 1.02539 14.96C1.46289 15.9292 1.61133 16.9497 1.58008 18.0054C1.54395 18.9375 1.3252 19.8535 0.936523 20.7017C1.13184 20.7148 1.2666 20.7295 1.40137 20.7339ZM8.36035 10.7139C8.36035 10.1157 8.36035 9.51685 8.36035 8.9187C8.36035 8.68237 8.19336 8.698 8.03809 8.68433C7.80469 8.66455 7.62012 8.5708 7.63672 8.30737C7.65039 8.07495 7.8291 7.99487 8.03906 7.9812C8.19434 7.96973 8.36328 7.9812 8.36035 7.7478C8.35449 7.31665 8.40625 6.88208 8.1875 6.47583C8.06348 6.24658 7.94727 6.14258 7.66504 6.25903C7.33691 6.40405 6.97656 6.46167 6.61914 6.427C6.26172 6.39209 5.91992 6.26562 5.625 6.06006C4.91895 5.58716 4.24805 5.58521 3.5459 6.06006C2.98242 6.44238 2.35059 6.51025 1.69727 6.33716C1.11816 6.18506 0.948242 6.27905 0.84668 6.87183C0.810547 7.08008 0.833008 7.28833 0.804688 7.49683C0.749023 7.89795 0.928711 7.99365 1.30762 7.9895C2.87305 7.97192 4.4375 7.9812 6.00293 7.98218C6.15918 7.97852 6.31543 7.98389 6.4707 7.9978C6.66406 8.01978 6.79785 8.1228 6.80176 8.3313C6.80371 8.375 6.79785 8.41895 6.7832 8.46045C6.76855 8.50171 6.74512 8.53955 6.71484 8.57178C6.68457 8.604 6.64844 8.62964 6.6084 8.64746C6.56836 8.66504 6.52539 8.67456 6.48145 8.67505C6.3252 8.68994 6.16992 8.69556 6.01367 8.69165C4.4668 8.69165 2.9209 8.71143 1.375 8.6814C0.898438 8.66772 0.782227 8.81885 0.796875 9.26782C0.829102 10.2554 0.804688 11.2473 0.810547 12.2339C0.810547 12.3774 0.750977 12.5464 0.922852 12.6992C1.48438 12.2119 2.04492 11.7275 2.60156 11.241C2.9043 10.9744 3.29688 10.7305 3.63867 10.9346C4.26465 11.3066 4.53613 10.9045 4.87793 10.5513C5.11914 10.3022 5.35938 10.0513 5.61523 9.81592C6.17871 9.29492 6.7627 9.29492 7.32227 9.81592C7.64453 10.1221 7.93848 10.4556 8.24121 10.7764L8.36035 10.7139ZM5.86523 3.77563C5.66992 3.55469 5.4209 3.32349 5.43066 3.02759C5.45312 2.25342 4.97461 2.25342 4.42969 2.30566C4.34277 2.31396 4.25586 2.31396 4.16895 2.30566C3.93555 2.28564 3.80859 2.37012 3.8125 2.61816C3.82129 3.12134 3.56055 3.50146 3.23926 3.85669C2.7334 4.41626 2.23828 4.98389 1.7168 5.57251C2.2666 5.81958 2.73047 5.75586 3.1582 5.46851C4.11523 4.81836 5.05859 4.82031 6.01562 5.46851C6.44434 5.76318 6.9082 5.82373 7.45996 5.57471C6.89648 4.93921 6.37988 4.35889 5.86523 3.77563ZM8.05469 13.2266C8.15918 13.2266 8.26367 13.2422 8.33789 13.1421C8.44238 12.9951 8.34766 11.835 8.20703 11.6929C7.74512 11.2244 7.27637 10.7617 6.80957 10.2981C6.63086 10.1201 6.42188 10.0293 6.21484 10.2241C5.76172 10.6533 5.32715 11.1003 4.88477 11.5388C4.78027 11.6431 4.75195 11.7544 4.87109 11.8516C5.58594 12.4297 5.98047 13.5537 7.10938 13.2266C7.49902 13.2266 7.77734 13.2266 8.05469 13.2266ZM5.13379 13.1797C4.61719 12.6504 4.14844 12.1548 3.65918 11.6807C3.50586 11.5317 3.2959 11.5764 3.1377 11.7139C2.60059 12.1763 2.06934 12.6431 1.44727 13.1841L1.44727 13.1797L5.13379 13.1797ZM5.42871 1.58984C5.74219 1.60645 5.74219 1.41992 5.74707 1.19189C5.75293 0.963623 5.71484 0.792969 5.41797 0.80127C4.90234 0.817871 4.38086 0.818848 3.8584 0.802246C3.55762 0.792969 3.42871 0.878418 3.42578 1.20752C3.42578 1.55444 3.58594 1.60962 3.87012 1.59399C4.11426 1.57935 4.35742 1.59082 4.59961 1.58984C4.87598 1.58984 5.15234 1.57739 5.42871 1.58984Z" stroke="#FA8B02" stroke-opacity="1.000000" stroke-width="0.200000"/>
</svg>
