<svg width="24.000000" height="24.000000" viewBox="0 0 24 24" fill="none" xmlns="http://www.w3.org/2000/svg" xmlns:xlink="http://www.w3.org/1999/xlink">
	<desc>
			Created with Pixso.
	</desc>
	<defs>
		<clipPath id="clip201_1985">
			<rect id="icon_ticket" width="24.000000" height="24.000000" fill="white" fill-opacity="0"/>
		</clipPath>
	</defs>
	<g opacity="0.800000">
		<rect id="icon_ticket" width="24.000000" height="24.000000" fill="#FFFFFF" fill-opacity="0"/>
		<g clip-path="url(#clip201_1985)">
			<path id="Vector" d="M11.9551 20.2866L0.831055 20.2866C0.0625 20.2866 0.0078125 20.2295 0.0078125 19.4519C0.0078125 18.2542 0.0195312 17.0552 0.000976562 15.8564C-0.00585938 15.4204 0.146484 15.2205 0.595703 15.1541C0.981445 15.1118 1.33789 14.9258 1.59375 14.6333C1.84863 14.3406 1.98535 13.9626 1.97559 13.5742C1.97949 13.1943 1.84277 12.8264 1.5918 12.541C1.3418 12.2554 0.994141 12.0725 0.617188 12.0271C0.150391 11.9619 0.0234375 11.752 0.0283203 11.3284C0.0400391 10.0742 0.046875 8.81934 0.0244141 7.56543C0.015625 7.08569 0.226562 6.90698 0.676758 6.84058C6.80469 5.94165 12.9316 5.03394 19.0576 4.11694C19.8662 3.99561 20.6816 3.8833 21.4912 3.73169C21.9766 3.64185 22.2324 3.75293 22.2852 4.28662C22.3535 4.97534 22.5 5.65625 22.5664 6.34521C22.6045 6.73608 22.7256 6.89673 23.1475 6.88892C23.9707 6.87329 23.998 6.9248 23.999 7.74292C23.999 8.92261 23.9912 10.1025 23.999 11.2822C23.999 11.7114 23.916 11.9666 23.4004 12.0271C23.0225 12.0686 22.6729 12.2483 22.4199 12.5315C22.167 12.8149 22.0283 13.1821 22.0293 13.562C22.0176 13.9502 22.1514 14.3286 22.4043 14.623C22.6582 14.9175 23.0127 15.1067 23.3975 15.1531C23.8633 15.2239 23.9707 15.4519 23.9648 15.8721C23.9482 17.1082 23.9414 18.344 23.9648 19.5798C23.9756 20.1194 23.7744 20.2991 23.2393 20.2969C19.4824 20.28 15.7178 20.2866 11.9551 20.2866ZM9.03906 19.5767C11.624 19.5767 14.208 19.5767 16.792 19.5767C17.1436 19.5767 17.3535 19.5305 17.3379 19.0979C17.3262 18.7957 17.1807 18.3025 17.6758 18.2957C18.2158 18.2866 18.0586 18.7969 18.0576 19.1182C18.0566 19.4395 18.1367 19.5823 18.4941 19.5776C19.9355 19.5608 21.3779 19.5642 22.8193 19.5776C23.1436 19.5776 23.292 19.4934 23.2852 19.1372C23.2676 18.1833 23.2705 17.2271 23.2852 16.2732C23.2852 15.9834 23.1904 15.8621 22.9092 15.762C21.8975 15.3992 21.3672 14.6384 21.3574 13.5923C21.3486 12.6082 21.9189 11.7834 22.915 11.4192C23.2178 11.3069 23.3174 11.1597 23.3125 10.8574C23.2979 9.93945 23.292 9.02271 23.3125 8.10571C23.3223 7.71484 23.1885 7.58569 22.7969 7.59131C21.4863 7.61035 20.1768 7.5979 18.8643 7.5979C18.1113 7.5979 18.1055 7.5979 18.0771 8.36523C18.0684 8.62817 18.04 8.88452 17.7227 8.90015C17.4043 8.91602 17.3457 8.65869 17.3447 8.39575C17.3447 8.28345 17.334 8.1709 17.3447 8.05859C17.3809 7.71021 17.2168 7.60913 16.8857 7.60913C11.6621 7.61597 6.43945 7.61597 1.2168 7.60913C0.879883 7.60913 0.751953 7.70923 0.758789 8.05859C0.776367 9.01245 0.774414 9.96875 0.758789 10.9226C0.758789 11.2192 0.871094 11.335 1.14258 11.4329C2.13672 11.7834 2.7041 12.6013 2.70703 13.6057C2.70898 14.6104 2.15137 15.3967 1.13379 15.7642C0.850586 15.8665 0.758789 15.989 0.763672 16.28C0.77832 17.1787 0.800781 18.0776 0.755859 18.9766C0.730469 19.499 0.929688 19.5923 1.39941 19.5889C3.94727 19.5664 6.49316 19.5767 9.03906 19.5767ZM5.89355 6.80029L5.90332 6.9126L16.9004 6.9126C18.415 6.9126 19.9336 6.89917 21.4443 6.92163C21.8662 6.92725 21.957 6.78223 21.8809 6.39795C21.7822 5.90356 21.71 5.40234 21.6562 4.90137C21.6172 4.56421 21.4795 4.47534 21.1406 4.53174C20.0342 4.71582 18.9238 4.86865 17.8125 5.0293C16.9004 5.15869 16.8965 5.15308 16.9395 6.04053C16.9502 6.27197 16.8994 6.46533 16.6445 6.50366C16.3906 6.54175 16.2803 6.36865 16.2383 6.14185C16.207 6.03174 16.1895 5.9187 16.1846 5.80469C16.2002 5.36646 16 5.28442 15.5918 5.34839C13.4502 5.68555 11.3047 5.99805 9.16113 6.31812C8.06934 6.48145 6.97949 6.64209 5.89062 6.80029L5.89355 6.80029Z" fill="#FA8B02" fill-opacity="1.000000" fill-rule="nonzero"/>
			<path id="Vector" d="M0.347656 20.4631Q0.5 20.4868 0.831055 20.4868L11.9551 20.4868L13.5713 20.4863L23.2383 20.4968Q23.7246 20.4988 23.9453 20.2852Q24.1748 20.064 24.165 19.5762Q24.1357 18.0342 24.165 15.8748Q24.1709 15.4753 24.0205 15.2654Q24.0156 15.2581 24.0098 15.2507Q23.833 15.0168 23.4277 14.9553L23.4248 14.9548L23.4219 14.9543Q23.2959 14.9392 23.1768 14.9019Q23.0576 14.8643 22.9453 14.8047Q22.834 14.7449 22.7363 14.667Q22.6387 14.5889 22.5566 14.4927Q22.4736 14.3965 22.4111 14.2886Q22.3486 14.1807 22.3066 14.061Q22.2637 13.9414 22.2441 13.8181Q22.2256 13.6948 22.2295 13.5681L22.2295 13.5647L22.2295 13.5613Q22.2285 13.4373 22.251 13.3174Q22.2725 13.1975 22.3164 13.0815Q22.3604 12.9656 22.4238 12.8613Q22.4863 12.7573 22.5693 12.6648Q22.6523 12.5723 22.748 12.4978Q22.8447 12.4231 22.9551 12.3665Q23.0547 12.3152 23.1592 12.2815Q23.2871 12.2407 23.4238 12.2258Q23.8467 12.176 24.0332 11.9397Q24.0459 11.9231 24.0586 11.9055Q24.1416 11.7827 24.1748 11.6077Q24.1992 11.4763 24.1992 11.2815L24.1953 10.0974L24.1973 8.91211L24.1992 7.75928L24.1992 7.74268Q24.1982 7.38184 24.1797 7.23633Q24.1475 6.99023 24.0254 6.86401Q23.8994 6.73438 23.6533 6.70239Q23.498 6.68213 23.1436 6.68896Q22.9219 6.69312 22.8545 6.62549Q22.7881 6.55859 22.7656 6.32593Q22.7314 5.97095 22.6221 5.27075Q22.5176 4.60083 22.4844 4.26709Q22.4404 3.81689 22.1953 3.63257Q22.1768 3.61865 22.1572 3.60645Q21.9111 3.45044 21.4541 3.53516Q20.8096 3.65601 19.5107 3.84766Q19.1885 3.89526 19.0283 3.91919L0.647461 6.64282Q0.230469 6.70435 0.0341797 6.90967Q0.0283203 6.91602 0.0224609 6.92261Q-0.182617 7.14941 -0.174805 7.56885Q-0.149414 9.02271 -0.171875 11.3262Q-0.175781 11.7263 -0.0107422 11.9358Q0.170898 12.1667 0.592773 12.2258Q0.71582 12.2405 0.833008 12.2769Q0.949219 12.3132 1.05859 12.3708Q1.16797 12.4287 1.26465 12.5044Q1.36035 12.5798 1.44141 12.6729Q1.52344 12.7661 1.58594 12.8708Q1.64844 12.9756 1.69141 13.0918Q1.73438 13.208 1.75586 13.3281Q1.77637 13.4482 1.77539 13.5723L1.77539 13.5759L1.77539 13.5793Q1.77832 13.7063 1.75879 13.8293Q1.73926 13.9524 1.69531 14.0718Q1.65234 14.1912 1.58984 14.2986Q1.52637 14.406 1.44238 14.5017Q1.35938 14.5972 1.26172 14.6743Q1.16309 14.7515 1.05078 14.8101Q0.938477 14.8689 0.819336 14.9053Q0.700195 14.9414 0.574219 14.9553L0.570312 14.9558L0.566406 14.9563Q0.157227 15.0166 -0.0263672 15.2393Q-0.205078 15.4546 -0.199219 15.8594Q-0.185547 16.7236 -0.19043 18.4531Q-0.192383 19.1189 -0.192383 19.4519Q-0.192383 19.7876 -0.168945 19.9399Q-0.133789 20.1765 -0.0107422 20.3013Q0.112305 20.4268 0.347656 20.4631ZM11.9551 20.2866L0.831055 20.2866C0.0625 20.2866 0.0078125 20.2295 0.0078125 19.4519C0.0078125 19.1191 0.00878906 18.7864 0.00976562 18.4536C0.0117188 17.5881 0.0146484 16.7222 0.000976562 15.8564C-0.00585938 15.4204 0.146484 15.2205 0.595703 15.1541C0.981445 15.1118 1.33789 14.9258 1.59375 14.6333C1.84863 14.3406 1.98535 13.9626 1.97559 13.5742C1.97949 13.1943 1.84277 12.8264 1.5918 12.541C1.3418 12.2554 0.994141 12.0725 0.617188 12.0271C0.150391 11.9619 0.0234375 11.752 0.0283203 11.3284C0.0400391 10.0742 0.046875 8.81934 0.0244141 7.56543C0.015625 7.08569 0.226562 6.90698 0.676758 6.84058Q9.86816 5.49243 19.0576 4.11694C19.8662 3.99561 20.6816 3.8833 21.4912 3.73169C21.9766 3.64185 22.2324 3.75293 22.2852 4.28662C22.3535 4.97534 22.5 5.65625 22.5664 6.34521C22.6045 6.73608 22.7256 6.89673 23.1475 6.88892C23.9707 6.87329 23.998 6.9248 23.999 7.74292C23.999 8.13623 23.998 8.5293 23.9971 8.92261C23.9951 9.70923 23.9941 10.4956 23.999 11.2822C23.999 11.7114 23.916 11.9666 23.4004 12.0271C23.0225 12.0686 22.6729 12.2483 22.4199 12.5315C22.167 12.8149 22.0283 13.1821 22.0293 13.562C22.0176 13.9502 22.1514 14.3286 22.4043 14.623C22.6582 14.9175 23.0127 15.1067 23.3975 15.1531C23.8633 15.2239 23.9707 15.4519 23.9648 15.8721C23.9482 17.1082 23.9414 18.344 23.9648 19.5798C23.9756 20.1194 23.7744 20.2991 23.2393 20.2969C20.3174 20.2837 17.3906 20.2849 14.4639 20.2861L14.4639 20.2861C13.6279 20.2864 12.791 20.2866 11.9551 20.2866ZM5.89648 6.83936L5.90332 6.9126L16.9004 6.9126C17.3135 6.9126 17.7266 6.91162 18.1396 6.91064C19.2422 6.90796 20.3457 6.90527 21.4443 6.92163C21.8662 6.92725 21.957 6.78223 21.8809 6.39795C21.7822 5.90356 21.71 5.40234 21.6562 4.90137C21.6172 4.56421 21.4795 4.47534 21.1406 4.53174C20.0342 4.71582 18.9238 4.86865 17.8125 5.0293L17.7939 5.03198C16.9004 5.15869 16.8975 5.15894 16.9395 6.04053C16.9502 6.27197 16.8994 6.46533 16.6445 6.50366C16.3906 6.54175 16.2803 6.36865 16.2383 6.14185C16.207 6.03174 16.1895 5.9187 16.1846 5.80469C16.2002 5.36646 16 5.28442 15.5918 5.34839C13.4502 5.68555 11.3047 5.99805 9.16113 6.31812Q7.8252 6.51807 6.49316 6.71265Q6.29199 6.74194 6.0918 6.771Q5.99707 6.78491 5.90332 6.79834Q5.89746 6.79932 5.89062 6.80029L5.89355 6.80029L5.89648 6.83936ZM7.85645 6.71265L16.9004 6.71265Q17.3135 6.71265 18.1396 6.71045Q20.3467 6.70508 21.4473 6.72144Q21.5771 6.72339 21.6465 6.70361Q21.6836 6.69336 21.6924 6.68188Q21.7021 6.66992 21.7051 6.62964Q21.709 6.56006 21.6846 6.43701Q21.5449 5.73926 21.457 4.92261Q21.4385 4.7627 21.3955 4.73267Q21.3496 4.69971 21.1729 4.729Q20.2793 4.87769 18.4883 5.13428Q18.0566 5.19604 17.8408 5.22729L17.8223 5.22998Q17.4414 5.28394 17.3262 5.31299Q17.2002 5.34473 17.168 5.38281Q17.1367 5.41919 17.1289 5.54199Q17.1211 5.65845 17.1387 6.03101Q17.1514 6.28101 17.0684 6.43774Q17.0254 6.51929 16.9609 6.57642Q16.8496 6.67505 16.6748 6.70142Q16.498 6.72778 16.3633 6.66553Q16.2842 6.62866 16.2188 6.56128Q16.0898 6.42798 16.043 6.18701Q16.0186 6.0979 16.0039 6.00708Q15.9883 5.91089 15.9844 5.81323L15.9844 5.80542L15.9844 5.79761Q15.9922 5.59253 15.9346 5.55371Q15.8672 5.50781 15.623 5.54614L12.8965 5.96411L9.19043 6.51587L7.85645 6.71265ZM9.03906 19.5767L16.792 19.5767C17.1436 19.5767 17.3535 19.5305 17.3379 19.0979C17.3359 19.0493 17.3311 18.9956 17.3252 18.9399C17.2959 18.6494 17.2607 18.3013 17.6758 18.2957C18.1201 18.2883 18.0928 18.6326 18.0684 18.9338C18.0625 18.9985 18.0576 19.0613 18.0576 19.1182C18.0566 19.4395 18.1367 19.5823 18.4941 19.5776C19.9355 19.5608 21.3779 19.5642 22.8193 19.5776C23.1436 19.5776 23.292 19.4934 23.2852 19.1372C23.2676 18.1833 23.2705 17.2271 23.2852 16.2732C23.2852 15.9834 23.1904 15.8621 22.9092 15.762C21.8975 15.3992 21.3672 14.6384 21.3574 13.5923C21.3486 12.6082 21.9189 11.7834 22.915 11.4192C23.2178 11.3069 23.3174 11.1597 23.3125 10.8574C23.2979 9.93945 23.292 9.02271 23.3125 8.10571C23.3223 7.71484 23.1885 7.58569 22.7969 7.59131C21.8564 7.60498 20.916 7.60229 19.9746 7.59985C19.6045 7.59888 19.2344 7.5979 18.8643 7.5979C18.1113 7.5979 18.1055 7.5979 18.0771 8.36523C18.0684 8.62817 18.04 8.88452 17.7227 8.90015C17.4043 8.91602 17.3457 8.65869 17.3447 8.39575C17.3447 8.35815 17.3438 8.3208 17.3428 8.28345C17.3398 8.2085 17.3379 8.13354 17.3447 8.05859C17.3809 7.71021 17.2168 7.60913 16.8857 7.60913Q9.05078 7.61938 1.2168 7.60913C0.879883 7.60913 0.751953 7.70923 0.758789 8.05859C0.776367 9.01245 0.774414 9.96875 0.758789 10.9226C0.758789 11.2192 0.871094 11.335 1.14258 11.4329C2.13672 11.7834 2.7041 12.6013 2.70703 13.6057C2.70898 14.6104 2.15137 15.3967 1.13379 15.7642C0.850586 15.8665 0.758789 15.989 0.763672 16.28C0.765625 16.3738 0.767578 16.4678 0.768555 16.5618C0.782227 17.3667 0.796875 18.1716 0.755859 18.9766C0.730469 19.499 0.929688 19.5923 1.39941 19.5889C3.34375 19.5718 5.28711 19.5737 7.23047 19.5754C7.83301 19.5759 8.43652 19.5767 9.03906 19.5767ZM17.0889 19.3352Q17.0293 19.3765 16.792 19.3765L9.03613 19.3765L1.39746 19.3889Q1.09668 19.3911 1.02051 19.3267Q0.942383 19.2615 0.956055 18.9866Q0.983398 18.4448 0.982422 17.769Q0.982422 17.365 0.96875 16.5583Q0.96582 16.3706 0.963867 16.2761Q0.960938 16.126 1.00293 16.0686Q1.0459 16.0085 1.20215 15.9524Q1.91016 15.6965 2.33984 15.1992Q2.40527 15.123 2.46484 15.041Q2.5918 14.865 2.68262 14.6719Q2.9082 14.1917 2.90723 13.6055Q2.90527 13.0408 2.69531 12.5691Q2.59961 12.3538 2.45996 12.158Q2.3418 11.9924 2.2002 11.8508Q1.7998 11.4524 1.20996 11.2446Q1.05273 11.188 1.00488 11.1279Q0.958008 11.0688 0.958008 10.926Q0.983398 9.39502 0.958008 8.05469Q0.955078 7.88647 0.995117 7.84888Q1.03809 7.80908 1.2168 7.80908L16.8857 7.80908Q17.0703 7.80908 17.1211 7.85327Q17.1611 7.88916 17.1465 8.03882Q17.1367 8.12695 17.1426 8.29004Q17.1445 8.36157 17.1445 8.39648Q17.1465 8.68555 17.2412 8.85181Q17.3027 8.9585 17.3936 9.01953Q17.5293 9.10986 17.7324 9.09985Q17.9307 9.09009 18.0566 8.98999Q18.1426 8.92212 18.1963 8.81274Q18.2676 8.66504 18.2773 8.37256Q18.2891 8.05127 18.3047 7.95142Q18.3184 7.85669 18.3379 7.8374Q18.3574 7.81909 18.4502 7.80859Q18.5459 7.79785 18.8643 7.79785Q19.2344 7.79785 19.9736 7.7998Q21.8574 7.80493 22.7998 7.79126Q23.0107 7.78809 23.0645 7.8418Q23.1182 7.89453 23.1123 8.10132Q23.0869 9.2583 23.1123 10.8604Q23.1152 11.0239 23.0654 11.0947Q23.0127 11.1697 22.8457 11.2314Q22.2412 11.4526 21.8369 11.8687Q21.7061 12.0029 21.5967 12.1575Q21.4287 12.394 21.3242 12.656Q21.1523 13.0901 21.1572 13.5942Q21.1641 14.3325 21.4883 14.885Q21.5381 14.9692 21.5947 15.0491Q21.6426 15.1172 21.6963 15.1812Q22.1182 15.6907 22.8418 15.9504Q22.9971 16.0056 23.042 16.0659Q23.0859 16.1238 23.0859 16.2703Q23.0615 17.8535 23.0859 19.1411Q23.0889 19.3032 23.0469 19.3389Q23.001 19.3777 22.8213 19.3777Q20.416 19.3552 18.4922 19.3777Q18.3271 19.3799 18.293 19.3396Q18.2568 19.2974 18.2578 19.1189Q18.2578 19.0698 18.2676 18.95Q18.2803 18.7874 18.2793 18.7036Q18.2773 18.5437 18.2354 18.4294Q18.1973 18.3284 18.1289 18.2568Q18.0859 18.2119 18.0312 18.1787Q17.8877 18.092 17.6729 18.0957Q17.4639 18.0986 17.3271 18.1936Q17.2852 18.2231 17.251 18.26Q17.1787 18.3384 17.1436 18.4504Q17.1074 18.5637 17.1094 18.7202Q17.1104 18.8025 17.126 18.96Q17.1367 19.0635 17.1387 19.1052Q17.1455 19.2961 17.0889 19.3352Z" fill="#FA8B02" fill-opacity="1.000000" fill-rule="evenodd"/>
			<path id="Vector" d="M8.92578 15.0942C7.57715 15.0942 6.22949 15.0942 4.88086 15.0942C4.60156 15.0942 4.25977 15.1157 4.26953 14.7078C4.27832 14.3416 4.59668 14.3596 4.86035 14.3596C7.61035 14.3596 10.3604 14.3596 13.1104 14.3596C13.375 14.3596 13.6904 14.3472 13.6934 14.7146C13.6934 15.1235 13.3564 15.0933 13.0742 15.0942C11.6943 15.0967 10.3105 15.0942 8.92578 15.0942Z" fill="#FA8B02" fill-opacity="1.000000" fill-rule="nonzero"/>
			<path id="Vector" d="M4.8418 15.2944Q4.86816 15.2944 4.88086 15.2944L8.92578 15.2944L8.96777 15.2944L13.0752 15.2944Q13.0928 15.2942 13.1309 15.2944Q13.2754 15.2949 13.3496 15.2883Q13.4922 15.2759 13.5938 15.231Q13.7031 15.1824 13.7725 15.1003Q13.8936 14.9575 13.8936 14.7126Q13.8916 14.4939 13.7832 14.3606Q13.71 14.2698 13.5869 14.2188Q13.4873 14.1772 13.3486 14.1655Q13.2754 14.1592 13.1348 14.1594L13.1104 14.1594L7.83008 14.1594L4.86035 14.1594L4.82617 14.1594Q4.6875 14.1589 4.61523 14.165Q4.47754 14.1765 4.37891 14.217Q4.25684 14.2673 4.18262 14.3569Q4.0752 14.4878 4.06934 14.7029Q4.06348 14.9448 4.17969 15.0891Q4.25098 15.1787 4.37012 15.2305Q4.47363 15.2756 4.61914 15.2883Q4.69434 15.2949 4.8418 15.2944ZM8.92578 15.0942L4.88086 15.0942C4.86816 15.0942 4.85449 15.0945 4.84082 15.0945C4.57031 15.0955 4.25977 15.0964 4.26953 14.7078C4.27832 14.3579 4.56934 14.3586 4.8252 14.3594L4.86035 14.3596L13.1104 14.3596L13.1357 14.3594C13.3945 14.3591 13.6904 14.3586 13.6934 14.7146C13.6934 15.0964 13.3994 15.0952 13.1309 15.0945C13.1123 15.0942 13.0928 15.0942 13.0742 15.0942C12.1543 15.0959 11.2334 15.0955 10.3105 15.095L10.3105 15.095C9.84863 15.0945 9.3877 15.0942 8.92578 15.0942Z" fill="#FA8B02" fill-opacity="1.000000" fill-rule="evenodd"/>
			<path id="Vector" d="M9.03809 16.5964C10.3867 16.5964 11.7354 16.5964 13.083 16.5964C13.3633 16.5964 13.7109 16.5615 13.7012 16.9707C13.6914 17.3796 13.3408 17.3323 13.0635 17.3323C10.3496 17.3323 7.63574 17.3323 4.92188 17.3323C4.86523 17.3323 4.80957 17.3323 4.75293 17.3323C4.51074 17.3245 4.2793 17.2673 4.26953 16.9785C4.25977 16.6504 4.50684 16.5964 4.77344 16.5964L9.03809 16.5964Z" fill="#FA8B02" fill-opacity="1.000000" fill-rule="nonzero"/>
			<path id="Vector" d="M13.1426 16.396Q13.1025 16.3965 13.083 16.3965L4.77344 16.3965Q4.48145 16.3965 4.31738 16.4915Q4.22266 16.5466 4.16406 16.6279Q4.06348 16.7678 4.07031 16.9846Q4.07617 17.1853 4.17578 17.3125Q4.33789 17.519 4.74609 17.5322L4.75 17.5325L13.0635 17.5325Q13.0869 17.5325 13.1387 17.5332Q13.2803 17.5354 13.3525 17.5298Q13.4932 17.5193 13.5938 17.4768Q13.7061 17.4294 13.7773 17.3472Q13.8955 17.21 13.9014 16.9756Q13.9072 16.7358 13.792 16.594Q13.7217 16.5071 13.6064 16.4568Q13.5049 16.4126 13.3623 16.4009Q13.2871 16.3948 13.1426 16.396ZM4.77344 16.5964L13.083 16.5964C13.1035 16.5964 13.124 16.5962 13.1445 16.5962C13.4111 16.5938 13.7109 16.5911 13.7012 16.9707C13.6924 17.3418 13.4023 17.3372 13.1416 17.3333C13.1152 17.3328 13.0889 17.3323 13.0635 17.3323L4.75293 17.3323C4.51074 17.3245 4.2793 17.2673 4.26953 16.9785C4.25977 16.6504 4.50684 16.5964 4.77344 16.5964Z" fill="#FA8B02" fill-opacity="1.000000" fill-rule="evenodd"/>
			<path id="Vector" d="M8.92188 12.8381C7.57422 12.8381 6.22559 12.8381 4.88477 12.8381C4.61133 12.8381 4.25781 12.8762 4.27539 12.4595C4.29004 12.0989 4.6123 12.1223 4.87207 12.1223L13.1143 12.1223C13.3809 12.1223 13.6885 12.1133 13.6973 12.4785C13.7061 12.8438 13.3906 12.8425 13.1279 12.8438C11.7256 12.8403 10.3242 12.8381 8.92188 12.8381Z" fill="#FA8B02" fill-opacity="1.000000" fill-rule="nonzero"/>
			<path id="Vector" d="M4.82324 13.0386Q4.86523 13.0381 4.88477 13.0381L8.92188 13.0381L11.0195 13.0396L13.1289 13.0437L13.1299 13.0437L13.1309 13.0437L13.1328 13.0437L13.1338 13.0437Q13.2764 13.0432 13.3506 13.0364Q13.4932 13.0237 13.5938 12.9812Q13.6982 12.9377 13.7676 12.8625Q13.7959 12.8313 13.8193 12.7947Q13.9023 12.6626 13.8975 12.4736Q13.8916 12.2549 13.7822 12.1221Q13.708 12.0325 13.5869 11.9819Q13.4863 11.9404 13.3477 11.9285Q13.2744 11.9224 13.1328 11.9224L13.1143 11.9224L4.87207 11.9224Q4.85742 11.9224 4.82715 11.9221Q4.69141 11.9216 4.62109 11.9272Q4.48535 11.938 4.3877 11.9773Q4.26367 12.0269 4.18848 12.1169Q4.08398 12.2439 4.0752 12.4514Q4.06543 12.6968 4.18164 12.8413Q4.25 12.927 4.3623 12.9771Q4.46387 13.0222 4.60645 13.0339Q4.68066 13.04 4.82324 13.0386ZM8.92188 12.8381L4.88477 12.8381C4.86426 12.8381 4.84277 12.8384 4.82129 12.8386C4.55957 12.8413 4.25977 12.8445 4.27539 12.4595C4.28906 12.1194 4.57617 12.1208 4.82617 12.1223C4.8418 12.1223 4.85645 12.1223 4.87207 12.1223L13.1143 12.1223L13.1328 12.1223C13.3945 12.1221 13.6885 12.1218 13.6973 12.4785C13.7061 12.8413 13.3945 12.8425 13.1328 12.8438L13.1279 12.8438C11.7256 12.8403 10.3242 12.8381 8.92188 12.8381Z" fill="#FA8B02" fill-opacity="1.000000" fill-rule="evenodd"/>
			<path id="Vector" d="M6.83203 9.86523L8.79297 9.86523C9.04688 9.86523 9.31641 9.87769 9.32324 10.2124C9.33008 10.5474 9.06543 10.5754 8.80859 10.5754C7.46484 10.5754 6.12109 10.5754 4.77734 10.5754C4.52344 10.5754 4.24902 10.553 4.27441 10.208C4.29492 9.88892 4.55957 9.86523 4.81641 9.87085L6.83203 9.86523Z" fill="#FA8B02" fill-opacity="1.000000" fill-rule="nonzero"/>
			<path id="Vector" d="M9.00293 9.67358Q8.92383 9.66528 8.79297 9.66528L6.83203 9.66528L4.81836 9.6709Q4.53223 9.66479 4.375 9.73511Q4.26074 9.78638 4.18945 9.87329Q4.08789 9.99731 4.07422 10.1936Q4.06152 10.3728 4.12891 10.5027Q4.1543 10.551 4.18848 10.5908Q4.24707 10.6572 4.33203 10.6997Q4.48242 10.7754 4.77734 10.7754L8.80859 10.7754Q9.10059 10.7754 9.25488 10.6982Q9.36133 10.6445 9.42578 10.5588Q9.52734 10.4233 9.52344 10.2085Q9.51953 9.99707 9.41406 9.8667Q9.3457 9.78125 9.2334 9.73096Q9.13672 9.6875 9.00293 9.67358ZM4.81641 9.87085C4.55957 9.86523 4.29492 9.88892 4.27441 10.208C4.24902 10.553 4.52344 10.5754 4.77734 10.5754L8.80859 10.5754C9.06543 10.5754 9.33008 10.5474 9.32324 10.2124C9.31641 9.87769 9.04688 9.86523 8.79297 9.86523L6.83203 9.86523L4.81641 9.87085Z" fill="#FA8B02" fill-opacity="1.000000" fill-rule="evenodd"/>
			<path id="Vector" d="M18.0645 11.5391C18.0645 11.8943 18.0703 12.2505 18.0645 12.6042C18.0586 12.856 17.9521 13.0537 17.6709 13.0437C17.4131 13.0325 17.333 12.8357 17.333 12.6111C17.3291 11.9009 17.3291 11.1895 17.333 10.4763C17.333 10.2256 17.4355 10.0269 17.7246 10.0381C17.9727 10.0527 18.0615 10.2393 18.0684 10.4695C18.0674 10.8291 18.0645 11.1841 18.0645 11.5391Z" fill="#FA8B02" fill-opacity="1.000000" fill-rule="nonzero"/>
			<path id="Vector" d="M18.1279 13.0457Q18.2578 12.8809 18.2646 12.6096L18.2646 12.6074Q18.2686 12.3694 18.2666 11.8933Q18.2646 11.657 18.2646 11.5398L18.2686 10.4668L18.2686 10.4636Q18.2607 10.2156 18.1504 10.0581Q18.0986 9.98413 18.0293 9.93506Q17.9082 9.84863 17.7324 9.83813Q17.5273 9.83032 17.3867 9.92139Q17.3164 9.9668 17.2627 10.0366Q17.1338 10.2034 17.1338 10.4763L17.1338 12.6111Q17.1338 12.8589 17.2383 13.0178Q17.292 13.0981 17.3652 13.1499Q17.4863 13.2358 17.6631 13.2437Q17.8594 13.2505 17.998 13.1643Q18.0713 13.1182 18.1279 13.0457ZM18.0645 11.5391C18.0645 11.6575 18.0654 11.7761 18.0664 11.8945C18.0674 12.1313 18.0684 12.3684 18.0645 12.6042C18.0586 12.856 17.9521 13.0537 17.6709 13.0437C17.4131 13.0325 17.333 12.8357 17.333 12.6111Q17.3271 11.5459 17.333 10.4763C17.333 10.2256 17.4355 10.0269 17.7246 10.0381C17.9727 10.0527 18.0615 10.2393 18.0684 10.4695C18.0674 10.8291 18.0645 11.1841 18.0645 11.5391Z" fill="#FA8B02" fill-opacity="1.000000" fill-rule="evenodd"/>
			<path id="Vector" d="M18.0654 15.6562C18.0654 16.01 18.0713 16.3652 18.0654 16.7202C18.0654 16.9685 17.9648 17.1697 17.6768 17.1697C17.416 17.1628 17.3398 16.9651 17.334 16.7415C17.3271 16.0315 17.3271 15.3218 17.334 14.6123C17.334 14.3652 17.4326 14.1472 17.7188 14.1628C18.0039 14.1787 18.0703 14.4011 18.0703 14.6494L18.0654 15.6562Z" fill="#FA8B02" fill-opacity="1.000000" fill-rule="nonzero"/>
			<path id="Vector" d="M18.2656 16.7219Q18.2656 16.9905 18.1387 17.1584Q18.0859 17.2288 18.0166 17.2756Q17.8789 17.3696 17.6768 17.3696L17.6738 17.3696L17.6719 17.3696Q17.4961 17.365 17.374 17.2817Q17.2988 17.23 17.2441 17.1482Q17.1406 16.9941 17.1338 16.7466Q17.124 15.6763 17.1338 14.6104Q17.1338 14.3418 17.2568 14.1719Q17.3203 14.0845 17.4053 14.0337Q17.54 13.9529 17.7295 13.9631Q17.915 13.9734 18.04 14.0662Q18.1191 14.1252 18.1738 14.2173Q18.2705 14.3811 18.2705 14.6494L18.2656 15.657Q18.2656 15.7734 18.2666 16.009Q18.2695 16.4829 18.2656 16.7219ZM18.0654 15.6562C18.0654 15.7742 18.0664 15.8921 18.0664 16.0103C18.0684 16.2466 18.0693 16.4834 18.0654 16.7202C18.0654 16.9685 17.9648 17.1697 17.6768 17.1697C17.416 17.1628 17.3398 16.9651 17.334 16.7415Q17.3242 15.6765 17.334 14.6123C17.334 14.3652 17.4326 14.1472 17.7188 14.1628C18.0039 14.1787 18.0703 14.4011 18.0703 14.6494L18.0654 15.6562Z" fill="#FA8B02" fill-opacity="1.000000" fill-rule="evenodd"/>
		</g>
	</g>
</svg>
