<svg width="24.000000" height="24.000000" viewBox="0 0 24 24" fill="none" xmlns="http://www.w3.org/2000/svg" xmlns:xlink="http://www.w3.org/1999/xlink">
	<desc>
			Created with Pixso.
	</desc>
	<defs>
		<clipPath id="clip201_1997">
			<rect id="icon_bus" width="24.000000" height="24.000000" fill="white" fill-opacity="0"/>
		</clipPath>
	</defs>
	<g opacity="0.800000">
		<rect id="icon_bus" width="24.000000" height="24.000000" fill="#FFFFFF" fill-opacity="0"/>
		<g clip-path="url(#clip201_1997)">
			<path id="Vector" d="M11.9707 0.570312C14.3271 0.570312 16.6846 0.570312 19.042 0.570312C19.9844 0.570312 20.8477 0.74585 21.3496 1.67822C21.5371 2.00073 21.6406 2.36548 21.6494 2.73877C21.6494 3.17139 21.6494 3.60278 21.6494 4.03516C21.6494 4.85083 21.6494 4.85083 22.457 4.92505C23.6201 5.03101 24.377 6.45728 23.8047 7.47778C23.7607 7.56616 23.6904 7.63843 23.6035 7.68481C23.5166 7.7312 23.417 7.74902 23.3193 7.73608C23.2217 7.72314 23.1309 7.67993 23.0586 7.6123C22.9873 7.54492 22.9385 7.45654 22.9189 7.35986C22.8848 7.14697 22.8721 6.93091 22.8838 6.71533C22.9102 6.17676 22.6484 5.97876 22.1318 5.9939C21.7783 6.00342 21.626 6.14258 21.6494 6.49146C21.6602 6.64819 21.6494 6.80591 21.6494 6.96289C21.6494 10.9094 21.6494 14.856 21.6494 18.8025C21.6494 19.8691 21.4238 20.1826 20.3789 20.4653C20.0635 20.5503 19.9688 20.7117 19.9756 21.0029C19.9756 21.3564 19.9873 21.71 19.9668 22.0635C19.959 22.3806 19.8379 22.6848 19.627 22.9211C19.415 23.1577 19.126 23.311 18.8115 23.354C18.2881 23.4399 17.7539 23.4497 17.2266 23.3835C16.3643 23.2764 15.9541 22.8142 15.9307 21.928C15.9209 21.5945 15.9209 21.2598 15.9307 20.9263C15.9307 20.6304 15.7949 20.4961 15.5029 20.4961C13.1455 20.4961 10.7881 20.4961 8.43164 20.4961C8.10547 20.4961 7.96875 20.6433 7.97754 20.9675C7.98535 21.2915 7.98535 21.6357 7.97754 21.9692C7.94434 22.8191 7.53516 23.2786 6.70215 23.3835C6.17578 23.4524 5.6416 23.4443 5.11719 23.3599C4.80273 23.3213 4.51172 23.1729 4.2959 22.9407C4.08008 22.7083 3.9541 22.4072 3.93848 22.0906C3.92871 21.9729 3.92871 21.8547 3.93848 21.7371C3.99414 21.043 4.00684 20.4653 3.05078 20.3015C2.40039 20.1838 2.25488 19.5332 2.25684 18.8875C2.26758 14.9404 2.25684 10.991 2.25684 7.04761C2.25684 6.89087 2.24609 6.73291 2.25684 6.57617C2.28613 6.19897 2.17676 5.97876 1.73926 5.99512C1.33594 6.00928 1.03809 6.09766 1.03223 6.57373C1.03418 6.82861 1.02148 7.08325 0.994141 7.33643C0.983398 7.448 0.930664 7.55127 0.84668 7.62573C0.762695 7.7002 0.654297 7.74023 0.541992 7.73828C0.482422 7.74536 0.421875 7.74023 0.364258 7.72339C0.306641 7.7063 0.253906 7.67798 0.207031 7.63989C0.161133 7.60181 0.123047 7.55493 0.0947266 7.50171C0.0673828 7.44849 0.0507812 7.39038 0.0458984 7.33057C-0.0996094 6.19092 0.0107422 4.94165 1.7207 4.93091C2.13965 4.93091 2.2666 4.74243 2.25195 4.35352C2.23438 3.823 2.23828 3.29272 2.25195 2.76367C2.28418 1.58496 3.03027 0.772949 4.19824 0.631592C4.51074 0.594727 4.8252 0.576172 5.14062 0.576172C7.41602 0.572266 9.69238 0.570312 11.9707 0.570312ZM11.9541 4.84497C9.26367 4.84497 6.57129 4.84497 3.88086 4.84497C3.50391 4.84497 3.23828 4.87671 3.24414 5.36694C3.26367 7.05713 3.25586 8.74585 3.24414 10.4348C3.24414 10.7659 3.37988 10.938 3.69922 11.011C6.13672 11.5674 8.58594 12.0022 11.0908 12.0754C14.1367 12.1626 17.1182 11.73 20.0732 11.0393C20.4971 10.9404 20.6621 10.7588 20.6553 10.324C20.6377 8.73291 20.624 7.14185 20.6611 5.55078C20.6738 4.96167 20.4531 4.83081 19.9082 4.83545C17.2578 4.85913 14.6055 4.84619 11.9541 4.84619L11.9541 4.84497ZM11.9541 19.4202C14.6436 19.4202 17.334 19.4202 20.0234 19.4202C20.5244 19.4202 20.6543 19.1843 20.6611 18.7283C20.668 18.2722 20.4912 18.0942 20.0371 18.1118C19.4873 18.1379 18.9365 18.134 18.3877 18.1001C17.917 18.0674 17.4785 17.8542 17.1611 17.5054C16.8438 17.1565 16.6738 16.6987 16.6865 16.2275C16.6992 15.7563 16.8926 15.3083 17.2275 14.9763C17.5615 14.6445 18.0117 14.4548 18.4834 14.4465C19.0527 14.4302 19.6211 14.4348 20.1904 14.4465C20.5137 14.4465 20.6553 14.3064 20.6504 13.9846C20.6436 13.5132 20.626 13.0417 20.6572 12.5703C20.6914 12.0659 20.5576 11.9126 20.0293 12.0659C17.543 12.7908 14.9814 13.0347 12.4062 13.0664C9.49219 13.103 6.60254 12.8484 3.78418 12.0459C3.41504 11.9409 3.22656 11.9858 3.24805 12.4265C3.27148 12.9368 3.26367 13.4482 3.24805 13.9587C3.23926 14.3123 3.39453 14.4548 3.74219 14.4478C4.27246 14.436 4.80273 14.4382 5.33301 14.4478C6.3584 14.469 7.19727 15.2727 7.21875 16.2485C7.24316 17.2009 6.40137 18.0693 5.38965 18.113C4.86035 18.1367 4.3291 18.1331 3.7998 18.113C3.39844 18.1025 3.23633 18.2627 3.23926 18.6694C3.23926 19.2998 3.33008 19.4131 3.99414 19.4141C6.64746 19.4229 9.2998 19.427 11.9502 19.427L11.9541 19.4202ZM11.9619 3.8501L14.2607 3.8501C16.1826 3.8501 18.1055 3.8501 20.0283 3.8501C20.2695 3.8501 20.5469 3.91504 20.6426 3.55444C20.9258 2.45605 20.3154 1.62036 19.1807 1.61914C14.3535 1.6145 9.52637 1.6145 4.7002 1.61914C3.6748 1.61914 3.27637 2.02222 3.25195 3.03345C3.23145 3.81836 3.25195 3.84424 4.07617 3.84424L11.9619 3.8501ZM4.51172 17.0701C4.78613 17.0701 5.05957 17.0701 5.33594 17.0701C5.82617 17.0701 6.10742 16.8262 6.14844 16.3335C6.18652 15.8679 5.8916 15.5085 5.38672 15.4707C4.95898 15.4353 4.52637 15.4543 4.09082 15.4543C3.24414 15.4543 3.24414 15.4543 3.24805 16.2874C3.24805 17.0547 3.26562 17.0701 4.04004 17.0747L4.51172 17.0701ZM19.2988 17.0642C20.7471 17.0713 20.7471 17.0713 20.6455 15.9021C20.6455 15.8633 20.6455 15.8242 20.6396 15.7842C20.6436 15.7397 20.6367 15.6953 20.6211 15.6536C20.6055 15.6121 20.5811 15.5742 20.5488 15.5432C20.5176 15.512 20.4795 15.488 20.4375 15.4731C20.3955 15.4583 20.3506 15.4526 20.3066 15.4565C19.6807 15.4565 19.0498 15.4248 18.4297 15.4836C17.9961 15.5237 17.7314 15.8301 17.752 16.2969C17.7764 16.7837 18.0361 17.0522 18.5352 17.0618C18.7891 17.0701 19.0439 17.063 19.2988 17.063L19.2988 17.0642ZM6.96777 21.3977C6.96777 20.4949 6.96777 20.4949 6.125 20.4924C4.99902 20.4924 4.99902 20.4924 4.99609 21.2998C4.99609 22.3511 5.00879 22.3699 5.95898 22.3711C6.93457 22.3735 6.96484 22.3428 6.96777 21.3977ZM17.9023 20.4878C16.9307 20.4878 16.9307 20.4878 16.9307 21.3235C16.9307 22.344 16.9521 22.3677 17.9277 22.3665C18.8818 22.3665 18.9043 22.3428 18.9023 21.3647C18.9023 20.4878 18.9023 20.4878 17.9023 20.4878Z" fill="#FA8B02" fill-opacity="1.000000" fill-rule="nonzero"/>
			<path id="Vector" d="M11.9199 18.0386C11.1338 18.0386 10.3496 18.0527 9.56348 18.0386C8.68848 18.0186 8.18164 17.5059 8.14844 16.6409C8.14062 16.425 8.14258 16.2083 8.14844 15.9927C8.16797 15.0969 8.65527 14.5112 9.53809 14.4888C11.1465 14.447 12.7578 14.447 14.3701 14.4888C15.2529 14.5112 15.7422 15.0957 15.7598 15.9927C15.7598 16.2283 15.7695 16.4641 15.7598 16.6997C15.7168 17.4963 15.2109 17.9961 14.4043 18.041C14.3662 18.041 14.3252 18.041 14.2871 18.041L11.9199 18.0386ZM12.0098 15.5447C11.2666 15.5447 10.5225 15.5576 9.7793 15.5447C9.27441 15.533 9.13965 15.7935 9.14746 16.2412C9.1543 16.6667 9.17383 17.0391 9.74609 17.0369C11.2139 17.0305 12.6826 17.0305 14.1504 17.0369C14.7197 17.0369 14.7461 16.6726 14.752 16.2449C14.752 15.7993 14.6348 15.5317 14.124 15.5447C13.4209 15.5576 12.7148 15.5447 12.0098 15.5447Z" fill="#FA8B02" fill-opacity="1.000000" fill-rule="nonzero"/>
		</g>
	</g>
</svg>
