<svg width="24.000000" height="24.000000" viewBox="0 0 24 24" fill="none" xmlns="http://www.w3.org/2000/svg" xmlns:xlink="http://www.w3.org/1999/xlink">
	<desc>
			Created with Pixso.
	</desc>
	<defs>
		<clipPath id="clip201_2004">
			<rect id="icon_companion" width="24.000000" height="24.000000" fill="white" fill-opacity="0"/>
		</clipPath>
	</defs>
	<g opacity="0.800000">
		<rect id="icon_companion" width="24.000000" height="24.000000" fill="#FFFFFF" fill-opacity="0"/>
		<g clip-path="url(#clip201_2004)">
			<path id="Vector" d="M10.4727 15.4346C10.1855 16.6724 9.59766 17.4912 8.56738 17.939C6.85547 18.6846 4.90723 17.7476 4.37891 15.9062C4.2793 15.5581 4.14746 15.4224 3.79883 15.4634C3.61914 15.4736 3.43945 15.4736 3.25977 15.4634C2.21387 15.4634 1.5166 16.0347 1.36133 17.0566C1.19238 18.1738 1.0625 19.2974 0.893555 20.416C0.834961 20.7993 0.948242 20.9092 1.33594 20.9116C2.71094 20.9116 2.71582 20.9307 2.71387 19.5498C2.71387 19.2134 2.66211 18.8882 3.18652 18.9585C3.41602 18.9893 3.49316 19.0552 3.49219 19.2812C3.48438 20.7358 3.48047 22.1899 3.49219 23.6436C3.49219 23.958 3.3457 23.9849 3.09766 23.9883C2.84961 23.9912 2.69824 23.9341 2.70898 23.6338C2.72754 23.0952 2.70898 22.5566 2.71777 22.0176C2.72363 21.7627 2.63086 21.688 2.37695 21.6719C1.14453 21.5957 1.14551 21.5879 1.14551 22.7988C1.14551 23.0498 1.1377 23.3008 1.14551 23.5527C1.1543 23.8052 1.13379 23.9956 0.783203 23.9937C0.453125 23.9937 0.34082 23.8857 0.360352 23.5571C0.383789 23.1455 0.367188 22.7319 0.360352 22.3193C0.360352 22.0244 0.426758 21.7217 0.0947266 21.5112C-0.0625 21.4102 -0.00195312 21.1797 0.0224609 21.0029C0.211914 19.6338 0.396484 18.2646 0.599609 16.8984C0.80957 15.4829 2.07324 14.5566 3.27344 14.6782C3.86035 14.7373 4.45898 14.6782 5.05078 14.6934C5.32812 14.7007 5.41602 14.6157 5.4248 14.3291C5.43945 13.7764 5.39258 13.3369 4.84277 12.9673C4.125 12.4839 3.73242 11.7104 3.57129 10.8484C3.52246 10.5886 3.43652 10.4551 3.14062 10.4292C2.88672 10.415 2.64453 10.3235 2.44434 10.1675C2.24512 10.0112 2.09766 9.79785 2.02246 9.55566C1.83594 9.01685 1.93164 8.51392 2.35449 8.12183C2.43457 8.05322 2.49414 7.96338 2.52637 7.86255C2.55859 7.76196 2.56152 7.6543 2.53516 7.55176C2.46289 7.07251 2.41504 6.59082 2.3457 6.11157C1.99414 3.6875 3.91602 2.12549 5.65723 2.29248C6.6377 2.38525 7.63281 2.21826 8.61426 2.38721C9.33496 2.51221 10.001 2.69653 10.082 3.60474C10.1016 3.82007 10.3125 3.84058 10.4941 3.875C11.5312 4.07227 12.0039 4.64307 12.0039 5.70654C12.0039 6.10181 12.0039 6.49609 12.0039 6.89136C12.0039 7.39771 11.9951 7.83398 12.4502 8.27783C13.1797 8.99121 12.6787 10.2322 11.6475 10.4175C11.3008 10.4788 11.1943 10.6091 11.1182 10.9377C10.916 11.8418 10.3896 12.6401 9.63867 13.1831C9.36523 13.3853 9.15918 14.311 9.31445 14.5908C9.33789 14.6294 9.37207 14.6597 9.41211 14.6777C9.45312 14.6958 9.49902 14.7007 9.54199 14.6924C10.0029 14.6738 10.5039 14.8428 10.8145 14.2808C10.9424 14.0503 11.2461 13.9307 11.5205 13.9497C11.8721 13.9736 11.9375 13.7788 11.9775 13.5083C12.0859 12.7456 12.2314 11.9858 12.3164 11.22C12.3682 10.76 12.5459 10.4822 12.9951 10.3044C13.8584 9.96167 14.7041 9.55029 15.5596 9.17847C15.957 9.00415 16 8.81348 15.6465 8.53223C14.999 8.03247 14.5566 7.31372 14.4023 6.51123C14.3574 6.27417 14.2578 6.20532 14.0195 6.17285C13.2646 6.06519 12.7793 5.53516 12.7676 4.85742C12.7568 4.17993 13.2412 3.60889 13.9795 3.50757C14.2568 3.46997 14.3193 3.37305 14.3555 3.11865C14.6182 1.24536 16.0186 0 17.8242 0C19.6299 0 21.0254 1.2561 21.2744 3.12427C21.3115 3.39771 21.3984 3.46021 21.6582 3.49683C22.3955 3.60474 22.8779 4.17236 22.8613 4.85547C22.8564 5.18262 22.7314 5.49658 22.5088 5.73682C22.2871 5.97705 21.9834 6.12671 21.6572 6.15674C21.3721 6.19116 21.2568 6.28174 21.2061 6.55542C21.0605 7.34814 20.625 7.97095 20.0264 8.49438C19.625 8.84448 19.6455 8.9729 20.1455 9.2002C21.0078 9.59326 21.8779 9.98877 22.7549 10.3572C22.8975 10.4053 23.0234 10.4946 23.1172 10.6138C23.21 10.7329 23.2656 10.8767 23.2773 11.0271C23.5 12.5356 23.7412 14.0435 23.9736 15.5518C24.0127 15.8037 24.0508 16.0571 23.7754 16.2197C23.5771 16.3384 23.6465 16.543 23.6455 16.709C23.6396 17.7681 23.6455 18.8267 23.6455 19.8857C23.6455 21.1313 23.1484 21.8799 21.999 22.3228C21.7656 22.4121 21.6934 22.522 21.7041 22.7534C21.7178 23.022 21.6895 23.292 21.7119 23.5605C21.7383 23.8838 21.6357 24.0034 21.2959 24.002C20.9561 24.001 20.9248 23.8364 20.9287 23.5713C20.9365 22.6924 20.9189 21.812 20.9385 20.9331C20.9453 20.6035 20.8418 20.502 20.5068 20.502C18.6748 20.5156 16.8418 20.5156 15.0088 20.502C14.6416 20.502 14.5771 20.6162 14.665 20.9395C14.7354 21.2021 14.7607 21.478 14.4668 21.6558C14.291 21.7637 14.3418 21.9404 14.3408 22.0942C14.335 22.5972 14.3242 23.1006 14.3408 23.6025C14.3525 23.916 14.2227 23.9966 13.9287 24C13.6055 24 13.5283 23.873 13.5381 23.5811C13.5537 23.0791 13.5264 22.5757 13.5469 22.0728C13.5605 21.7612 13.4385 21.686 13.1436 21.6797C12.0049 21.6548 12.0049 21.644 12.0049 22.7793C12.0049 23.0303 11.9951 23.2827 12.0049 23.5337C12.0186 23.8105 12.0049 24.0054 11.625 24.0054C11.2461 24.0054 11.2305 23.832 11.2314 23.5444C11.2412 22.1621 11.2461 20.7788 11.2314 19.3965C11.2314 19.0737 11.3184 18.9658 11.6533 18.9658C12.0078 18.9658 12.0264 19.1455 12.0059 19.4033C11.999 19.4746 11.999 19.5469 12.0059 19.6187C12.0537 20.0376 11.7979 20.6572 12.1201 20.8315C12.5127 21.0474 13.0967 20.8984 13.5986 20.9102C13.833 20.917 13.8584 20.7744 13.8311 20.5869C13.6475 19.3267 13.4775 18.064 13.2715 16.8071C13.2031 16.3955 13.0342 16.1284 12.4697 16.2231C11.751 16.3428 10.9707 16.3867 10.4727 15.4346ZM13.9453 16.1885C13.9453 15.1362 13.9453 14.1953 13.9453 13.2549C13.9453 12.9868 13.8848 12.7368 14.3311 12.7393C14.7773 12.7412 14.709 13.0049 14.709 13.2646C14.709 15.2568 14.7207 17.251 14.7002 19.2407C14.7002 19.6392 14.7959 19.7588 15.2061 19.7534C16.9307 19.7295 18.6553 19.7266 20.3809 19.7534C20.8408 19.7607 20.9453 19.6177 20.9404 19.1792C20.918 17.1699 20.9404 15.1597 20.9248 13.1465C20.9248 12.8491 21.0098 12.7412 21.3203 12.7412C21.6309 12.7412 21.7236 12.8491 21.7109 13.1494C21.6914 13.5967 21.7109 14.0459 21.7109 14.4951C21.7109 15.4863 21.7109 15.4644 22.7139 15.4644C23.0801 15.4644 23.1738 15.3569 23.1162 14.999C22.9199 13.814 22.7402 12.626 22.5771 11.4343C22.5391 11.1619 22.3975 11.0305 22.167 10.9302C21.4414 10.6167 20.7188 10.2988 20.002 9.96826C19.7861 9.86792 19.6855 9.87891 19.5469 10.1116C18.6748 11.5918 16.96 11.5981 16.1104 10.1265C15.9834 9.90454 15.8945 9.85303 15.6621 9.96069C14.9297 10.301 14.1895 10.6255 13.4492 10.9497C13.2578 11.0347 13.126 11.1382 13.0947 11.3718C12.9951 12.1001 12.8789 12.8262 12.7559 13.5503C12.7129 13.8022 12.7217 13.9702 12.9971 14.1104C13.1943 14.2041 13.3545 14.3608 13.4521 14.5562C13.5498 14.7515 13.5791 14.9736 13.5361 15.1875C13.4639 15.5928 13.6523 15.8364 13.9453 16.1885ZM11.2402 7.50024C11.2402 6.86353 11.2402 6.2915 11.2402 5.71948C11.2334 5.01685 11.0078 4.74976 10.3145 4.64844C9.81934 4.57642 9.42383 4.32544 9.35938 3.84277C9.29395 3.36011 9.00586 3.23193 8.61035 3.16943C7.57617 2.99707 6.53223 3.09497 5.49414 3.08325C4.27441 3.06812 3.31445 3.87817 3.12598 5.073C2.99023 5.95312 3.24902 6.79663 3.3418 7.72754C3.83398 7.19849 4.46484 7.2395 5.00488 7.04224C5.33887 6.91943 5.6123 6.95825 5.87695 7.23413C6.2002 7.57349 6.63184 7.70581 7.0957 7.72217C7.40234 7.73853 7.70898 7.68066 7.98828 7.55322C8.26855 7.42578 8.5127 7.23291 8.70117 6.99048C9.04883 6.55957 9.39844 6.51538 9.86328 6.7998C10.2754 7.05078 10.7227 7.24048 11.2402 7.50024ZM10.4639 9.42969C10.4639 8.95654 10.4639 8.61621 10.4639 8.27466C10.4707 7.73608 9.95508 7.80396 9.68066 7.59375C9.50879 7.4624 9.35645 7.47314 9.15918 7.63257C7.79395 8.75415 7.02051 8.80249 5.45703 7.90308C4.96875 7.62183 4.25098 8.0022 4.25 8.54297C4.25 9.06323 4.24023 9.58374 4.25 10.104C4.26562 10.7732 4.49609 11.4194 4.90527 11.9487C5.31543 12.4785 5.88379 12.8633 6.52832 13.0474C7.82129 13.4102 9.1875 12.876 9.95508 11.7285C10.458 10.981 10.4932 10.1492 10.4639 9.42969ZM20.5186 4.68188C20.5186 4.2876 20.5254 3.89331 20.5186 3.49683C20.5117 3.20068 20.5713 2.76123 20.3027 2.68359C20.0342 2.60596 19.7285 2.89893 19.5479 3.18555C19.5 3.26099 19.4473 3.33301 19.3896 3.40112C19.2363 3.58423 19.0488 3.76416 18.8184 3.77905C17.792 3.85034 16.6729 4.23267 15.9766 3.03149C15.9209 2.96118 15.8525 2.90259 15.7734 2.85913C15.3018 2.52832 15.165 2.57471 15.1416 3.1543C15.1064 4.06689 15.1035 4.98584 15.127 5.896C15.124 6.61035 15.4062 7.29639 15.9092 7.80322C16.4131 8.3103 17.0977 8.59644 17.8125 8.59888C18.5273 8.60156 19.2139 8.32031 19.7217 7.81689C20.2285 7.31372 20.5146 6.62964 20.5176 5.91553C20.5322 5.50708 20.5186 5.09448 20.5186 4.68188ZM6.18848 13.7593L6.18848 14.7095C6.18848 15.415 6.17285 15.4331 5.47656 15.4634C5.23242 15.4741 5.0459 15.4731 5.14453 15.8169C5.39062 16.6982 6.35059 17.3994 7.36035 17.3975C8.36914 17.395 9.3418 16.6875 9.56348 15.8091C9.62109 15.582 9.58887 15.4917 9.33301 15.4624C8.52734 15.373 8.5293 15.3633 8.5293 14.5327C8.5293 14.3896 8.52148 14.2461 8.5293 14.1016C8.54102 13.8682 8.44922 13.7627 8.20508 13.8271C7.56836 14.0049 6.92969 13.9404 6.18848 13.7593ZM17.8164 3.06934C18.1865 3.03589 18.6289 3.21045 18.8877 2.78271C19.0703 2.47266 19.3418 2.22461 19.667 2.07056C19.9658 1.92847 19.9551 1.78735 19.7344 1.55786C18.8203 0.603271 17.1475 0.511719 16.1104 1.37671C15.6006 1.80005 15.6035 1.81836 16.1416 2.17285C16.2891 2.26978 16.4648 2.37012 16.5459 2.5144C16.8262 3.05078 17.2734 3.1521 17.8164 3.06934ZM21.7031 18.9238C21.7031 19.6777 21.7031 20.4321 21.7031 21.186C21.7031 21.3047 21.6924 21.4814 21.7607 21.5308C21.8936 21.6289 22.0254 21.4834 22.1387 21.4102C22.3623 21.2725 22.5469 21.0786 22.6719 20.8481C22.7979 20.6177 22.8613 20.3584 22.8564 20.0957C22.8633 18.9487 22.8438 17.8013 22.8652 16.6548C22.875 16.125 22.5127 16.2725 22.2393 16.2607C21.9658 16.249 21.665 16.1831 21.6895 16.6655C21.7324 17.4165 21.7031 18.1709 21.7031 18.9238ZM17.7988 10.4497C18.3945 10.438 18.9189 9.96387 18.9766 9.42212C19.002 9.1958 18.9717 9.09033 18.6934 9.16895C18.2266 9.3042 17.7354 9.33032 17.2568 9.24536C17.0654 9.21094 16.7998 9.0105 16.6826 9.20435C16.5557 9.41992 16.709 9.68604 16.8467 9.90137C16.9463 10.0654 17.0859 10.2019 17.252 10.2976C17.4189 10.3936 17.6064 10.4458 17.7988 10.4497ZM12.0156 15.4604L12.2842 15.4604C12.5479 15.4604 12.7637 15.373 12.7529 15.0723C12.7422 14.772 12.5283 14.6909 12.2646 14.6934C12.0488 14.6934 11.833 14.6836 11.6182 14.7031C11.5674 14.7026 11.5186 14.7129 11.4727 14.7329C11.4268 14.7524 11.3857 14.7812 11.3516 14.8179C11.3174 14.8545 11.291 14.8975 11.2744 14.9443C11.2578 14.9912 11.251 15.041 11.2539 15.0908C11.2539 15.3286 11.4111 15.4409 11.6367 15.4551C11.7646 15.4644 11.8906 15.458 12.0156 15.458L12.0156 15.4604ZM14.377 4.82202C14.1924 4.67773 14.5586 4.28345 14.1113 4.26294C13.7881 4.2522 13.5723 4.48682 13.5723 4.81348C13.5645 5.16772 13.7881 5.41333 14.1328 5.40161C14.5215 5.38647 14.2441 5.02881 14.377 4.81982L14.377 4.82202ZM21.5625 4.25317C21.4199 4.24561 21.3125 4.25317 21.3076 4.36621C21.2949 4.67017 21.2969 4.97388 21.3076 5.27881C21.3076 5.39502 21.4062 5.4187 21.5 5.40918C21.8232 5.37573 22.0391 5.2002 22.0557 4.86499C22.0742 4.49976 21.8613 4.30908 21.5625 4.25317ZM3.53027 9.07202C3.34375 8.93823 3.71484 8.5332 3.24707 8.53857C2.91309 8.53857 2.72461 8.76709 2.73145 9.10205C2.73926 9.43701 2.93848 9.65259 3.27051 9.64062C3.68066 9.62573 3.39355 9.27563 3.53027 9.07202ZM11.2197 9.05029C11.3516 9.23022 11.0459 9.59546 11.4482 9.63525C11.7715 9.66772 11.9785 9.43286 11.9873 9.10962C11.9961 8.78638 11.8105 8.55811 11.4834 8.54077C11.0703 8.51807 11.3203 8.87158 11.2197 9.04932L11.2197 9.05029Z" fill="#FA8B02" fill-opacity="1.000000" fill-rule="nonzero"/>
			<path id="Vector" d="M8.64746 18.1226Q7.97754 18.4146 7.25977 18.395Q6.56934 18.376 5.94238 18.0728Q5.31543 17.7695 4.86328 17.2349Q4.39258 16.6792 4.18652 15.9614Q4.12695 15.7515 4.05566 15.6943Q3.99219 15.6421 3.82227 15.6621L3.81641 15.6626L3.81055 15.6631Q3.5293 15.6792 3.24902 15.6631L3.25977 15.4634L3.25977 15.6636Q2.54492 15.6636 2.10449 16.0303Q1.66406 16.3979 1.55957 17.0869Q1.47461 17.6445 1.3252 18.7651Q1.17578 19.8857 1.0918 20.4458Q1.07324 20.564 1.08203 20.6284Q1.08594 20.6621 1.09473 20.6714Q1.13086 20.7104 1.33691 20.7114Q1.35352 20.7114 1.3916 20.7114Q1.95801 20.7114 2.13281 20.6914Q2.34082 20.668 2.40527 20.6021Q2.4707 20.5342 2.49414 20.3154Q2.51465 20.1323 2.51367 19.5498Q2.51367 19.5229 2.5127 19.4688Q2.51074 19.3076 2.51855 19.23Q2.53418 19.0742 2.59668 18.9702Q2.76074 18.6997 3.21289 18.7598Q3.45703 18.7935 3.56836 18.9067Q3.69336 19.0337 3.69238 19.2822L3.69238 23.6436Q3.69238 23.9663 3.50098 24.0972Q3.41699 24.1548 3.2959 24.1748Q3.22168 24.1865 3.09961 24.188Q2.82617 24.1919 2.68457 24.084Q2.49805 23.9414 2.50977 23.6265Q2.51953 23.3203 2.5166 22.7036Q2.51367 22.2451 2.51758 22.0146Q2.51953 21.9463 2.50977 21.9116Q2.50684 21.9028 2.50488 21.8984L2.50488 21.8989Q2.48535 21.8794 2.36426 21.8716Q2.35156 21.8706 2.3418 21.8701Q1.82422 21.8379 1.66504 21.8457Q1.4834 21.8545 1.43359 21.9014Q1.38379 21.9478 1.36328 22.1255Q1.3457 22.2817 1.3457 22.7954Q1.3457 22.7954 1.3457 22.7988Q1.3457 22.8838 1.34375 23.0522Q1.33984 23.3823 1.3457 23.5459Q1.35059 23.6719 1.34082 23.7515Q1.32617 23.8809 1.27051 23.9722Q1.13477 24.1958 0.782227 24.1934Q0.450195 24.1934 0.297852 24.0391Q0.140625 23.8794 0.160156 23.5454Q0.179688 23.2153 0.165039 22.5435Q0.161133 22.3965 0.160156 22.3232Q0.160156 22.2734 0.163086 22.1851Q0.169922 21.9644 0.145508 21.8784Q0.112305 21.7593 -0.0117188 21.6807Q-0.188477 21.5674 -0.207031 21.335Q-0.21582 21.2319 -0.185547 21.0376Q-0.178711 20.9946 -0.175781 20.9751L0.401367 16.8706Q0.484375 16.314 0.764648 15.8359Q1.03027 15.3828 1.44043 15.0557Q1.8418 14.7349 2.31836 14.584Q2.80566 14.4297 3.29297 14.479Q3.52441 14.5024 3.81836 14.5049Q3.99805 14.5063 4.36035 14.498Q4.82324 14.4873 5.05566 14.4932Q5.13574 14.4956 5.17871 14.4854Q5.19629 14.481 5.19922 14.478Q5.20312 14.4736 5.20996 14.4526Q5.22266 14.4077 5.22461 14.3232Q5.23633 13.8745 5.15625 13.6455Q5.05371 13.3501 4.73145 13.1333Q4.17578 12.7588 3.8252 12.1494Q3.50781 11.5986 3.375 10.885Q3.34668 10.7346 3.30273 10.6877Q3.25781 10.6404 3.12305 10.6287L3.14062 10.4292L3.12891 10.6289Q2.67773 10.6033 2.32129 10.325Q1.96484 10.0466 1.83105 9.61475L2.02246 9.55566L1.83301 9.62109Q1.67285 9.15698 1.76465 8.74048Q1.86035 8.30737 2.21875 7.9751L2.22168 7.97217L2.22461 7.96948Q2.30469 7.90161 2.33594 7.802Q2.36719 7.70239 2.3418 7.60132L2.33887 7.59155L2.33789 7.58154Q2.29883 7.32202 2.23438 6.8042Q2.17969 6.36035 2.14746 6.13989Q2.01465 5.22095 2.28027 4.40674Q2.52441 3.65503 3.07324 3.09106Q3.59375 2.55591 4.28418 2.29126Q4.97461 2.02612 5.67578 2.09351Q5.95215 2.11938 6.30176 2.12231Q6.51367 2.12402 6.94043 2.11499Q7.50293 2.10327 7.78613 2.11108Q8.26465 2.12402 8.64844 2.19019Q8.98242 2.24805 9.19336 2.31079Q9.49121 2.39917 9.69824 2.53516Q10.2178 2.87646 10.2812 3.58667Q10.2842 3.61182 10.3047 3.6228Q10.3457 3.64478 10.4873 3.67041Q10.5166 3.67578 10.5312 3.67847Q11.3809 3.84009 11.792 4.33862Q12.2041 4.8374 12.2041 5.70654L12.2041 6.2998L12.2041 6.89136Q12.2041 6.90112 12.2041 6.91919Q12.2031 7.15649 12.21 7.26709Q12.2207 7.44092 12.2529 7.57227Q12.3311 7.88208 12.5898 8.13477Q12.8994 8.43799 12.9746 8.85156Q13.043 9.23486 12.8955 9.61768Q12.751 9.99341 12.4404 10.2576Q12.1113 10.5374 11.6836 10.6143Q11.4922 10.6482 11.4248 10.7173Q11.3594 10.7839 11.3135 10.9827Q11.1543 11.6953 10.751 12.3062Q10.3486 12.9165 9.75488 13.3452Q9.7002 13.3862 9.63281 13.5327Q9.55859 13.6924 9.51074 13.9019Q9.46387 14.1104 9.46191 14.2837Q9.45898 14.439 9.49023 14.4941L9.31445 14.5908L9.48633 14.4888Q9.48926 14.4932 9.49414 14.4951Q9.49805 14.4971 9.50293 14.4961L9.51855 14.4932L9.53418 14.4922Q9.63672 14.4883 9.83594 14.4966Q10.0137 14.5044 10.0967 14.5015Q10.2227 14.4966 10.3115 14.4707Q10.5146 14.4106 10.6396 14.1841Q10.7656 13.9575 11.0312 13.8389Q11.2715 13.7319 11.5352 13.7505Q11.6729 13.7598 11.7119 13.7124Q11.7529 13.6621 11.7803 13.479Q11.8213 13.1855 11.916 12.5991Q12.0654 11.665 12.1172 11.198Q12.1631 10.7917 12.3447 10.5398Q12.5381 10.2703 12.9219 10.1184Q13.4648 9.90259 14.5439 9.41357Q15.166 9.13135 15.4795 8.99512Q15.6025 8.94116 15.6602 8.89185Q15.6787 8.87573 15.6865 8.86377L15.6875 8.8645Q15.6865 8.86694 15.6865 8.8689L15.6865 8.86768Q15.6836 8.85596 15.6709 8.83691Q15.6299 8.77417 15.5225 8.68872Q15.0098 8.29321 14.6699 7.73999Q14.3291 7.18677 14.2061 6.54907Q14.1865 6.44482 14.1543 6.41797Q14.1191 6.38818 13.9932 6.37109Q13.3594 6.28076 12.9697 5.86597Q12.7793 5.66406 12.6768 5.4082Q12.5723 5.1499 12.5684 4.8606Q12.5635 4.57153 12.6611 4.30591Q12.7578 4.04395 12.9434 3.83398Q13.1289 3.62305 13.3848 3.48901Q13.6455 3.35156 13.9531 3.30957Q14.0811 3.29199 14.1094 3.2605Q14.1377 3.22925 14.1572 3.09106Q14.2588 2.36328 14.5762 1.74927Q14.8877 1.14697 15.3779 0.708008Q15.8672 0.269043 16.4873 0.0366211Q17.1182 -0.199951 17.8242 -0.199951Q18.5303 -0.199951 19.1611 0.0383301Q19.7793 0.272217 20.2676 0.713135Q20.7549 1.15381 21.0625 1.75708Q21.376 2.37183 21.4727 3.09766Q21.4902 3.22607 21.5186 3.25244Q21.5469 3.2793 21.6865 3.29883Q21.9932 3.34375 22.2539 3.48193Q22.5078 3.61743 22.6934 3.82861Q22.877 4.03955 22.9717 4.30225Q23.0684 4.56909 23.0615 4.86011Q23.0576 5.14062 22.9531 5.40308Q22.8477 5.66528 22.6562 5.8728Q22.4639 6.08008 22.21 6.20508Q21.957 6.33008 21.6758 6.35596L21.6572 6.15674L21.6816 6.35522Q21.5254 6.37427 21.4746 6.41772Q21.4277 6.45825 21.4033 6.5918Q21.1924 7.74146 20.1572 8.64502Q20.0186 8.7666 19.9678 8.8374Q19.9502 8.86182 19.9453 8.87524Q19.9473 8.87085 19.9453 8.86011Q19.9443 8.854 19.9414 8.84912L19.9424 8.84937Q19.9521 8.86279 19.9795 8.88306Q20.0527 8.93848 20.2285 9.01807Q21.9219 9.79028 22.832 10.1729L22.7549 10.3572L22.8184 10.1675Q23.0947 10.2607 23.2744 10.4907Q23.4541 10.7207 23.4766 11.0115L23.2773 11.0271L23.4756 10.9968L23.9551 14.1304L24.1719 15.521Q24.1924 15.6543 24.1973 15.7246Q24.207 15.8521 24.1895 15.9536Q24.1406 16.2363 23.8779 16.3921Q23.8457 16.4106 23.8389 16.4395Q23.8311 16.4761 23.8389 16.5879Q23.8457 16.668 23.8447 16.71L23.8428 17.7344L23.8447 18.9888L23.8447 19.7573L23.8447 19.8857Q23.8447 20.8833 23.4189 21.5166Q22.9893 22.1553 22.0703 22.5093Q21.9551 22.5537 21.9258 22.5972Q21.8994 22.6362 21.9043 22.7441Q21.9102 22.8706 21.9053 23.1182Q21.8994 23.4058 21.9111 23.5435Q21.9385 23.8765 21.7881 24.0386Q21.6357 24.2031 21.2949 24.2021Q20.9541 24.2012 20.8174 23.9971Q20.7578 23.9077 20.7393 23.7793Q20.7266 23.6978 20.7285 23.5688Q20.7314 23.2046 20.7295 22.4727Q20.7266 21.4434 20.7383 20.9287Q20.7422 20.7676 20.71 20.7358Q20.6758 20.7021 20.5068 20.7021L15.0088 20.7021Q14.8965 20.7021 14.8418 20.7173Q14.8262 20.7217 14.8203 20.7256Q14.8232 20.7236 14.8271 20.7183Q14.8311 20.7129 14.832 20.71Q14.8301 20.7168 14.8301 20.7324Q14.8311 20.7856 14.8584 20.8867Q14.9336 21.1689 14.8994 21.3638Q14.8477 21.6587 14.5713 21.8267Q14.5459 21.8423 14.54 21.8643Q14.5322 21.8955 14.5381 21.9961Q14.541 22.061 14.541 22.0957Q14.54 22.1646 14.5381 22.2983Q14.5264 23.1655 14.541 23.5957Q14.5527 23.9165 14.3818 24.0674Q14.2354 24.1968 13.9316 24.2002Q13.6025 24.2002 13.457 24.0303Q13.3281 23.8799 13.3379 23.5742Q13.3457 23.3394 13.3408 22.8643Q13.3359 22.333 13.3467 22.0645Q13.3506 21.979 13.3379 21.9341Q13.333 21.916 13.3281 21.9111Q13.2959 21.8828 13.1387 21.8794Q13.127 21.8794 13.1074 21.8789Q12.6338 21.8687 12.4902 21.8813Q12.3281 21.8965 12.2842 21.9399Q12.2393 21.9849 12.2207 22.1514Q12.2051 22.2983 12.2051 22.7793Q12.2051 22.8643 12.2021 23.0332Q12.1982 23.3638 12.2041 23.5259Q12.2109 23.6606 12.2041 23.7422Q12.1914 23.8794 12.1348 23.9751Q11.999 24.2056 11.625 24.2056Q11.2559 24.2056 11.1172 23.9912Q11.0586 23.8989 11.041 23.7627Q11.0312 23.6855 11.0312 23.5435Q11.0488 21.0933 11.0312 19.3989Q11.0312 19.2476 11.0557 19.1465Q11.0889 19.0107 11.1709 18.9229Q11.3193 18.7656 11.6533 18.7656Q12.0098 18.7656 12.1416 18.9849Q12.1973 19.0781 12.209 19.21Q12.2148 19.2915 12.2051 19.4189Q12.1973 19.5107 12.2051 19.6006L12.0059 19.6187L12.2041 19.5962Q12.2236 19.7646 12.1816 20.124Q12.1465 20.4136 12.1572 20.5215Q12.168 20.6304 12.2148 20.6558Q12.3574 20.7339 12.5967 20.7466Q12.7559 20.7549 13.1084 20.73Q13.4404 20.7065 13.6025 20.7104Q13.6445 20.7114 13.6572 20.7056Q13.6455 20.7109 13.6377 20.7246L13.6367 20.7256Q13.6387 20.7188 13.6396 20.7065Q13.6416 20.6724 13.6328 20.6157Q13.584 20.2798 13.4883 19.605Q13.2246 17.7583 13.0742 16.8394Q13.0293 16.5669 12.9248 16.4756Q12.8037 16.3696 12.5029 16.4204Q12.167 16.4761 11.9316 16.4839Q11.6025 16.4951 11.3369 16.4238Q10.6709 16.2456 10.2959 15.5273L10.4727 15.4346L10.668 15.4795Q10.4404 16.4614 9.95898 17.103Q9.45898 17.7695 8.64746 18.1226ZM8.48828 17.7559Q9.20215 17.4448 9.63867 16.8628Q10.0693 16.2891 10.2783 15.3892L10.3994 14.8633L10.6504 15.3418Q10.9443 15.9043 11.4404 16.0376Q11.6484 16.0933 11.918 16.0845Q12.127 16.0771 12.4365 16.0259Q12.9248 15.9438 13.1885 16.1748Q13.4004 16.3604 13.4688 16.7744Q13.6201 17.6978 13.8838 19.5488Q13.9805 20.2227 14.0293 20.5586Q14.0615 20.7852 13.9883 20.9185Q13.877 21.1182 13.5938 21.1104Q13.4492 21.1069 13.1367 21.1289Q12.7588 21.1558 12.5762 21.146Q12.2451 21.1289 12.0244 21.0073Q11.791 20.8809 11.7598 20.5605Q11.7441 20.4097 11.7842 20.0771Q11.8213 19.7637 11.8066 19.6411L11.8066 19.6387L11.8066 19.6367Q11.7949 19.5107 11.8066 19.3872Q11.8193 19.2251 11.7988 19.1909Q11.7969 19.188 11.7852 19.1831Q11.7432 19.166 11.6533 19.166Q11.4922 19.166 11.4619 19.1973Q11.4316 19.2295 11.4316 19.3945Q11.4492 21.0928 11.4316 23.5449Q11.4307 23.7388 11.4541 23.7744Q11.458 23.7803 11.4746 23.7866Q11.5234 23.8052 11.625 23.8052Q11.7227 23.8052 11.7695 23.7856Q11.7861 23.7793 11.79 23.7715Q11.8145 23.7305 11.8047 23.541Q11.7979 23.3687 11.8027 23.0278Q11.8047 22.8618 11.8047 22.7793Q11.8047 22.2764 11.8232 22.1079Q11.8564 21.8008 12.002 21.6562Q12.1484 21.5112 12.4531 21.4834Q12.6201 21.4683 13.1162 21.479Q13.1436 21.4795 13.1475 21.4795Q13.4521 21.4863 13.5938 21.6128Q13.7607 21.7612 13.7461 22.0811Q13.7354 22.3389 13.7412 22.8604Q13.7451 23.3438 13.7373 23.5874Q13.7324 23.7373 13.7607 23.7695Q13.7861 23.7998 13.9268 23.7998Q14.082 23.7983 14.1172 23.7676Q14.1465 23.7422 14.1416 23.6094Q14.126 23.1694 14.1387 22.293Q14.1406 22.1587 14.1406 22.0928Q14.1416 22.0703 14.1387 22.0176Q14.1299 21.8569 14.1523 21.7671Q14.1973 21.5864 14.3633 21.4849Q14.4854 21.4111 14.5059 21.2949Q14.5244 21.187 14.4727 20.9922Q14.4316 20.8418 14.4307 20.7368Q14.4287 20.585 14.5059 20.4805Q14.584 20.374 14.7334 20.3325Q14.8418 20.3022 15.0088 20.3022L20.5068 20.3022Q20.8408 20.3022 20.9922 20.4521Q21.1455 20.605 21.1377 20.9375Q21.127 21.4473 21.1299 22.4712Q21.1318 23.2061 21.1279 23.5737Q21.126 23.7393 21.1494 23.7744Q21.1533 23.7798 21.167 23.7852Q21.21 23.8018 21.2969 23.8022Q21.4609 23.8027 21.4941 23.7671Q21.5254 23.7334 21.5127 23.5771Q21.499 23.4185 21.5059 23.1104Q21.5098 22.8765 21.5049 22.7627Q21.4932 22.522 21.5947 22.3726Q21.6943 22.2251 21.9268 22.1362Q22.7275 21.8276 23.0869 21.2935Q23.4453 20.7612 23.4453 19.8857L23.4453 19.7578L23.4443 18.9893L23.4424 17.7334L23.4453 16.7075Q23.4453 16.6821 23.4404 16.6182Q23.4277 16.4453 23.4502 16.3486Q23.4951 16.1543 23.6738 16.0479Q23.7773 15.9863 23.7959 15.8848Q23.8096 15.8013 23.7764 15.5825L23.5596 14.1909L23.0791 11.0503L23.0781 11.043Q23.0645 10.8721 22.959 10.7368Q22.8535 10.6016 22.6904 10.5466L22.6836 10.5444L22.6768 10.5415Q21.7617 10.1567 20.0625 9.38208Q19.8477 9.28467 19.7393 9.20312Q19.5762 9.08105 19.5508 8.92651Q19.5244 8.76855 19.6426 8.60352Q19.7207 8.49561 19.8945 8.34375Q20.8242 7.53198 21.0098 6.51904Q21.0605 6.24731 21.2129 6.11499Q21.3555 5.9917 21.6328 5.95825L21.6357 5.95776L21.6387 5.95752Q21.8467 5.93848 22.0332 5.84619Q22.2207 5.75415 22.3623 5.60107Q22.5039 5.448 22.5811 5.25439Q22.6582 5.06104 22.6611 4.85059Q22.6719 4.41211 22.3916 4.09204Q22.1055 3.7644 21.6299 3.69482Q21.3682 3.65796 21.2471 3.54639Q21.1123 3.42212 21.0762 3.15063Q20.9883 2.49243 20.7061 1.93872Q20.4316 1.40112 19.999 1.01001Q19.5674 0.619629 19.0195 0.412598Q18.457 0.199951 17.8242 0.199951Q17.1904 0.199951 16.6279 0.411133Q16.0781 0.617188 15.6445 1.00586Q15.209 1.39575 14.9316 1.93286Q14.6455 2.48633 14.5527 3.14648Q14.5166 3.40601 14.4062 3.52832Q14.2803 3.6687 14.0068 3.70581Q13.5322 3.771 13.2432 4.09888Q12.9609 4.41797 12.9678 4.85425Q12.9746 5.28857 13.2607 5.5918Q13.5547 5.90454 14.0469 5.97461Q14.2881 6.00757 14.4121 6.11255Q14.5527 6.23071 14.5986 6.47339Q14.708 7.03931 15.0098 7.53027Q15.3125 8.02148 15.7715 8.37573Q16.124 8.65649 16.082 8.92627Q16.042 9.1853 15.6387 9.36206Q15.3291 9.49683 14.709 9.77783Q13.6221 10.2708 13.0693 10.4902Q12.7939 10.5991 12.6689 10.7729Q12.5488 10.9404 12.5146 11.2422Q12.4619 11.7188 12.3105 12.6626Q12.2168 13.2451 12.1758 13.5376Q12.1328 13.8301 12.0205 13.9663Q11.8516 14.1729 11.5068 14.1494Q11.3428 14.1377 11.1943 14.2041Q11.0498 14.2686 10.9893 14.3774Q10.7852 14.7476 10.4248 14.854Q10.2871 14.8945 10.1113 14.9009Q10.0127 14.9048 9.81934 14.8965Q9.63574 14.8887 9.5498 14.8921L9.54199 14.6924L9.58105 14.8882Q9.45215 14.9141 9.33105 14.8604Q9.20996 14.8066 9.14258 14.6929L9.1416 14.6904L9.13965 14.688Q9.05762 14.54 9.06152 14.2783Q9.06445 14.063 9.12109 13.8135Q9.17773 13.563 9.26953 13.3652Q9.37988 13.1255 9.52148 13.0205Q10.0547 12.6353 10.417 12.0859Q10.7793 11.5361 10.9238 10.8931Q10.9941 10.585 11.1387 10.4375Q11.2959 10.2766 11.6123 10.2207Q11.9346 10.1628 12.1807 9.95288Q12.4141 9.75464 12.5225 9.47363Q12.6299 9.19531 12.5811 8.92261Q12.5293 8.63452 12.3105 8.42114Q11.9697 8.08911 11.8652 7.66919Q11.8232 7.50171 11.8105 7.29077Q11.8037 7.16821 11.8037 6.91919Q11.8037 6.90088 11.8037 6.89136L11.8037 6.2998L11.8037 5.70654Q11.8037 4.9812 11.4834 4.59326Q11.1641 4.20605 10.457 4.07153Q10.4443 4.06909 10.416 4.06396Q10.2119 4.0271 10.1152 3.9751Q9.90527 3.8623 9.88281 3.62256Q9.85742 3.34058 9.74707 3.14917Q9.65039 2.98242 9.47852 2.86938Q9.32031 2.76587 9.0791 2.69434Q8.89062 2.63818 8.58008 2.58447Q8.22559 2.52319 7.77539 2.51099Q7.50195 2.50342 6.94922 2.51489Q6.51562 2.52393 6.29785 2.52222Q5.93164 2.51929 5.6377 2.49146Q5.03027 2.43335 4.42676 2.66455Q3.81934 2.89771 3.36035 3.36987Q2.87598 3.86719 2.66016 4.53076Q2.42383 5.2561 2.54395 6.08301Q2.57617 6.30737 2.63184 6.75488Q2.69531 7.26758 2.7334 7.52197L2.53516 7.55176L2.72949 7.50244Q2.7832 7.7146 2.7168 7.92334Q2.65039 8.13184 2.48438 8.27393L2.35449 8.12183L2.49023 8.26831Q1.95898 8.76147 2.21094 9.49023L2.21289 9.49341L2.21387 9.49634Q2.31055 9.80859 2.56738 10.0098Q2.8252 10.2112 3.15137 10.2297L3.15527 10.2297L3.1582 10.23Q3.44531 10.2551 3.59473 10.4146Q3.71777 10.5459 3.76855 10.8118Q3.88867 11.4583 4.17188 11.9502Q4.47559 12.479 4.9541 12.8013Q5.38672 13.0923 5.53418 13.5137Q5.59668 13.6929 5.61621 13.9175Q5.63086 14.0854 5.625 14.335Q5.61621 14.6309 5.47754 14.7651Q5.33789 14.9009 5.0459 14.8931Q4.82227 14.8877 4.36914 14.8979Q4.00098 14.9062 3.81543 14.9048Q3.50293 14.9023 3.25293 14.877Q2.84766 14.8359 2.43848 14.9653Q2.0332 15.0938 1.68945 15.3682Q1.33789 15.6494 1.10938 16.0386Q0.868164 16.4492 0.797852 16.9263L0.220703 21.0308Q0.217773 21.0537 0.209961 21.1001Q0.173828 21.3247 0.202148 21.3423Q0.456055 21.5034 0.53125 21.7705Q0.558594 21.8701 0.564453 21.9961Q0.567383 22.0649 0.5625 22.1982Q0.55957 22.2803 0.55957 22.3159Q0.561523 22.3887 0.564453 22.5347Q0.580078 23.2222 0.55957 23.5688Q0.550781 23.7251 0.583008 23.7583Q0.617188 23.7935 0.785156 23.7935Q0.870117 23.7939 0.912109 23.7769Q0.924805 23.7715 0.928711 23.7646Q0.952148 23.7266 0.946289 23.5596Q0.94043 23.3872 0.944336 23.0474Q0.946289 22.8813 0.946289 22.7988Q0.946289 22.7954 0.946289 22.7954Q0.946289 22.2593 0.96582 22.0806Q1.00293 21.7559 1.16113 21.6084Q1.31836 21.4619 1.64648 21.4463Q1.82715 21.4375 2.36621 21.4707L2.37207 21.4712L2.375 21.4717L2.37695 21.4717L2.37793 21.4717L2.37988 21.4717L2.38086 21.4717L2.38184 21.4717L2.38379 21.4722L2.38477 21.4722L2.38672 21.4722L2.3877 21.4722L2.38965 21.4722Q2.6582 21.4893 2.78418 21.6118Q2.92383 21.7471 2.91797 22.021Q2.91406 22.2471 2.91699 22.7017Q2.91992 23.3262 2.90918 23.6411Q2.90625 23.7134 2.91895 23.751Q2.92383 23.7627 2.92773 23.7661Q2.95898 23.79 3.09473 23.7881Q3.24707 23.7861 3.27441 23.7676Q3.27344 23.7681 3.27344 23.7686Q3.27539 23.7661 3.27832 23.7593Q3.29199 23.7222 3.29199 23.6436L3.29199 19.2803Q3.29199 19.2222 3.28418 19.1929Q3.28223 19.1865 3.28125 19.1841Q3.28125 19.1855 3.2832 19.187Q3.26758 19.1709 3.16016 19.1567Q3.03125 19.1392 2.96875 19.1587Q2.94629 19.1655 2.93848 19.1777Q2.91016 19.2261 2.91309 19.4639Q2.91309 19.5205 2.91309 19.5493Q2.91406 20.1538 2.89258 20.3584Q2.85352 20.7144 2.69141 20.8809Q2.52832 21.0488 2.17773 21.0889Q1.98047 21.1113 1.3916 21.1113Q1.35352 21.1113 1.33496 21.1113Q1.16016 21.1104 1.04492 21.0806Q0.890625 21.0405 0.799805 20.9419Q0.706055 20.8394 0.685547 20.6807Q0.669922 20.5601 0.696289 20.3857Q0.780273 19.8296 0.928711 18.7124Q1.0791 17.5884 1.16406 17.0269Q1.29102 16.188 1.84863 15.7231Q2.40039 15.2637 3.25977 15.2637L3.26562 15.2637L3.27148 15.2637Q3.5293 15.2788 3.78809 15.2637L3.79883 15.4634L3.77539 15.2646Q4.11328 15.2251 4.30859 15.3838Q4.47656 15.5205 4.57129 15.8511Q4.75391 16.4863 5.16797 16.9761Q5.56641 17.4463 6.11621 17.7129Q6.66602 17.9785 7.27051 17.9951Q7.89941 18.0122 8.48828 17.7559ZM13.7451 13.2549Q13.7451 13.2285 13.7441 13.1738Q13.7412 13.0474 13.7471 12.9839Q13.7598 12.8535 13.8154 12.7617Q13.9521 12.5371 14.332 12.5391Q14.709 12.541 14.8438 12.7705Q14.8975 12.8623 14.9092 12.9912Q14.9141 13.0547 14.9102 13.1782Q14.9082 13.2368 14.9082 13.2646L14.9111 15.2534L14.9004 19.2412Q14.9004 19.4644 14.9443 19.5107Q14.9873 19.5562 15.2031 19.5532Q17.958 19.5156 20.3838 19.5532Q20.6328 19.5576 20.6885 19.4976Q20.7432 19.438 20.7402 19.1816L20.7246 13.147Q20.7246 12.8398 20.8604 12.6953Q21.0049 12.541 21.3203 12.541Q21.6387 12.541 21.7832 12.6958Q21.9238 12.8467 21.9111 13.1582Q21.8984 13.4502 21.9062 14.043Q21.9111 14.3438 21.9111 14.4951Q21.9111 14.9087 21.9248 15.0342Q21.9395 15.1704 21.9717 15.2046Q22.0029 15.2363 22.1299 15.251Q22.251 15.2646 22.6514 15.2646Q22.6914 15.2646 22.7139 15.2646Q22.8281 15.2646 22.8887 15.249Q22.918 15.2412 22.9229 15.2354Q22.9268 15.23 22.9307 15.2021Q22.9365 15.1421 22.918 15.0312Q22.625 13.2515 22.3789 11.4617Q22.3594 11.3254 22.293 11.2488Q22.2295 11.1755 22.0879 11.1138Q20.833 10.5715 19.918 10.1499Q19.8516 10.1189 19.8154 10.1108Q19.8047 10.1082 19.7979 10.1082L19.7988 10.1077L19.8008 10.1074Q19.7949 10.1106 19.7871 10.1184Q19.7588 10.1472 19.7197 10.2136Q19.375 10.7969 18.8682 11.1147Q18.374 11.4236 17.8213 11.426Q17.2666 11.4282 16.7773 11.123Q16.2734 10.8086 15.9365 10.2266Q15.873 10.1143 15.8506 10.1055Q15.8525 10.1064 15.8545 10.1064Q15.8516 10.1062 15.8438 10.1074Q15.8086 10.113 15.7461 10.1421Q15.0293 10.4756 13.5811 11.1101Q13.5479 11.125 13.5293 11.1328Q13.4092 11.1863 13.3584 11.2407Q13.3066 11.2971 13.293 11.3984Q13.166 12.334 12.9531 13.5835Q12.9258 13.7466 12.9463 13.8076Q12.9678 13.8716 13.0869 13.9321L12.9971 14.1104L13.082 13.9297Q13.4492 14.1035 13.6309 14.4668Q13.8125 14.8296 13.7314 15.2275L13.5361 15.1875L13.7324 15.2227Q13.6943 15.436 13.7832 15.6211Q13.8525 15.7646 14.0986 16.0605L13.9453 16.1885L13.7451 16.1885L13.7451 13.2549L13.7451 13.2549ZM14.1455 13.2549L14.1455 13.2549L14.1455 16.7412L13.792 16.3164Q13.6543 16.1514 13.5859 16.0591Q13.4824 15.917 13.4229 15.7944Q13.2783 15.4927 13.3389 15.1528L13.3389 15.1504L13.3398 15.1479Q13.3926 14.8853 13.2734 14.6455Q13.1533 14.4062 12.9111 14.291L12.9082 14.29L12.9062 14.2886Q12.6426 14.1543 12.5684 13.937Q12.5137 13.7798 12.5586 13.5166Q12.7705 12.2734 12.8965 11.3455Q12.9268 11.1187 13.0654 10.9692Q13.1719 10.854 13.3691 10.7664L13.3711 10.7659L13.3721 10.7651L13.376 10.7637L13.3818 10.7607L13.3838 10.76L13.3848 10.7595L13.3887 10.7581L13.3945 10.7551L13.3984 10.7537L13.3994 10.7529L13.4014 10.7524L13.4033 10.7517L13.4043 10.751L13.4082 10.7495L13.4209 10.7439Q14.8643 10.1108 15.5781 9.77905Q15.8262 9.66406 16.001 9.73462Q16.0938 9.77222 16.1699 9.86084Q16.2236 9.92236 16.2832 10.0266Q16.5693 10.522 16.9893 10.7834Q17.3809 11.0278 17.8193 11.0259Q18.2588 11.0242 18.6553 10.7756Q19.0801 10.5098 19.375 10.0095Q19.5166 9.771 19.6924 9.72217Q19.8525 9.67798 20.0859 9.78662Q20.9961 10.2063 22.2471 10.7468Q22.4727 10.8447 22.5957 10.9868Q22.7393 11.1533 22.7744 11.4072Q23.0205 13.1914 23.3135 14.9673Q23.3398 15.1309 23.3281 15.2437Q23.3115 15.3965 23.2256 15.4971Q23.1396 15.5962 22.9902 15.6357Q22.8799 15.6646 22.7139 15.6646Q22.6924 15.6646 22.6514 15.6646Q22.2285 15.665 22.085 15.6484Q21.8154 15.6177 21.6846 15.4829Q21.5566 15.3501 21.5273 15.0771Q21.5107 14.9302 21.5107 14.4951Q21.5107 14.3467 21.5068 14.0483Q21.498 13.4443 21.5107 13.1411Q21.5176 12.9971 21.4912 12.9692Q21.4648 12.9414 21.3203 12.9414Q21.1787 12.9414 21.1523 12.9692Q21.125 12.998 21.125 13.1455L21.1406 19.1768Q21.1426 19.3711 21.1152 19.4971Q21.0791 19.6641 20.9814 19.7695Q20.8809 19.8789 20.7129 19.9219Q20.5791 19.9565 20.3779 19.9531Q17.958 19.9155 15.208 19.9531Q15.0254 19.9556 14.9053 19.9253Q14.75 19.8867 14.6543 19.7861Q14.5615 19.6895 14.5264 19.5342Q14.5 19.4189 14.5 19.2397L14.5107 15.2539L14.5088 13.2646Q14.5088 13.2305 14.5107 13.1655Q14.5156 13.0024 14.498 12.9722Q14.4951 12.9663 14.4795 12.96Q14.4316 12.9395 14.3301 12.939Q14.2266 12.9385 14.1758 12.9585Q14.1602 12.9648 14.1572 12.9697Q14.1396 12.998 14.1436 13.1641Q14.1455 13.2236 14.1455 13.2549ZM11.04 5.72119Q11.0361 5.2666 10.8828 5.08911Q10.7305 4.91138 10.2852 4.84644Q9.83887 4.78125 9.55176 4.55713Q9.21777 4.29565 9.16113 3.86938Q9.12695 3.61523 8.98633 3.50684Q8.86328 3.41187 8.5791 3.36694Q8.10059 3.28735 7.49902 3.271Q7.13379 3.26099 6.39844 3.27515Q5.79492 3.28662 5.49121 3.2832Q5.0752 3.27808 4.70215 3.40845Q4.33984 3.53516 4.05176 3.77759Q3.76465 4.01953 3.5791 4.35303Q3.3877 4.69629 3.32422 5.104Q3.26465 5.48584 3.30273 5.95996Q3.32617 6.2522 3.42188 6.85156Q3.51172 7.41309 3.54102 7.70752L3.3418 7.72754L3.19531 7.59131Q3.4541 7.3125 3.82324 7.16187Q4.03516 7.0752 4.45605 6.98218Q4.78613 6.90918 4.93555 6.85449Q5.24609 6.74023 5.50586 6.79272Q5.78418 6.84863 6.02148 7.0957Q6.4043 7.4978 7.10254 7.52222Q7.52441 7.54468 7.90527 7.37109Q8.28613 7.19775 8.54395 6.86768Q8.85254 6.48462 9.20801 6.42944Q9.55371 6.37573 9.96777 6.62939Q10.2402 6.79541 10.8545 7.08984Q11.1641 7.23828 11.3301 7.32129L11.2402 7.50024L11.04 7.50024L11.04 5.71948L11.04 5.72119ZM11.4404 5.71948L11.4404 7.82422L11.1504 7.67896Q10.9883 7.59741 10.6816 7.45044Q10.0498 7.14722 9.75879 6.97046Q9.46973 6.79346 9.26953 6.82471Q9.06641 6.85596 8.85938 7.11353Q8.54199 7.521 8.07129 7.73511Q7.60156 7.94946 7.08887 7.92188Q6.22754 7.89209 5.73242 7.37231Q5.58203 7.21582 5.42773 7.18481Q5.27832 7.15479 5.07324 7.23022Q4.89844 7.29395 4.54199 7.3728Q4.15527 7.4585 3.97461 7.53223Q3.6875 7.64941 3.48828 7.86353L3.18652 8.18799L3.14258 7.74731Q3.11523 7.4646 3.02734 6.91455Q2.92871 6.29956 2.9043 5.99194Q2.8623 5.47119 2.92871 5.04199Q3.00391 4.56421 3.22949 4.15869Q3.4502 3.76099 3.79492 3.47144Q4.13867 3.18188 4.57031 3.03101Q5.00977 2.8772 5.49609 2.8833Q5.79297 2.88672 6.39062 2.87524Q7.13574 2.86084 7.50977 2.87109Q8.13965 2.88818 8.64258 2.97192Q9.02734 3.03296 9.23047 3.19019Q9.50098 3.39917 9.55762 3.81616Q9.59277 4.08105 9.79883 4.24194Q10.002 4.40088 10.3428 4.45068Q10.6328 4.49292 10.8281 4.57568Q11.0498 4.66919 11.1865 4.82788Q11.3223 4.98608 11.3838 5.21899Q11.4375 5.42383 11.4404 5.71753L11.4404 5.71948ZM10.2637 8.27222Q10.2656 8.1189 10.1865 8.05005Q10.126 7.99731 9.9209 7.92578Q9.80371 7.88477 9.74512 7.85913Q9.63574 7.81152 9.55859 7.75269Q9.49023 7.7002 9.44434 7.70361Q9.38477 7.70801 9.28516 7.78809Q8.74316 8.23364 8.31641 8.45239Q7.84668 8.69312 7.39648 8.7251Q6.94922 8.75708 6.44043 8.58765Q5.98047 8.43457 5.35742 8.07642Q5.22949 8.00293 5.06934 8.0083Q4.91113 8.01343 4.76465 8.09155Q4.61914 8.16846 4.53418 8.29004Q4.4502 8.41016 4.4502 8.54346Q4.4502 8.71704 4.44727 9.06445Q4.44336 9.75586 4.4502 10.1003Q4.46094 10.5688 4.61816 11.012Q4.77637 11.4548 5.06348 11.8267Q5.35156 12.1982 5.74121 12.4619Q6.13086 12.7256 6.58301 12.855Q7.0293 12.98 7.49121 12.9561Q7.94141 12.9321 8.36719 12.7676Q8.79199 12.6035 9.15234 12.3135Q9.52148 12.0176 9.78906 11.6172Q10.1055 11.1462 10.2119 10.5342Q10.29 10.0833 10.2646 9.43774L10.2637 9.43359L10.2637 8.28296L10.2637 8.27466L10.2637 8.27222ZM10.6641 8.27466L10.6641 8.28296L10.6641 9.42969L10.4639 9.42969L10.6641 9.42139Q10.6914 10.1096 10.6064 10.6028Q10.4854 11.2988 10.1211 11.8398Q9.81934 12.291 9.40332 12.6255Q8.99414 12.9541 8.51074 13.1406Q8.02637 13.3281 7.51172 13.3555Q6.98438 13.3833 6.47266 13.2393Q5.95898 13.0928 5.5166 12.7935Q5.07422 12.4937 4.74707 12.0713Q4.4209 11.6489 4.24219 11.1458Q4.0625 10.6426 4.0498 10.1077Q4.04297 9.7583 4.04785 9.06201Q4.0498 8.71582 4.0498 8.54248Q4.05078 8.28369 4.20605 8.06055Q4.34668 7.86011 4.57715 7.73804Q4.80566 7.61694 5.05566 7.6084Q5.33008 7.59937 5.55664 7.72974Q6.14453 8.06787 6.56641 8.20825Q7 8.35254 7.36816 8.32617Q7.73633 8.30005 8.13379 8.09644Q8.52246 7.89722 9.03418 7.47705Q9.43457 7.15332 9.80176 7.43506Q9.86328 7.48169 10.0537 7.54834Q10.1816 7.59326 10.2461 7.62256Q10.3672 7.677 10.4482 7.7478Q10.668 7.93823 10.6641 8.2771L10.6641 8.27466ZM20.3184 3.50122Q20.3174 3.44873 20.3193 3.33813Q20.3252 2.89819 20.2471 2.87573Q20.1572 2.84961 20.0127 2.95801Q19.8516 3.07837 19.7178 3.29199Q19.6377 3.41748 19.542 3.53027Q19.3906 3.7124 19.252 3.81421Q19.0469 3.9646 18.8311 3.97876Q18.6689 3.98999 18.332 4.02954Q17.8877 4.08154 17.666 4.09009Q17.2842 4.10498 16.9912 4.0415Q16.2363 3.87769 15.8037 3.13184L15.9766 3.03149L15.8193 3.15552Q15.7607 3.08032 15.6768 3.03394L15.668 3.02905L15.6592 3.02295Q15.4932 2.90674 15.4023 2.8689Q15.3691 2.85522 15.3516 2.85327Q15.3574 2.854 15.3701 2.84814Q15.3857 2.84131 15.3916 2.83276Q15.3848 2.84326 15.376 2.8728Q15.3496 2.96362 15.3418 3.16211Q15.29 4.48584 15.3271 5.89087L15.3271 5.8938L15.3271 5.89673Q15.3252 6.39258 15.5137 6.85156Q15.7021 7.3103 16.0518 7.66235Q16.4014 8.0144 16.8594 8.20581Q17.3174 8.39722 17.8135 8.39893Q18.3096 8.40088 18.7686 8.21265Q19.2285 8.02441 19.5801 7.67505Q19.9326 7.32568 20.124 6.86816Q20.3154 6.41064 20.3174 5.91479L20.3174 5.91138L20.3174 5.90796Q20.3281 5.63745 20.3213 5.08667Q20.3184 4.81714 20.3184 4.68188Q20.3184 4.55029 20.3203 4.28662Q20.3232 3.76245 20.3184 3.50024L20.3184 3.50122ZM20.7188 3.49365Q20.7227 3.76025 20.7197 4.28882Q20.7188 4.55103 20.7188 4.68188Q20.7188 4.81519 20.7217 5.08228Q20.7275 5.64258 20.7178 5.92285L20.5176 5.91553L20.7178 5.91626Q20.7158 6.4917 20.4932 7.02271Q20.2705 7.55347 19.8623 7.95898Q19.4531 8.3645 18.9209 8.58276Q18.3877 8.80103 17.8115 8.79907Q17.2363 8.79688 16.7051 8.57471Q16.1738 8.35254 15.7676 7.94434Q15.3623 7.53589 15.1436 7.00342Q14.9248 6.47095 14.9268 5.89526L15.127 5.896L14.9268 5.90137Q14.8896 4.48315 14.9424 3.14648Q14.9521 2.89917 14.9922 2.76147Q15.0527 2.55176 15.208 2.48267Q15.3564 2.41675 15.5557 2.49951Q15.6865 2.55396 15.8887 2.69531L15.7734 2.85913L15.8711 2.68433Q16.0244 2.76953 16.1338 2.90771L16.1426 2.9187L16.1494 2.93115Q16.3359 3.25342 16.582 3.43311Q16.7969 3.59009 17.0762 3.65063Q17.3193 3.70337 17.6504 3.69043Q17.8574 3.68237 18.2861 3.63208Q18.6318 3.59155 18.8057 3.57959Q18.9902 3.56763 19.2373 3.27173Q19.3154 3.17993 19.3789 3.0791Q19.5527 2.80273 19.7725 2.63794Q20.0771 2.40991 20.3584 2.49146Q20.6221 2.56738 20.6924 2.89062Q20.7236 3.03491 20.7188 3.34351Q20.7178 3.44727 20.7188 3.49243L20.7188 3.49365ZM6.38867 14.7095Q6.38867 15.0234 6.37402 15.1445Q6.34766 15.3623 6.23926 15.4766Q6.13086 15.5928 5.91504 15.6294Q5.79492 15.6499 5.48535 15.6631Q5.47949 15.6636 5.4668 15.6641Q5.30762 15.6709 5.2959 15.6797Q5.31543 15.665 5.31836 15.6484Q5.31348 15.6812 5.33691 15.7612Q5.41797 16.0532 5.61328 16.3169Q5.80566 16.5771 6.08301 16.7759Q6.3623 16.9766 6.68652 17.0854Q7.02148 17.1978 7.35938 17.1973Q7.69824 17.1963 8.03418 17.0825Q8.36035 16.9717 8.63965 16.7695Q8.91699 16.5693 9.10645 16.3101Q9.29785 16.0469 9.37012 15.7603Q9.38672 15.6924 9.3877 15.6582Q9.3877 15.6509 9.3877 15.6489Q9.38965 15.6562 9.39453 15.6646Q9.40039 15.6748 9.4082 15.6812L9.40723 15.6812Q9.37793 15.6689 9.31055 15.6611Q8.95215 15.6216 8.82227 15.5913Q8.58984 15.5366 8.47754 15.4062Q8.36816 15.2788 8.34277 15.0381Q8.3291 14.9092 8.3291 14.5361L8.3291 14.5327Q8.3291 14.4868 8.32715 14.3931Q8.32422 14.1948 8.3291 14.0913Q8.33203 14.0327 8.32422 14.001Q8.32227 13.9941 8.32129 13.9917Q8.32324 13.9956 8.32812 14Q8.33398 14.0059 8.34082 14.0083L8.33984 14.0088Q8.31152 14.0059 8.25684 14.0205Q7.77539 14.1548 7.22656 14.1274Q6.75781 14.104 6.14062 13.9536L6.18848 13.7593L6.38867 13.7593L6.38867 14.7095ZM5.98828 14.7095L5.98828 13.5044L6.23535 13.5649Q6.81543 13.7065 7.24609 13.728Q7.73047 13.752 8.1543 13.6338Q8.43848 13.5586 8.59766 13.7051Q8.74219 13.8374 8.72852 14.1123Q8.72363 14.2017 8.72754 14.3862Q8.72852 14.4834 8.72852 14.5327L8.72852 14.5361Q8.72852 14.8882 8.74023 14.9961Q8.75293 15.1123 8.78125 15.1455Q8.80762 15.1768 8.91406 15.2017Q9.02051 15.2266 9.35547 15.2637Q9.63965 15.2959 9.7373 15.4585Q9.79102 15.5479 9.78809 15.6685Q9.78613 15.7466 9.75781 15.8584Q9.66602 16.2197 9.42969 16.5454Q9.20312 16.856 8.87402 17.0938Q8.5459 17.3311 8.16309 17.4609Q7.76465 17.5962 7.36035 17.5972Q6.95605 17.5981 6.55957 17.4648Q6.17773 17.3364 5.84961 17.1006Q5.52148 16.8652 5.29199 16.5547Q5.05273 16.2319 4.95215 15.8726Q4.84863 15.5122 5.05859 15.3579Q5.13867 15.2983 5.26562 15.2788Q5.32422 15.27 5.44922 15.2646Q5.46191 15.2642 5.46777 15.2637Q5.9082 15.2446 5.94824 15.2026Q5.98828 15.1597 5.98828 14.7095ZM18.7148 2.68115Q19.0264 2.15234 19.5811 1.88989Q19.6631 1.85107 19.6943 1.81982Q19.6982 1.81616 19.7002 1.81323L19.7002 1.81348Q19.6973 1.82031 19.6963 1.82959Q19.6953 1.83521 19.6963 1.83716Q19.6934 1.82861 19.6855 1.81396Q19.6592 1.76758 19.5908 1.69604Q19.2822 1.37427 18.8496 1.18896Q18.4297 1.00903 17.958 0.984619Q17.4854 0.960449 17.0449 1.09692Q16.5889 1.23804 16.2383 1.53027Q16.0303 1.70312 15.9697 1.76709Q15.9395 1.79956 15.9297 1.81714Q15.9336 1.8103 15.9326 1.79224Q15.9316 1.77295 15.9268 1.76465Q15.9365 1.77954 15.9678 1.80664Q16.0312 1.86108 16.252 2.00586Q16.2686 2.01733 16.3057 2.04077Q16.4512 2.13452 16.5205 2.19116Q16.6543 2.29907 16.7207 2.41675L16.7217 2.41919L16.7227 2.42188Q16.8867 2.73535 17.1543 2.83716Q17.3984 2.93066 17.7871 2.87158L17.793 2.87061L17.7988 2.87012Q17.9082 2.86011 18.1211 2.87109Q18.3818 2.88452 18.4863 2.85791Q18.6309 2.82104 18.7168 2.6792L18.7148 2.68115ZM19.0586 2.88623Q18.8877 3.16821 18.585 3.24536Q18.4736 3.27393 18.332 3.27686Q18.2529 3.27832 18.1006 3.27051Q17.915 3.26123 17.835 3.26831L17.8164 3.06934L17.8467 3.26685Q17.3545 3.34204 17.0117 3.21094Q16.6025 3.05493 16.3682 2.60693L16.5459 2.5144L16.3711 2.61206Q16.3428 2.56152 16.2695 2.5022Q16.2158 2.45923 16.0889 2.3772Q16.0508 2.35254 16.0312 2.33984Q15.791 2.18115 15.708 2.1106Q15.54 1.96655 15.5332 1.80908Q15.5264 1.6543 15.6787 1.49268Q15.7559 1.41089 15.9824 1.22314Q16.3936 0.879639 16.9268 0.714844Q17.4355 0.557129 17.9785 0.585205Q18.5215 0.613037 19.0078 0.821289Q19.5146 1.03882 19.8789 1.41943Q20.1123 1.66235 20.0947 1.86426Q20.0742 2.09814 19.7529 2.25146Q19.3086 2.46118 19.0596 2.88403L19.0586 2.88623ZM21.9033 21.186Q21.9033 21.2007 21.9033 21.2314Q21.9023 21.3398 21.9072 21.3818Q21.9102 21.4023 21.9131 21.4092Q21.9043 21.3882 21.8789 21.3691Q21.873 21.3652 21.8594 21.3638Q21.8545 21.3633 21.8496 21.3643L21.8516 21.3633Q21.876 21.3545 21.9521 21.2979Q22.0029 21.2598 22.0303 21.2422L22.0322 21.2412L22.0342 21.2397Q22.3301 21.0576 22.4971 20.7524Q22.6631 20.4473 22.6562 20.1001L22.6562 20.0972L22.6562 20.0947Q22.6592 19.6401 22.6562 18.7305Q22.6523 17.3447 22.666 16.6514Q22.668 16.5405 22.6455 16.4868Q22.6377 16.4692 22.6289 16.4644Q22.5928 16.4443 22.415 16.4556Q22.2939 16.4634 22.2305 16.4604Q22.2041 16.4595 22.1533 16.4561Q21.96 16.4448 21.9209 16.4663Q21.9111 16.4712 21.9053 16.4883Q21.8838 16.542 21.8896 16.6553Q21.9199 17.1963 21.9082 18.2769Q21.9033 18.7085 21.9033 18.9238L21.9033 21.186ZM21.5039 21.186L21.5039 18.9238Q21.5039 18.7065 21.5078 18.2725Q21.5205 17.2056 21.4893 16.6763Q21.4678 16.2573 21.7285 16.1152Q21.8281 16.061 21.9697 16.0527Q22.04 16.0488 22.1768 16.0571Q22.2246 16.0601 22.248 16.061Q22.2891 16.0625 22.3896 16.0562Q22.5195 16.0479 22.5869 16.0518Q22.7236 16.0601 22.8213 16.1138Q23.0732 16.252 23.0654 16.6587Q23.0527 17.3481 23.0566 18.7295Q23.0586 19.6406 23.0557 20.0972L22.8564 20.0957L23.0557 20.0918Q23.0654 20.5454 22.8477 20.9438Q22.6309 21.3423 22.2441 21.5806L22.1387 21.4102L22.248 21.5781Q22.2314 21.5884 22.1914 21.6187Q22.0684 21.71 21.9883 21.7393Q21.7998 21.8081 21.6426 21.6924Q21.5332 21.6128 21.5107 21.4316Q21.502 21.3628 21.5029 21.2275Q21.5039 21.1992 21.5039 21.186ZM18.7783 9.40015Q18.7861 9.32764 18.7832 9.29419Q18.7822 9.28906 18.7822 9.28589L18.7822 9.28687Q18.7871 9.29956 18.7979 9.31274Q18.8232 9.3418 18.8467 9.34302Q18.8184 9.34155 18.748 9.36133Q17.9951 9.57959 17.2227 9.44238Q17.1475 9.42871 17.0049 9.37378Q16.8779 9.32446 16.8379 9.32129Q16.832 9.3208 16.8301 9.32104Q16.833 9.32056 16.8389 9.31836Q16.8506 9.31299 16.8535 9.30811Q16.8164 9.37183 16.8555 9.49048Q16.8916 9.60059 17.0146 9.79346L17.0166 9.79565L17.0176 9.79761Q17.1426 10.0039 17.3516 10.1243Q17.5615 10.2449 17.8027 10.2498L17.7988 10.4497L17.7949 10.2498Q18.165 10.2424 18.457 9.98462Q18.5938 9.8645 18.6768 9.71289Q18.7607 9.56079 18.7783 9.40063L18.7783 9.40015ZM19.1758 9.44336Q19.1504 9.68359 19.0273 9.90601Q18.9102 10.1184 18.7217 10.2847Q18.5332 10.4512 18.3018 10.5457Q18.0586 10.6445 17.8027 10.6497L17.7988 10.6499L17.7949 10.6497Q17.4502 10.6428 17.1523 10.4709Q16.8545 10.2993 16.6758 10.0051L16.8467 9.90137L16.6777 10.0093Q16.5273 9.77368 16.4756 9.61548Q16.3799 9.32471 16.5117 9.10083Q16.6309 8.90356 16.8701 8.92261Q16.9678 8.93042 17.1494 9.00073Q17.2559 9.04199 17.292 9.04834Q17.9736 9.16943 18.6387 8.97632Q18.957 8.88647 19.0996 9.04956Q19.1699 9.12988 19.1816 9.25781Q19.1885 9.3313 19.1758 9.44385L19.1758 9.44336ZM12.2842 15.2603Q12.4424 15.2603 12.5078 15.2148Q12.5566 15.1807 12.5527 15.0796Q12.5488 14.9727 12.4941 14.9365Q12.4258 14.8921 12.2666 14.8931Q12.21 14.8931 12.1006 14.8921Q11.7871 14.8887 11.6357 14.9023L11.626 14.9028L11.6172 14.9028Q11.583 14.9028 11.5518 14.9165Q11.5205 14.9297 11.4971 14.9546Q11.4746 14.9795 11.4629 15.0112Q11.4512 15.0435 11.4541 15.0771L11.4541 15.084L11.4541 15.0908Q11.4541 15.1729 11.4932 15.207Q11.54 15.2485 11.6494 15.2554Q11.7344 15.2617 11.9053 15.2593Q11.9785 15.2583 12.0156 15.2583L12.2158 15.2583L12.2158 15.4604L12.0156 15.4604L12.0156 15.2603L12.2842 15.2603ZM12.2842 15.6602L11.8154 15.6602L11.8154 15.458L12.0156 15.458L12.0156 15.6582Q11.9814 15.6582 11.9111 15.6592Q11.7217 15.6621 11.625 15.6543Q11.3789 15.6392 11.2285 15.5068Q11.0547 15.353 11.0547 15.0908L11.2539 15.0908L11.0547 15.1045Q11.0469 14.9873 11.0859 14.877Q11.126 14.7666 11.2061 14.6812Q11.2861 14.5957 11.3936 14.5493Q11.501 14.5024 11.6182 14.5029L11.6182 14.7031L11.5996 14.5039Q11.7715 14.4883 12.1055 14.4922Q12.2119 14.4932 12.2627 14.4932Q12.5439 14.4907 12.7139 14.6021Q12.9414 14.7515 12.9531 15.0654Q12.9639 15.3848 12.7354 15.5435Q12.5674 15.6602 12.2842 15.6602ZM14.1045 4.46265Q13.9541 4.45776 13.8652 4.55029Q13.7725 4.64648 13.7725 4.81348Q13.7686 5.00366 13.8662 5.10791Q13.96 5.20728 14.126 5.20166Q14.166 5.2002 14.1768 5.19482Q14.1602 5.20337 14.1514 5.22266Q14.1543 5.21558 14.1455 5.11768Q14.1348 5.00464 14.1387 4.94141Q14.1465 4.80981 14.208 4.71265L14.5762 4.13135L14.5762 5.23267L14.2529 4.97949Q14.1348 4.88647 14.1221 4.7251Q14.1162 4.65723 14.1357 4.53516Q14.1445 4.47437 14.1455 4.45215Q14.1455 4.44214 14.1455 4.4375Q14.1455 4.44019 14.1475 4.44556Q14.1572 4.46606 14.1719 4.47363Q14.1553 4.46509 14.1025 4.46265L14.1045 4.46265ZM14.1201 4.06299Q14.4219 4.0769 14.5137 4.2832Q14.5488 4.3623 14.5449 4.46533Q14.5439 4.51172 14.5303 4.59668Q14.5186 4.67212 14.5205 4.69312Q14.5205 4.69507 14.5205 4.69531Q14.5195 4.69165 14.5176 4.6875Q14.5117 4.67358 14.5 4.66455L14.377 4.82202L14.1768 4.82202L14.1768 4.81982L14.377 4.81982L14.5459 4.927Q14.5312 4.94971 14.543 5.08032Q14.5518 5.16724 14.5508 5.21289Q14.5498 5.31201 14.5156 5.38647Q14.4248 5.59033 14.1396 5.60156Q13.792 5.61328 13.5742 5.38184Q13.3652 5.15869 13.3721 4.81348Q13.3721 4.48535 13.5762 4.27319Q13.7891 4.052 14.1182 4.06299L14.1201 4.06299ZM21.5078 4.37476Q21.4902 4.78101 21.5078 5.27173L21.5078 5.27515L21.5078 5.27881Q21.5078 5.26685 21.498 5.24951Q21.4844 5.22607 21.4629 5.2146Q21.457 5.21167 21.4531 5.21045L21.4541 5.21069Q21.4639 5.21167 21.4795 5.21021Q21.6631 5.19116 21.7559 5.104Q21.8477 5.01855 21.8564 4.85474Q21.873 4.51489 21.5254 4.44971L21.5625 4.25317L21.5518 4.45288Q21.4648 4.44824 21.4463 4.45435Q21.4678 4.44702 21.4863 4.42334Q21.5068 4.39771 21.5078 4.37378L21.5078 4.37476ZM21.1084 4.35864Q21.1123 4.25293 21.1719 4.17651Q21.2275 4.10547 21.3203 4.07471Q21.4102 4.04492 21.5732 4.05347L21.5859 4.0542L21.5996 4.05664Q21.9043 4.11377 22.0781 4.31104Q22.2734 4.53223 22.2559 4.87524Q22.2393 5.20068 22.0293 5.39648Q21.8369 5.5752 21.5205 5.60815Q21.3779 5.6228 21.2744 5.56787Q21.1074 5.47925 21.1074 5.27881L21.3076 5.27881L21.1084 5.28589Q21.0898 4.77954 21.1084 4.35767L21.1084 4.35864ZM3.24707 8.73877Q3.08984 8.73877 3.01074 8.82764Q2.92773 8.9209 2.93164 9.09766Q2.93555 9.27295 3.02246 9.36157Q3.10547 9.44653 3.26367 9.44092Q3.3125 9.43896 3.32812 9.4314Q3.31348 9.43848 3.30469 9.45703Q3.30273 9.46167 3.30176 9.46338Q3.30273 9.45801 3.30371 9.44727Q3.30371 9.42456 3.29785 9.36108Q3.28711 9.25 3.29102 9.18774Q3.2998 9.05664 3.36523 8.96021L3.53027 9.07202L3.41406 9.23462Q3.29004 9.14575 3.27539 8.98291Q3.26953 8.91626 3.28711 8.7959Q3.2959 8.73608 3.29688 8.71484Q3.29688 8.70654 3.2959 8.70337Q3.29688 8.7085 3.30078 8.71606Q3.3125 8.7395 3.3291 8.74634Q3.30859 8.73804 3.24902 8.73853L3.24707 8.73877ZM3.24512 8.33862Q3.55762 8.33496 3.6582 8.53687Q3.69824 8.61694 3.69629 8.7229Q3.69531 8.76978 3.68262 8.85498Q3.67188 8.92773 3.67383 8.94678Q3.67188 8.927 3.64746 8.90942L3.80469 9.02246L3.69629 9.18359Q3.68457 9.2019 3.69629 9.32324Q3.7041 9.40967 3.70312 9.45557Q3.70117 9.55664 3.66406 9.63257Q3.56738 9.82983 3.27832 9.84058Q2.94336 9.85254 2.73633 9.64136Q2.53906 9.43994 2.53223 9.10669Q2.52441 8.77271 2.71191 8.56177Q2.91016 8.33862 3.24707 8.33862L3.24512 8.33862ZM11.4688 9.43628Q11.6104 9.45044 11.6934 9.36572Q11.7832 9.27417 11.7871 9.10425Q11.792 8.93604 11.71 8.84131Q11.6299 8.74878 11.4727 8.74048Q11.418 8.73755 11.4004 8.74414Q11.4189 8.73706 11.4316 8.71411Q11.4346 8.70801 11.4355 8.70459Q11.4346 8.70923 11.4346 8.71948Q11.4336 8.74219 11.4395 8.80591Q11.4473 8.90039 11.4453 8.9519Q11.4404 9.06445 11.3945 9.14746L11.2197 9.04932L11.4199 9.04932L11.4199 9.05029L11.2197 9.05029L11.3809 8.93237Q11.4521 9.02856 11.4551 9.16504Q11.457 9.22656 11.4414 9.33813Q11.4268 9.43774 11.4307 9.448Q11.4248 9.43213 11.4121 9.42456Q11.4248 9.43188 11.4678 9.43628L11.4688 9.43628ZM11.4287 9.83447Q11.1406 9.80591 11.0586 9.59302Q11.0283 9.51538 11.0312 9.41504Q11.0332 9.36841 11.0449 9.28174Q11.0566 9.20361 11.0557 9.17578Q11.0557 9.16479 11.0537 9.16016Q11.0547 9.16357 11.0586 9.16846L11.0195 9.11572L11.0195 8.99683L11.0459 8.95093Q11.0498 8.94336 11.041 8.84155Q11.0332 8.75391 11.0342 8.70703Q11.0381 8.60229 11.0791 8.52515Q11.1865 8.32422 11.4932 8.34106Q11.8213 8.3584 12.0127 8.57959Q12.1963 8.7915 12.1875 9.11499Q12.1787 9.44214 11.9785 9.64575Q11.7617 9.86768 11.4287 9.83423L11.4287 9.83447Z" fill="#FA8B02" fill-opacity="1.000000" fill-rule="evenodd"/>
			<path id="Vector" d="M17.418 22.832C17.418 22.6006 17.4258 22.3691 17.418 22.1372C17.4053 21.8628 17.418 21.6763 17.7969 21.6655C18.207 21.6538 18.2188 21.8584 18.2129 22.1548C18.2021 22.6543 18.1973 23.1543 18.2129 23.6533C18.2217 23.9634 18.0488 23.9893 17.8047 23.9912C17.5615 23.9937 17.3965 23.9331 17.417 23.6348C17.4316 23.3687 17.418 23.1006 17.418 22.832Z" fill="#FA8B02" fill-opacity="1.000000" fill-rule="nonzero"/>
			<path id="Vector" d="M17.2178 22.1455Q17.2119 22.0098 17.2197 21.9307Q17.2324 21.7954 17.2881 21.7002Q17.3105 21.6636 17.3379 21.6328Q17.4824 21.4746 17.791 21.4658Q18.1162 21.4561 18.2725 21.6143Q18.3057 21.6479 18.3311 21.6895Q18.3916 21.7871 18.4072 21.9297Q18.416 22.0112 18.4121 22.1592Q18.3936 23.0288 18.4121 23.647Q18.4189 23.895 18.2998 24.0312Q18.2607 24.0752 18.21 24.1074Q18.125 24.1606 18.0029 24.1792Q17.9277 24.1904 17.8066 24.1914Q17.5352 24.1938 17.3916 24.0854Q17.3457 24.0513 17.3125 24.0078Q17.2012 23.8643 17.2178 23.6211Q17.2266 23.4512 17.2207 23.0972Q17.2178 22.9214 17.2178 22.832Q17.2178 22.7539 17.2197 22.5986Q17.2227 22.2954 17.2178 22.1455ZM17.418 22.832C17.418 22.7549 17.4189 22.6777 17.4199 22.6006C17.4209 22.4463 17.4229 22.292 17.418 22.1372C17.4053 21.8628 17.418 21.6763 17.7969 21.6655C18.207 21.6538 18.2188 21.8584 18.2129 22.1548C18.2021 22.6543 18.1973 23.1543 18.2129 23.6533C18.2217 23.9634 18.0488 23.9893 17.8047 23.9912C17.5615 23.9937 17.3965 23.9331 17.417 23.6348C17.4268 23.4551 17.4238 23.2749 17.4209 23.0938C17.4199 23.0068 17.418 22.9194 17.418 22.832Z" fill="#FA8B02" fill-opacity="1.000000" fill-rule="evenodd"/>
		</g>
	</g>
</svg>
