<svg width="24.000000" height="24.000000" viewBox="0 0 24 24" fill="none" xmlns="http://www.w3.org/2000/svg" xmlns:xlink="http://www.w3.org/1999/xlink">
	<desc>
			Created with Pixso.
	</desc>
	<defs>
		<clipPath id="clip201_2028">
			<rect id="icon_driver" width="24.000000" height="24.000000" fill="white" fill-opacity="0"/>
		</clipPath>
	</defs>
	<rect id="icon_driver" width="24.000000" height="24.000000" fill="#FFFFFF" fill-opacity="0"/>
	<g clip-path="url(#clip201_2028)">
		<path id="Vector" d="M12.001 23.9995L2.30176 23.9995C1.46777 23.9995 1.25879 23.7544 1.20801 22.916C1.10938 21.1794 1.63672 19.7058 2.9248 18.5127C3.44629 18.031 4.06348 17.72 4.69727 17.4302C5.78809 16.9324 6.91699 16.5222 8.07227 16.2036C8.42578 16.0994 8.60742 15.9294 8.66797 15.5852C8.72168 15.2722 8.7959 14.9729 8.85254 14.6663C9.01074 13.7903 8.89844 13.0466 8.05469 12.5044C7.45508 12.1184 7.16504 11.4907 7.20703 10.7544C7.22266 10.4915 7.13379 10.3623 6.88086 10.2568C6.06445 9.91797 5.62109 9.29004 5.62988 8.39624C5.63477 7.52856 6.05566 6.90479 6.8584 6.57422C7.11621 6.46997 7.16504 6.35938 7.12207 6.08203C7.01758 5.39771 6.75977 4.87744 6.04102 4.66772C5.81152 4.60205 5.60352 4.45923 5.39062 4.33936C4.76562 3.98975 4.41211 3.45264 4.41016 2.73413C4.41016 1.9917 4.77441 1.44189 5.42969 1.09985C6.36816 0.608643 7.38965 0.393799 8.42383 0.25293C11.1455 -0.116211 13.8623 -0.0983887 16.5664 0.425049C17.251 0.548584 17.915 0.767578 18.5391 1.07593C19.2178 1.42017 19.6045 1.9707 19.6035 2.73511C19.6035 3.47681 19.2285 4.02002 18.5762 4.36646C18.2236 4.5542 17.8711 4.74487 17.5059 4.90454C17.3838 4.94873 17.2764 5.02563 17.1953 5.12695C17.1143 5.22803 17.0625 5.34961 17.0459 5.47803C16.9971 5.76807 16.8369 6.06641 16.874 6.3374C16.9102 6.60864 17.3145 6.59717 17.5322 6.75464C18.1416 7.2063 18.4316 7.79761 18.3809 8.55273C18.3271 9.33276 17.9287 9.90845 17.2207 10.2119C16.8916 10.3528 16.7861 10.5144 16.7988 10.8596C16.8262 11.5542 16.4658 12.0684 15.9707 12.5283C15.6572 12.812 15.1816 12.9819 15.1357 13.4744C15.0547 14.3083 15.167 15.1497 15.4629 15.9336C15.5439 16.1421 15.7695 16.137 15.9453 16.1931C17.3369 16.6323 18.7354 17.063 20.0127 17.7847C22.4443 19.1594 22.9453 21.1221 22.7734 23.2852C22.7344 23.7837 22.3867 23.9976 21.9072 23.9995C20.8984 23.9995 19.8896 23.9995 18.8828 23.9995L12.001 23.9995ZM7.21484 7.29395C6.62012 7.56616 6.38867 7.96338 6.4082 8.49023C6.42578 8.99805 6.8252 9.51636 7.3252 9.55396C7.9707 9.60303 8.05566 9.96265 8.00488 10.4685C7.96191 10.7625 8.00293 11.0625 8.12109 11.3347C8.24023 11.6072 8.43164 11.8408 8.67578 12.01C9.08496 12.3062 9.46387 12.6411 9.80762 13.0103C10.5381 13.832 11.4248 14.1418 12.5078 14.0073C12.8682 13.9634 13.1826 13.8862 13.4561 13.6443C14.0557 13.1155 14.6396 12.5669 15.2676 12.0737C15.8262 11.6345 16.082 11.1057 16.0039 10.405C15.9521 9.93042 16.0576 9.6145 16.6445 9.56445C17.1729 9.52051 17.5674 9.00317 17.6064 8.47876C17.6426 8.00415 17.3574 7.58057 16.8525 7.36694C16.7578 7.56396 16.8223 7.77271 16.8037 7.97388C16.7812 8.21387 16.668 8.37427 16.4199 8.39111C16.1719 8.40771 16.0371 8.24609 16.0156 8.00732C15.9932 7.81714 15.9902 7.62524 16.0068 7.43457C16.0557 7.0249 15.9023 6.94336 15.5039 6.99658C13.2617 7.29688 10.9902 7.30859 8.74512 7.03198C8.01465 6.94458 8.01465 6.94336 8.00391 7.70996C8.00488 7.8291 7.99609 7.948 7.97949 8.06567C7.96484 8.15601 7.91895 8.23828 7.84961 8.29761C7.78027 8.35693 7.69141 8.38965 7.60059 8.38965C7.50879 8.38965 7.4209 8.35693 7.35156 8.29761C7.28125 8.23828 7.23535 8.15601 7.22168 8.06567C7.20508 7.80859 7.20312 7.55103 7.21484 7.29395ZM18.792 2.72168C18.792 2.271 18.5498 1.97705 18.166 1.78296C17.666 1.53857 17.1357 1.35962 16.5898 1.25122C14.0352 0.696289 11.457 0.700439 8.87207 0.991455C7.83789 1.10815 6.80957 1.3042 5.8623 1.77051C5.23633 2.0835 5.00195 2.729 5.35645 3.23682C5.75488 3.80737 6.44336 3.9502 7.02539 4.23608C7.08398 4.26416 7.21191 4.17334 7.29492 4.11914C7.8584 3.77148 8.48633 3.54077 9.1416 3.44116C10.7432 3.14917 12.3594 3.15649 13.9668 3.30566C14.958 3.39746 15.9277 3.58521 16.7676 4.17456C16.8223 4.21558 16.8896 4.23853 16.958 4.23999C17.0273 4.24146 17.0947 4.22144 17.1523 4.18286C17.5361 3.98267 17.9297 3.79907 18.3076 3.58618C18.4609 3.50171 18.5879 3.37598 18.6738 3.22314C18.7598 3.07031 18.8008 2.89673 18.793 2.72168L18.792 2.72168ZM11.9971 6.39282C13.2109 6.43872 14.4268 6.36035 15.625 6.15918C15.8047 6.12891 16 6.14038 16.1094 5.92358C16.54 5.07251 16.3975 4.70947 15.4932 4.41235C15.3779 4.37036 15.2617 4.33545 15.1426 4.30786C13.0762 3.89917 10.9502 3.89917 8.88477 4.30786C8.64648 4.35425 8.41504 4.43237 8.19727 4.54053C7.95508 4.66357 7.57129 4.72314 7.71387 5.14331C7.84961 5.54395 7.71387 6.09131 8.41504 6.177C9.60938 6.32593 10.7959 6.43335 11.9971 6.39282ZM12.4043 20.97C12.4043 20.6748 12.4043 20.3796 12.4043 20.0845C12.4043 19.0864 12.8887 18.7568 13.8135 19.1553C15.415 19.8435 16.4014 21.0513 16.7158 22.7678C16.7891 23.1685 16.9814 23.2373 17.3135 23.1924C17.7539 23.134 17.4883 22.8242 17.5039 22.626C17.4961 22.4875 17.4668 22.3511 17.418 22.2214C17.1035 20.981 16.374 19.886 15.3496 19.1194C14.3252 18.3525 13.0693 17.9604 11.79 18.0083C10.5117 18.0564 9.28809 18.5415 8.32422 19.3828C7.36035 20.2244 6.71484 21.3708 6.49414 22.6313C6.40527 23.1465 6.53711 23.2788 7.01562 23.1965C7.3291 23.1423 7.25098 22.8835 7.28906 22.7095C7.68359 20.9209 8.72656 19.6934 10.4453 19.0654C11.1152 18.8203 11.582 19.1624 11.6035 19.877C11.6182 20.3462 11.6035 20.8154 11.6035 21.2837C11.6035 21.8647 11.7197 22.478 11.082 22.8545C11.0586 22.8657 11.0371 22.8818 11.0195 22.9016C11.001 22.9214 10.9883 22.9443 10.9795 22.9695C10.9707 22.9944 10.9668 23.021 10.9688 23.0474C10.9697 23.0737 10.9766 23.0996 10.9883 23.1235C11.0518 23.2278 11.1738 23.1924 11.2734 23.1934C11.7246 23.1934 12.1768 23.1997 12.6289 23.1934C12.7607 23.1934 12.9414 23.259 13.0107 23.1194C13.0957 22.9482 12.9307 22.8064 12.8135 22.7407C12.4189 22.5071 12.3721 22.1558 12.3965 21.7532C12.4189 21.4924 12.4043 21.2307 12.4043 20.97ZM6.48828 17.6982L6.38379 17.594C5.78418 17.8525 5.16797 18.0811 4.58691 18.376C2.7793 19.2927 1.92383 20.7749 2 22.8054C2.01074 23.0869 2.07812 23.2102 2.38086 23.2048C3.35156 23.1914 4.32324 23.1965 5.29395 23.2048C5.52051 23.2048 5.63281 23.1516 5.6582 22.8921C5.70703 22.3555 5.83301 21.8286 6.03125 21.3276C6.12109 21.1045 6.09375 21.0032 5.83496 20.9241C5.01172 20.6716 4.8584 20.2126 5.32715 19.4805C5.71191 18.8831 6.10254 18.2915 6.48828 17.6982ZM17.4922 17.6514C17.9092 18.301 18.3125 18.9028 18.6992 19.5107C19.1436 20.2107 18.9775 20.679 18.1855 20.9209C17.9482 20.9929 17.873 21.071 17.9688 21.314C18.1719 21.8137 18.2979 22.3411 18.3438 22.8784C18.3691 23.1726 18.5156 23.2017 18.749 23.1997C19.7021 23.1934 20.6562 23.1902 21.6094 23.1997C21.8965 23.1997 21.9912 23.1111 22.0049 22.8137C22.1416 19.9688 20.2861 18.3447 17.4922 17.6514ZM9.73145 14.1001C9.65332 14.7363 9.60352 15.3411 9.40918 15.9199C9.36914 16.041 9.36328 16.1672 9.51367 16.2246C10.3252 16.53 11.1357 16.8347 11.9502 17.1309C12.0352 17.1455 12.123 17.1331 12.2012 17.0955C12.9316 16.8242 13.6611 16.5479 14.3916 16.2725C14.5264 16.2214 14.668 16.1609 14.6094 15.9805C14.4111 15.3777 14.3652 14.7437 14.2656 14.1116C12.7461 15.1045 11.2695 15.1221 9.73145 14.1001ZM13.2119 21.0137C13.2588 21.3267 13.1074 21.7134 13.291 22.043C13.9463 23.2029 13.9551 23.1975 15.3174 23.1902C15.4043 23.1902 15.4922 23.1829 15.5771 23.1902C15.916 23.2246 16 23.0859 15.9209 22.7617C15.623 21.5498 14.9463 20.6309 13.8428 20.0417C13.2461 19.7224 13.2168 19.7507 13.2168 20.4431L13.2119 21.0137ZM10.79 21.0972C10.79 20.6978 10.7842 20.4202 10.79 20.1438C10.7969 19.8674 10.6914 19.8081 10.4473 19.9197C9.14844 20.4963 8.37402 21.4924 8.06836 22.8691C8.02148 23.084 8.08496 23.1987 8.32324 23.1965C8.80762 23.1965 9.29297 23.1965 9.77734 23.1965C9.88184 23.1965 10.0127 23.2048 10.0508 23.0923C10.293 22.3821 11.1201 21.8794 10.7959 21.0972L10.79 21.0972ZM8.51465 18.177C8.30566 18.0007 8.08887 17.8704 7.93652 17.6887C7.71191 17.4207 7.58691 17.4573 7.41504 17.741C7.00684 18.4043 6.56152 19.0457 6.14746 19.7068C6.07422 19.8237 5.81055 19.9822 6.0498 20.1189C6.24707 20.2314 6.51758 20.3567 6.72168 20.0217C7.10645 19.396 7.63477 18.8914 8.21777 18.446C8.29199 18.3896 8.36328 18.3167 8.51465 18.1812L8.51465 18.177ZM16.3838 17.478C16.2793 17.4688 15.5742 18.1592 15.5947 18.2249C15.6191 18.2878 15.6611 18.3425 15.7158 18.3823C16.3574 18.8586 16.9131 19.4414 17.3574 20.1052C17.5332 20.3723 17.7949 20.2095 17.9648 20.1199C18.1826 20.0073 17.957 19.8528 17.8916 19.7476C17.4658 19.0737 17.0264 18.4084 16.5879 17.7429C16.5225 17.6482 16.4434 17.5583 16.3838 17.4824L16.3838 17.478ZM13.7764 17.3604C14.6914 17.9246 14.7559 17.9224 15.3604 17.2686C15.4434 17.1787 15.6455 17.0996 15.5342 16.9482C15.4453 16.8284 15.2588 16.8179 15.1006 16.8752C14.666 17.0359 14.2373 17.1956 13.7734 17.3645L13.7764 17.3604ZM10.3252 17.3843C9.77246 17.1851 9.33594 17.0234 8.89844 16.8711C8.74219 16.8169 8.55957 16.8357 8.47363 16.967C8.40137 17.0808 8.57812 17.1611 8.63672 17.2571C8.97266 17.7576 9.38184 17.915 9.91895 17.5574C10.0498 17.4919 10.1836 17.4355 10.3223 17.3884L10.3252 17.3843Z" fill="#FA8B02" fill-opacity="1.000000" fill-rule="nonzero"/>
		<path id="Vector" d="M12.001 11.9937C11.7246 11.9937 11.4473 12.0081 11.1729 11.9873C11.125 11.9863 11.0771 11.9758 11.0332 11.9563C10.9893 11.937 10.9492 11.9089 10.916 11.874C10.8828 11.8391 10.8564 11.7979 10.8398 11.7529C10.8223 11.708 10.8145 11.6599 10.8164 11.6118C10.8105 11.5637 10.8145 11.5149 10.8281 11.4685C10.8428 11.4221 10.8662 11.3792 10.8975 11.3423C10.9297 11.3054 10.9688 11.2756 11.0117 11.2549C11.0557 11.2339 11.1035 11.2222 11.1514 11.2207C11.7207 11.2 12.291 11.2 12.8594 11.2207C12.9072 11.2224 12.9551 11.2344 12.999 11.2556C13.043 11.2769 13.0811 11.3071 13.1123 11.3442C13.1436 11.3813 13.167 11.4246 13.1807 11.4712C13.1934 11.5178 13.1973 11.5669 13.1904 11.615C13.1924 11.7122 13.1553 11.8059 13.0869 11.8757C13.0195 11.9456 12.9268 11.9856 12.8301 11.9873C12.5547 12.0112 12.2773 11.9937 12.001 11.9937Z" fill="#FA8B02" fill-opacity="1.000000" fill-rule="nonzero"/>
		<path id="Vector" d="M10.0645 7.61279C10.334 7.64087 10.7383 7.50854 10.7695 8.02173C10.7832 8.2417 10.2363 8.77979 10.0176 8.78711C9.79883 8.79443 9.20703 8.22925 9.20312 8.01025C9.20312 7.71704 9.42871 7.61279 10.0645 7.61279Z" fill="#FA8B02" fill-opacity="1.000000" fill-rule="nonzero"/>
		<path id="Vector" d="M14.0186 7.61279C14.3311 7.63062 14.7227 7.521 14.7939 8.00171C14.8262 8.21045 14.2168 8.79028 13.9951 8.78931C13.7744 8.78809 13.2422 8.25 13.2295 8.0332C13.21 7.71094 13.3965 7.61279 14.0186 7.61279Z" fill="#FA8B02" fill-opacity="1.000000" fill-rule="nonzero"/>
		<path id="Vector" d="M12.0127 10.4226C11.8574 10.425 11.7031 10.4153 11.5508 10.3936C11.4541 10.3809 11.3672 10.332 11.3057 10.2566C11.2451 10.1812 11.2158 10.0852 11.2236 9.98877C11.2227 9.94067 11.2305 9.89307 11.248 9.84814C11.2656 9.80322 11.291 9.76221 11.3252 9.72754C11.3584 9.69287 11.3975 9.66528 11.4424 9.64624C11.4863 9.6272 11.5332 9.61694 11.582 9.61646C11.8213 9.59888 12.0625 9.604 12.3037 9.60498C12.5811 9.60498 12.7891 9.71558 12.7793 10.0222C12.7705 10.2922 12.5762 10.4028 12.3232 10.4143C12.2188 10.4197 12.1143 10.4143 12.0107 10.4143L12.0127 10.4226Z" fill="#FA8B02" fill-opacity="1.000000" fill-rule="nonzero"/>
		<path id="Vector" d="M12.0469 12.3979C12.1846 12.4053 12.3232 12.3979 12.4639 12.4209C12.5518 12.4282 12.6328 12.4675 12.6934 12.5315C12.7529 12.5955 12.7871 12.6794 12.7881 12.7671C12.8066 12.9819 12.6982 13.1541 12.4834 13.1843C12.1924 13.2148 11.9004 13.2205 11.6094 13.2009C11.5566 13.2024 11.5039 13.1924 11.4561 13.1719C11.4072 13.1516 11.3643 13.1211 11.3281 13.0825C11.292 13.0439 11.2656 12.998 11.249 12.9482C11.2314 12.8984 11.2256 12.8455 11.2314 12.7932C11.2422 12.5535 11.3984 12.4241 11.6396 12.4146C11.7773 12.4146 11.9141 12.4146 12.0566 12.4146L12.0469 12.3979Z" fill="#FA8B02" fill-opacity="1.000000" fill-rule="nonzero"/>
	</g>
</svg>
