<svg width="24.000000" height="24.000000" viewBox="0 0 24 24" fill="none" xmlns="http://www.w3.org/2000/svg" xmlns:xlink="http://www.w3.org/1999/xlink">
	<desc>
			Created with Pixso.
	</desc>
	<defs>
		<clipPath id="clip201_2040">
			<rect id="icon_location" width="24.000000" height="24.000000" fill="white" fill-opacity="0"/>
		</clipPath>
	</defs>
	<rect id="icon_location" width="24.000000" height="24.000000" fill="#FFFFFF" fill-opacity="0"/>
	<g clip-path="url(#clip201_2040)">
		<path id="Vector" d="M9.21387 17.3748C8.62598 16.6189 8.06348 15.9021 7.50586 15.1804C6.54004 13.9268 5.58594 12.667 4.95898 11.1924C4.29785 9.62012 4.17383 7.87354 4.6084 6.22388C5.04199 4.57422 6.00879 3.11426 7.3584 2.07104C8.69336 1.05078 10.3281 0.498779 12.0078 0.5C13.6885 0.501221 15.3223 1.05591 16.6553 2.07788C18.0039 3.12354 18.9668 4.58569 19.3965 6.23633C19.8262 7.88721 19.6973 9.63354 19.0303 11.2034C18.416 12.646 17.4873 13.8826 16.5469 15.1143C16.0615 15.749 15.5771 16.386 15.0684 17.0017C14.8125 17.3118 14.7979 17.4277 15.2471 17.5017C16.2549 17.6577 17.2314 17.9304 18.1348 18.4275C18.5195 18.6265 18.8682 18.8909 19.1631 19.2092C19.7969 19.927 19.792 20.8018 19.1436 21.5085C18.5381 22.1704 17.7441 22.5283 16.918 22.7913C14.874 23.439 12.7725 23.603 10.6455 23.4429C9.16309 23.3311 7.69922 23.1111 6.3252 22.4932C5.84863 22.2954 5.40918 22.0173 5.02637 21.6714C4.15527 20.8347 4.15137 19.8411 5.04199 19.0183C5.71875 18.3923 6.55273 18.0525 7.42578 17.8086C7.98633 17.6426 8.57324 17.5256 9.21387 17.3748ZM18.7197 8.31128C18.7197 4.6123 16.0205 1.68506 12.502 1.41309C10.8047 1.28906 9.12402 1.81079 7.79492 2.87378C6.46582 3.93677 5.58789 5.46265 5.33691 7.14551C5.05859 9.05005 5.54395 10.7815 6.58984 12.3682C8.18945 14.7915 10.1455 16.9448 11.8057 19.321C11.9707 19.5591 12.0752 19.4841 12.2061 19.2961C12.4248 18.9822 12.6582 18.6772 12.8848 18.3684C14.3232 16.408 15.9375 14.5806 17.2754 12.5452C18.1514 11.2144 18.7549 9.78784 18.7197 8.31128ZM11.9785 22.5952C12.9111 22.5984 13.8438 22.5232 14.7646 22.3704C15.4414 22.2751 16.1074 22.1143 16.7529 21.8904C17.334 21.6794 17.9053 21.4417 18.3672 21.0166C18.8291 20.5918 18.8408 20.1169 18.3604 19.6899C18.1455 19.5054 17.9102 19.3452 17.6602 19.2122C16.6807 18.6724 15.6006 18.4705 14.5156 18.2834C14.2041 18.2295 14.0244 18.3345 13.8516 18.5833C13.4092 19.2092 12.9453 19.8191 12.4902 20.4338C12.1201 20.9336 11.8623 20.9287 11.4902 20.4187C11.2344 20.0698 10.9814 19.719 10.7256 19.3691C9.84863 18.1694 9.84863 18.1694 8.37793 18.4944C7.47852 18.6943 6.60645 18.9673 5.84766 19.5132C5.07422 20.0688 5.08203 20.6716 5.86816 21.2195C6.30957 21.5195 6.79199 21.7534 7.30176 21.9133C8.82227 22.4033 10.3906 22.5662 11.9785 22.5952Z" fill="#FA8B02" fill-opacity="1.000000" fill-rule="nonzero"/>
		<path id="Vector" d="M6.02246 13.3247Q6.49023 14.0259 7.42676 15.2415L7.4375 15.2554L9.03906 17.3127Q8.88281 17.3486 8.65723 17.3997Q7.80176 17.593 7.39844 17.7122Q6.65918 17.9189 6.11719 18.1802Q5.45801 18.4976 4.97461 18.9448Q4.62988 19.2632 4.45215 19.6174Q4.30469 19.9109 4.2793 20.2146Q4.27344 20.2766 4.27344 20.3394Q4.27344 20.3872 4.27637 20.4351Q4.29492 20.7532 4.44629 21.0635Q4.61914 21.4192 4.95703 21.7437L4.95801 21.7446L4.95898 21.7456Q5.25488 22.0129 5.58789 22.2231Q5.91895 22.4326 6.28613 22.585Q7.24902 23.0181 8.4248 23.2559Q9.37012 23.447 10.6377 23.5427Q14.0654 23.8003 16.9482 22.8865Q17.6582 22.6604 18.1611 22.3872Q18.7852 22.0483 19.2178 21.5762Q19.6123 21.1453 19.7061 20.6567Q19.7334 20.5127 19.7344 20.3638Q19.7354 20.2185 19.7109 20.0776Q19.6279 19.5845 19.2383 19.1431L19.2373 19.1421L19.2363 19.1411Q19.0078 18.8943 18.7432 18.6936Q18.4795 18.4934 18.1816 18.3391Q16.9561 17.6648 15.2637 17.4031Q15.1064 17.3772 15.0352 17.3447Q14.9932 17.3259 14.9902 17.3142Q14.9775 17.2686 15.1455 17.0654Q15.6367 16.4707 16.5723 15.2451L16.626 15.175Q17.54 13.9785 17.9941 13.2932Q18.707 12.218 19.1221 11.2424Q19.376 10.6462 19.5264 10.0251Q19.6768 9.40381 19.7246 8.75757Q19.7725 8.11133 19.7139 7.47461Q19.6562 6.83813 19.4932 6.21118Q19.3301 5.58398 19.0703 4.99951Q18.8105 4.41602 18.4541 3.87524Q18.1006 3.33862 17.6699 2.87256Q17.2324 2.39917 16.7168 1.99854Q16.21 1.61035 15.6543 1.31348Q15.0986 1.01685 14.4941 0.811523Q13.8896 0.606201 13.2686 0.503418Q12.6465 0.400391 12.0078 0.399902Q11.3701 0.399414 10.748 0.501465Q10.127 0.603271 9.52148 0.807617Q8.92188 1.01025 8.37012 1.30322Q7.80859 1.60083 7.29688 1.99194Q6.78418 2.38818 6.34961 2.85645Q5.91406 3.32471 5.55664 3.86475Q5.19922 4.40503 4.9375 4.98828Q4.67578 5.57178 4.51172 6.19849Q4.34668 6.82495 4.28711 7.46143Q4.22754 8.0979 4.27344 8.74414Q4.31836 9.38721 4.46582 10.0059Q4.61426 10.6311 4.86719 11.2314Q5.29102 12.229 6.02246 13.3247ZM18.1348 18.4275C17.2314 17.9304 16.2549 17.6577 15.2471 17.5017C14.7979 17.4277 14.8125 17.3118 15.0684 17.0017C15.5771 16.386 16.0615 15.749 16.5469 15.1143C17.4873 13.8826 18.416 12.646 19.0303 11.2034C19.6973 9.63354 19.8262 7.88721 19.3965 6.23633C18.9668 4.58569 18.0039 3.12354 16.6553 2.07788C15.3223 1.05591 13.6885 0.501221 12.0078 0.5C10.3281 0.498779 8.69336 1.05078 7.3584 2.07104C6.00879 3.11426 5.04199 4.57422 4.6084 6.22388C4.17383 7.87354 4.29785 9.62012 4.95898 11.1924C5.58594 12.667 6.54004 13.9268 7.50586 15.1804C8.04199 15.8745 8.58301 16.564 9.14648 17.2878C9.16895 17.3167 9.19141 17.3457 9.21387 17.3748C9.17773 17.3831 9.14258 17.3916 9.10645 17.3997C8.50684 17.5388 7.95508 17.6519 7.42578 17.8086C6.55273 18.0525 5.71875 18.3923 5.04199 19.0183C4.15137 19.8411 4.15527 20.8347 5.02637 21.6714C5.40918 22.0173 5.84863 22.2954 6.3252 22.4932C7.69922 23.1111 9.16309 23.3311 10.6455 23.4429C12.7725 23.603 14.874 23.439 16.918 22.7913C17.7441 22.5283 18.5381 22.1704 19.1436 21.5085C19.792 20.8018 19.7969 19.927 19.1631 19.2092C18.8682 18.8909 18.5195 18.6265 18.1348 18.4275ZM18.7197 8.31128C18.7197 4.6123 16.0205 1.68506 12.502 1.41309C10.8047 1.28906 9.12402 1.81079 7.79492 2.87378C6.46582 3.93677 5.58789 5.46265 5.33691 7.14551C5.05859 9.05005 5.54395 10.7815 6.58984 12.3682C8.18945 14.7915 10.1455 16.9448 11.8057 19.321C11.9707 19.5591 12.0752 19.4841 12.2061 19.2961C12.4248 18.9822 12.6582 18.6772 12.8848 18.3684C14.3232 16.408 15.9375 14.5806 17.2754 12.5452C18.1514 11.2144 18.7549 9.78784 18.7197 8.31128ZM12.4941 1.51294L12.4941 1.51294Q13.2568 1.57178 13.9678 1.79468Q14.4531 1.94678 14.9141 2.17529Q15.4189 2.42529 15.8672 2.75269Q16.4023 3.14331 16.8564 3.64429Q17.2051 4.02856 17.4873 4.45654Q17.8848 5.05859 18.1504 5.74707Q18.2832 6.09277 18.3789 6.44873Q18.6201 7.34766 18.6201 8.31128L18.6201 8.3125L18.6201 8.31372Q18.666 10.2505 17.1924 12.4902Q16.6494 13.3164 15.9053 14.3015Q15.459 14.8936 14.5391 16.0583Q13.3652 17.5449 12.8037 18.3091Q12.7354 18.4023 12.5977 18.5884Q12.2773 19.0188 12.124 19.239Q12.0381 19.3625 11.999 19.3704Q11.9912 19.3718 11.9756 19.3611Q11.9375 19.3357 11.8877 19.2639Q11.3857 18.5447 10.7197 17.6746Q10.3203 17.1528 9.50684 16.1216Q8.52539 14.8777 8.04883 14.2458Q7.25488 13.1941 6.67285 12.313Q5.58008 10.6545 5.39648 8.90088Q5.30762 8.04199 5.43555 7.1604Q5.52832 6.53857 5.73145 5.95532Q5.93457 5.37207 6.24902 4.82715Q6.5625 4.28223 6.96387 3.81348Q7.36621 3.34473 7.85742 2.9519Q8.34863 2.55908 8.89355 2.26978Q9.43945 1.98022 10.04 1.79395Q10.6406 1.60767 11.2539 1.53735Q11.8672 1.46704 12.4941 1.51294ZM14.7646 22.3704C13.8438 22.5232 12.9111 22.5984 11.9785 22.5952C10.3906 22.5662 8.82227 22.4033 7.30176 21.9133C6.79199 21.7534 6.30957 21.5195 5.86816 21.2195C5.08203 20.6716 5.07422 20.0688 5.84766 19.5132C6.60645 18.9673 7.47852 18.6943 8.37793 18.4944C9.11719 18.3311 9.48438 18.2498 9.7793 18.3618C10.0703 18.4724 10.2891 18.7725 10.7256 19.3691C10.9814 19.719 11.2344 20.0698 11.4902 20.4187C11.8623 20.9287 12.1201 20.9336 12.4902 20.4338C12.9453 19.8191 13.4092 19.2092 13.8516 18.5833C14.0244 18.3345 14.2041 18.2295 14.5156 18.2834C15.6006 18.4705 16.6807 18.6724 17.6602 19.2122C17.9102 19.3452 18.1455 19.5054 18.3604 19.6899C18.8408 20.1169 18.8291 20.5918 18.3672 21.0166C17.9053 21.4417 17.334 21.6794 16.7529 21.8904C16.1074 22.1143 15.4414 22.2751 14.7646 22.3704ZM15.7441 22.082Q15.2529 22.2004 14.75 22.2712L14.749 22.2715L14.748 22.2717Q14.0059 22.3948 13.2598 22.4502Q12.6211 22.4976 11.9795 22.4951Q10.6895 22.4717 9.62793 22.3281Q8.39844 22.1616 7.33105 21.8181Q6.94141 21.6953 6.57812 21.5173Q6.23926 21.3516 5.9248 21.1375Q5.37793 20.7559 5.37305 20.3682L5.37305 20.3604Q5.37402 19.9768 5.90625 19.5942Q6.42188 19.2231 7.0957 18.9675Q7.63965 18.7607 8.39941 18.592Q9.03809 18.4509 9.25391 18.4246Q9.56055 18.387 9.73926 18.4536Q9.91797 18.5203 10.1211 18.7473Q10.2637 18.9072 10.6445 19.428L11.3018 20.3308L11.4092 20.4778Q11.5596 20.6833 11.6895 20.7854Q11.8398 20.9026 11.9893 20.905L11.9961 20.905Q12.1436 20.9048 12.29 20.7939Q12.4209 20.6953 12.5703 20.4934Q12.6875 20.3354 12.9229 20.0205Q13.6035 19.1072 13.9336 18.6404Q14.0527 18.4685 14.1748 18.4099Q14.3037 18.3481 14.498 18.3821Q15.5361 18.5605 16.1016 18.7122Q16.9648 18.9431 17.6133 19.3005Q17.8271 19.4141 18.0225 19.553Q18.1631 19.6526 18.2939 19.7649Q18.6055 20.041 18.6172 20.3296Q18.6172 20.3416 18.6172 20.3538L18.6172 20.3633Q18.6113 20.6562 18.2998 20.9431Q17.9951 21.2229 17.5596 21.4446Q17.2393 21.6072 16.7197 21.7959Q16.2383 21.9631 15.7441 22.082Z" fill="#FA8B02" fill-opacity="1.000000" fill-rule="evenodd"/>
		<path id="Vector" d="M15.1338 8.13916C15.1318 8.97119 14.7998 9.76855 14.21 10.3557C13.6211 10.9426 12.8223 11.2715 11.9902 11.2698C11.1582 11.2681 10.3604 10.936 9.77344 10.3464C9.18652 9.75684 8.85742 8.95825 8.85938 8.12622C8.86133 7.29419 9.19336 6.49707 9.7832 5.90991C10.0752 5.61914 10.4209 5.38867 10.8018 5.23193C11.1826 5.07495 11.5908 4.99487 12.0029 4.99561C12.415 4.99658 12.8223 5.07837 13.2031 5.23682C13.583 5.39526 13.9287 5.6272 14.2197 5.91895C14.5098 6.21094 14.7402 6.55737 14.8975 6.93823C15.0537 7.31909 15.1348 7.72729 15.1338 8.13916ZM14.2334 8.11133C14.2285 7.51831 13.9873 6.95215 13.5635 6.53711C13.1406 6.12183 12.5693 5.89209 11.9766 5.89795C11.3838 5.90381 10.8174 6.14478 10.4023 6.56812C9.9873 6.99146 9.75684 7.56226 9.7627 8.15527C9.76855 8.74805 10.0098 9.31445 10.4336 9.72949C10.8564 10.1445 11.4277 10.3745 12.0205 10.3687C12.6133 10.3628 13.1797 10.1216 13.5947 9.69824C14.0098 9.2749 14.2393 8.7041 14.2334 8.11133Z" fill="#FA8B02" fill-opacity="1.000000" fill-rule="nonzero"/>
		<path id="Vector" d="M13.79 10.8284Q14.0527 10.6536 14.2803 10.4265Q14.5088 10.1992 14.6846 9.93701Q14.8604 9.6748 14.9844 9.37769Q15.1084 9.08057 15.1709 8.771Q15.2334 8.46143 15.2334 8.1394Q15.2344 7.81738 15.1729 7.50757Q15.1123 7.19775 14.9902 6.90015Q14.8672 6.60229 14.6924 6.33936Q14.5176 6.07666 14.29 5.84839Q14.0635 5.62036 13.8008 5.44434Q13.5391 5.26831 13.2412 5.14453Q12.9443 5.02075 12.6348 4.9585Q12.3252 4.89624 12.0029 4.89551Q11.6816 4.89502 11.3711 4.95581Q11.0615 5.01685 10.7637 5.1394Q10.4658 5.26196 10.2031 5.43701Q9.94043 5.61182 9.71191 5.83911Q9.48438 6.06616 9.30859 6.32837Q9.13184 6.59058 9.00879 6.8877Q8.88477 7.18481 8.82227 7.49438Q8.75977 7.80396 8.75977 8.12598Q8.75879 8.448 8.81934 8.75781Q8.88086 9.06763 9.00293 9.36523Q9.12598 9.66309 9.30078 9.92603Q9.47559 10.189 9.70312 10.417Q9.92969 10.645 10.1924 10.821Q10.4541 10.9971 10.752 11.1208Q11.0488 11.2446 11.3584 11.3069Q11.668 11.3691 11.9902 11.3699Q12.3115 11.3706 12.6221 11.3096Q12.9316 11.2485 13.2295 11.126Q13.5264 11.0034 13.79 10.8284ZM15.1338 8.13916C15.1318 8.97119 14.7998 9.76855 14.21 10.3557C13.6211 10.9426 12.8223 11.2715 11.9902 11.2698C11.1582 11.2681 10.3604 10.936 9.77344 10.3464C9.18652 9.75684 8.85742 8.95825 8.85938 8.12622C8.86133 7.29419 9.19336 6.49707 9.7832 5.90991C10.0752 5.61914 10.4209 5.38867 10.8018 5.23193C11.1826 5.07495 11.5908 4.99487 12.0029 4.99561C12.415 4.99658 12.8223 5.07837 13.2031 5.23682C13.583 5.39526 13.9287 5.6272 14.2197 5.91895C14.5098 6.21094 14.7402 6.55737 14.8975 6.93823C15.0537 7.31909 15.1348 7.72729 15.1338 8.13916ZM14.2334 8.11133C14.2285 7.51831 13.9873 6.95215 13.5635 6.53711C13.1406 6.12183 12.5693 5.89209 11.9766 5.89795C11.3838 5.90381 10.8174 6.14478 10.4023 6.56812C9.9873 6.99146 9.75684 7.56226 9.7627 8.15527C9.76855 8.74805 10.0098 9.31445 10.4336 9.72949C10.8564 10.1445 11.4277 10.3745 12.0205 10.3687C12.6133 10.3628 13.1797 10.1216 13.5947 9.69824C14.0098 9.2749 14.2393 8.7041 14.2334 8.11133ZM13.168 6.3457Q13.3418 6.45972 13.4932 6.6084Q13.6455 6.75708 13.7627 6.9292Q13.8799 7.10132 13.9629 7.29663Q14.0469 7.49194 14.0889 7.69604Q14.1318 7.8999 14.1338 8.1123Q14.1357 8.32446 14.0977 8.5293Q14.0586 8.73389 13.9795 8.93091Q13.9004 9.12793 13.7861 9.30225Q13.6719 9.47656 13.5234 9.62842Q13.375 9.78003 13.2021 9.89746Q13.0303 10.0149 12.835 10.0979Q12.6396 10.1812 12.4355 10.2239Q12.2314 10.2666 12.0195 10.2686Q11.8076 10.2708 11.6025 10.2322Q11.3975 10.1934 11.2012 10.114Q11.0039 10.0347 10.8291 9.92065Q10.6553 9.80664 10.5029 9.65796Q10.3516 9.50928 10.2344 9.33716Q10.1172 9.16528 10.0342 8.96973Q9.9502 8.77441 9.9082 8.57056Q9.86523 8.3667 9.86328 8.1543Q9.86133 7.94189 9.89941 7.73706Q9.93848 7.53247 10.0176 7.33545Q10.0967 7.13843 10.2109 6.96411Q10.3252 6.78979 10.4736 6.63818Q10.6221 6.48657 10.7949 6.36914Q10.9668 6.25171 11.1621 6.16846Q11.3574 6.08521 11.5615 6.04248Q11.7646 6 11.9775 5.9978Q12.1895 5.99585 12.3945 6.03442Q12.5996 6.073 12.7959 6.15234Q12.9932 6.23169 13.168 6.3457Z" fill="#FA8B02" fill-opacity="1.000000" fill-rule="evenodd"/>
	</g>
</svg>
