<svg width="24.000000" height="24.000000" viewBox="0 0 24 24" fill="none" xmlns="http://www.w3.org/2000/svg" xmlns:xlink="http://www.w3.org/1999/xlink">
	<desc>
			Created with Pixso.
	</desc>
	<defs>
		<clipPath id="clip201_2048">
			<rect id="icon_best price" width="24.000000" height="24.000000" fill="white" fill-opacity="0"/>
		</clipPath>
	</defs>
	<rect id="icon_best price" width="24.000000" height="24.000000" fill="#FFFFFF" fill-opacity="0"/>
	<g clip-path="url(#clip201_2048)">
		<path id="Vector" d="M0.5 17.874C0.5 16.6221 0.5 15.3696 0.5 14.1177C0.5 13.1396 0.860352 12.7739 1.82031 12.7739C3.08984 12.7739 4.35938 12.7842 5.62695 12.7681C6.21973 12.7598 6.68555 12.9204 6.88965 13.5234C6.99023 13.8188 7.14746 13.6475 7.27441 13.5815C8.43848 12.9746 8.99023 11.9517 9.2041 10.7002C9.32031 10.021 9.30371 9.33789 9.32031 8.65356C9.33105 8.18774 9.32031 7.66577 9.87207 7.47437C10.3955 7.29004 10.8115 7.58252 11.1641 7.93335C11.6455 8.41211 11.8721 9.03516 11.9727 9.68042C12.1729 10.9888 12.1211 12.2852 11.501 13.4873C11.3398 13.8018 11.3828 13.8789 11.7354 13.876C13.3037 13.8628 14.874 13.8853 16.4443 13.8628C17.0547 13.854 17.5459 14.019 17.792 14.5991C18.0264 15.1484 17.9014 15.6533 17.4307 16.0381C17.2715 16.168 17.3125 16.2534 17.3926 16.4097C17.7734 17.147 17.6592 17.6118 16.9707 18.1318C16.8232 18.2417 16.7969 18.3032 16.8711 18.4854C17.1934 19.314 17.0264 19.7607 16.2275 20.2153C16.0479 20.3154 16.0586 20.3896 16.1123 20.561C16.4443 21.6089 15.8623 22.3955 14.7627 22.3975C12.5244 22.3975 10.2881 22.3926 8.05078 22.4033C7.7002 22.4033 7.39746 22.1929 7.0918 22.1899C6.75977 22.1899 6.79785 22.7222 6.47852 22.8755C6.25488 22.9873 6.00879 23.0464 5.75879 23.0479C4.40625 23.0479 3.05371 23.0479 1.70117 23.0479C0.900391 23.0425 0.508789 22.6431 0.5 21.8315C0.5 20.5122 0.5 19.1929 0.5 17.874ZM11.4043 21.9507C12.54 21.9507 13.6748 21.9565 14.8105 21.9507C15.3721 21.9507 15.7764 21.5791 15.79 21.0942C15.8027 20.6094 15.4434 20.3237 14.833 20.3188C14.0312 20.3125 13.2305 20.3188 12.4287 20.3076C12.2383 20.3076 11.9629 20.3687 11.958 20.083C11.9531 19.7979 12.2236 19.8428 12.4189 19.8418C13.5029 19.8418 14.5879 19.8418 15.6729 19.835C16.2588 19.835 16.5791 19.5464 16.5742 19.0625C16.5645 18.6006 16.2471 18.3232 15.6963 18.3159C15.0625 18.3071 14.4287 18.3159 13.793 18.3159C13.6045 18.3159 13.3271 18.3779 13.3369 18.0806C13.3467 17.7993 13.6201 17.855 13.8115 17.853C14.5957 17.8481 15.3799 17.853 16.1641 17.853C16.8174 17.853 17.1201 17.6128 17.126 17.103C17.1318 16.5928 16.8193 16.3286 16.1924 16.3193C15.9424 16.3193 15.6914 16.3193 15.4414 16.3193L13.9385 16.3193C13.7754 16.3193 13.623 16.2803 13.6377 16.0781C13.6465 15.9019 13.7998 15.8906 13.9385 15.8838C14.0547 15.8784 14.1719 15.8838 14.2891 15.8838C15.0732 15.8838 15.8574 15.8838 16.6426 15.8784C16.9648 15.8784 17.2354 15.7622 17.3701 15.4468C17.4365 15.3105 17.4619 15.1582 17.4443 15.0073C17.4268 14.8569 17.3662 14.7148 17.2705 14.5972C17.0576 14.3247 16.751 14.3296 16.4482 14.3296C14.6611 14.3296 12.875 14.3296 11.0889 14.3296C10.9443 14.3296 10.7754 14.3647 10.6826 14.2065C10.5889 14.0483 10.7119 13.9229 10.7959 13.8057C11.7402 12.4775 11.7432 10.9949 11.4766 9.48193C11.3857 8.93018 11.085 8.43506 10.6367 8.10059C10.4609 7.96924 10.2617 7.84497 10.0352 7.93335C9.78418 8.03345 9.80859 8.28296 9.79785 8.49316C9.75977 9.17651 9.77637 9.86475 9.69727 10.542C9.51172 12.1558 8.77441 13.4233 7.24805 14.1226C6.94727 14.2617 6.94727 14.4761 6.94727 14.7305C6.94727 16.8164 6.94727 18.9028 6.94727 20.9897C6.94727 21.5972 7.19824 21.8867 7.7998 21.9658C7.91699 21.9756 8.03418 21.978 8.15039 21.9727L11.4043 21.9507ZM6.47363 17.9053C6.47363 16.6362 6.47363 15.3672 6.47363 14.0986C6.47363 13.4043 6.30957 13.2271 5.63574 13.2197C5.23438 13.2197 4.83398 13.2446 4.43359 13.2119C4.03223 13.1787 3.96191 13.3442 3.96875 13.7017C3.9873 14.9688 3.97559 16.2373 3.97461 17.5088C3.97754 17.6426 3.97266 17.7764 3.95801 17.9092C3.95703 17.9604 3.93652 18.0093 3.90137 18.0464C3.86621 18.0835 3.81836 18.106 3.7666 18.1099C3.7373 18.1143 3.70801 18.1128 3.67871 18.1045C3.65039 18.0962 3.62402 18.0815 3.60156 18.062C3.58008 18.0425 3.5625 18.0181 3.55078 17.9907C3.53906 17.9634 3.5332 17.9341 3.53418 17.9043C3.52148 17.771 3.51562 17.6372 3.51855 17.5034C3.51855 16.2192 3.50977 14.9341 3.52344 13.6494C3.52344 13.3218 3.41797 13.2046 3.09082 13.2197C2.6416 13.2407 2.18945 13.2197 1.74023 13.2271C1.14648 13.2378 0.962891 13.417 0.961914 14.0122C0.956055 16.6172 0.956055 19.2192 0.961914 21.8193C0.961914 22.4053 1.16211 22.6021 1.74316 22.604C3.04395 22.6099 4.3457 22.6099 5.65039 22.604C6.29004 22.604 6.47559 22.4033 6.47656 21.7593C6.47559 20.4741 6.47461 19.1895 6.47363 17.9053Z" fill="#FA8B02" fill-opacity="1.000000" fill-rule="nonzero"/>
		<path id="Vector" d="M0.283203 13.4131Q0.200195 13.7046 0.200195 14.1177L0.200195 21.8237L0.200195 21.835Q0.208008 22.5366 0.560547 22.9219Q0.575195 22.9375 0.589844 22.9526Q0.618164 22.981 0.648438 23.0078Q1.02832 23.3433 1.70117 23.3477L5.75977 23.3477Q6.00879 23.3462 6.24121 23.2852Q6.42969 23.2354 6.60938 23.1455Q6.62305 23.1392 6.63574 23.1318Q6.78809 23.0498 6.89844 22.8892Q6.95801 22.8042 7.03613 22.6362Q7.08691 22.5278 7.11133 22.4912Q7.21484 22.5 7.43848 22.5757Q7.61621 22.6353 7.71387 22.6592Q7.89258 22.7036 8.05176 22.7036L8.45605 22.7017L14.7637 22.6973Q15.2324 22.6968 15.6055 22.5312Q15.8809 22.4092 16.0781 22.21Q16.1523 22.1353 16.2158 22.0493Q16.2822 21.959 16.333 21.8608Q16.4609 21.6167 16.4941 21.3237Q16.54 20.9185 16.3984 20.4707Q16.3975 20.4678 16.3965 20.4644Q16.7197 20.2778 16.9189 20.0854Q17.1523 19.8599 17.251 19.5952Q17.3496 19.3281 17.3174 19.0103Q17.2881 18.73 17.1484 18.373Q17.1504 18.3721 17.1514 18.3711Q17.4434 18.1504 17.6162 17.9331Q17.8086 17.6895 17.874 17.4238L17.874 17.4224Q17.9395 17.1548 17.8779 16.856Q17.8223 16.5889 17.6592 16.2725Q17.6523 16.2593 17.6475 16.248Q17.9902 15.9585 18.124 15.5928Q18.1494 15.5244 18.167 15.4531Q18.1895 15.3647 18.1992 15.2754Q18.2432 14.8911 18.0684 14.4819Q17.9238 14.1416 17.6719 13.9272Q17.5439 13.8179 17.3867 13.7407Q17.0068 13.5547 16.4395 13.563Q15.5674 13.5752 13.8213 13.5723Q12.4883 13.5703 11.793 13.5757Q11.832 13.4971 11.8691 13.4175Q12.2461 12.6006 12.3428 11.6543Q12.4375 10.7334 12.2695 9.63403Q12.0791 8.42334 11.3789 7.72363Q11.377 7.72217 11.376 7.72046Q11.0225 7.3689 10.7031 7.22852Q10.4629 7.1228 10.2197 7.11719Q9.99707 7.1123 9.77344 7.19092Q9.51172 7.28174 9.34277 7.45996Q9.19531 7.61548 9.11816 7.83765Q9.05957 8.0061 9.03809 8.22998Q9.02637 8.35303 9.02148 8.59204Q9.02051 8.62842 9.02051 8.64648Q9.0166 8.78125 9.0127 9.04932Q9.00488 9.59375 8.99121 9.8623Q8.96777 10.3022 8.9082 10.6499Q8.74902 11.5815 8.34277 12.2217Q8.19727 12.4502 8.0166 12.647Q7.64941 13.0479 7.13574 13.3154Q7.13379 13.3164 7.13281 13.3169Q7.00488 13.0098 6.78027 12.8135Q6.67285 12.7197 6.54395 12.6514Q6.18359 12.4604 5.62305 12.4683Q4.70996 12.4795 2.87891 12.4756Q2.17285 12.4741 1.82031 12.4741Q1.41309 12.4741 1.125 12.5586Q0.801758 12.6533 0.592773 12.8628Q0.589844 12.8657 0.585938 12.8687Q0.376953 13.0815 0.283203 13.4131ZM0.5 21.8315L0.5 14.1177C0.5 13.1396 0.860352 12.7739 1.82031 12.7739C2.17285 12.7739 2.52539 12.7749 2.87793 12.7754C3.79492 12.7773 4.71094 12.7798 5.62695 12.7681C6.21973 12.7598 6.68555 12.9204 6.88965 13.5234C6.97266 13.7695 7.0957 13.6919 7.20898 13.6206C7.23145 13.6064 7.25293 13.5923 7.27441 13.5815C8.43848 12.9746 8.99023 11.9517 9.2041 10.7002C9.32031 10.021 9.30371 9.33789 9.32031 8.65356C9.33105 8.18774 9.32031 7.66577 9.87207 7.47437C10.3955 7.29004 10.8115 7.58252 11.1641 7.93335C11.6455 8.41211 11.8721 9.03516 11.9727 9.68042C12.1729 10.9888 12.1211 12.2852 11.501 13.4873C11.3398 13.8018 11.3828 13.8789 11.7354 13.876C12.4307 13.8701 13.126 13.8716 13.8213 13.8726L13.8213 13.8726C14.6953 13.874 15.5693 13.8755 16.4443 13.8628C17.0547 13.854 17.5459 14.019 17.792 14.5991C18.0264 15.1484 17.9014 15.6533 17.4307 16.0381C17.2715 16.168 17.3125 16.2534 17.3926 16.4097C17.7734 17.147 17.6592 17.6118 16.9707 18.1318C16.8232 18.2417 16.7969 18.3032 16.8711 18.4854C17.1934 19.314 17.0264 19.7607 16.2275 20.2153C16.0479 20.3154 16.0586 20.3896 16.1123 20.561C16.4443 21.6089 15.8623 22.3955 14.7627 22.3975C14.2295 22.3975 13.6973 22.397 13.1641 22.397C11.459 22.396 9.75488 22.395 8.05078 22.4033C7.7002 22.4033 7.39746 22.1929 7.0918 22.1899C6.75977 22.1899 6.79785 22.7222 6.47852 22.8755C6.25488 22.9873 6.00879 23.0464 5.75879 23.0479L1.70117 23.0479C0.900391 23.0425 0.508789 22.6431 0.5 21.8315ZM8.15039 21.9727L11.4043 21.9507C11.7832 21.9507 12.1611 21.9512 12.54 21.9521C13.2969 21.9531 14.0537 21.9546 14.8105 21.9507C15.3721 21.9507 15.7764 21.5791 15.79 21.0942C15.8027 20.6094 15.4434 20.3237 14.833 20.3188C14.0312 20.3125 13.2305 20.3188 12.4287 20.3076C12.4004 20.3076 12.3711 20.3091 12.3408 20.3105C12.1631 20.3184 11.9619 20.3271 11.958 20.083C11.9531 19.832 12.1621 19.8369 12.3457 19.8408C12.3701 19.8413 12.3955 19.8418 12.4189 19.8418C13.5029 19.8418 14.5879 19.8418 15.6729 19.835C16.2588 19.835 16.5791 19.5464 16.5742 19.0625C16.5645 18.6006 16.2471 18.3232 15.6963 18.3159C15.2734 18.3101 14.8516 18.312 14.4277 18.314C14.2168 18.3149 14.0049 18.3159 13.793 18.3159C13.7656 18.3159 13.7373 18.3174 13.708 18.3188C13.5312 18.3267 13.3291 18.3354 13.3369 18.0806C13.3447 17.8398 13.5459 17.8462 13.7246 17.8516C13.7539 17.8525 13.7832 17.8535 13.8115 17.853C14.334 17.8501 14.8574 17.8511 15.3799 17.8521C15.6416 17.8525 15.9033 17.853 16.1641 17.853C16.8174 17.853 17.1201 17.6128 17.126 17.103C17.1318 16.5928 16.8193 16.3286 16.1924 16.3193L13.9385 16.3193C13.7754 16.3193 13.623 16.2803 13.6377 16.0781C13.6465 15.9019 13.7998 15.8906 13.9385 15.8838C14.0156 15.8804 14.0938 15.8813 14.1719 15.8823L14.1719 15.8823C14.2109 15.8833 14.25 15.8838 14.2891 15.8838L14.29 15.8838C15.0742 15.8838 15.8584 15.8838 16.6426 15.8784C16.9648 15.8784 17.2354 15.7622 17.3701 15.4468C17.4365 15.3105 17.4619 15.1582 17.4443 15.0073C17.4268 14.8569 17.3662 14.7148 17.2705 14.5972C17.0615 14.3296 16.7627 14.3296 16.4639 14.3296L16.4482 14.3296L11.0889 14.3296C11.0674 14.3296 11.0439 14.3306 11.0215 14.3315C10.8945 14.3359 10.7617 14.3408 10.6826 14.2065C10.6006 14.0669 10.6855 13.9531 10.7646 13.8477C10.7754 13.8335 10.7861 13.8198 10.7959 13.8057C11.7402 12.4775 11.7432 10.9949 11.4766 9.48193C11.3857 8.93018 11.085 8.43506 10.6367 8.10059C10.4609 7.96924 10.2617 7.84497 10.0352 7.93335C9.81348 8.02173 9.80664 8.22656 9.80078 8.41797C9.7998 8.44336 9.79883 8.46851 9.79785 8.49316C9.75977 9.17651 9.77637 9.86475 9.69727 10.542C9.51172 12.1558 8.77441 13.4233 7.24805 14.1226C6.94727 14.2617 6.94727 14.4761 6.94727 14.7305L6.94727 20.9897C6.94727 21.5972 7.19824 21.8867 7.7998 21.9658C7.91699 21.9756 8.03418 21.978 8.15039 21.9727ZM13.3379 16.0591Q13.3281 16.2026 13.3799 16.3198Q13.3809 16.3228 13.3828 16.3262Q13.4092 16.3838 13.4482 16.4312Q13.4961 16.4883 13.5635 16.5298Q13.708 16.6196 13.9385 16.6196L15.4414 16.6196L16.1885 16.6196Q16.5508 16.6245 16.7041 16.7529Q16.71 16.7583 16.7158 16.7642Q16.8291 16.8706 16.8262 17.0991Q16.8232 17.3354 16.7061 17.4307Q16.7041 17.4316 16.7031 17.4331Q16.5498 17.5532 16.1641 17.5532L13.8076 17.5532Q13.7871 17.5532 13.7334 17.5518Q13.6309 17.5483 13.5732 17.5518Q13.4531 17.5581 13.3604 17.5933Q13.2676 17.6284 13.2002 17.6904Q13.1602 17.7271 13.1289 17.7729Q13.1201 17.7852 13.1123 17.7974Q13.042 17.9146 13.0371 18.0703Q13.0312 18.2451 13.1055 18.374Q13.1064 18.3765 13.1084 18.3784Q13.1416 18.4355 13.1875 18.4795Q13.252 18.541 13.3418 18.5767Q13.4365 18.6143 13.5596 18.6201Q13.6172 18.623 13.7207 18.6182Q13.7725 18.6162 13.793 18.6162Q14.0059 18.6162 14.4297 18.6143Q15.2725 18.6099 15.6924 18.6162Q16.0527 18.6206 16.1904 18.7979Q16.2705 18.9019 16.2744 19.0654Q16.2764 19.2632 16.1787 19.373Q16.165 19.3892 16.1484 19.4033Q15.9971 19.5347 15.6709 19.5347L15.6689 19.5347L12.417 19.542Q12.3975 19.542 12.3516 19.541Q12.2461 19.5386 12.1875 19.5425Q12.0635 19.5503 11.9697 19.5879Q11.877 19.625 11.8096 19.6895Q11.7676 19.7295 11.7363 19.7798Q11.7305 19.7891 11.7246 19.7988Q11.6553 19.9233 11.6582 20.0884Q11.6602 20.2505 11.7334 20.3701Q11.7383 20.3799 11.7451 20.3892Q11.7773 20.438 11.8193 20.4761Q11.8867 20.5376 11.9795 20.5723Q12.0723 20.6069 12.1943 20.6123Q12.251 20.6147 12.3535 20.6099Q12.4072 20.6074 12.4268 20.6074L13.874 20.6152L14.8301 20.6187Q15.1846 20.6216 15.3564 20.7603Q15.3945 20.791 15.4219 20.8291Q15.4941 20.9307 15.4902 21.0859Q15.4863 21.2051 15.4404 21.3042Q15.3945 21.4019 15.3066 21.48Q15.2705 21.5122 15.2305 21.5381Q15.0566 21.6504 14.8105 21.6504L11.4023 21.6509L8.14355 21.6729L8.1377 21.6729Q8.05957 21.6763 7.98145 21.6748Q7.90625 21.6733 7.83203 21.6675Q7.49902 21.6221 7.37402 21.4785Q7.24805 21.3335 7.24805 20.9897L7.24805 14.7305Q7.24805 14.5391 7.2666 14.4863Q7.28516 14.436 7.37305 14.395Q8.26562 13.9863 8.8623 13.3149Q9.06055 13.0918 9.22559 12.8398Q9.84277 11.9019 9.99609 10.5769Q10.0479 10.1328 10.0703 9.24854Q10.084 8.75439 10.0977 8.50903Q10.0986 8.4812 10.1006 8.42749Q10.1055 8.27881 10.1201 8.23584Q10.1221 8.23169 10.124 8.22803Q10.1309 8.21826 10.1445 8.21289Q10.1475 8.21167 10.1504 8.21069Q10.1953 8.1958 10.252 8.21655Q10.3271 8.24365 10.457 8.34106Q10.6016 8.44897 10.7207 8.58008Q10.8408 8.71143 10.9346 8.86572Q11.0166 9.00049 11.0742 9.14502Q11.1484 9.33154 11.1816 9.53418Q11.3994 10.7712 11.293 11.6782Q11.207 12.4067 10.9062 13.0322Q10.7559 13.3442 10.5518 13.6309Q10.5439 13.6421 10.5244 13.6675Q10.417 13.8115 10.3809 13.9141Q10.3398 14.0269 10.3496 14.1357Q10.3594 14.2495 10.4238 14.3589Q10.4834 14.4595 10.5693 14.5234Q10.6523 14.5845 10.7598 14.6118Q10.8604 14.6372 11.0322 14.6313Q11.0723 14.6299 11.0889 14.6299L16.4482 14.6299L16.4639 14.6299Q16.7266 14.6299 16.8301 14.6548Q16.9199 14.6763 16.9834 14.7295Q17.0107 14.7524 17.0342 14.7817L17.0361 14.7847L17.0381 14.7871Q17.084 14.8433 17.1113 14.9067Q17.1377 14.9707 17.1465 15.0425Q17.1553 15.1143 17.1436 15.1826Q17.1318 15.251 17.1006 15.3164L17.0977 15.3223L17.0947 15.3286Q17.0469 15.4414 16.9609 15.5005Q16.9473 15.5098 16.9326 15.5181Q16.8223 15.5786 16.6416 15.5786L14.29 15.5835L14.2891 15.5835Q14.252 15.5835 14.1758 15.5825Q14.0117 15.5801 13.9229 15.584Q13.7266 15.5942 13.6162 15.644Q13.5352 15.6802 13.4766 15.7388Q13.4463 15.7686 13.4219 15.8047Q13.4072 15.8257 13.3955 15.8481Q13.3447 15.9419 13.3379 16.0591ZM6.47656 21.7593C6.47559 20.4741 6.47461 19.1895 6.47363 17.9053L6.47363 14.0986C6.47363 13.4043 6.30957 13.2271 5.63574 13.2197C5.51465 13.2197 5.39355 13.2222 5.27344 13.2241L5.27344 13.2241C4.99316 13.2295 4.71289 13.2349 4.43359 13.2119C4.03223 13.1787 3.96191 13.3442 3.96875 13.7017C3.98242 14.6367 3.97949 15.5728 3.97656 16.5098C3.97559 16.8423 3.97461 17.1753 3.97461 17.5088C3.97754 17.6426 3.97266 17.7764 3.95801 17.9092C3.95703 17.9604 3.93652 18.0093 3.90137 18.0464C3.86621 18.0835 3.81836 18.106 3.7666 18.1099C3.7373 18.1143 3.70801 18.1128 3.67871 18.1045C3.65039 18.0962 3.62402 18.0815 3.60156 18.062C3.58008 18.0425 3.5625 18.0181 3.55078 17.9907C3.53906 17.9634 3.5332 17.9341 3.53418 17.9043C3.52148 17.771 3.51562 17.6372 3.51855 17.5034C3.51855 17.1426 3.51758 16.7812 3.5166 16.4199C3.51562 15.4966 3.51367 14.5728 3.52344 13.6494C3.52344 13.3218 3.41797 13.2046 3.09082 13.2197C2.82129 13.2324 2.55078 13.23 2.28027 13.2275C2.09961 13.2256 1.91992 13.2241 1.74023 13.2271C1.14648 13.2378 0.962891 13.417 0.961914 14.0122Q0.954102 17.9194 0.961914 21.8193C0.961914 22.4053 1.16211 22.6021 1.74316 22.604Q3.69336 22.6128 5.65039 22.604C6.29004 22.604 6.47559 22.4033 6.47656 21.7593ZM3.23438 17.9175Q3.22461 17.8174 3.2207 17.7168Q3.21582 17.6069 3.21875 17.4976Q3.21875 17.1426 3.2168 16.4204Q3.21387 14.5713 3.22363 13.6465Q3.22363 13.5669 3.21289 13.5234Q3.1748 13.5161 3.10449 13.5195Q2.82715 13.5327 2.27734 13.5273Q1.9209 13.5239 1.74512 13.5269Q1.41992 13.5327 1.34082 13.6123Q1.2627 13.6914 1.26172 14.0127L1.26172 21.8193Q1.26172 22.1338 1.34668 22.2183Q1.43066 22.3027 1.74414 22.3037L5.65039 22.3037Q6.00098 22.3037 6.08789 22.2144Q6.17578 22.123 6.17676 21.7588L6.17383 17.9058L6.17383 16.002L6.17383 14.0986Q6.17383 13.6963 6.08984 13.6079Q6.00977 13.5239 5.63184 13.52Q5.51758 13.52 5.2793 13.5244Q4.7041 13.5352 4.4082 13.5107Q4.32422 13.5039 4.2793 13.5117Q4.27832 13.5171 4.27734 13.5239Q4.2666 13.5825 4.26855 13.6968Q4.28223 14.6353 4.27637 16.5107Q4.27441 17.1724 4.27441 17.5049Q4.27637 17.6133 4.27246 17.7212Q4.26855 17.8262 4.25781 17.9307Q4.25293 18.0205 4.2207 18.0991Q4.18555 18.1831 4.11816 18.2534Q4.05078 18.3242 3.96875 18.3628Q3.8916 18.3994 3.80176 18.4077Q3.75293 18.4146 3.70508 18.4116Q3.65039 18.4082 3.5957 18.3926Q3.54199 18.377 3.49316 18.3506Q3.44531 18.3242 3.40332 18.2871Q3.36133 18.2495 3.3291 18.2051Q3.29688 18.1606 3.27441 18.1089Q3.25293 18.0571 3.24219 18.0029Q3.23438 17.9609 3.23438 17.9175Z" fill="#FA8B02" fill-opacity="1.000000" fill-rule="evenodd"/>
		<path id="Vector" d="M16.6582 0.952881C19.9248 0.977051 22.6865 3.25708 23.3594 6.48193C24.0088 9.59961 22.3701 12.8364 19.4717 14.1177C19.2031 14.2368 18.7979 14.6074 18.6064 14.187C18.415 13.7661 18.9717 13.7651 19.2148 13.6528C21.9941 12.3594 23.4902 9.36108 22.8047 6.40381C22.1328 3.49854 19.4795 1.44287 16.4785 1.49487C15.1504 1.51758 13.8633 1.95801 12.7988 2.75366C11.7354 3.54956 10.9492 4.66016 10.5527 5.92798C10.5127 6.05518 10.4775 6.18335 10.4346 6.30957C10.4268 6.34668 10.4111 6.38184 10.3887 6.41235C10.3652 6.44263 10.3369 6.46777 10.3027 6.4856C10.2695 6.50366 10.2324 6.51416 10.1953 6.51611C10.1572 6.51831 10.1191 6.51221 10.084 6.49805C9.92773 6.4519 9.88379 6.32373 9.91699 6.17944C9.94922 6.01611 9.99219 5.85498 10.0439 5.69653C10.5 4.3064 11.3867 3.09741 12.5762 2.24463C13.7646 1.39185 15.1943 0.939453 16.6582 0.952881Z" fill="#FA8B02" fill-opacity="1.000000" fill-rule="nonzero"/>
		<path id="Vector" d="M23.791 7.46875Q23.7617 6.94263 23.6523 6.42065L23.6523 6.42065Q23.4902 5.63989 23.1738 4.92725Q22.9863 4.50439 22.7441 4.10547Q22.4053 3.54663 21.9795 3.06519Q21.6094 2.64624 21.1719 2.28564Q20.6904 1.88794 20.1553 1.58398Q19.6475 1.29565 19.0918 1.0918Q18.6182 0.917969 18.1299 0.812988Q17.4111 0.658447 16.6602 0.652832Q16.0879 0.647705 15.5283 0.731445Q14.9697 0.815186 14.4238 0.987793Q13.8779 1.16064 13.3721 1.41382Q12.8662 1.66699 12.4014 2.00073Q11.9355 2.33447 11.5342 2.73218Q11.1318 3.12988 10.793 3.59155Q10.457 4.05029 10.1992 4.54956Q9.93848 5.05542 9.75879 5.60327Q9.7168 5.73071 9.68262 5.86011Q9.64941 5.9873 9.62305 6.11646Q9.58594 6.28345 9.62891 6.42676Q9.64062 6.46606 9.6582 6.50391Q9.69629 6.58545 9.75684 6.64624Q9.84668 6.73779 9.98633 6.78174Q10.0371 6.80078 10.0898 6.80933Q10.1494 6.81909 10.2119 6.81567Q10.2734 6.81226 10.332 6.7959Q10.3906 6.7793 10.4453 6.75Q10.5 6.7207 10.5459 6.68115Q10.5918 6.64136 10.6289 6.59155Q10.666 6.54175 10.6904 6.48657Q10.7109 6.44092 10.7236 6.39136Q10.751 6.30884 10.7959 6.15967Q10.8242 6.06445 10.8389 6.01758Q10.9805 5.5647 11.1885 5.14453Q11.3965 4.72437 11.6709 4.33716Q11.9443 3.94971 12.2715 3.61401Q12.5986 3.27808 12.9785 2.9939Q13.3584 2.70972 13.7734 2.49072Q14.1875 2.27173 14.6367 2.11816Q15.085 1.96484 15.5449 1.88403Q16.0078 1.80298 16.4834 1.79492Q17.0254 1.7854 17.5518 1.86963Q18.0537 1.94995 18.542 2.11548Q19.0107 2.27417 19.4424 2.50244Q19.9082 2.74927 20.3311 3.07739Q20.793 3.43555 21.1719 3.86621Q21.4619 4.19556 21.7031 4.56714Q21.9951 5.0166 22.2002 5.50269Q22.3965 5.96997 22.5127 6.47144Q22.6523 7.0752 22.668 7.68213Q22.6797 8.12329 22.626 8.56592Q22.5693 9.03149 22.4434 9.47729Q22.292 10.0125 22.04 10.519Q21.832 10.9387 21.5654 11.3176Q21.2432 11.7769 20.835 12.1763Q20.541 12.4639 20.2148 12.708Q19.6924 13.0996 19.0889 13.3809Q19.0537 13.397 18.9229 13.4321Q18.7822 13.4697 18.71 13.4961Q18.5625 13.5493 18.4668 13.625Q18.3701 13.7026 18.3193 13.8042Q18.29 13.8638 18.2764 13.9312Q18.2754 13.9351 18.2754 13.939Q18.2441 14.1143 18.333 14.311Q18.4199 14.501 18.5674 14.5962Q18.5811 14.6055 18.5957 14.6138Q18.6455 14.6411 18.6982 14.6577Q18.8184 14.6958 18.9561 14.6758Q19.082 14.6582 19.2305 14.5879Q19.3057 14.5522 19.4424 14.4741Q19.5527 14.4102 19.5928 14.3921Q20.0625 14.1846 20.4922 13.9131Q21.0859 13.5371 21.6016 13.0381Q21.9463 12.7051 22.2412 12.332Q22.6836 11.7729 23.0137 11.1245Q23.3145 10.5322 23.501 9.90601Q23.6543 9.39062 23.7305 8.85205Q23.8281 8.15674 23.791 7.46875ZM10.4346 6.30957C10.4775 6.18335 10.5127 6.05518 10.5527 5.92798C10.9492 4.66016 11.7354 3.54956 12.7988 2.75366C13.8633 1.95801 15.1504 1.51758 16.4785 1.49487C19.4795 1.44287 22.1328 3.49854 22.8047 6.40381C23.4902 9.36108 21.9941 12.3594 19.2148 13.6528C19.1562 13.6797 19.0801 13.7002 19 13.7217C18.748 13.7896 18.4609 13.8672 18.6064 14.187C18.7588 14.5215 19.0459 14.356 19.292 14.2139C19.3555 14.1772 19.417 14.1421 19.4717 14.1177C22.3701 12.8364 24.0088 9.59961 23.3594 6.48193C22.6865 3.25708 19.9248 0.977051 16.6582 0.952881C15.1943 0.939453 13.7646 1.39185 12.5762 2.24463C11.3867 3.09741 10.5 4.3064 10.0439 5.69653C9.99219 5.85498 9.94922 6.01611 9.91699 6.17944C9.88379 6.32373 9.92773 6.4519 10.084 6.49805C10.1191 6.51221 10.1572 6.51831 10.1953 6.51611C10.2324 6.51416 10.2695 6.50366 10.3027 6.4856C10.3369 6.46777 10.3652 6.44263 10.3887 6.41235C10.4111 6.38184 10.4268 6.34668 10.4346 6.30957Z" fill="#FA8B02" fill-opacity="1.000000" fill-rule="evenodd"/>
		<path id="Vector" d="M17.9863 9.45264C17.9863 8.85767 17.6064 8.36963 16.9648 8.18945C16.6299 8.09521 16.2725 8.06421 15.9434 7.95288C15.1416 7.68237 14.6992 7.03735 14.7041 6.20679C14.7041 5.35327 15.127 4.74414 15.96 4.48755C16.2676 4.39355 16.3545 4.24927 16.3301 3.95972C16.3135 3.75928 16.3086 3.51196 16.5791 3.4939C16.8984 3.4729 16.8994 3.74316 16.8799 3.95776C16.8428 4.29736 17.0215 4.37354 17.3076 4.42261C18.0176 4.5437 18.4629 4.99048 18.6934 5.65479C18.7666 5.86719 18.8779 6.16162 18.5869 6.26782C18.2432 6.39404 18.251 6.04346 18.1777 5.84399C17.9209 5.14893 17.3096 4.80322 16.498 4.90845C15.7715 5.00146 15.3135 5.42236 15.2441 6.05957C15.1699 6.73682 15.5352 7.2666 16.2461 7.47705C16.5967 7.57715 16.9678 7.61841 17.3105 7.74146C18.1045 8.02515 18.5312 8.64917 18.5283 9.45264C18.5283 10.2952 18.0986 10.9133 17.2773 11.1877C16.999 11.28 16.8506 11.3882 16.877 11.7007C16.8965 11.9009 16.9307 12.1885 16.6172 12.2017C16.3037 12.2148 16.3105 11.937 16.333 11.7256C16.3662 11.4041 16.2324 11.3169 15.9268 11.2568C15.125 11.0986 14.5771 10.5166 14.4639 9.79614C14.4355 9.61597 14.4277 9.45166 14.6406 9.39551C14.8545 9.33936 14.9326 9.4646 15 9.646C15.3643 10.6328 15.9473 10.9482 16.9736 10.709C17.2637 10.6531 17.5244 10.4963 17.71 10.2664C17.8955 10.0361 17.9932 9.74805 17.9863 9.45264Z" fill="#FA8B02" fill-opacity="1.000000" fill-rule="nonzero"/>
		<path id="Vector" d="M16.8838 8.47803L16.8838 8.47827Q17.2285 8.5752 17.4355 8.79932Q17.46 8.8252 17.4814 8.85278Q17.5596 8.95068 17.6084 9.06152Q17.6865 9.23999 17.6865 9.45264L17.6865 9.45605L17.6865 9.45972Q17.6904 9.63354 17.6377 9.78809Q17.585 9.94263 17.4766 10.0779Q17.3672 10.2134 17.2275 10.2974Q17.0869 10.3813 16.917 10.4143L16.9111 10.4155L16.9053 10.4167Q16.2471 10.5703 15.8809 10.3733Q15.5156 10.1763 15.2812 9.54175Q15.1582 9.21045 14.9355 9.11694Q14.7764 9.0498 14.5645 9.10547Q14.3701 9.15649 14.2676 9.28247Q14.1104 9.4751 14.167 9.84277Q14.2188 10.1711 14.3623 10.4524Q14.501 10.7217 14.7227 10.9478Q14.875 11.1018 15.0508 11.22Q15.4092 11.4607 15.8682 11.5513Q15.9648 11.5703 16.0137 11.5894Q16.0273 11.5947 16.0352 11.5991Q16.041 11.6313 16.0342 11.6948Q16.0049 11.9805 16.0684 12.1514Q16.1084 12.2603 16.1816 12.3374Q16.2236 12.3818 16.2764 12.4155Q16.2891 12.4238 16.3027 12.4312Q16.4424 12.5093 16.6299 12.5015Q16.8096 12.4937 16.9395 12.4097Q16.9561 12.3989 16.9717 12.3872Q17.0166 12.3535 17.0518 12.312Q17.1221 12.2295 17.1562 12.1167Q17.1895 12.0093 17.1885 11.8711Q17.1885 11.8037 17.1768 11.686Q17.1758 11.6768 17.1758 11.6758Q17.168 11.5825 17.1875 11.5601Q17.2217 11.5225 17.373 11.4722Q17.959 11.2761 18.3193 10.8765Q18.3916 10.7961 18.4551 10.7075Q18.5176 10.6199 18.5693 10.5266Q18.8281 10.0623 18.8281 9.45386Q18.8301 8.92261 18.6211 8.49512Q18.5527 8.35693 18.4639 8.22949Q18.3887 8.12378 18.3018 8.0293Q17.9561 7.65356 17.4121 7.45923Q17.1934 7.38062 16.7549 7.28857Q16.4648 7.22754 16.3311 7.18945Q15.9082 7.06421 15.7031 6.78101Q15.7002 6.77612 15.6963 6.771Q15.6553 6.7124 15.625 6.64893Q15.5078 6.40698 15.542 6.0918Q15.5703 5.83691 15.6973 5.65015Q15.7529 5.56909 15.8271 5.50098Q16.0859 5.26367 16.5371 5.20581Q17.0459 5.13989 17.3994 5.33789Q17.4814 5.38379 17.5527 5.44263Q17.7783 5.62939 17.8955 5.94751Q17.9053 5.97217 17.9238 6.04956Q17.9512 6.15869 17.9717 6.21631Q18.0166 6.34229 18.0879 6.42578Q18.1475 6.49609 18.2236 6.53711Q18.2891 6.573 18.3672 6.58667Q18.5166 6.61328 18.6904 6.54956Q18.8408 6.49463 18.9355 6.38916Q18.9619 6.36011 18.9834 6.32739Q19.0039 6.29761 19.0195 6.26538Q19.0742 6.15356 19.0762 6.01587Q19.0781 5.90234 19.043 5.76489Q19.0244 5.6958 18.9834 5.57471Q18.9795 5.56299 18.9766 5.5564Q18.7744 4.97266 18.3828 4.61377Q18.2773 4.51685 18.1592 4.43799Q17.8115 4.20435 17.3584 4.12671Q17.2139 4.10205 17.1777 4.07959Q17.1719 4.05029 17.1787 3.98413Q17.2041 3.69556 17.1338 3.52344Q17.0918 3.42065 17.0195 3.34814Q16.9727 3.30151 16.9131 3.26758Q16.9082 3.26416 16.9023 3.26123Q16.7559 3.1814 16.5596 3.19458Q16.4014 3.20508 16.2832 3.27881Q16.2617 3.29248 16.2402 3.30859Q16.2021 3.33838 16.1699 3.37427Q16.1006 3.45288 16.0635 3.56079Q16.0088 3.71973 16.0312 3.98462Q16.041 4.09985 16.0215 4.12866Q15.998 4.16235 15.8721 4.20093Q15.2725 4.3855 14.9082 4.78491Q14.8379 4.8623 14.7764 4.94775Q14.7324 5.00928 14.6934 5.07397Q14.4043 5.55225 14.4043 6.20483Q14.4004 6.75635 14.6191 7.19849Q14.6865 7.33569 14.7764 7.4624Q14.874 7.60205 14.9932 7.72144Q15.335 8.06421 15.8477 8.23706Q16.0508 8.30591 16.457 8.38403Q16.748 8.43994 16.8838 8.47803ZM17.9863 9.45264C17.9863 8.85767 17.6064 8.36963 16.9648 8.18945C16.6299 8.09521 16.2725 8.06421 15.9434 7.95288C15.1416 7.68237 14.6992 7.03735 14.7041 6.20679C14.7041 5.35327 15.127 4.74414 15.96 4.48755C16.2676 4.39355 16.3545 4.24927 16.3301 3.95972C16.3135 3.75928 16.3086 3.51196 16.5791 3.4939C16.8984 3.4729 16.8994 3.74316 16.8799 3.95776C16.8428 4.29736 17.0215 4.37354 17.3076 4.42261C18.0176 4.5437 18.4629 4.99048 18.6934 5.65479C18.6953 5.66064 18.6973 5.66675 18.6992 5.67285C18.7725 5.88354 18.8691 6.16455 18.5869 6.26782C18.3125 6.36865 18.2617 6.16504 18.2148 5.97729C18.2031 5.93018 18.1924 5.88403 18.1777 5.84399C17.9209 5.14893 17.3096 4.80322 16.498 4.90845C15.7715 5.00146 15.3135 5.42236 15.2441 6.05957C15.1699 6.73682 15.5352 7.2666 16.2461 7.47705C16.5967 7.57715 16.9678 7.61841 17.3105 7.74146C18.1045 8.02515 18.5312 8.64917 18.5283 9.45264C18.5283 10.2952 18.0986 10.9133 17.2773 11.1877C16.999 11.28 16.8506 11.3882 16.877 11.7007C16.8779 11.7056 16.8779 11.71 16.8779 11.7148C16.8975 11.9141 16.9238 12.189 16.6172 12.2017C16.3037 12.2148 16.3105 11.937 16.333 11.7256C16.3662 11.4041 16.2324 11.3169 15.9268 11.2568C15.125 11.0986 14.5771 10.5166 14.4639 9.79614C14.4355 9.61597 14.4277 9.45166 14.6406 9.39551C14.8545 9.33936 14.9326 9.4646 15 9.646C15.3643 10.6328 15.9473 10.9482 16.9736 10.709C17.2637 10.6531 17.5244 10.4963 17.71 10.2664C17.8955 10.0361 17.9932 9.74805 17.9863 9.45264Z" fill="#FA8B02" fill-opacity="1.000000" fill-rule="evenodd"/>
		<path id="Vector" d="M4.82617 20.1772C4.93848 20.1724 5.05078 20.1909 5.15625 20.2314C5.26172 20.272 5.35742 20.3335 5.4375 20.4126C5.51758 20.4917 5.58105 20.5864 5.62305 20.6909C5.66602 20.7959 5.68652 20.9077 5.68359 21.0205C5.68945 21.1372 5.6709 21.2534 5.63086 21.3628C5.58984 21.4722 5.52637 21.5718 5.44531 21.6558C5.36426 21.7397 5.2666 21.8062 5.15918 21.8506C5.05078 21.8955 4.93555 21.9175 4.81836 21.915C4.31738 21.915 3.95605 21.5303 3.96582 21.0137C3.96289 20.9009 3.9834 20.7886 4.02539 20.6841C4.06738 20.5796 4.13184 20.4854 4.21191 20.4067C4.29297 20.3281 4.38965 20.2671 4.49512 20.2275C4.60059 20.188 4.71289 20.1709 4.82617 20.1772ZM4.8457 20.6187C4.58105 20.6187 4.43066 20.7612 4.4209 21.0137C4.41113 21.2661 4.54102 21.4272 4.80664 21.4365C4.86133 21.4443 4.91602 21.4404 4.96875 21.4238C5.02148 21.4077 5.06934 21.3799 5.10938 21.3428C5.15039 21.3052 5.18164 21.2593 5.20215 21.2085C5.22168 21.1572 5.23047 21.1025 5.22656 21.0479C5.2334 20.9937 5.22852 20.939 5.21289 20.8872C5.19727 20.835 5.16992 20.7871 5.13379 20.7466C5.09766 20.7056 5.05371 20.6733 5.00391 20.6514C4.9541 20.6294 4.90039 20.6182 4.8457 20.6187Z" fill="#FA8B02" fill-opacity="1.000000" fill-rule="nonzero"/>
		<path id="Vector" d="M5.46875 20.0552Q5.37305 19.9932 5.26367 19.9517Q5.15527 19.9097 5.04199 19.8911Q4.93652 19.8735 4.82812 19.877Q4.71875 19.8721 4.6123 19.8882Q4.49902 19.9053 4.38965 19.9463Q4.28027 19.9873 4.18359 20.0488Q4.08691 20.1099 4.00293 20.1914Q3.91895 20.2729 3.85547 20.3682Q3.79102 20.4634 3.74707 20.5713Q3.70312 20.6797 3.68359 20.7925Q3.66309 20.9019 3.66602 21.0146Q3.66309 21.2227 3.72168 21.4111Q3.73145 21.4443 3.74316 21.4771Q3.79688 21.6206 3.88184 21.7417Q3.92773 21.8062 3.98242 21.8643Q4.05762 21.9438 4.14551 22.0059Q4.24316 22.0752 4.35547 22.123Q4.43652 22.1572 4.52051 22.1787Q4.66211 22.2153 4.81348 22.2153Q4.93262 22.2173 5.04785 22.1953Q5.16309 22.1738 5.27344 22.1279Q5.38477 22.082 5.48145 22.0161Q5.57812 21.9502 5.66113 21.8643Q5.74414 21.7783 5.80664 21.6792Q5.86914 21.5801 5.91113 21.4683Q5.95312 21.356 5.97168 21.2402Q5.98828 21.1299 5.9834 21.0166Q5.98535 20.9058 5.96582 20.7993Q5.94531 20.687 5.90137 20.5786Q5.85742 20.4707 5.79492 20.3755Q5.73145 20.2808 5.64746 20.1987Q5.56445 20.1172 5.46875 20.0552ZM5.68359 21.0205C5.68652 20.9077 5.66602 20.7959 5.62305 20.6909C5.58105 20.5864 5.51758 20.4917 5.4375 20.4126C5.35742 20.3335 5.26172 20.272 5.15625 20.2314C5.05078 20.1909 4.93848 20.1724 4.82617 20.1772C4.71289 20.1709 4.60059 20.188 4.49512 20.2275C4.38965 20.2671 4.29297 20.3281 4.21191 20.4067C4.13184 20.4854 4.06738 20.5796 4.02539 20.6841C3.9834 20.7886 3.96289 20.9009 3.96582 21.0137C3.95605 21.5303 4.31738 21.915 4.81836 21.915C4.93555 21.9175 5.05078 21.8955 5.15918 21.8506C5.2666 21.8062 5.36426 21.7397 5.44531 21.6558C5.52637 21.5718 5.58984 21.4722 5.63086 21.3628C5.6709 21.2534 5.68945 21.1372 5.68359 21.0205ZM5.22656 21.0479C5.2334 20.9937 5.22852 20.939 5.21289 20.8872C5.19727 20.835 5.16992 20.7871 5.13379 20.7466C5.09766 20.7056 5.05371 20.6733 5.00391 20.6514C4.9541 20.6294 4.90039 20.6182 4.8457 20.6187C4.58105 20.6187 4.43066 20.7612 4.4209 21.0137C4.41113 21.2661 4.54102 21.4272 4.80664 21.4365C4.86133 21.4443 4.91602 21.4404 4.96875 21.4238C5.02148 21.4077 5.06934 21.3799 5.10938 21.3428C5.15039 21.3052 5.18164 21.2593 5.20215 21.2085C5.22168 21.1572 5.23047 21.1025 5.22656 21.0479ZM4.73535 21.1177Q4.71777 21.0977 4.7207 21.0254Q4.72363 20.959 4.74316 20.9409Q4.7666 20.9189 4.84863 20.9189Q4.85742 20.9189 4.86621 20.9204Q4.87402 20.9224 4.88184 20.9258Q4.89062 20.9292 4.89746 20.9341Q4.90332 20.939 4.90918 20.9458Q4.91504 20.9521 4.91895 20.9595Q4.92383 20.9668 4.92578 20.9751Q4.92871 20.9834 4.92969 20.9917Q4.92969 21.0005 4.92871 21.0088L4.9248 21.0386L4.92676 21.0688Q4.92773 21.0767 4.92676 21.084Q4.92578 21.0913 4.92285 21.0981Q4.91992 21.105 4.91602 21.1113Q4.91113 21.1172 4.90625 21.1226Q4.90039 21.1279 4.89355 21.1313Q4.8877 21.1353 4.88086 21.1372Q4.87305 21.1396 4.86523 21.1401Q4.8584 21.1406 4.85059 21.1396L4.83398 21.1372L4.81641 21.1367Q4.75 21.1343 4.73535 21.1177Z" fill="#FA8B02" fill-opacity="1.000000" fill-rule="evenodd"/>
	</g>
</svg>
