<svg width="47.543457" height="60.057678" viewBox="0 0 47.5435 60.0577" fill="none" xmlns="http://www.w3.org/2000/svg" xmlns:xlink="http://www.w3.org/1999/xlink">
	<desc>
			Created with Pixso.
	</desc>
	<defs/>
	<path id="Vector" d="M34.0991 58.0852C34.9365 56.8669 35.7061 55.8287 36.3843 54.733C36.6118 54.3115 36.9585 53.9662 37.3813 53.7403C37.8037 53.5144 38.2837 53.4178 38.7607 53.4626C39.7153 53.5017 40.6753 53.3896 41.6304 53.4443C42.7964 53.5096 42.7285 53.0713 42.2461 52.2756C41.7061 51.3861 41.2441 50.4496 40.7461 49.5313C40.438 48.9678 40.373 48.4122 41.0249 48.0835C41.6274 47.7783 42.0083 48.1904 42.2773 48.6808C43.0049 50.0165 43.7588 51.3391 44.4292 52.7035C45.0293 53.9218 44.3955 54.9626 43.0049 55.0774C41.9248 55.2028 40.8359 55.2411 39.7495 55.1922C38.5415 55.0956 37.811 55.5913 37.2476 56.5905C36.8223 57.3444 36.2979 58.0461 35.7998 58.7557C34.5869 60.48 33.3579 60.4279 32.3511 58.5861C30.4546 55.1165 28.5557 51.647 26.7109 48.1513C26.2544 47.2826 25.8608 46.7348 24.7754 47.2748C24.4565 47.4254 24.1079 47.5022 23.7549 47.4995C23.4023 47.4968 23.0547 47.4146 22.7383 47.2592C21.7153 46.7582 21.3345 47.2357 20.8911 48.0809C19.0649 51.5426 17.187 54.9705 15.3218 58.4061C14.1948 60.493 12.7783 60.66 11.7188 58.5757C10.3101 55.8052 8.29639 54.853 5.28613 55.0643C2.90674 55.2313 2.36133 54.0861 3.51465 51.9626C5.25391 48.7539 6.99268 45.5452 8.73193 42.3365C9.52783 40.8652 9.30078 39.8139 7.88428 38.8278C7.15332 38.3572 6.3877 37.943 5.59375 37.5887C3.54346 36.5895 2.39307 35.0009 2.6875 32.6922C2.99023 30.3026 2.39551 28.2756 0.958008 26.3608C-0.330566 24.647 -0.314941 22.7452 0.979004 21.0339C1.67871 20.1484 2.19141 19.1298 2.48486 18.04C2.77881 16.9503 2.84766 15.8121 2.6875 14.6948C2.41113 12.4513 3.47021 10.8 5.53125 9.91565C7.54492 9.05219 9.01904 7.75824 9.85889 5.67914C10.811 3.3313 12.6816 2.30347 15.1753 2.65045C16.1411 2.79956 17.1274 2.74524 18.0708 2.49097C19.0142 2.23669 19.894 1.78809 20.6538 1.17389C22.7017 -0.391296 24.8535 -0.391296 26.8965 1.17389C27.6772 1.79614 28.5796 2.2486 29.5454 2.50238C30.5112 2.75616 31.519 2.80573 32.5049 2.64783C34.8867 2.33478 36.7051 3.31305 37.6284 5.56696C38.4893 7.66956 39.9478 9.04175 42.019 9.91827C44.0903 10.7948 45.1494 12.4539 44.8652 14.6948C44.7065 15.8115 44.7759 16.9487 45.0693 18.0377C45.3628 19.1268 45.8735 20.1451 46.5713 21.0313C47.8989 22.8 47.8496 24.72 46.5293 26.473C45.147 28.2991 44.5649 30.2609 44.8652 32.5618C45.1831 34.9774 44.0044 36.6208 41.8467 37.6565C40.647 38.233 39.3657 38.7 38.625 39.9756C38.2363 40.6461 38.1294 41.1939 38.5625 41.8852C39.1152 42.767 39.5718 43.7113 40.0625 44.6296C40.3623 45.1904 40.4224 45.7617 39.7622 46.0748C39.165 46.3591 38.792 45.9496 38.5181 45.4539C38.4346 45.3026 38.3564 45.1461 38.2573 44.9948C37.9102 44.3948 37.6963 43.5391 37.1748 43.2652C36.5747 42.9521 36.2588 43.9513 35.7139 44.2461C34.4092 44.9556 33.0215 44.8513 31.6362 44.7678C30.4023 44.6948 29.2026 44.7052 28.125 45.4435C27.7363 45.7043 27.4258 45.913 27.731 46.4661C29.8389 50.2696 31.9131 54.0809 34.0991 58.0852ZM15.9321 4.45306C13.3232 3.79565 11.8545 4.99829 10.9756 7.32263C10.2554 9.2348 8.76611 10.4061 6.92432 11.1417C5.01465 11.9061 4.13281 13.2104 4.45361 15.3157C4.63672 16.3869 4.5835 17.4852 4.29785 18.5338C4.01221 19.5823 3.50098 20.5558 2.7998 21.3861C1.55029 22.9148 1.54004 24.4852 2.78662 26.0113C3.49316 26.8427 4.00879 27.8185 4.29785 28.8703C4.5874 29.9221 4.64307 31.0244 4.46143 32.1C4.15137 34.187 4.95703 35.5096 6.91357 36.2739C7.90137 36.6262 8.79834 37.1931 9.54053 37.9338C10.2822 38.6745 10.8511 39.5706 11.2051 40.5574C11.9331 42.5165 13.292 43.3409 15.3789 43.0252C16.4321 42.8394 17.5127 42.8863 18.5454 43.1625C19.5786 43.4388 20.5386 43.9377 21.3579 44.6243C22.9648 45.9287 24.5981 45.9496 26.2129 44.6374C27.0308 43.9488 27.9893 43.4474 29.021 43.1685C30.0532 42.8895 31.1333 42.8397 32.187 43.0226C34.2476 43.3383 35.6274 42.5452 36.3608 40.5782C36.7134 39.5908 37.2808 38.6935 38.021 37.9512C38.7617 37.2087 39.6577 36.6395 40.644 36.2844C42.5879 35.5356 43.4277 34.2183 43.1147 32.1313C42.9312 31.0557 42.9854 29.9529 43.2725 28.9002C43.5601 27.8476 44.0742 26.8705 44.7788 26.0374C46.0205 24.5191 46.0415 22.9487 44.7788 21.4148C44.0718 20.5835 43.5552 19.6073 43.2656 18.5549C42.9766 17.5025 42.9214 16.3995 43.104 15.3235C43.4224 13.2365 42.5825 11.8931 40.6548 11.1495C39.6514 10.7794 38.7412 10.1937 37.9883 9.43384C37.2358 8.67395 36.6587 7.75824 36.2979 6.75128C35.5991 4.92523 34.3101 4.1087 32.333 4.4035C30.0244 4.72437 27.9165 4.22089 26.0903 2.73389C24.4937 1.42957 22.96 1.54694 21.3633 2.7887C19.7666 4.03046 18.0034 4.76349 15.9321 4.45306ZM13.4668 58.0774C15.6396 54.0991 17.6904 50.327 19.7666 46.5704C20.0771 46.0043 19.8813 45.7513 19.4121 45.433C18.1074 44.5513 16.6753 44.7339 15.2383 44.8069C13.6392 44.8852 12.0791 44.8069 10.9492 43.4531C10.4824 42.8922 10.2661 43.1922 10.0259 43.6252C8.3877 46.6392 6.75098 49.6495 5.11621 52.6565C4.80859 53.2226 4.94678 53.4391 5.58057 53.4391C6.66602 53.4391 7.75391 53.5121 8.83643 53.473C9.91895 53.4339 10.6338 53.8696 11.1841 54.7774C11.8574 55.8209 12.606 56.8304 13.4668 58.0774Z" fill="#FA8B02" fill-opacity="1.000000" fill-rule="nonzero"/>
	<path id="Vector" d="M23.9429 5.53046C28.7168 5.5976 33.2734 7.53796 36.6299 10.9332C39.9868 14.3285 41.875 18.9068 41.8877 23.6812C41.9004 28.4557 40.0366 33.0439 36.6978 36.457C33.3589 39.87 28.813 41.8345 24.0396 41.9269C10.7349 42.1591 1.60449 28.033 7.2915 16.0226C7.44043 15.707 7.59668 15.3965 7.77148 15.0965C8.11572 14.5017 8.43701 13.6826 9.31592 14.1913C10.1143 14.653 9.61328 15.3182 9.31592 15.8922C7.02051 20.3948 6.67578 25.0226 8.5127 29.7522C11.1211 36.5087 18.1646 40.8052 25.4092 40.0774C32.6533 39.3495 38.7134 33.7383 39.9419 26.6191C41.1758 19.4583 37.8184 12.6287 31.3335 9.14087C25.3696 5.91913 17.6924 6.97827 12.5508 11.7234C12.3359 11.9387 12.1064 12.1391 11.8647 12.3235C11.6968 12.4465 11.4897 12.5034 11.2827 12.4832C11.0757 12.463 10.8833 12.3672 10.7427 12.2142C10.6021 12.0611 10.5225 11.8615 10.5195 11.6535C10.5166 11.4456 10.5908 11.2438 10.7271 11.087C11.2329 10.5493 11.7739 10.0464 12.3472 9.58173C15.7388 6.83215 19.6123 5.52258 23.9429 5.53046Z" fill="#FA8B02" fill-opacity="1.000000" fill-rule="nonzero"/>
	<path id="Vector" d="M15.1489 33.4357C15.4253 31.7531 15.689 29.9479 16.0278 28.1531C16.105 27.8626 16.0967 27.5562 16.0044 27.2703C15.9116 26.9844 15.7388 26.7312 15.5063 26.5409C14.3247 25.4504 13.1978 24.3026 12.0342 23.1939C11.2827 22.4791 10.8706 21.6705 11.2305 20.627C11.5776 19.6331 12.3784 19.2913 13.3491 19.1635C14.854 18.9653 16.3516 18.6783 17.8618 18.5192C18.7334 18.4279 19.2759 18.0939 19.6411 17.2696C20.2905 15.8009 21.0474 14.3818 21.7539 12.9365C22.1714 12.0861 22.8315 11.5409 23.7861 11.5409C24.7412 11.5409 25.4009 12.0861 25.8184 12.9391C26.5254 14.3818 27.2847 15.8087 27.9316 17.2722C28.2969 18.1017 28.8472 18.42 29.7134 18.5165C31.3071 18.6939 32.8906 18.9835 34.4819 19.2104C35.374 19.3357 36.0474 19.7609 36.3394 20.6296C36.6602 21.5505 36.394 22.3435 35.7158 23.0061C34.5054 24.1931 33.3052 25.3904 32.0635 26.5461C31.8311 26.7364 31.6582 26.9896 31.5659 27.2755C31.4731 27.5613 31.4648 27.8679 31.542 28.1583C31.8447 29.6922 32.0635 31.2444 32.3247 32.7835C32.5098 33.827 32.4863 34.8 31.542 35.4809C30.6392 36.1174 29.7368 35.8983 28.8418 35.4156C27.4253 34.6539 25.9878 33.934 24.582 33.1539C24.3477 33.0055 24.0767 32.9266 23.7993 32.9266C23.522 32.9266 23.2505 33.0055 23.0166 33.1539C21.4956 33.9887 19.9697 34.8261 18.3994 35.5722C16.6646 36.3887 15.1021 35.374 15.1489 33.4357ZM16.9751 33.1566C16.8052 34.1687 17.2358 34.2 17.9873 33.8009C19.4429 33.0183 20.9243 32.2931 22.3672 31.4896C22.7935 31.2261 23.2852 31.0865 23.7861 31.0865C24.2876 31.0865 24.7788 31.2261 25.2056 31.4896C26.5332 32.2278 27.8872 32.9191 29.2412 33.6131C29.6143 33.8035 30.0234 34.2444 30.4204 33.9678C30.8716 33.6496 30.5688 33.0731 30.501 32.627C30.2739 31.1244 30.021 29.6244 29.7183 28.1322C29.6055 27.6664 29.624 27.1783 29.7715 26.7224C29.9194 26.2664 30.1909 25.8605 30.5557 25.5496C31.7925 24.3914 32.9897 23.2018 34.208 21.9991C34.4219 21.7905 34.73 21.5714 34.6021 21.2374C34.4741 20.9035 34.1299 20.9087 33.8193 20.8644C32.189 20.6218 30.561 20.3218 28.9229 20.1418C27.7539 20.0139 27.0312 19.4583 26.5513 18.4017C25.8682 16.8992 25.0986 15.4383 24.3604 13.967C24.23 13.7061 24.1489 13.3539 23.7681 13.3591C23.3872 13.3644 23.314 13.7139 23.1836 13.9774C22.4009 15.5426 21.6313 17.0896 20.8774 18.6548C20.7051 19.0552 20.4282 19.4018 20.0757 19.6583C19.7231 19.9149 19.3081 20.072 18.874 20.1131C17.2021 20.3427 15.5298 20.6035 13.855 20.8644C13.5132 20.9139 13.0879 20.8644 12.96 21.2583C12.8325 21.6522 13.2212 21.8713 13.4531 22.1087C14.5356 23.1783 15.5923 24.2766 16.7271 25.2861C17.7026 26.1522 18.0786 27.1122 17.7993 28.4166C17.46 29.9766 17.2437 31.5731 16.9751 33.1566Z" fill="#FA8B02" fill-opacity="1.000000" fill-rule="nonzero"/>
</svg>
