<svg width="21.001465" height="13.501892" viewBox="0 0 21.0015 13.5019" fill="none" xmlns="http://www.w3.org/2000/svg" xmlns:xlink="http://www.w3.org/1999/xlink">
	<desc>
			Created with Pixso.
	</desc>
	<defs/>
	<path id="Vector" d="M0 6.75095C0 6.55203 0.0791016 6.36127 0.219727 6.22061C0.360352 6.07996 0.55127 6.00095 0.75 6.00095L18.4395 6.00095L13.7192 1.28195C13.5781 1.14111 13.499 0.950104 13.499 0.750946C13.499 0.551788 13.5781 0.360779 13.7192 0.21994C13.8599 0.0791321 14.0508 0 14.25 0C14.4492 0 14.6401 0.0791321 14.7808 0.21994L20.7808 6.21994C20.8511 6.28961 20.9062 6.37238 20.9438 6.4635C20.9819 6.55463 21.0015 6.65228 21.0015 6.75095C21.0015 6.84961 20.9819 6.94727 20.9438 7.03839C20.9062 7.12952 20.8511 7.21228 20.7808 7.28195L14.7808 13.282C14.6401 13.4228 14.4492 13.5019 14.25 13.5019C14.0508 13.5019 13.8599 13.4228 13.7192 13.282C13.5781 13.1411 13.499 12.9501 13.499 12.7509C13.499 12.5518 13.5781 12.3608 13.7192 12.2199L18.4395 7.50095L0.75 7.50095C0.55127 7.50095 0.360352 7.42194 0.219727 7.28128C0.0791016 7.14062 0 6.94986 0 6.75095Z" fill="#FA8B02" fill-opacity="1.000000" fill-rule="evenodd"/>
</svg>
