<svg width="21.001343" height="13.501953" viewBox="0 0 21.0013 13.502" fill="none" xmlns="http://www.w3.org/2000/svg" xmlns:xlink="http://www.w3.org/1999/xlink">
	<desc>
			Created with Pixso.
	</desc>
	<defs/>
	<path id="Vector" d="M21.0013 6.75098C21.0013 6.552 20.9223 6.36133 20.7817 6.22058C20.641 6.07996 20.4503 6.00098 20.2513 6.00098L2.56184 6.00098L7.28235 1.28198C7.42317 1.14111 7.50229 0.950073 7.50229 0.750977C7.50229 0.551758 7.42317 0.360718 7.28235 0.219971C7.14151 0.0791016 6.9505 0 6.75134 0C6.55219 0 6.36118 0.0791016 6.22034 0.219971L0.220337 6.21997C0.150497 6.28967 0.0950775 6.37244 0.0572815 6.4635C0.0194702 6.55457 0 6.65234 0 6.75098C0 6.84961 0.0194702 6.94727 0.0572815 7.03845C0.0950775 7.12952 0.150497 7.21228 0.220337 7.28198L6.22034 13.282C6.36118 13.4227 6.55219 13.502 6.75134 13.502C6.9505 13.502 7.14151 13.4227 7.28235 13.282C7.42317 13.1411 7.50229 12.9501 7.50229 12.751C7.50229 12.5518 7.42317 12.3607 7.28235 12.22L2.56184 7.50098L20.2513 7.50098C20.4503 7.50098 20.641 7.42188 20.7817 7.28125C20.9223 7.14062 21.0013 6.94983 21.0013 6.75098Z" fill="#333333" fill-opacity="1.000000" fill-rule="evenodd"/>
</svg>
