<svg width="24.000000" height="24.000000" viewBox="0 0 24 24" fill="none" xmlns="http://www.w3.org/2000/svg" xmlns:xlink="http://www.w3.org/1999/xlink">
	<desc>
			Created with Pixso.
	</desc>
	<defs>
		<clipPath id="clip201_3513">
			<rect id="clarity:phone-handset-solid" width="24.000000" height="24.000000" fill="white" fill-opacity="0"/>
		</clipPath>
	</defs>
	<rect id="clarity:phone-handset-solid" width="24.000000" height="24.000000" fill="#FFFFFF" fill-opacity="0"/>
	<g clip-path="url(#clip201_3513)">
		<path id="Vector" d="M10.1475 13.7598C11.5391 15.1714 13.2227 16.2617 15.0801 16.9531L17.5938 14.9531C17.668 14.9019 17.7568 14.8745 17.8467 14.8745C17.9375 14.8745 18.0264 14.9019 18.1006 14.9531L22.7676 17.96C22.9443 18.0664 23.0947 18.2124 23.2051 18.3872C23.3164 18.5615 23.3848 18.7593 23.4062 18.9648C23.4277 19.1704 23.4014 19.3784 23.3281 19.5718C23.2559 19.7651 23.1387 19.939 22.9873 20.0796L20.8008 22.2397C20.4873 22.5493 20.1025 22.7764 19.6807 22.9009C19.2578 23.0254 18.8115 23.0435 18.3809 22.9531C14.082 22.0654 10.1201 19.9863 6.94727 16.9531C3.84473 13.8901 1.69824 9.99219 0.767578 5.7334C0.674805 5.30908 0.694336 4.86816 0.823242 4.45361C0.951172 4.03906 1.18457 3.66455 1.5 3.3667L3.76758 1.17969C3.90723 1.03564 4.07812 0.925293 4.26758 0.856445C4.45703 0.787598 4.6582 0.762695 4.8584 0.783203C5.05859 0.803711 5.25195 0.869141 5.42285 0.975098C5.59375 1.08057 5.73926 1.22363 5.84668 1.39307L8.9541 6C9.00781 6.07227 9.03613 6.15967 9.03613 6.25C9.03613 6.33984 9.00781 6.42725 8.9541 6.5L6.90723 8.95996C7.61719 10.7803 8.72461 12.4199 10.1475 13.7598Z" fill="#FA8B02" fill-opacity="1.000000" fill-rule="nonzero"/>
	</g>
</svg>
