<svg width="19.286133" height="19.285706" viewBox="0 0 19.2861 19.2857" fill="none" xmlns="http://www.w3.org/2000/svg" xmlns:xlink="http://www.w3.org/1999/xlink">
	<desc>
			Created with Pixso.
	</desc>
	<defs/>
	<path id="Vector" d="M16.5 0.5C17.1064 0.5 17.6875 0.740845 18.1162 1.16949C18.5449 1.59814 18.7861 2.1795 18.7861 2.78571L18.7861 16.5C18.7861 17.1062 18.5449 17.6876 18.1162 18.1163C17.6875 18.5449 17.1064 18.7857 16.5 18.7857L2.78613 18.7857C2.17969 18.7857 1.59766 18.5449 1.16992 18.1163C0.741211 17.6876 0.5 17.1062 0.5 16.5L0.5 2.78571C0.5 2.1795 0.741211 1.59814 1.16992 1.16949C1.59766 0.740845 2.17969 0.5 2.78613 0.5L16.5 0.5ZM0.5 5.07141L18.7861 5.07141" stroke="#333333" stroke-opacity="1.000000" stroke-width="1.000000" stroke-linejoin="round" stroke-linecap="round"/>
	<path id="Vector" d="M10.7861 9.64288C10.7861 10.274 10.2744 10.7857 9.64258 10.7857C9.01172 10.7857 8.5 10.274 8.5 9.64288C8.5 9.01166 9.01172 8.5 9.64258 8.5C10.2744 8.5 10.7861 9.01166 10.7861 9.64288Z" fill="#333333" fill-opacity="1.000000" fill-rule="evenodd"/>
	<path id="Vector" d="M6.21484 9.64288C6.21484 10.274 5.70312 10.7857 5.07129 10.7857C4.44043 10.7857 3.92871 10.274 3.92871 9.64288C3.92871 9.01166 4.44043 8.5 5.07129 8.5C5.70312 8.5 6.21484 9.01166 6.21484 9.64288Z" fill="#333333" fill-opacity="1.000000" fill-rule="evenodd"/>
	<path id="Vector" d="M15.3574 9.64288C15.3574 10.274 14.8457 10.7857 14.2139 10.7857C13.583 10.7857 13.0713 10.274 13.0713 9.64288C13.0713 9.01166 13.583 8.5 14.2139 8.5C14.8457 8.5 15.3574 9.01166 15.3574 9.64288Z" fill="#333333" fill-opacity="1.000000" fill-rule="evenodd"/>
	<path id="Vector" d="M10.7861 14.2143C10.7861 14.8455 10.2744 15.3571 9.64258 15.3571C9.01172 15.3571 8.5 14.8455 8.5 14.2143C8.5 13.5831 9.01172 13.0714 9.64258 13.0714C10.2744 13.0714 10.7861 13.5831 10.7861 14.2143Z" fill="#333333" fill-opacity="1.000000" fill-rule="evenodd"/>
	<path id="Vector" d="M6.21484 14.2143C6.21484 14.8455 5.70312 15.3571 5.07129 15.3571C4.44043 15.3571 3.92871 14.8455 3.92871 14.2143C3.92871 13.5831 4.44043 13.0714 5.07129 13.0714C5.70312 13.0714 6.21484 13.5831 6.21484 14.2143Z" fill="#333333" fill-opacity="1.000000" fill-rule="evenodd"/>
	<path id="Vector" d="M15.3574 14.2143C15.3574 14.8455 14.8457 15.3571 14.2139 15.3571C13.583 15.3571 13.0713 14.8455 13.0713 14.2143C13.0713 13.5831 13.583 13.0714 14.2139 13.0714C14.8457 13.0714 15.3574 13.5831 15.3574 14.2143Z" fill="#333333" fill-opacity="1.000000" fill-rule="evenodd"/>
</svg>
