<svg width="24.000000" height="24.000000" viewBox="0 0 24 24" fill="none" xmlns="http://www.w3.org/2000/svg" xmlns:xlink="http://www.w3.org/1999/xlink">
	<desc>
			Created with Pixso.
	</desc>
	<defs>
		<clipPath id="clip201_3518">
			<rect id="fluent:mail-16-filled" width="24.000000" height="24.000000" fill="white" fill-opacity="0"/>
		</clipPath>
	</defs>
	<rect id="fluent:mail-16-filled" width="24.000000" height="24.000000" fill="#FFFFFF" fill-opacity="0"/>
	<g clip-path="url(#clip201_3518)">
		<path id="Vector" d="M4.66699 2.83301C3.69434 2.83301 2.76172 3.21924 2.07422 3.90674C1.38672 4.59473 1 5.52734 1 6.49951L1 6.86816L12 12.7915L23 6.87012L23 6.49951C23 5.52734 22.6133 4.59473 21.9258 3.90674C21.2383 3.21924 20.3057 2.83301 19.333 2.83301L4.66699 2.83301ZM23 8.95068L12.4346 14.6396C12.3008 14.7114 12.1514 14.749 12 14.749C11.8486 14.749 11.6992 14.7114 11.5654 14.6396L1 8.95068L1 17.4995C1 18.4722 1.38672 19.4048 2.07422 20.0923C2.76172 20.7803 3.69434 21.1665 4.66699 21.1665L19.333 21.1665C20.3057 21.1665 21.2383 20.7803 21.9258 20.0923C22.6133 19.4048 23 18.4722 23 17.4995L23 8.95068Z" fill="#FA8B02" fill-opacity="1.000000" fill-rule="nonzero"/>
	</g>
</svg>
