<svg width="50.000000" height="50.000000" viewBox="0 0 50 50" fill="none" xmlns="http://www.w3.org/2000/svg" xmlns:xlink="http://www.w3.org/1999/xlink">
	<desc>
			Created with Pixso.
	</desc>
	<defs>
		<clipPath id="clip201_29248">
			<rect id="fluent:mail-20-regular" width="24.000000" height="24.000000" transform="translate(13.000000 13.000000)" fill="white" fill-opacity="0"/>
		</clipPath>
	</defs>
	<g opacity="0.300000">
		<circle id="Ellipse 6" cx="25.000000" cy="25.000000" r="25.000000" fill="#FA8B02" fill-opacity="1.000000"/>
	</g>
	<rect id="fluent:mail-20-regular" width="24.000000" height="24.000000" transform="translate(13.000000 13.000000)" fill="#FFFFFF" fill-opacity="0"/>
	<g clip-path="url(#clip201_29248)">
		<path id="Vector" d="M31.6006 17.8C32.3965 17.8 33.1592 18.1162 33.7217 18.6787C34.2842 19.2415 34.6006 20.0044 34.6006 20.8L34.6006 30.4001C34.6006 31.1958 34.2842 31.9587 33.7217 32.5215C33.1592 33.084 32.3965 33.4001 31.6006 33.4001L18.4004 33.4001C17.6045 33.4001 16.8418 33.084 16.2793 32.5215C15.7168 31.9587 15.4004 31.1958 15.4004 30.4001L15.4004 20.8C15.4004 20.0044 15.7168 19.2415 16.2793 18.6787C16.8418 18.1162 17.6045 17.8 18.4004 17.8L31.6006 17.8ZM33.4004 22.5532L25.3057 27.3171C25.2285 27.3623 25.1436 27.3896 25.0547 27.3975C24.9668 27.4053 24.877 27.3936 24.7939 27.3628L24.6953 27.3171L16.6006 22.5557L16.6006 30.4001C16.6006 30.8774 16.79 31.3352 17.1279 31.6729C17.4648 32.0105 17.9229 32.2 18.4004 32.2L31.6006 32.2C32.0781 32.2 32.5352 32.0105 32.873 31.6729C33.2109 31.3352 33.4004 30.8774 33.4004 30.4001L33.4004 22.5532ZM31.6006 19L18.4004 19C17.9229 19 17.4648 19.1897 17.1279 19.5273C16.79 19.8647 16.6006 20.3228 16.6006 20.8L16.6006 21.1624L25 26.104L33.4004 21.1602L33.4004 20.8C33.4004 20.3228 33.2109 19.8647 32.873 19.5273C32.5352 19.1897 32.0781 19 31.6006 19Z" fill="#FA8B02" fill-opacity="1.000000" fill-rule="nonzero"/>
		<path id="Vector" d="M34.3447 18.9663Q34.166 18.6987 33.9336 18.4666Q33.7021 18.2346 33.4346 18.0557Q33.166 17.877 32.8633 17.7512Q32.5596 17.6257 32.2441 17.5627Q31.9287 17.5 31.6006 17.5L18.4004 17.5Q18.0723 17.5 17.7568 17.5627Q17.4404 17.6257 17.1377 17.7512Q16.834 17.877 16.5664 18.0557Q16.2988 18.2346 16.0674 18.4666Q15.835 18.6987 15.6562 18.9663Q15.4775 19.2339 15.3516 19.5371Q15.2256 19.8403 15.1631 20.156Q15.1006 20.4719 15.1006 20.8L15.1006 30.4001Q15.1006 30.7283 15.1631 31.0439Q15.2256 31.3596 15.3516 31.6628Q15.4775 31.9661 15.6562 32.2336Q15.835 32.5015 16.0674 32.7334Q16.2988 32.9656 16.5664 33.1443Q16.834 33.3232 17.1377 33.4487Q17.4404 33.5745 17.7568 33.6372Q18.0723 33.7 18.4004 33.7L31.6006 33.7Q31.9287 33.7 32.2441 33.6372Q32.5596 33.5745 32.8633 33.4487Q33.167 33.3232 33.4346 33.1443Q33.7021 32.9656 33.9336 32.7334Q34.166 32.5015 34.3447 32.2336Q34.5234 31.9661 34.6494 31.6628Q34.7744 31.3599 34.8379 31.0442Q34.9004 30.7283 34.9004 30.4001L34.9004 20.8Q34.9004 20.4717 34.8379 20.156Q34.7744 19.8403 34.6494 19.5371Q34.5234 19.2339 34.3447 18.9663ZM31.6006 17.8C32.3965 17.8 33.1592 18.1162 33.7217 18.6787C34.2842 19.2415 34.6006 20.0044 34.6006 20.8L34.6006 30.4001C34.6006 31.1958 34.2842 31.9587 33.7217 32.5215C33.1592 33.084 32.3965 33.4001 31.6006 33.4001L18.4004 33.4001C17.6045 33.4001 16.8418 33.084 16.2793 32.5215C15.7168 31.9587 15.4004 31.1958 15.4004 30.4001L15.4004 20.8C15.4004 20.0044 15.7168 19.2415 16.2793 18.6787C16.8418 18.1162 17.6045 17.8 18.4004 17.8L31.6006 17.8ZM31.6006 19L18.4004 19C17.9229 19 17.4648 19.1897 17.1279 19.5273C16.79 19.8647 16.6006 20.3228 16.6006 20.8L16.6006 21.1624L25 26.104L33.4004 21.1602L33.4004 20.8C33.4004 20.3228 33.2109 19.8647 32.873 19.5273C32.5352 19.1897 32.0781 19 31.6006 19ZM33.1006 20.9885L33.1006 20.8Q33.1006 20.6509 33.0723 20.5073Q33.043 20.3638 32.9863 20.2261Q32.9287 20.0881 32.8477 19.9666Q32.7666 19.845 32.6611 19.7395Q32.5557 19.634 32.4336 19.5527Q32.3125 19.4714 32.1748 19.4143Q32.0361 19.3572 31.8926 19.3286Q31.75 19.3 31.6006 19.3L18.4004 19.3Q18.251 19.3 18.1074 19.3286Q17.9639 19.3572 17.8262 19.4143Q17.6885 19.4714 17.5664 19.5525Q17.4453 19.6338 17.3398 19.7395Q17.2344 19.845 17.1533 19.9666Q17.0713 20.0881 17.0146 20.2261Q16.957 20.3638 16.9287 20.5073Q16.9004 20.6509 16.9004 20.8L16.9004 20.991L25 25.7559L33.1006 20.9885ZM24.6953 27.3171L16.9004 22.7322L16.6006 22.5557L16.6006 30.4001C16.6006 30.8774 16.79 31.3352 17.1279 31.6729C17.4648 32.0105 17.9229 32.2 18.4004 32.2L31.6006 32.2C32.0781 32.2 32.5352 32.0105 32.873 31.6729C33.2109 31.3352 33.4004 30.8774 33.4004 30.4001L33.4004 22.5532L33.1006 22.7297L25.3057 27.3171C25.2285 27.3623 25.1436 27.3896 25.0547 27.3975C24.9668 27.4053 24.877 27.3936 24.7939 27.3628L24.6953 27.3171ZM33.1006 23.0779L25.457 27.5757L25.457 27.5759Q25.3701 27.6272 25.2764 27.6572Q25.1816 27.6873 25.0811 27.6963Q24.9805 27.7053 24.8828 27.6924Q24.7852 27.6792 24.6904 27.6443L24.6787 27.6401L24.5557 27.5833L16.9004 23.0801L16.9004 30.4001Q16.9004 30.5493 16.9287 30.6926Q16.957 30.8362 17.0146 30.9741Q17.0713 31.1118 17.1533 31.2336Q17.2344 31.3552 17.3398 31.4607Q17.4453 31.5662 17.5674 31.6475Q17.6885 31.7288 17.8262 31.7859Q17.9639 31.843 18.1074 31.8716Q18.251 31.9001 18.4004 31.9001L31.6006 31.9001Q31.75 31.9001 31.8936 31.8716Q32.0361 31.843 32.1748 31.7859Q32.3125 31.7288 32.4336 31.6475Q32.5557 31.5662 32.6611 31.4607Q32.7666 31.3552 32.8477 31.2336Q32.9287 31.1118 32.9863 30.9741Q33.043 30.8362 33.0723 30.6926Q33.1006 30.5493 33.1006 30.4001L33.1006 23.0779Z" fill="#FA8B02" fill-opacity="1.000000" fill-rule="evenodd"/>
	</g>
</svg>
