<svg width="12.000000" height="12.000000" viewBox="0 0 12 12" fill="none" xmlns="http://www.w3.org/2000/svg" xmlns:xlink="http://www.w3.org/1999/xlink">
	<desc>
			Created with Pixso.
	</desc>
	<defs/>
	<path id="Vector 139 (Stroke)" d="M0.169922 0.170074C0.396973 -0.0567017 0.764648 -0.0567017 0.991211 0.170074L6 5.17883L11.0088 0.170074C11.2354 -0.0567017 11.603 -0.0567017 11.8301 0.170074C12.0566 0.39682 12.0566 0.764465 11.8301 0.991211L6.82129 6L11.8301 11.0088C12.0566 11.2355 12.0566 11.6032 11.8301 11.8299C11.603 12.0567 11.2354 12.0567 11.0088 11.8299L6 6.82117L0.991211 11.8299C0.764648 12.0567 0.396973 12.0567 0.169922 11.8299C-0.0566406 11.6032 -0.0566406 11.2355 0.169922 11.0088L5.17871 6L0.169922 0.991211C-0.0566406 0.764465 -0.0566406 0.39682 0.169922 0.170074Z" fill="#46A358" fill-opacity="1.000000" fill-rule="evenodd"/>
</svg>
