<svg width="48.000000" height="48.000000" viewBox="0 0 48 48" fill="none" xmlns="http://www.w3.org/2000/svg" xmlns:xlink="http://www.w3.org/1999/xlink">
	<desc>
			Created with Pixso.
	</desc>
	<defs/>
	<path id="Vector" d="M24 0C10.7451 0 0 10.7451 0 24C0 37.2549 10.7451 48 24 48C37.2549 48 48 37.2549 48 24C48 10.7451 37.2549 0 24 0ZM29.6846 16.585L26.0771 16.585C25.6504 16.585 25.1748 17.1475 25.1748 17.895L25.1748 20.5L29.6875 20.5L29.0049 24.2148L25.1748 24.2148L25.1748 35.3677L20.918 35.3677L20.918 24.2148L17.0547 24.2148L17.0547 20.5L20.918 20.5L20.918 18.3149C20.918 15.1802 23.0928 12.6323 26.0771 12.6323L29.6846 12.6323L29.6846 16.585Z" fill="#FA8B02" fill-opacity="1.000000" fill-rule="nonzero"/>
</svg>
