<svg width="50.000000" height="50.000000" viewBox="0 0 50 50" fill="none" xmlns="http://www.w3.org/2000/svg" xmlns:xlink="http://www.w3.org/1999/xlink">
	<desc>
			Created with Pixso.
	</desc>
	<defs>
		<clipPath id="clip201_29148">
			<rect id="bx:key" width="24.000000" height="24.000000" transform="translate(13.000000 13.000000)" fill="white" fill-opacity="0"/>
		</clipPath>
	</defs>
	<g opacity="0.300000">
		<circle id="Ellipse 6" cx="25.000000" cy="25.000000" r="25.000000" fill="#FA8B02" fill-opacity="1.000000"/>
	</g>
	<rect id="bx:key" width="24.000000" height="24.000000" transform="translate(13.000000 13.000000)" fill="#FFFFFF" fill-opacity="0"/>
	<g clip-path="url(#clip201_29148)">
		<path id="Vector" d="M20 30C21.1523 29.9985 22.2686 29.5999 23.1602 28.8711C24.0527 28.1423 24.666 27.1284 24.8984 26L27 26L27 28L29 28L29 26L31 26L31 29L33 29L33 26L34 26L34 24L24.8984 24C24.666 22.8716 24.0527 21.8577 23.1602 21.1289C22.2686 20.4001 21.1523 20.0015 20 20C17.2432 20 15 22.2429 15 25C15 27.7571 17.2432 30 20 30ZM20 22C21.6543 22 23 23.3459 23 25C23 26.6541 21.6543 28 20 28C18.3457 28 17 26.6541 17 25C17 23.3459 18.3457 22 20 22Z" fill="#FA8B02" fill-opacity="1.000000" fill-rule="nonzero"/>
	</g>
</svg>
