<svg width="43.750000" height="43.750000" viewBox="0 0 43.75 43.75" fill="none" xmlns="http://www.w3.org/2000/svg" xmlns:xlink="http://www.w3.org/1999/xlink">
	<desc>
			Created with Pixso.
	</desc>
	<defs/>
	<path id="Subtract" d="M0 21.875C0 9.79492 9.79492 0 21.875 0C33.9551 0 43.75 9.79492 43.75 21.875C43.75 33.9551 33.9551 43.75 21.875 43.75C9.79492 43.75 0 33.9551 0 21.875ZM21.875 10.875C18.8867 10.875 18.5127 10.8872 17.3398 10.9409L17.3389 10.9409C16.1689 10.9951 15.3691 11.1812 14.6689 11.4521C13.9355 11.7285 13.2715 12.1616 12.7217 12.7212C12.1621 13.2705 11.7285 13.9351 11.4521 14.6689C11.1807 15.3691 10.9941 16.1689 10.9414 17.3408C10.8877 18.5132 10.875 18.8872 10.875 21.875C10.875 24.8618 10.8867 25.2358 10.9414 26.4111C10.9951 27.5811 11.1807 28.3809 11.4521 29.0811C11.7285 29.8149 12.1611 30.4795 12.7207 31.0288C13.2705 31.5884 13.9355 32.021 14.6699 32.2969C15.3701 32.5688 16.1699 32.7559 17.3398 32.8091C18.5127 32.8618 18.8867 32.875 21.875 32.875C24.8633 32.875 25.2373 32.8628 26.4111 32.8091C27.5811 32.7549 28.3809 32.5688 29.0811 32.2969C29.8145 32.021 30.4785 31.5889 31.0293 31.0288C31.5879 30.479 32.0205 29.814 32.2969 29.0801C32.5693 28.3799 32.7559 27.5801 32.8086 26.4102C32.8623 25.2368 32.875 24.8628 32.875 21.875C32.875 18.8882 32.8633 18.5142 32.8086 17.3389C32.7549 16.1689 32.5693 15.3691 32.2969 14.6689C32.0215 13.9351 31.5889 13.271 31.0293 12.7222C30.4785 12.1621 29.8145 11.729 29.0811 11.4521C28.3809 11.1812 27.5811 10.9941 26.4092 10.9409C25.2373 10.8882 24.8633 10.875 21.875 10.875ZM21.875 12.8569C24.8115 12.8569 25.1602 12.8682 26.3203 12.9209C27.3926 12.9702 27.9746 13.1489 28.3633 13.2998C28.8408 13.4761 29.2725 13.7568 29.6279 14.1221C30.0127 14.5068 30.25 14.874 30.4502 15.3872C30.6006 15.7749 30.7803 16.3569 30.8291 17.4302C30.8818 18.5898 30.8926 18.938 30.8926 21.875C30.8926 24.812 30.8818 25.1602 30.8291 26.3198C30.7803 27.3931 30.6006 27.9751 30.4502 28.3628C30.2744 28.8398 29.9932 29.2729 29.6279 29.6279C29.2432 30.0132 28.876 30.25 28.3633 30.4502C27.9746 30.6011 27.3926 30.7798 26.3203 30.8291C25.1602 30.8818 24.8135 30.8931 21.875 30.8931C18.9365 30.8931 18.5898 30.8818 17.4297 30.8291C16.3574 30.7798 15.7754 30.6011 15.3867 30.4502C14.9102 30.2739 14.4766 29.9932 14.1221 29.6279C13.7568 29.2729 13.4756 28.8398 13.2998 28.3628C13.1494 27.9751 12.9697 27.3931 12.9209 26.3198C12.8682 25.1602 12.8574 24.812 12.8574 21.875C12.8574 18.938 12.8682 18.5898 12.9209 17.4302C12.9697 16.3569 13.1494 15.7749 13.2998 15.3872C13.4766 14.9092 13.7568 14.4771 14.1221 14.1221C14.5068 13.7368 14.874 13.5 15.3867 13.2998C15.7754 13.1489 16.3574 12.9702 17.4297 12.9209C18.5898 12.8682 18.9385 12.8569 21.875 12.8569ZM29.0889 16.6289C29.0176 16.7925 28.9131 16.9404 28.7832 17.063C28.5303 17.3018 28.1943 17.4321 27.8457 17.4272C27.498 17.4224 27.166 17.2817 26.9199 17.0356C26.6738 16.79 26.5342 16.4575 26.5283 16.1099C26.5234 15.7622 26.6543 15.4263 26.8926 15.1729C27.0156 15.043 27.1631 14.939 27.3271 14.8667C27.4912 14.7944 27.667 14.7563 27.8457 14.7534C28.0254 14.751 28.2021 14.7842 28.3682 14.8516C28.5342 14.9189 28.6846 15.0186 28.8105 15.145C28.9375 15.2715 29.0371 15.4219 29.1045 15.5879C29.1719 15.7534 29.2051 15.9312 29.2021 16.1099C29.2002 16.2886 29.1611 16.4653 29.0889 16.6289ZM19.7109 16.6514C19.0254 16.9355 18.4023 17.3521 17.877 17.877C16.8164 18.9375 16.2207 20.3755 16.2207 21.875C16.2207 23.3745 16.8164 24.8125 17.877 25.873C18.9375 26.9331 20.375 27.5288 21.875 27.5288C23.375 27.5288 24.8125 26.9331 25.873 25.873C26.3984 25.3481 26.8145 24.7246 27.0986 24.0386C27.3828 23.3525 27.5293 22.6177 27.5293 21.875C27.5293 21.1323 27.3828 20.3975 27.0986 19.7114C26.8145 19.0254 26.3984 18.4019 25.873 17.877C25.3477 17.3521 24.7246 16.9355 24.0391 16.6514C23.3525 16.3672 22.6172 16.2212 21.875 16.2212C21.1328 16.2212 20.3975 16.3672 19.7109 16.6514ZM22.9424 25.3906C22.1279 25.6367 21.2549 25.5928 20.4697 25.2661C19.9688 25.0581 19.5195 24.7417 19.1553 24.3398C18.791 23.9375 18.5205 23.46 18.3633 22.9404C18.2061 22.4214 18.166 21.8735 18.2451 21.3369C18.3252 20.8003 18.5225 20.2881 18.8242 19.8369C19.126 19.3857 19.5234 19.0073 19.9893 18.728C20.4541 18.4492 20.9756 18.2769 21.5156 18.2236C22.0557 18.1704 22.6006 18.2373 23.1113 18.4199C23.6221 18.603 24.0859 18.8965 24.4697 19.2798C25.0723 19.8799 25.4473 20.6704 25.5312 21.5161C25.6152 22.3618 25.4023 23.2104 24.9307 23.9175C24.458 24.624 23.7559 25.1445 22.9424 25.3906Z" clip-rule="evenodd" fill="#FA8B02" fill-opacity="1.000000" fill-rule="evenodd"/>
</svg>
