<svg width="40.006836" height="28.006836" viewBox="0 0 40.0068 28.0068" fill="none" xmlns="http://www.w3.org/2000/svg" xmlns:xlink="http://www.w3.org/1999/xlink">
	<path id="Vector" d="M40.002 9.99756C39.8633 18.5303 35.1836 25.1367 27.4541 27.6948C27.2686 27.752 27.1025 27.8091 26.9238 27.8589C25.8418 28.168 24.9746 27.9121 24.4648 27.1367C23.9551 26.3613 24.0391 25.4517 24.7725 24.6079C26.1553 23.0361 27.3281 21.293 28.2607 19.4219C28.7793 18.3721 28.7852 18.3735 27.7041 18.042C23.8018 16.8413 21.1865 13.1099 21.3018 8.90527C21.4111 4.89404 24.3428 1.29346 28.3086 0.293457C30.2676 -0.212402 32.3408 -0.0610352 34.2051 0.723145C36.0693 1.50732 37.6211 2.88086 38.6201 4.63086C39.5762 6.25586 40.0547 8.11523 40.002 9.99756Z" fill="#FA8B02" fill-opacity="1.000000" fill-rule="nonzero"/>
	<path id="Vector" d="M18.7129 10.0366C18.5869 18.6465 13.7256 25.3765 5.88477 27.7944C5.31738 27.979 4.75977 28.1094 4.16699 27.8979C2.81738 27.415 2.4502 25.8276 3.46484 24.6543C4.91699 22.9839 6.15039 21.1372 7.13574 19.1587C7.44141 18.5415 7.38184 18.3022 6.65723 18.0923C4.68164 17.5239 2.9541 16.3159 1.74902 14.6597C0.543945 13.0034 -0.0693359 10.9941 0.00585938 8.95166C0.154297 4.79297 3.19727 1.13916 7.25781 0.242188C9.26074 -0.223633 11.3623 -0.00927734 13.2275 0.850586C15.0928 1.71045 16.6152 3.1665 17.5508 4.98633C18.3926 6.59229 18.7402 8.1084 18.7129 10.0366Z" fill="#FA8B02" fill-opacity="1.000000" fill-rule="nonzero"/>
</svg>
