<svg width="17.107666" height="22.000000" viewBox="0 0 17.1077 22" fill="none" xmlns="http://www.w3.org/2000/svg" xmlns:xlink="http://www.w3.org/1999/xlink">
	<desc>
			Created with Pixso.
	</desc>
	<defs/>
	<path id="Vector" d="M8.55396 22C7.0105 20.6835 5.57983 19.2402 4.27686 17.6852C2.32178 15.35 0 11.8722 0 8.55817C-0.000732422 6.86566 0.500488 5.211 1.44043 3.80347C2.38037 2.39594 3.71655 1.29895 5.28027 0.651184C6.84399 0.003479 8.5647 -0.165833 10.2244 0.164734C11.8843 0.4953 13.4089 1.31079 14.6052 2.50812C15.4016 3.30103 16.033 4.24402 16.4624 5.28247C16.8921 6.32098 17.1113 7.43433 17.1077 8.55817C17.1077 11.8722 14.7859 15.35 12.8308 17.6852C11.5281 19.2402 10.0974 20.6835 8.55396 22ZM8.55396 4.89221C7.58154 4.89221 6.64917 5.27844 5.96167 5.96594C5.27417 6.65344 4.88794 7.58588 4.88794 8.55817C4.88794 9.53046 5.27417 10.4629 5.96167 11.1504C6.64917 11.8379 7.58154 12.2241 8.55396 12.2241C9.52612 12.2241 10.4585 11.8379 11.146 11.1504C11.8335 10.4629 12.2197 9.53046 12.2197 8.55817C12.2197 7.58588 11.8335 6.65344 11.146 5.96594C10.4585 5.27844 9.52612 4.89221 8.55396 4.89221Z" fill="#FA8B02" fill-opacity="1.000000" fill-rule="nonzero"/>
</svg>
