<svg width="24.000000" height="24.000000" viewBox="0 0 24 24" fill="none" xmlns="http://www.w3.org/2000/svg" xmlns:xlink="http://www.w3.org/1999/xlink">
	<desc>
			Created with Pixso.
	</desc>
	<defs>
		<clipPath id="clip201_3509">
			<rect id="ci:location" width="24.000000" height="24.000000" fill="white" fill-opacity="0"/>
		</clipPath>
	</defs>
	<rect id="ci:location" width="24.000000" height="24.000000" fill="#FFFFFF" fill-opacity="0"/>
	<g clip-path="url(#clip201_3509)">
		<path id="Vector" d="M12 23C10.457 21.6836 9.02637 20.2402 7.72363 18.6851C5.76758 16.3501 3.44629 12.8721 3.44629 9.55811C3.44531 7.86572 3.94629 6.21094 4.88672 4.80371C5.82617 3.396 7.16309 2.29883 8.72656 1.65137C10.29 1.00342 12.0107 0.833984 13.6709 1.16455C15.3311 1.49512 16.8555 2.31104 18.0518 3.5083C18.8477 4.30127 19.4795 5.24414 19.9092 6.28271C20.3379 7.3208 20.5576 8.43457 20.5537 9.55811C20.5537 12.8721 18.2324 16.3501 16.2773 18.6851C14.9746 20.2402 13.5439 21.6836 12 23ZM12 5.89209C11.0283 5.89209 10.0957 6.27832 9.4082 6.96582C8.7207 7.65332 8.33398 8.58594 8.33398 9.55811C8.33398 10.5303 8.7207 11.4629 9.4082 12.1504C10.0957 12.8379 11.0283 13.2241 12 13.2241C12.9727 13.2241 13.9053 12.8379 14.5928 12.1504C15.2803 11.4629 15.666 10.5303 15.666 9.55811C15.666 8.58594 15.2803 7.65332 14.5928 6.96582C13.9053 6.27832 12.9727 5.89209 12 5.89209Z" fill="#FA8B02" fill-opacity="1.000000" fill-rule="nonzero"/>
	</g>
</svg>
