<svg width="60.002930" height="60.002197" viewBox="0 0 60.0029 60.0022" fill="none" xmlns="http://www.w3.org/2000/svg" xmlns:xlink="http://www.w3.org/1999/xlink">
	<desc>
			Created with Pixso.
	</desc>
	<defs/>
	<path id="Vector" d="M27.9878 2.01105C35.4868 2.01105 42.9873 2.01105 50.4883 2.01105C51.2666 2.01105 52.0864 2.19446 52.02 0.919006C51.9893 0.363281 52.5034 0.0326538 53.0762 0.0270386C54.2324 0.0270386 55.4053 -0.0618286 56.5449 0.0826416C58.6382 0.360535 59.9888 2.10553 59.9946 4.44238C60.0054 11.0612 60.0054 17.68 59.9946 24.2988C59.9946 31.9346 59.9946 39.5714 59.9946 47.209C59.9946 50.4351 58.4658 51.9495 55.2217 51.9522C50.4077 51.9522 45.5908 51.9717 40.7681 51.9522C39.9619 51.9522 39.3145 52.0773 38.875 52.7858C38.8281 52.8636 38.7446 52.9192 38.6943 52.9943C36.2983 56.5482 32.813 58.4738 28.813 59.6436C28.3154 59.7909 27.8237 59.9965 27.3647 59.6186C26.8481 59.1879 26.9951 58.6461 27.1592 58.0875C27.6484 56.4009 28.0933 54.7003 28.5908 53.0165C28.7935 52.3218 28.8354 51.9384 27.8706 51.9439C22.2227 51.9828 16.5747 51.9745 10.9155 51.9439C10.1899 51.9439 9.95068 52.1578 9.96777 52.8887C10.0122 54.7393 9.95068 56.5927 9.99268 58.446C10.0176 59.588 9.51465 60.0438 8.40283 59.9993C7.38525 59.9604 6.36523 59.9993 5.34521 59.9993C2.12646 59.9437 0 57.8235 0 54.5475C0 43.4384 0 32.3301 0 21.2228C0 16.6852 0 12.1505 0 7.6073C0.0136719 4.06451 2.0542 2.02216 5.62305 2.01379C13.0781 2.00269 20.5327 2.00177 27.9878 2.01105ZM28.0601 4.06171L5.96484 4.06171C2.95459 4.06171 2.00977 5.02313 2.00977 8.07965L2.00977 49.2041C2.00977 49.4348 2.00977 49.6682 2.00977 49.8988C1.96777 50.5823 2.1626 50.8769 2.87402 50.4962C3.80518 49.996 4.81982 49.9933 5.854 49.9933C13.6367 49.9933 21.4194 49.9933 29.2021 49.9933C29.5718 49.9933 29.9443 49.9933 30.314 49.9933C30.502 49.9897 30.6836 49.9244 30.8311 49.8074C30.978 49.6904 31.0825 49.5282 31.1284 49.3458C31.248 48.9791 30.9146 48.7679 30.6504 48.5817C30.1982 48.2504 29.6567 48.0626 29.0967 48.0426C28.3101 48.0232 27.5234 48.0093 26.7368 48.0232C26.0503 48.0232 26.0029 47.5869 26.042 47.0951C26.0723 46.6783 25.8364 46.0447 26.5591 46.0225C28.3574 45.9697 30.2529 45.6835 31.7651 46.9451C32.5991 47.637 32.9658 47.4758 33.6162 46.745C37.9551 41.8656 42.3608 37.0446 46.7109 32.1764C47.9312 30.8093 49.3486 30.2007 51.1582 30.5842C51.4165 30.637 51.8311 30.976 51.9033 30.4119C51.9756 29.8478 51.4946 30.0312 51.2192 30.0284C49.6431 30.0118 48.0674 30.0118 46.4941 30.0284C45.7324 30.0284 45.0127 29.9062 45.0513 28.9642C45.0874 28.0973 45.8076 28.0472 46.4941 28.05C47.9756 28.05 49.46 28.0139 50.9414 28.05C51.7168 28.0778 52.0005 27.8444 51.9756 27.0414C51.9233 25.3741 51.9233 23.707 51.9756 22.0397C52.0029 21.2062 51.6973 21.02 50.9272 21.0422C49.4014 21.0895 47.8701 21.0589 46.3438 21.0422C45.6157 21.0422 45.0098 20.7977 45.043 19.9557C45.0767 19.1916 45.6768 19.011 46.3354 19.0082C47.8198 19.0082 49.3013 18.9637 50.7827 19.0082C51.6499 19.0388 52.02 18.822 51.981 17.8634C51.9087 15.9683 51.9058 14.0649 51.981 12.1699C52.02 11.2085 51.6528 11.0056 50.7856 11.0389C49.2598 11.0945 47.728 11.064 46.2021 11.0389C45.5127 11.0389 45.0098 10.7111 45.043 9.95526C45.0767 9.26337 45.5991 9.04944 46.2104 9.03552C46.9053 9.02167 47.6001 9.0578 48.2954 9.01886C49.4849 8.95496 51.0747 9.54126 51.7529 8.74103C52.3369 8.0658 51.8584 6.51807 51.978 5.38159C52.0977 4.24512 51.6196 4.01727 50.5884 4.02283C43.0835 4.07837 35.5786 4.06171 28.0737 4.06171L28.0601 4.06171ZM57.9932 23.8459C57.9932 17.5475 57.9932 11.2548 57.9932 4.96753C58.0146 4.46143 57.9673 3.95471 57.8516 3.46149C57.5068 2.28058 56.2144 1.73041 54.6157 2.03052C53.415 2.25555 53.9849 3.22534 53.9824 3.82275C53.9468 16.2657 53.9404 28.7076 53.9629 41.1487C53.9629 42.0184 53.6235 43.0466 54.1377 43.7134C54.6021 44.3137 55.6221 43.8385 56.3809 43.9913C56.4756 43.9957 56.5688 44.0125 56.6592 44.0413C57.9736 44.6443 58.0264 43.9274 58.021 42.8715C57.9736 36.525 57.9932 30.1868 57.9932 23.8459ZM51.9585 38.5007C49.9575 40.279 42.2554 48.9596 41.7715 49.9794C46.5718 49.9794 51.3223 50.0155 56.0723 49.9543C57.2344 49.9405 57.9653 49.1207 57.9487 47.9454C57.9321 46.77 57.1899 46.0837 56.0029 46.0003C55.1689 45.9475 54.3354 45.9503 53.5015 45.9781C52.3896 46.017 51.917 45.5112 51.9419 44.3887C51.978 42.5131 51.9585 40.618 51.9585 38.5007ZM8.0415 54.9977C8.0415 51.5938 8.0415 51.5938 4.80566 51.9717C4.7124 51.9771 4.61963 51.9882 4.52783 52.005C3.33545 52.3301 2.45703 52.9998 2.13184 54.2446C1.98145 54.7592 1.98291 55.3063 2.13623 55.8201C2.28955 56.3338 2.58838 56.7922 2.99658 57.14C4.3501 58.3987 6.10938 58.2015 7.59668 57.8514C8.63037 57.6096 7.81348 56.1536 8.03564 55.2728C8.04785 55.1815 8.04883 55.0891 8.03857 54.9977L8.0415 54.9977ZM31.8594 52.8109C32.2905 52.7775 32.4766 52.4218 32.7158 52.1578C36.4331 48.051 40.1455 43.9395 43.8535 39.8233C44.0063 39.651 44.1538 39.4732 44.3037 39.2981C44.356 39.2521 44.3965 39.1943 44.4224 39.1295C44.4478 39.0648 44.458 38.9949 44.4517 38.9255C44.4448 38.8561 44.4224 38.7893 44.3848 38.7304C44.3477 38.6716 44.2969 38.6223 44.2368 38.5868C44.1963 38.5484 44.1479 38.5187 44.0952 38.4997C44.0425 38.4807 43.9863 38.4725 43.9302 38.476C43.8745 38.4793 43.8198 38.4941 43.7695 38.5193C43.7197 38.5446 43.6753 38.5799 43.6392 38.6229C43.4419 38.8174 43.2588 39.023 43.0835 39.2286L32.1182 51.3492C31.8906 51.5779 31.6851 51.8272 31.5039 52.0939C31.2368 52.5163 31.5596 52.6608 31.8569 52.8109L31.8594 52.8109ZM46.7388 41.0237C46.6191 40.8569 46.5522 40.6597 46.416 40.5902C45.8799 40.3124 45.6826 40.8209 45.4297 41.0987C41.6621 45.2445 37.9053 49.3986 34.1582 53.5611C33.894 53.8556 33.252 54.1807 33.8442 54.6725C34.436 55.1644 34.6475 54.4503 34.9058 54.1696C38.6475 50.0627 42.3745 45.9438 46.0884 41.8128C46.2993 41.5767 46.4912 41.321 46.7358 41.0237L46.7388 41.0237ZM52.0479 34.3549C52.0361 33.9393 51.8965 33.5375 51.6475 33.2045C50.9355 32.2875 49.6543 32.2125 48.7207 32.9877C47.478 34.0214 48.751 34.3771 49.2236 34.9551C49.3945 35.1746 49.6025 35.3626 49.8379 35.5108C50.2661 35.7581 50.4995 36.5723 51.1636 36.1388C51.4541 35.9456 51.6885 35.6791 51.8433 35.3665C51.998 35.0537 52.0674 34.7057 52.0449 34.3577L52.0479 34.3549ZM49.3682 38.1589C49.3989 37.7254 49.1235 37.5865 48.9316 37.4058C48.395 36.9001 47.8198 36.4361 47.3003 35.9137C46.7803 35.3913 46.4302 35.4747 45.9463 35.9971C45.4268 36.5528 45.3682 36.9585 46.0049 37.4475C46.5605 37.8699 47.0303 38.3728 47.5586 38.8202C47.8198 39.0397 48.084 39.4454 48.4897 39.0981C48.8003 38.8037 49.0923 38.491 49.3652 38.1616L49.3682 38.1589ZM29.6582 57.0178C30.5405 56.8356 31.3862 56.5069 32.1597 56.0452C31.665 55.4054 31.0664 54.8531 30.3892 54.4114C29.9932 55.2302 29.7461 56.1126 29.6582 57.0178Z" fill="#FA8B02" fill-opacity="1.000000" fill-rule="nonzero"/>
	<path id="Vector" d="M19.3066 16.0461C16.48 11.6863 16.3799 9.22168 18.8262 7.18213C19.7734 6.42157 20.9624 6.02551 22.1772 6.0658C23.3916 6.10608 24.5518 6.57996 25.4468 7.40161C27.6704 9.49677 27.4512 12.3254 24.6299 16.0405C26.3838 15.9822 27.9653 16.3351 29.5049 15.7071C31.1143 15.043 31.9316 13.762 31.9595 12.0087C31.9873 10.3415 32.0093 8.67426 31.9595 7.00708C31.9287 6.13458 32.3486 6.05676 33.0488 6.0401C33.7969 6.02063 34.0107 6.31793 33.9912 7.01263C33.9551 8.49365 33.9912 9.97467 33.9912 11.4585C33.9746 15.5959 31.5591 18.0328 27.4429 18.0412C21.7026 18.0412 15.9604 18.0273 10.2095 18.0412C7.66602 18.0412 5.95117 19.8418 6.08154 22.2509C6.12012 23.067 6.41162 23.8509 6.91553 24.4941C7.41992 25.1373 8.11133 25.6079 8.89453 25.8409C10.6011 26.3467 10.96 26.1188 11.0376 24.3516C11.0767 23.4124 11.4907 23.0261 12.4136 23.0345C14.7734 23.054 17.1387 23.0706 19.4956 23.0345C20.6494 23.015 21.1636 23.5347 21.0303 24.6239C20.8857 25.8048 21.375 26.1188 22.5146 26.0521C24.2686 25.9632 26.0308 26.0132 27.7959 26.0355C31.3926 26.0771 33.9609 28.5529 33.9775 31.9623C33.9941 35.4135 31.3701 37.9949 27.7402 38.0143C21.8584 38.0449 15.9771 38.0143 10.0981 38.0366C7.74121 38.0366 6.104 39.6871 6.07861 41.9267C6.05371 44.1663 7.64648 45.8168 9.97021 45.9586C10.2476 45.9879 10.5269 45.9879 10.8042 45.9586C11.9966 45.7696 12.0825 46.4782 11.9966 47.3674C12.0044 47.5247 11.9507 47.679 11.8472 47.7977C11.7432 47.9164 11.5977 47.9902 11.4404 48.0037C9.17236 48.515 6.23438 47.2368 4.92236 45.1361C4.28027 44.0811 3.97705 42.8546 4.05371 41.6219C4.13037 40.3893 4.58301 39.2098 5.35059 38.2422C6.64844 36.6722 8.32471 35.9886 10.354 35.997C15.9131 36.0248 21.4722 35.997 27.0312 35.997C27.5889 36.0129 28.1465 35.9823 28.6992 35.9053C29.6675 35.7436 30.5396 35.225 31.1445 34.4519C31.749 33.6788 32.0415 32.7073 31.9648 31.7289C31.9258 30.7662 31.5244 29.8538 30.8408 29.1742C30.1572 28.4946 29.2427 28.0981 28.2793 28.0639C26.1504 27.9805 24.0181 28.0639 21.8862 28.025C21.1914 28.025 20.9858 28.3029 21.0522 28.9308C21.0801 29.2976 21.0273 29.6727 21.0522 30.0423C21.1582 31.3205 20.7939 32.1569 19.2983 31.9735C19.0684 31.9385 18.833 31.98 18.6289 32.0914C18.4248 32.2028 18.2622 32.3781 18.167 32.5903C18.0059 32.8682 17.8086 33.1266 17.625 33.3962C16.1216 35.5802 15.835 35.5941 14.4062 33.374C13.8506 32.5403 13.4028 31.7595 12.166 31.9429C11.3599 32.0624 11.0708 31.4567 11.0542 30.6981C11.0293 29.8644 11.396 28.828 10.8735 28.2889C10.4429 27.8416 9.40869 28.0111 8.6499 27.8304C7.21045 27.5043 5.94482 26.6525 5.10107 25.442C4.25732 24.2314 3.896 22.7495 4.08887 21.2867C4.41113 18.3385 6.85986 16.1155 9.95898 16.0572C11.4878 16.0211 13.0166 16.0572 14.5454 16.0572L19.3066 16.0461ZM15.9854 25.0073C13.0415 25.0073 13.0308 25.0073 13.0474 27.9305C13.0474 28.9336 12.6245 30.2479 14.437 30.1534C15.5044 32.0235 16.5605 31.9957 17.606 30.134C19.3345 30.2841 18.9956 29.0447 18.9956 28.0444C19.001 25.0073 18.9985 25.0073 15.9854 25.0073ZM24.9883 11.0834C24.9937 10.6847 24.9189 10.289 24.7686 9.91968C24.6182 9.55035 24.3955 9.21484 24.1133 8.93304C23.8311 8.65125 23.4956 8.42877 23.126 8.27887C22.7563 8.12891 22.3604 8.05457 21.9614 8.06012C21.563 8.06567 21.1689 8.15106 20.8037 8.31128C20.4385 8.4715 20.1094 8.70319 19.835 8.9928C19.561 9.28241 19.3477 9.62396 19.2075 9.99738C19.0679 10.3707 19.0039 10.7684 19.0205 11.1667C19.0483 13.1313 20.5825 14.0955 21.7388 15.3125C21.875 15.4542 22.0337 15.4404 22.231 15.357C23.3481 14.8846 24.9912 12.3671 24.9883 11.0834Z" fill="#FA8B02" fill-opacity="1.000000" fill-rule="nonzero"/>
	<path id="Vector" d="M43.0195 10.611C43.0195 14.3206 43.2979 14.0372 39.5537 14.0316C35.5928 14.0316 36.0181 14.3651 36.0098 10.4193C36.0098 6.72089 35.6816 6.98761 39.4565 6.98761C43.3618 6.99878 43.0254 6.70978 43.0195 10.611ZM39.3506 11.9476C40.3096 12.1004 41.1299 12.1199 41.0186 10.6666C40.9463 9.65796 41.0186 8.85492 39.5952 8.99939C38.7085 9.09668 37.8135 8.89105 38 10.2943C38.1221 11.1807 37.7109 12.3338 39.3506 11.9476Z" fill="#FA8B02" fill-opacity="1.000000" fill-rule="nonzero"/>
	<path id="Vector" d="M39.5005 31.9763C35.6812 31.9541 36.0122 32.4125 36.0063 28.4918C36.001 24.5711 35.7119 25.0074 39.5059 25.0074C43.2417 25.0074 43.0278 24.6156 43.022 28.5029C43.0166 32.3903 43.2837 31.9541 39.5005 31.9763ZM40.9458 28.5502C41.2236 27.4387 40.9209 26.883 39.5923 26.9413C38.5 26.9775 37.8604 27.0525 37.9883 28.4113C38.083 29.4033 37.9551 30.1979 39.4116 30.0396C40.4263 29.9284 41.3296 30.034 40.9458 28.5502Z" fill="#FA8B02" fill-opacity="1.000000" fill-rule="nonzero"/>
	<path id="Vector" d="M43.0195 19.5362C43.0361 23.3875 43.2642 23.0428 39.5005 23.0401C35.7373 23.0373 36.0039 23.4069 36.0068 19.5306C36.0093 15.6544 35.6675 16.0545 39.5088 16.0517C43.3506 16.049 43.0254 15.6516 43.0195 19.5362ZM38.061 19.4945C37.7998 20.6838 38.2109 21.1006 39.4756 21.0867C40.6709 21.0867 41.0518 20.781 41.0405 19.5473C41.0269 18.3719 40.7627 17.9607 39.52 17.9968C38.3584 18.0302 37.73 18.2052 38.061 19.4945Z" fill="#FA8B02" fill-opacity="1.000000" fill-rule="nonzero"/>
	<path id="Vector" d="M14.9321 46.0031C15.7856 45.8669 16.0801 46.1698 16.0718 46.9756C16.0718 47.7342 15.8579 48.037 15.0518 48.0315C14.2456 48.0259 13.9731 47.8092 13.998 47.0117C14.0205 46.2921 14.123 45.7808 14.9321 46.0031Z" fill="#FA8B02" fill-opacity="1.000000" fill-rule="nonzero"/>
	<path id="Vector" d="M19.9824 47.0506C20.1548 47.9064 19.6768 48.0009 18.9624 48.0314C18.084 48.0676 18.0479 47.6202 18.0117 46.9395C17.9673 46.1058 18.3511 45.9752 19.0708 45.953C19.9326 45.928 20.1021 46.3337 19.9824 47.0506Z" fill="#FA8B02" fill-opacity="1.000000" fill-rule="nonzero"/>
	<path id="Vector" d="M23.001 45.9891C23.8345 45.8474 23.9985 46.2809 24.0127 47.0145C24.0127 47.8147 23.7095 48.0203 22.9536 48.0314C22.1362 48.0314 21.9639 47.7091 21.9531 46.9672C21.9419 46.167 22.2363 45.8669 23.001 45.9891Z" fill="#FA8B02" fill-opacity="1.000000" fill-rule="nonzero"/>
	<path id="Vector" d="M21.9585 10.0275C22.5479 10.0663 22.9453 10.3693 22.9956 10.9445C23.0132 11.0716 23.0029 11.2011 22.9658 11.3239C22.9282 11.4468 22.8643 11.5599 22.7788 11.6555C22.6929 11.751 22.5874 11.8267 22.4692 11.8771C22.3511 11.9276 22.2231 11.9516 22.0947 11.9475C21.9683 11.9714 21.8379 11.9664 21.7134 11.933C21.5889 11.8996 21.4731 11.8386 21.3755 11.7545C21.2778 11.6705 21.2002 11.5655 21.1489 11.4474C21.0972 11.3293 21.0728 11.201 21.0776 11.0723C21.0332 10.4832 21.3862 10.1581 21.9585 10.0275Z" fill="#FA8B02" fill-opacity="1.000000" fill-rule="nonzero"/>
</svg>
