<svg width="22.000000" height="18.333313" viewBox="0 0 22 18.3333" fill="none" xmlns="http://www.w3.org/2000/svg" xmlns:xlink="http://www.w3.org/1999/xlink">
	<desc>
			Created with Pixso.
	</desc>
	<defs/>
	<path id="Vector" d="M3.66675 0C2.69409 0 1.76147 0.386292 1.07397 1.07391C0.38623 1.7616 0 2.69421 0 3.66669L0 4.03516L11 9.95868L22 4.03699L22 3.66669C22 2.69421 21.6138 1.7616 20.926 1.07391C20.2385 0.386292 19.3059 0 18.3333 0L3.66675 0ZM22 6.11786L11.4346 11.8066C11.301 11.8785 11.1516 11.9162 11 11.9162C10.8484 11.9162 10.699 11.8785 10.5654 11.8066L0 6.11786L0 14.6667C0 15.6391 0.38623 16.5718 1.07397 17.2594C1.76147 17.947 2.69409 18.3333 3.66675 18.3333L18.3333 18.3333C19.3059 18.3333 20.2385 17.947 20.926 17.2594C21.6138 16.5718 22 15.6391 22 14.6667L22 6.11786Z" fill="#FA8B02" fill-opacity="1.000000" fill-rule="nonzero"/>
</svg>
