<svg width="24.000000" height="24.000000" viewBox="0 0 24 24" fill="none" xmlns="http://www.w3.org/2000/svg" xmlns:xlink="http://www.w3.org/1999/xlink">
	<desc>
			Created with Pixso.
	</desc>
	<defs>
		<clipPath id="clip201_7091">
			<rect id="clarity:phone-handset-solid" width="24.000000" height="24.000000" fill="white" fill-opacity="0"/>
		</clipPath>
	</defs>
	<rect id="clarity:phone-handset-solid" width="24.000000" height="24.000000" fill="#FFFFFF" fill-opacity="0"/>
	<g clip-path="url(#clip201_7091)">
		<path id="Vector" d="M10.1467 13.76C11.5383 15.1718 13.2222 16.2617 15.0801 16.9534L17.5933 14.9534C17.668 14.902 17.7561 14.8746 17.8467 14.8746C17.9373 14.8746 18.0254 14.902 18.1001 14.9534L22.7666 17.96C22.9438 18.0665 23.0938 18.2128 23.2048 18.3872C23.3157 18.5616 23.3845 18.7595 23.4058 18.9651C23.4272 19.1707 23.4004 19.3785 23.3276 19.572C23.2549 19.7654 23.1382 19.9394 22.9866 20.08L20.8 22.24C20.4868 22.5494 20.1021 22.7765 19.6797 22.901C19.2573 23.0255 18.8108 23.0435 18.3799 22.9534C14.0815 22.0656 10.1194 19.9863 6.94678 16.9534C3.84424 13.8902 1.69751 9.99255 0.766602 5.73334C0.674805 5.30908 0.693848 4.86829 0.822266 4.45367C0.950928 4.039 1.18433 3.66461 1.5 3.3667L3.7666 1.17999C3.90698 1.03589 4.07788 0.925354 4.26709 0.856689C4.45605 0.788025 4.6582 0.763 4.85815 0.783508C5.05835 0.804016 5.25122 0.869568 5.42236 0.975159C5.59351 1.08075 5.73853 1.22375 5.84668 1.39337L8.95337 6C9.00684 6.07233 9.03589 6.15997 9.03589 6.25C9.03589 6.34003 9.00684 6.42767 8.95337 6.5L6.90674 8.96002C7.61694 10.7806 8.72388 12.4203 10.1467 13.76Z" fill="#FA8B02" fill-opacity="1.000000" fill-rule="nonzero"/>
	</g>
</svg>
