<svg width="24.298828" height="16.113953" viewBox="0 0 24.2988 16.114" fill="none" xmlns="http://www.w3.org/2000/svg" xmlns:xlink="http://www.w3.org/1999/xlink">
	<desc>
			Created with Pixso.
	</desc>
	<defs/>
	<path id="Vector" d="M8.07812 3.79132C8.77441 1.35059 10.1807 0.130249 12.21 0.150269C14.1748 0.170288 15.5781 1.42133 16.2207 3.79663C16.3066 3.55255 16.3623 3.38318 16.4238 3.21515C16.9023 1.92413 17.8291 1.15454 19.1924 1.04254C20.4463 0.941162 21.46 1.492 22.0918 2.58032C22.7764 3.75128 22.6992 4.93298 21.8906 6.01862C21.6104 6.39337 21.6328 6.49475 22.0488 6.70551C23.4473 7.40967 24.1328 8.58466 24.1475 10.1465C24.166 12.0617 24.1641 12.063 22.3164 12.6712C21.833 12.8423 21.332 12.9582 20.8232 13.0166C20.5186 13.0446 20.2754 12.9446 20.2275 12.6259C20.1797 12.3071 20.3818 12.1257 20.6807 12.0764C21.4062 11.9678 22.1133 11.7614 22.7832 11.4628C22.96 11.3815 23.1826 11.3295 23.1826 11.0694C23.1826 10.3385 23.2764 9.5943 22.9424 8.90479C22.5303 8.05255 21.8828 7.4657 20.9209 7.35101C19.9258 7.24628 18.9229 7.24365 17.9268 7.34302C17.6621 7.37476 17.4043 7.45044 17.165 7.56708C16.3848 7.92047 16.376 8.03918 16.9639 8.65802C17.7676 9.47479 18.2402 10.5607 18.2891 11.7056C18.3135 12.2391 18.2334 12.7806 18.3105 13.306C18.4443 14.1769 18.0303 14.5598 17.2754 14.8771C13.6641 16.3949 10.1084 16.3296 6.56836 14.6544C6.14648 14.4543 5.96484 14.2023 5.99805 13.7315C6.03516 13.198 6.0127 12.6645 5.99805 12.131C5.97363 10.6639 6.47656 9.42627 7.56641 8.45667C7.92871 8.13391 7.81152 7.98987 7.50488 7.7738C6.49512 7.06158 3.2373 7.07758 2.23926 7.80981C1.33887 8.47534 0.817383 10.0411 1.12207 11.1134C1.19141 11.3535 1.38867 11.4015 1.55762 11.4788C2.18652 11.7612 2.85156 11.9559 3.5332 12.0577C3.84766 12.1044 4.11719 12.2404 4.07324 12.6031C4.02441 13.0033 3.71094 13.054 3.36816 13.0033C2.34668 12.8526 1.39551 12.4885 0.472656 12.0403C0.387695 12.009 0.314453 11.9537 0.260742 11.8812C0.207031 11.8088 0.174805 11.7223 0.169922 11.6322C0.181641 10.5946 0.0175781 9.54364 0.472656 8.54468C0.841797 7.70105 1.51074 7.02435 2.35059 6.64545C2.61719 6.52142 2.75 6.45471 2.50781 6.1413C1.61426 5.013 1.49707 3.78198 2.24121 2.54028C2.88672 1.46399 3.9043 0.921143 5.1582 1.04919C6.63965 1.19989 7.56934 2.0788 7.96875 3.51257C7.98633 3.57526 8.01953 3.63391 8.07812 3.79132ZM12.1543 8.18591C11.6211 8.18591 11.0879 8.16724 10.5537 8.18591C9.6123 8.23108 8.72266 8.62799 8.06055 9.2981C7.39746 9.9682 7.01172 10.8626 6.97656 11.8043C6.96191 12.2484 7.00586 12.6965 6.95801 13.138C6.90234 13.6515 7.13184 13.8862 7.58105 14.0716C10.4658 15.2479 13.3652 15.312 16.2891 14.2396C17.3438 13.8515 17.3398 13.8395 17.3389 12.7446C17.3389 12.4338 17.3389 12.123 17.3301 11.8109C17.2969 10.8689 16.9111 9.97388 16.249 9.30304C15.5859 8.63214 14.6963 8.23444 13.7549 8.1886C13.2217 8.16589 12.6875 8.18591 12.1543 8.18591ZM15.2051 4.13806C15.2002 3.32874 14.874 2.5545 14.2979 1.9856C13.7227 1.41669 12.9443 1.09979 12.1348 1.10455C11.3262 1.10931 10.5518 1.43542 9.98242 2.01105C9.41406 2.58667 9.09668 3.36475 9.10156 4.17407C9.1123 5.81854 10.5361 7.2323 12.1719 7.21893C13.8066 7.20563 15.2217 5.78253 15.2051 4.13806ZM4.92676 6.30939C5.5 6.30164 6.0459 6.06702 6.44629 5.65692C6.84668 5.24689 7.06738 4.69489 7.06055 4.12207C7.04102 2.95105 6.02734 1.95612 4.86719 1.97748C3.70703 1.99878 2.69922 3.03241 2.71973 4.18207C2.7373 4.75464 2.97754 5.29767 3.39062 5.69519C3.80273 6.09271 4.35449 6.31311 4.92676 6.30939ZM19.4043 6.30939C19.9766 6.30566 20.5254 6.07861 20.9326 5.67651C21.3408 5.27441 21.5752 4.72913 21.5869 4.15674C21.5723 3.58441 21.3389 3.03937 20.9355 2.63354C20.5312 2.22772 19.9873 1.992 19.415 1.97479C18.8418 1.98541 18.2949 2.21832 17.8896 2.62439C17.4844 3.03046 17.2529 3.57794 17.2441 4.15143C17.2451 4.72388 17.4736 5.27252 17.8779 5.67719C18.2832 6.08185 18.832 6.30963 19.4043 6.31067L19.4043 6.30939ZM9.62012 7.26166C8.77539 6.5257 8.23535 5.50073 8.10645 4.38745C7.95996 4.82629 7.9043 5.09167 7.78613 5.32111C7.59277 5.70654 7.11914 6.14801 7.20801 6.42804C7.30469 6.74548 7.9502 6.85352 8.25098 7.15759C8.66895 7.58575 9.05371 7.64709 9.62012 7.26166ZM14.624 7.33496C15.1035 7.39502 15.3926 7.76978 15.751 7.40967C16.0928 7.0603 16.501 6.7832 16.9521 6.59479C17.1504 6.51343 17.2705 6.4187 17.0732 6.21735C16.6182 5.75452 16.4355 5.15039 16.1846 4.38879C16.0381 5.64117 15.498 6.51343 14.623 7.33496L14.624 7.33496Z" fill="#fa8b02" fill-opacity="1.000000" fill-rule="nonzero"/>
	<path id="Vector" d="M12.21 0.150269C14.1748 0.170288 15.5781 1.42133 16.2207 3.79663C16.3066 3.55255 16.3623 3.38318 16.4238 3.21515C16.9023 1.92413 17.8291 1.15454 19.1924 1.04254C20.4463 0.941162 21.46 1.492 22.0918 2.58032C22.7764 3.75128 22.6992 4.93298 21.8906 6.01862C21.6104 6.39337 21.6328 6.49475 22.0488 6.70551C23.4473 7.40967 24.1328 8.58466 24.1475 10.1465C24.166 12.0617 24.1641 12.063 22.3164 12.6712C21.833 12.8423 21.332 12.9582 20.8232 13.0166C20.5186 13.0446 20.2754 12.9446 20.2275 12.6259C20.1797 12.3071 20.3818 12.1257 20.6807 12.0764C21.4062 11.9678 22.1133 11.7614 22.7832 11.4628C22.96 11.3815 23.1826 11.3295 23.1826 11.0694C23.1826 10.3385 23.2764 9.5943 22.9424 8.90479C22.5303 8.05255 21.8828 7.4657 20.9209 7.35101C19.9258 7.24628 18.9229 7.24365 17.9268 7.34302C17.6621 7.37476 17.4043 7.45044 17.165 7.56708C16.3848 7.92047 16.376 8.03918 16.9639 8.65802C17.7676 9.47479 18.2402 10.5607 18.2891 11.7056C18.3135 12.2391 18.2334 12.7806 18.3105 13.306C18.4443 14.1769 18.0303 14.5598 17.2754 14.8771C13.6641 16.3949 10.1084 16.3296 6.56836 14.6544C6.14648 14.4543 5.96484 14.2023 5.99805 13.7315C6.03516 13.198 6.0127 12.6645 5.99805 12.131C5.97363 10.6639 6.47656 9.42627 7.56641 8.45667C7.92871 8.13391 7.81152 7.98987 7.50488 7.7738C6.49512 7.06158 3.2373 7.07758 2.23926 7.80981C1.33887 8.47534 0.817383 10.0411 1.12207 11.1134C1.19141 11.3535 1.38867 11.4015 1.55762 11.4788C2.18652 11.7612 2.85156 11.9559 3.5332 12.0577C3.84766 12.1044 4.11719 12.2404 4.07324 12.6031C4.02441 13.0033 3.71094 13.054 3.36816 13.0033C2.34668 12.8526 1.39551 12.4885 0.472656 12.0403C0.387695 12.009 0.314453 11.9537 0.260742 11.8812C0.207031 11.8088 0.174805 11.7223 0.169922 11.6322C0.181641 10.5946 0.0175781 9.54364 0.472656 8.54468C0.841797 7.70105 1.51074 7.02435 2.35059 6.64545C2.61719 6.52142 2.75 6.45471 2.50781 6.1413C1.61426 5.013 1.49707 3.78198 2.24121 2.54028C2.88672 1.46399 3.9043 0.921143 5.1582 1.04919C6.63965 1.19989 7.56934 2.0788 7.96875 3.51257C7.98633 3.57526 8.01953 3.63391 8.07812 3.79132C8.77441 1.35059 10.1807 0.130249 12.21 0.150269ZM10.5537 8.18591C9.6123 8.23108 8.72266 8.62799 8.06055 9.2981C7.39746 9.9682 7.01172 10.8626 6.97656 11.8043C6.96191 12.2484 7.00586 12.6965 6.95801 13.138C6.90234 13.6515 7.13184 13.8862 7.58105 14.0716C10.4658 15.2479 13.3652 15.312 16.2891 14.2396C17.3438 13.8515 17.3398 13.8395 17.3389 12.7446C17.3389 12.4338 17.3389 12.123 17.3301 11.8109C17.2969 10.8689 16.9111 9.97388 16.249 9.30304C15.5859 8.63214 14.6963 8.23444 13.7549 8.1886C13.2217 8.16589 12.6875 8.18591 12.1543 8.18591C11.6211 8.18591 11.0879 8.16724 10.5537 8.18591ZM14.2979 1.9856C13.7227 1.41669 12.9443 1.09979 12.1348 1.10455C11.3262 1.10931 10.5518 1.43542 9.98242 2.01105C9.41406 2.58667 9.09668 3.36475 9.10156 4.17407C9.1123 5.81854 10.5361 7.2323 12.1719 7.21893C13.8066 7.20563 15.2217 5.78253 15.2051 4.13806C15.2002 3.32874 14.874 2.5545 14.2979 1.9856ZM6.44629 5.65692C6.84668 5.24689 7.06738 4.69489 7.06055 4.12207C7.04102 2.95105 6.02734 1.95612 4.86719 1.97748C3.70703 1.99878 2.69922 3.03241 2.71973 4.18207C2.7373 4.75464 2.97754 5.29767 3.39062 5.69519C3.80273 6.09271 4.35449 6.31311 4.92676 6.30939C5.5 6.30164 6.0459 6.06702 6.44629 5.65692ZM20.9326 5.67651C21.3408 5.27441 21.5752 4.72913 21.5869 4.15674C21.5723 3.58441 21.3389 3.03937 20.9355 2.63354C20.5312 2.22772 19.9873 1.992 19.415 1.97479C18.8418 1.98541 18.2949 2.21832 17.8896 2.62439C17.4844 3.03046 17.2529 3.57794 17.2441 4.15143C17.2451 4.72388 17.4736 5.27252 17.8779 5.67719C18.2832 6.08185 18.832 6.30963 19.4043 6.31067L19.4043 6.30939C19.9766 6.30566 20.5254 6.07861 20.9326 5.67651ZM8.10645 4.38745C7.95996 4.82629 7.9043 5.09167 7.78613 5.32111C7.59277 5.70654 7.11914 6.14801 7.20801 6.42804C7.30469 6.74548 7.9502 6.85352 8.25098 7.15759C8.66895 7.58575 9.05371 7.64709 9.62012 7.26166C8.77539 6.5257 8.23535 5.50073 8.10645 4.38745ZM15.751 7.40967C16.0928 7.0603 16.501 6.7832 16.9521 6.59479C17.1504 6.51343 17.2705 6.4187 17.0732 6.21735C16.6182 5.75452 16.4355 5.15039 16.1846 4.38879C16.0381 5.64117 15.498 6.51343 14.623 7.33496L14.624 7.33496C15.1035 7.39502 15.3926 7.76978 15.751 7.40967Z" stroke="#fa8b02" stroke-opacity="1.000000" stroke-width="0.300000"/>
</svg>
