<svg width="20.000000" height="20.000000" viewBox="0 0 20 20" fill="none" xmlns="http://www.w3.org/2000/svg" xmlns:xlink="http://www.w3.org/1999/xlink">
	<desc>
			Created with Pixso.
	</desc>
	<defs/>
	<path id="Vector" d="M10 0C4.48047 0 0 4.47998 0 10C0 15.52 4.48047 20 10 20C15.5195 20 20 15.52 20 10C20 4.47998 15.5195 0 10 0ZM9 17.93C5.0498 17.44 2 14.08 2 10C2 9.38 2.08008 8.78998 2.20996 8.21002L7 13L7 14C7 15.1 7.90039 16 9 16L9 17.93ZM15.9004 15.39C15.6396 14.58 14.9004 14 14 14L13 14L13 11C13 10.45 12.5498 10 12 10L6 10L6 8L8 8C8.5498 8 9 7.54999 9 7L9 5L11 5C12.0996 5 13 4.09998 13 3L13 2.59003C15.9297 3.78003 18 6.65002 18 10C18 12.08 17.2002 13.97 15.9004 15.39Z" fill="#FA8B02" fill-opacity="1.000000" fill-rule="nonzero"/>
</svg>
