<svg width="15.861328" height="18.200012" viewBox="0 0 15.8613 18.2" fill="none" xmlns="http://www.w3.org/2000/svg" xmlns:xlink="http://www.w3.org/1999/xlink">
	<desc>
			Created with Pixso.
	</desc>
	<defs/>
	<path id="Vector" d="M15.6035 4.77295C14.4365 3.51001 13.0088 2.83868 11.2754 2.83868C10.3203 2.83868 9.37988 3.00061 8.43555 3.10938C6.75977 3.30817 5.18457 3.13446 3.8418 1.96777C3.47754 1.65009 3.17578 1.3559 3.22852 0.799561C3.26562 0.391113 2.87598 0.0953369 2.44629 0.100037C2.01562 0.104736 1.69141 0.38562 1.66797 0.812866C1.65527 1.04761 1.66016 2.5202 1.66211 3.3645C1.66211 3.37781 1.66211 3.39111 1.66211 3.40515C1.66211 3.50922 1.66211 3.61407 1.66211 3.71814C1.66211 6.37854 1.66211 9.03894 1.66699 11.6993C1.66699 11.9622 1.62109 12.0749 1.33691 12.096C1.01367 12.1152 0.709961 12.2542 0.483398 12.4856C0.256836 12.7171 0.125 13.0245 0.113281 13.348C0.106445 13.6562 0.132812 13.9661 0.107422 14.2728C0.0566406 14.8582 0.254883 15.3331 0.724609 15.6711C1.41211 16.1672 1.78906 16.783 1.63672 17.6649C1.58301 17.9778 1.75879 18.1038 2.07617 18.0999C2.96289 18.0873 3.85059 18.0999 4.7373 18.0944C5.19336 18.0944 5.29883 17.9598 5.10547 17.5467C4.73535 16.7642 4.61035 15.9465 4.65137 15.0819C4.69043 14.2494 4.66113 13.4137 4.65918 12.578C4.65918 11.7228 4.32031 11.3034 3.47852 11.1539C3.29004 11.1203 3.24414 11.0546 3.24414 10.8824C3.25195 10.3613 3.25391 9.83942 3.24414 9.3175C3.23926 9.08276 3.32227 9.06085 3.52344 9.12421C4.33887 9.37927 5.14258 9.30182 5.93848 9.02325C7.58203 8.44971 10.1328 6.63989 11.6768 5.62347C11.8369 5.51733 12.0059 5.42468 12.1826 5.3465C12.2285 5.32611 12.2744 5.30658 12.3203 5.28778C13.3105 4.87933 14.3047 4.74475 15.3057 5.24945C15.4619 5.3277 15.6143 5.34332 15.7188 5.1759C15.8242 5.00842 15.7139 4.89264 15.6035 4.77295ZM2.18555 0.892639C2.19043 0.729126 2.27734 0.615662 2.45117 0.618835C2.62598 0.621948 2.70508 0.733032 2.70996 0.900513C2.70996 1.01709 2.70996 1.13525 2.70996 1.25183C2.70996 4.45996 2.70996 7.66803 2.70996 10.8762C2.70996 11.1891 2.71582 11.5021 2.70996 11.8151C2.71094 11.8657 2.69922 11.9158 2.6748 11.9601C2.65039 12.0045 2.61426 12.0414 2.57129 12.067C2.52734 12.0926 2.47754 12.1058 2.42676 12.1055C2.37598 12.105 2.32617 12.091 2.2832 12.0647C2.11719 11.9747 2.18359 11.8104 2.18359 11.6782C2.18066 9.11169 2.18066 6.54547 2.18359 3.97949C2.18359 3.96228 2.18359 3.94586 2.18359 3.92865C2.17969 3.63989 2.17578 1.17908 2.18555 0.892639ZM4.48047 17.4371C4.48828 17.6523 4.29199 17.5576 4.18457 17.5631C3.89941 17.5764 3.6123 17.5678 3.32422 17.5678C3.01074 17.5678 2.69824 17.5678 2.38477 17.5678C2.21777 17.5678 2.15625 17.4958 2.16016 17.3331C2.16113 17.2755 2.18457 17.2206 2.22559 17.1802C2.2666 17.1398 2.32227 17.1171 2.37988 17.1171C2.98926 17.1171 3.59961 17.1171 4.20898 17.1171C4.42285 17.1179 4.47461 17.2932 4.48047 17.4371ZM3.33789 11.7087C3.54492 11.625 3.74316 11.7361 3.90332 11.8856C4.0791 12.0483 4.12402 12.2596 4.12402 12.4896C4.12402 13.1156 4.12402 13.7416 4.12402 14.3675C4.12402 15.0052 4.11523 15.6429 4.12891 16.2806C4.13477 16.5154 4.06836 16.6046 3.82422 16.5936C3.35449 16.578 2.88477 16.5936 2.41504 16.5881C2.30078 16.5881 2.16113 16.6147 2.1123 16.4731C1.91406 15.9082 1.40723 15.6187 1.00977 15.2314C0.757812 14.9849 0.619141 14.7298 0.639648 14.3754C0.65625 14.0624 0.639648 13.7494 0.643555 13.4364C0.652344 12.8754 0.899414 12.6234 1.4541 12.6171C1.88379 12.6117 2.31445 12.5999 2.74219 12.6171C3.1084 12.6351 3.27637 12.5045 3.25 12.1234C3.24316 11.9872 3.16309 11.7791 3.33789 11.7087ZM11.6348 5.02954C11.5723 5.05676 11.5127 5.09198 11.459 5.1344C10.9736 5.43097 9.7373 6.18213 9.52148 6.32849C8.45117 7.04913 7.42285 7.83472 6.23438 8.36285C5.3877 8.73608 4.52051 8.88867 3.6084 8.61407C3.35254 8.53583 3.23828 8.41998 3.24121 8.12268C3.25781 6.27136 3.24805 4.42004 3.25195 2.56714C3.25195 2.46149 3.19434 2.3324 3.34277 2.22913C4.82129 3.61877 6.6123 3.87933 8.54492 3.63208C9.60352 3.4967 10.6572 3.31909 11.7363 3.39185C12.6641 3.44196 13.5527 3.78064 14.2793 4.36053C13.3564 4.36438 12.4482 4.59406 11.6348 5.02954Z" fill="#333333" fill-opacity="1.000000" fill-rule="nonzero"/>
	<path id="Vector" d="M13.4258 3.12878Q12.4268 2.73865 11.2754 2.73865Q10.791 2.73865 10.1924 2.79651Q9.83398 2.83112 9.12207 2.92316Q8.65723 2.98328 8.42383 3.01007Q7.06152 3.17169 6.03418 2.95282Q5.42578 2.82294 4.8877 2.55225Q4.36426 2.28888 3.90723 1.89227Q3.74512 1.75067 3.65625 1.65973Q3.53516 1.5354 3.46387 1.4201Q3.41309 1.33997 3.38086 1.25323Q3.30566 1.04938 3.32812 0.80896Q3.33691 0.707947 3.31738 0.612793Q3.30371 0.543091 3.27344 0.476501Q3.26367 0.452881 3.25098 0.430176Q3.1875 0.311951 3.07715 0.218628Q3.06934 0.21167 3.06055 0.204895Q2.94141 0.108765 2.78809 0.0554199Q2.72656 0.0339966 2.66309 0.020874Q2.55664 -0.00115967 2.44531 6.10352e-05Q2.18945 0.00280762 1.99316 0.112061Q1.91016 0.158386 1.83789 0.223755Q1.74121 0.310547 1.67871 0.417297Q1.58008 0.587158 1.56836 0.807373Q1.55664 1.01318 1.56152 2.99286Q1.56152 3.25073 1.56152 3.36469L1.56152 3.40515L1.56152 3.71814L1.5625 6.37854L1.56738 11.6994Q1.56738 11.8761 1.52832 11.9289Q1.4873 11.9846 1.33008 11.9963Q1.21094 12.0034 1.09668 12.03Q0.960938 12.0615 0.832031 12.1202Q0.713867 12.1746 0.608398 12.2484Q0.50293 12.3223 0.412109 12.4157Q0.320312 12.5092 0.249023 12.616Q0.177734 12.7227 0.125977 12.8428Q0.0742188 12.963 0.046875 13.0884Q0.0185547 13.2137 0.0136719 13.3443Q0.0107422 13.4683 0.015625 13.712Q0.0224609 14.0828 0.0078125 14.2645Q-0.0371094 14.7901 0.166992 15.1879Q0.333008 15.5127 0.666016 15.7523Q1.19043 16.1301 1.40625 16.5676Q1.44434 16.6451 1.47363 16.726Q1.62598 17.1434 1.53809 17.6478Q1.50098 17.8669 1.58984 18.004Q1.61426 18.0428 1.65039 18.0751Q1.79102 18.2034 2.07812 18.1999Q2.59277 18.1926 3.62402 18.195Q4.36621 18.1967 4.7373 18.1944Q4.9248 18.1944 5.04004 18.1635Q5.18164 18.1254 5.24609 18.0333L5.24707 18.0325Q5.25391 18.0219 5.26074 18.0107Q5.31152 17.9208 5.29297 17.7924Q5.27539 17.6744 5.19629 17.5043Q5.19238 17.4963 5.18848 17.4882Q4.68848 16.4192 4.75098 15.0866Q4.7793 14.4901 4.76562 13.2963Q4.75977 12.8172 4.75977 12.5778Q4.75977 11.8987 4.46191 11.5377Q4.16113 11.1737 3.49609 11.0555Q3.39355 11.0371 3.36719 11.0061Q3.34375 10.9779 3.34375 10.8824Q3.35645 10.0292 3.34375 9.31567Q3.34277 9.24341 3.35352 9.20819Q3.35645 9.19873 3.35938 9.1944Q3.38086 9.1842 3.49316 9.2196Q3.65918 9.27142 3.82812 9.30627Q4.83789 9.51428 5.97168 9.11768Q6.89355 8.79602 8.4043 7.87933Q9.27637 7.35034 10.9307 6.24139Q11.4873 5.86768 11.7314 5.70697Q11.8555 5.62543 11.9844 5.55518Q12.1016 5.49194 12.2227 5.43787Q12.29 5.40802 12.3584 5.38049Q13.1465 5.05505 13.8135 5.02606Q14.1699 5.01056 14.5107 5.07825Q14.8965 5.15503 15.2607 5.33875Q15.417 5.41705 15.542 5.4043Q15.5947 5.39886 15.6416 5.3783Q15.7363 5.33588 15.8037 5.22894Q15.8613 5.13696 15.8613 5.04492Q15.8613 4.98254 15.835 4.92017Q15.8008 4.84003 15.6807 4.71002L15.6768 4.70514Q14.6689 3.61456 13.4258 3.12878ZM15.6035 4.77295C14.4365 3.51001 13.0088 2.83868 11.2754 2.83868C10.3203 2.83868 9.37988 3.00061 8.43555 3.10938C6.75977 3.30817 5.18457 3.13446 3.8418 1.96777C3.47754 1.65009 3.17578 1.3559 3.22852 0.799561C3.26562 0.391113 2.87598 0.0953369 2.44629 0.100037C2.01562 0.104736 1.69141 0.38562 1.66797 0.812866C1.65625 1.01587 1.65918 2.14502 1.66113 2.99261L1.66113 2.99261C1.66113 3.125 1.66211 3.25049 1.66211 3.3645L1.66211 3.71814C1.66211 6.37854 1.66211 9.03894 1.66699 11.6993C1.66699 11.9622 1.62109 12.0749 1.33691 12.096C1.01367 12.1152 0.709961 12.2542 0.483398 12.4856C0.256836 12.7171 0.125 13.0245 0.113281 13.348C0.110352 13.4685 0.113281 13.5893 0.115234 13.71C0.119141 13.8981 0.123047 14.0861 0.107422 14.2728C0.0566406 14.8582 0.254883 15.3331 0.724609 15.6711C1.41211 16.1672 1.78906 16.783 1.63672 17.6649C1.58301 17.9778 1.75879 18.1038 2.07617 18.0999C2.59277 18.0926 3.1084 18.0938 3.62402 18.095C3.99512 18.0958 4.36621 18.0967 4.7373 18.0944C5.19336 18.0944 5.29883 17.9598 5.10547 17.5467C4.73535 16.7642 4.61035 15.9465 4.65137 15.0819C4.67871 14.4883 4.67188 13.8931 4.66504 13.2974C4.66309 13.0577 4.66016 12.8179 4.65918 12.578C4.65918 11.7228 4.32031 11.3034 3.47852 11.1539C3.29004 11.1203 3.24414 11.0546 3.24414 10.8824C3.25195 10.3613 3.25391 9.83942 3.24414 9.3175C3.23926 9.08276 3.32227 9.06085 3.52344 9.12421C4.33887 9.37927 5.14258 9.30182 5.93848 9.02325C7.58203 8.44971 10.1328 6.63989 11.6768 5.62347C11.8369 5.51733 12.0059 5.42468 12.1826 5.3465C12.2285 5.32611 12.2744 5.30658 12.3203 5.28778C13.3105 4.87933 14.3047 4.74475 15.3057 5.24945C15.4619 5.3277 15.6143 5.34332 15.7188 5.1759C15.8223 5.01068 15.7168 4.89581 15.6074 4.77777L15.6035 4.77295ZM2.70996 11.8151C2.71387 11.6064 2.71289 11.3978 2.71094 11.1891L2.71094 11.1891C2.70996 11.0848 2.70996 10.9805 2.70996 10.8762L2.70996 0.900513C2.70508 0.733032 2.62598 0.621948 2.45117 0.618835C2.27734 0.615662 2.19043 0.729126 2.18555 0.892639C2.17578 1.17908 2.17969 3.63989 2.18359 3.92865L2.18359 3.97949Q2.17871 7.82843 2.18359 11.6782C2.18359 11.7072 2.18066 11.7378 2.17773 11.7687C2.16602 11.879 2.15332 11.9945 2.2832 12.0647C2.32617 12.091 2.37598 12.105 2.42676 12.1055C2.47754 12.1058 2.52734 12.0926 2.57129 12.067C2.61426 12.0414 2.65039 12.0045 2.6748 11.9601C2.69922 11.9158 2.71094 11.8657 2.70996 11.8151ZM2.28516 0.894348L2.2793 2.41058L2.28418 3.92865L2.28418 11.6782Q2.28418 11.7124 2.27637 11.7792Q2.2666 11.8743 2.27539 11.9095Q2.27734 11.9188 2.28125 11.9273Q2.29492 11.9572 2.33105 11.9768L2.33301 11.978L2.33496 11.9792Q2.35645 11.9921 2.37988 11.9987Q2.40234 12.0052 2.42773 12.0054Q2.45215 12.0057 2.47559 11.9995Q2.49902 11.9933 2.52051 11.9807Q2.54199 11.9681 2.55859 11.9509Q2.5752 11.9337 2.58691 11.9119Q2.59961 11.8901 2.60449 11.8667Q2.61035 11.8434 2.60938 11.8185L2.60938 11.8158L2.60938 11.8131Q2.61426 11.6058 2.61133 11.1898Q2.60938 10.9808 2.60938 10.8762L2.60938 0.901978Q2.60645 0.807922 2.56836 0.763184Q2.56738 0.76178 2.56641 0.760437Q2.5293 0.720215 2.44922 0.718811Q2.37988 0.717529 2.33984 0.751465Q2.28809 0.794556 2.28516 0.894348ZM11.6348 5.02954C11.5723 5.05676 11.5127 5.09198 11.459 5.1344C10.9736 5.43097 9.7373 6.18213 9.52148 6.32849C8.45117 7.04913 7.42285 7.83472 6.23438 8.36285C5.3877 8.73608 4.52051 8.88867 3.6084 8.61407C3.35254 8.53583 3.23828 8.41998 3.24121 8.12268C3.25195 6.90082 3.25098 5.67896 3.25098 4.45667C3.25098 3.82697 3.25098 3.19714 3.25195 2.56714C3.25195 2.54468 3.24902 2.52118 3.24707 2.49713C3.2373 2.40784 3.22656 2.31049 3.34277 2.22913C4.82129 3.61877 6.6123 3.87933 8.54492 3.63208C8.69727 3.61249 8.85059 3.59204 9.00391 3.57159C9.9082 3.45062 10.8135 3.32959 11.7363 3.39185C12.6104 3.43909 13.4502 3.74249 14.1514 4.26245C14.1943 4.29437 14.2373 4.32703 14.2793 4.36053C14.2256 4.36078 14.1729 4.36176 14.1201 4.36346C13.252 4.39148 12.4023 4.61914 11.6348 5.02954ZM11.5918 4.93945Q11.54 4.96204 11.4922 4.99066Q11.4453 5.01849 11.4023 5.05206Q11.3398 5.0899 11.1865 5.18353Q9.65625 6.11682 9.46484 6.24561Q9.24805 6.39185 8.81738 6.68964Q7.97363 7.27332 7.54004 7.54401Q6.81934 7.99359 6.19434 8.27148Q5.53223 8.56293 4.93457 8.63208Q4.55273 8.67615 4.18164 8.63208Q3.90723 8.59943 3.6377 8.51831Q3.46777 8.46655 3.40527 8.38837Q3.33887 8.30432 3.34082 8.12372L3.34473 7.61017L3.35156 2.56726Q3.35156 2.53925 3.3457 2.48621Q3.33789 2.41187 3.34473 2.38287Q3.3457 2.37665 3.34863 2.37067Q3.91211 2.88287 4.56836 3.21265Q5.12598 3.49323 5.75098 3.64172Q6.97754 3.93353 8.55762 3.73126Q8.71094 3.71167 9.0166 3.67072Q9.91895 3.55005 10.3711 3.5127Q11.1221 3.45062 11.7295 3.49164Q12.084 3.5108 12.4268 3.58569Q12.7422 3.65472 13.0479 3.771Q13.3662 3.89215 13.6582 4.05896Q13.8281 4.15619 13.9893 4.26898Q13.7832 4.28009 13.5791 4.30597Q13.2324 4.34991 12.8916 4.43622Q12.5498 4.52264 12.2236 4.64905Q11.9004 4.7746 11.5918 4.93945ZM3.33789 11.7087C3.54492 11.625 3.74316 11.7361 3.90332 11.8856C4.0791 12.0483 4.12402 12.2596 4.12402 12.4896L4.12402 14.3675C4.12402 14.5429 4.12305 14.7183 4.12207 14.8936C4.12012 15.356 4.11914 15.8183 4.12891 16.2806C4.13477 16.5154 4.06836 16.6046 3.82422 16.5936C3.54395 16.5843 3.26367 16.5861 2.9834 16.5879C2.79395 16.5892 2.60449 16.5904 2.41504 16.5881C2.39941 16.5881 2.38379 16.5886 2.36816 16.5891C2.26465 16.5923 2.1543 16.5956 2.1123 16.4731C1.91406 15.9082 1.40723 15.6187 1.00977 15.2314C0.757812 14.9849 0.619141 14.7298 0.639648 14.3754C0.649414 14.1841 0.647461 13.9928 0.645508 13.8015C0.643555 13.6798 0.642578 13.5581 0.643555 13.4364C0.652344 12.8754 0.899414 12.6234 1.4541 12.6171C1.53027 12.6161 1.60645 12.615 1.68262 12.6138C2.03613 12.6084 2.39062 12.603 2.74219 12.6171C3.1084 12.6351 3.27637 12.5045 3.25 12.1234C3.24902 12.0948 3.24414 12.0631 3.23926 12.0301C3.2207 11.9059 3.2002 11.7643 3.33789 11.7087ZM3.43555 11.7844Q3.61621 11.7543 3.83594 11.9587L3.83594 11.9588Q3.87891 11.9994 3.91211 12.0472Q3.95898 12.1133 3.98438 12.1933Q4.02441 12.315 4.02344 12.4893L4.02344 13.4286L4.02344 14.3676Q4.02344 14.5427 4.02246 14.8932Q4.01855 15.8192 4.0293 16.2828Q4.03223 16.4228 3.99707 16.4614Q3.96094 16.4997 3.82812 16.4937Q3.54492 16.4843 2.98242 16.4879Q2.60449 16.4904 2.41699 16.4882Q2.39844 16.4882 2.36426 16.4892Q2.27637 16.4919 2.24609 16.4827Q2.23828 16.4802 2.23145 16.4756Q2.21484 16.4642 2.20605 16.4402Q2.10254 16.1431 1.8623 15.8745Q1.7207 15.7171 1.40137 15.4456Q1.18164 15.2586 1.08008 15.1597Q0.894531 14.9781 0.813477 14.8021Q0.803711 14.7811 0.794922 14.7596Q0.727539 14.5859 0.739258 14.3811Q0.75 14.1862 0.745117 13.8003Q0.742188 13.5582 0.744141 13.4379Q0.75 13.0569 0.915039 12.889Q1.08105 12.7214 1.45508 12.7172Q1.53125 12.7162 1.68457 12.7138Q2.38867 12.703 2.7373 12.717Q3.06055 12.7329 3.21094 12.5934Q3.21875 12.5868 3.22461 12.5799Q3.37109 12.4301 3.35059 12.1166Q3.34863 12.085 3.33789 12.0155Q3.32129 11.9026 3.3291 11.8603Q3.33203 11.8379 3.34473 11.8228Q3.35645 11.8091 3.375 11.8015Q3.40527 11.7895 3.43555 11.7844ZM4.48047 17.4371C4.48633 17.6012 4.37402 17.5851 4.27246 17.5707C4.24023 17.5662 4.20996 17.5618 4.18457 17.5631C3.97949 17.5726 3.77344 17.5709 3.56738 17.5692L3.56738 17.5692C3.48633 17.5685 3.40527 17.5678 3.32422 17.5678L2.38477 17.5678C2.21777 17.5678 2.15625 17.4958 2.16016 17.3331C2.16113 17.2755 2.18457 17.2206 2.22559 17.1802C2.2666 17.1398 2.32227 17.1171 2.37988 17.1171L4.20898 17.1171C4.42285 17.1179 4.47461 17.2932 4.48047 17.4371ZM4.28613 17.4717Q4.21484 17.4615 4.17969 17.4632L4.17969 17.4633Q3.97754 17.4727 3.56836 17.4692Q3.40527 17.4678 3.32422 17.4678L2.38477 17.4678Q2.30469 17.4678 2.28125 17.4434Q2.25879 17.4184 2.26074 17.3354Q2.26074 17.3089 2.27051 17.2867Q2.2793 17.2673 2.2959 17.2514Q2.31348 17.2343 2.33398 17.2257Q2.35547 17.2171 2.37988 17.2171L4.20898 17.2171Q4.26465 17.2173 4.30176 17.2435Q4.375 17.2939 4.38086 17.4409Q4.38184 17.4666 4.37793 17.478Q4.35742 17.4818 4.28613 17.4717Z" fill="#333333" fill-opacity="1.000000" fill-rule="evenodd"/>
</svg>
