<svg width="43.750000" height="43.750000" viewBox="0 0 43.75 43.75" fill="none" xmlns="http://www.w3.org/2000/svg" xmlns:xlink="http://www.w3.org/1999/xlink">
	<desc>
			Created with Pixso.
	</desc>
	<defs/>
	<path id="Vector" d="M21.875 0C9.79492 0 0 9.79492 0 21.875C0 33.9551 9.79492 43.75 21.875 43.75C33.9551 43.75 43.75 33.9551 43.75 21.875C43.75 9.79492 33.9551 0 21.875 0ZM32.3877 16.4893C32.4023 16.7188 32.4023 16.958 32.4023 17.1924C32.4023 24.3604 26.9434 32.6172 16.9678 32.6172C13.8916 32.6172 11.04 31.7236 8.6377 30.1855C9.07715 30.2344 9.49707 30.2539 9.94629 30.2539C12.4854 30.2539 14.8193 29.3945 16.6797 27.9395C14.2969 27.8906 12.2949 26.3281 11.6113 24.1797C12.4463 24.3018 13.1982 24.3018 14.0576 24.082C12.8311 23.833 11.7275 23.1665 10.9365 22.1963C10.1455 21.2261 9.71387 20.0117 9.7168 18.7598L9.7168 18.6914C10.4346 19.0967 11.2793 19.3457 12.1631 19.3799C11.4199 18.8848 10.8105 18.2139 10.3896 17.4268C9.96777 16.6396 9.74707 15.7612 9.74609 14.8682C9.74609 13.8574 10.0098 12.9346 10.4834 12.1338C11.8457 13.8101 13.5449 15.1812 15.4707 16.1582C17.3975 17.1348 19.5078 17.6953 21.665 17.8027C20.8984 14.1162 23.6523 11.1328 26.9629 11.1328C28.5254 11.1328 29.9316 11.7871 30.9229 12.8418C32.1484 12.6123 33.3203 12.1533 34.3652 11.5381C33.96 12.793 33.1104 13.8525 31.9824 14.5215C33.0762 14.4043 34.1309 14.1016 35.1074 13.6768C34.3701 14.7607 33.4473 15.7227 32.3877 16.4893Z" fill="#FA8B02" fill-opacity="1.000000" fill-rule="nonzero"/>
</svg>
